<svg width="239" height="222" viewBox="0 0 239 222" fill="none" xmlns="http://www.w3.org/2000/svg">
<path d="M209 114.5C209 165.034 164.034 215 113.5 215C62.9659 215 22 174.034 22 123.5C22 72.9659 66.9657 23 117.5 23C168.034 23 209 63.9659 209 114.5Z" fill="url(#paint0_linear_2132_13454)" fill-opacity="0.7"/>
<path opacity="0.5" fill-rule="evenodd" clip-rule="evenodd" d="M192.5 129C194.985 129 197 126.985 197 124.5C197 122.015 194.985 120 192.5 120C190.015 120 188 122.015 188 124.5C188 126.985 190.015 129 192.5 129Z" fill="#DED9C4"/>
<ellipse cx="112.924" cy="124.645" rx="75.2612" ry="53.2177" transform="rotate(20 112.924 124.645)" fill="url(#paint1_linear_2132_13454)" fill-opacity="0.9"/>
<path opacity="0.5" fill-rule="evenodd" clip-rule="evenodd" d="M24.5 116C31.4036 116 37 110.404 37 103.5C37 96.5964 31.4036 91 24.5 91C17.5964 91 12 96.5964 12 103.5C12 110.404 17.5964 116 24.5 116ZM14.5 83C16.9853 83 19 80.9853 19 78.5C19 76.0147 16.9853 74 14.5 74C12.0147 74 10 76.0147 10 78.5C10 80.9853 12.0147 83 14.5 83Z" fill="#E9ECEF"/>
<path fill-rule="evenodd" clip-rule="evenodd" d="M33.5 87C38.7467 87 43 82.7467 43 77.5C43 72.2533 38.7467 68 33.5 68C28.2533 68 24 72.2533 24 77.5C24 82.7467 28.2533 87 33.5 87Z" fill="#FFEDEB"/>
<g filter="url(#filter0_d_2132_13454)">
<path fill-rule="evenodd" clip-rule="evenodd" d="M208.54 148.127C207.926 148.046 207.303 148 206.671 148C197.545 148 190.147 156.658 190.147 167.338C190.147 168.918 190.313 170.452 190.618 171.921C186.437 174.36 183.233 178.748 181.877 184.071C180.648 183.407 179.281 183.035 177.838 183.035C173.562 183.035 169.938 186.291 168.671 190.8C165.839 188.135 162.244 186.538 158.328 186.538C151.434 186.538 145.529 191.481 143.051 198.502C141.992 198.154 140.877 197.964 139.723 197.964C138.477 197.964 137.274 198.183 136.141 198.586C135.59 194.822 132.79 191.956 129.417 191.956C128.393 191.956 127.422 192.222 126.55 192.695C125.791 190.251 124.392 188.168 122.593 186.716V166.338C122.593 165.233 121.697 164.338 120.593 164.338H112.396C111.291 164.338 110.396 165.233 110.396 166.338V186.875C109.022 188.035 107.896 189.571 107.127 191.354C106.828 191.32 106.524 191.301 106.217 191.301C102.418 191.301 99.1569 193.995 97.7508 197.839C96.7426 197.151 95.5711 196.755 94.3201 196.755C93.1624 196.755 92.0727 197.094 91.1175 197.689C89.5449 193.062 85.6862 189.789 81.172 189.789C80.4202 189.789 79.6867 189.881 78.9785 190.054C76.3544 183.436 70.6297 178.845 63.9856 178.845C59.3834 178.845 55.2224 181.048 52.2262 184.601C50.2638 182.435 47.694 181.019 44.846 180.737C44.9218 179.91 44.9617 179.07 44.9617 178.219C44.9617 165.316 29.3453 151.759 24.9982 154.856C18.8934 159.204 23.1469 188.814 11.382 190.054C4.29242 190.801 5.80544 198.484 15.9211 213.103C18.0643 216.2 21.2881 218 24.694 218H198.766C204.879 218 210.594 214.453 214.023 208.531L220.033 198.154C225.33 189.006 225.322 177.001 220.011 167.864" fill="white"/>
</g>
<path fill-rule="evenodd" clip-rule="evenodd" d="M131.971 158.503C141.584 158.503 149.545 165.562 150.961 174.78C151.159 176.066 152.236 177.032 153.537 177.032H153.924C155.154 177.032 156.225 176.171 156.471 174.965C157.148 171.637 157.509 168.193 157.509 164.664C157.509 151.417 152.512 139.341 144.305 130.206C141.676 140.779 137.241 150.391 131.427 158.517C131.608 158.512 131.789 158.503 131.971 158.503Z" fill="#8BB8B1"/>
<mask id="mask0_2132_13454" style="mask-type:alpha" maskUnits="userSpaceOnUse" x="115" y="113" width="51" height="73">
<path d="M160.391 175.762L160.391 175.763C159.759 178.863 157.024 181.031 153.924 181.031H153.537C150.171 181.031 147.492 178.533 147.008 175.387L160.391 175.762ZM160.391 175.762C161.121 172.177 161.51 168.466 161.51 164.663C161.51 150.391 156.121 137.371 147.281 127.532L142.243 121.924M160.391 175.762L142.243 121.924M142.243 121.924L140.424 129.24M142.243 121.924L140.424 129.24M140.424 129.24C137.911 139.346 133.682 148.491 128.175 156.188L123.488 162.739M140.424 129.24L123.488 162.739M123.488 162.739L131.54 162.514M123.488 162.739L131.54 162.514M131.54 162.514C131.675 162.51 131.754 162.507 131.809 162.505C131.877 162.503 131.91 162.502 131.971 162.502C139.579 162.502 145.887 168.089 147.008 175.386L131.54 162.514Z" fill="#8BB8B1" stroke="white" stroke-width="8"/>
</mask>
<g mask="url(#mask0_2132_13454)">
<g filter="url(#filter1_f_2132_13454)">
<path d="M136.244 136.081C138.486 132.172 143.768 131.338 147.105 134.367V134.367C149.478 136.52 150.102 140.003 148.623 142.847L142.461 154.697C140.732 158.022 136.773 159.508 133.283 158.141V158.141C129.113 156.508 127.369 151.551 129.597 147.666L136.244 136.081Z" fill="#527A74" fill-opacity="0.45"/>
</g>
</g>
<path fill-rule="evenodd" clip-rule="evenodd" d="M98.5386 158.503C88.9248 158.503 80.964 165.562 79.5478 174.78C79.3503 176.066 78.2736 177.032 76.9726 177.032H76.5856C75.355 177.032 74.284 176.171 74.0386 174.965C73.3614 171.637 73 168.193 73 164.664C73 151.417 77.9975 139.341 86.2044 130.206C88.8329 140.779 93.2686 150.391 99.0817 158.517C98.9008 158.512 98.7209 158.503 98.5386 158.503Z" fill="#8BB8B1"/>
<mask id="mask1_2132_13454" style="mask-type:alpha" maskUnits="userSpaceOnUse" x="65" y="113" width="50" height="73">
<path d="M70.1189 175.762L70.1188 175.762C69.3896 172.177 69 168.466 69 164.663C69 150.391 74.3889 137.371 83.2289 127.532L88.2674 121.924L90.0863 129.24C92.5984 139.345 96.8281 148.491 102.335 156.188L107.021 162.739L98.9701 162.514C98.8344 162.51 98.756 162.507 98.7005 162.505C98.6329 162.503 98.5996 162.502 98.5386 162.502C90.9309 162.502 84.6227 168.089 83.5014 175.386L70.1189 175.762ZM70.1189 175.762C70.7502 178.864 73.4866 181.031 76.5856 181.031H76.9726C80.3389 181.031 83.0181 178.533 83.5014 175.387L70.1189 175.762Z" fill="#8BB8B1" stroke="white" stroke-width="8"/>
</mask>
<g mask="url(#mask1_2132_13454)">
<g filter="url(#filter2_f_2132_13454)">
<path d="M82.1704 143.123C80.3807 140.188 81.0002 136.386 83.6291 134.171V134.171C86.7999 131.499 91.5883 132.172 93.8994 135.615L101.328 146.679C103.77 150.316 102.456 155.271 98.5329 157.221V157.221C95.1615 158.897 91.0685 157.716 89.1085 154.501L82.1704 143.123Z" fill="#527A74" fill-opacity="0.45"/>
</g>
</g>
<path d="M121.762 43.4488L121.761 43.4487C118.033 40.2001 112.495 40.2 108.767 43.4488L108.767 43.4488C92.1985 57.8885 81.4973 81.3868 81.4973 107.83C81.4973 129.064 88.3994 148.377 99.6824 162.64C101.112 164.448 103.294 165.464 105.563 165.464H124.965C127.235 165.464 129.416 164.447 130.846 162.64C142.129 148.377 149.031 129.064 149.031 107.83C149.031 81.3868 138.33 57.8885 121.762 43.4488Z" fill="#8BB8B1" stroke="white" stroke-width="4"/>
<g filter="url(#filter3_i_2132_13454)">
<path fill-rule="evenodd" clip-rule="evenodd" d="M110.119 44.9241C103.073 51.0578 97.1017 58.9004 92.6086 67.9509H137.92C133.427 58.9004 127.455 51.0578 120.409 44.9241C117.463 42.3586 113.065 42.3586 110.119 44.9241Z" fill="#C3C3A5"/>
</g>
<path fill-rule="evenodd" clip-rule="evenodd" d="M124.964 163.464H105.561C103.886 163.464 102.289 162.714 101.25 161.4C101.24 161.387 101.23 161.375 101.22 161.362C101.217 161.358 101.213 161.353 101.21 161.349C101.203 161.34 101.197 161.333 101.191 161.325C101.187 161.32 101.182 161.314 101.178 161.309C101.172 161.302 101.166 161.294 101.16 161.286C101.156 161.28 101.152 161.276 101.148 161.271C101.142 161.263 101.136 161.255 101.13 161.248C101.126 161.243 101.122 161.237 101.118 161.232C101.112 161.225 101.106 161.216 101.099 161.209C101.092 161.2 101.085 161.191 101.078 161.182C101.073 161.175 101.066 161.166 101.061 161.159C101.055 161.153 101.05 161.146 101.045 161.139C101.04 161.134 101.036 161.128 101.031 161.122C101.026 161.115 101.02 161.108 101.014 161.101C101.01 161.095 101.006 161.09 101.003 161.085C100.996 161.077 100.991 161.071 100.985 161.063C100.982 161.059 100.978 161.053 100.974 161.049C100.968 161.041 100.962 161.033 100.956 161.025C100.954 161.023 100.951 161.019 100.949 161.016C100.925 160.986 100.902 160.956 100.878 160.925C100.876 160.924 100.875 160.921 100.873 160.919C100.866 160.91 100.858 160.9 100.851 160.891C100.849 160.888 100.847 160.886 100.845 160.884C100.837 160.873 100.83 160.863 100.822 160.854C100.821 160.853 100.82 160.851 100.819 160.85C100.227 160.087 99.6475 159.309 99.0814 158.517C99.0814 158.517 99.0814 158.517 99.0814 158.517C98.8335 158.17 98.5877 157.82 98.3445 157.468C90.7433 146.451 85.6218 132.821 84.0276 117.84C88.855 138.438 94.4471 150.642 114.384 150.642C134.32 150.642 143.071 134.725 146.994 110.298C146.816 117.207 145.892 123.885 144.317 130.219C144.314 130.215 144.31 130.211 144.306 130.206C144.111 130.991 143.906 131.77 143.691 132.545C141.011 142.198 136.81 150.995 131.428 158.517C131.428 158.517 131.428 158.517 131.429 158.517C131.428 158.517 131.428 158.517 131.428 158.517C131.434 158.517 131.439 158.517 131.445 158.517C130.742 159.5 130.019 160.461 129.276 161.4C128.236 162.714 126.64 163.464 124.964 163.464Z" fill="#DED9C4"/>
<path d="M130.273 118.699L132.865 116.078L141.357 125.115L138.764 127.736L130.273 118.699Z" fill="white"/>
<g filter="url(#filter4_d_2132_13454)">
<path d="M136.843 119.65C137.621 118.914 138.982 119.101 139.574 119.735L151.647 129.892C152.377 130.674 152.339 131.905 151.561 132.64L146.75 138.117C145.972 138.852 144.611 138.666 144.019 138.032L133.64 125.395C132.91 124.613 132.948 123.383 133.726 122.647L136.843 119.65Z" fill="white"/>
</g>
<g filter="url(#filter5_f_2132_13454)">
<path fill-rule="evenodd" clip-rule="evenodd" d="M140 105.5C140 118.479 129.479 129 116.5 129C103.521 129 93 118.479 93 105.5C93 92.5215 103.521 82 116.5 82C129.479 82 140 92.5215 140 105.5Z" fill="#527A74" fill-opacity="0.45"/>
</g>
<path fill-rule="evenodd" clip-rule="evenodd" d="M139 102.5C139 115.479 128.479 126 115.5 126C102.521 126 92 115.479 92 102.5C92 89.5212 102.521 79 115.5 79C128.479 79 139 89.5212 139 102.5Z" fill="white"/>
<path fill-rule="evenodd" clip-rule="evenodd" d="M135 102.5C135 113.27 126.269 122 115.5 122C104.73 122 96 113.27 96 102.5C96 91.7307 104.73 83 115.5 83C126.269 83 135 91.7307 135 102.5Z" fill="#FFACA0"/>
<path fill-rule="evenodd" clip-rule="evenodd" d="M110.561 95.4393C109.975 94.8536 109.025 94.8536 108.439 95.4393C107.854 96.0251 107.854 96.9749 108.439 97.5607L113.567 102.689L108.439 107.817C107.854 108.402 107.854 109.352 108.439 109.938C109.025 110.524 109.975 110.524 110.561 109.938L115.689 104.81L120.817 109.938C121.402 110.524 122.352 110.524 122.938 109.938C123.524 109.352 123.524 108.402 122.938 107.817L117.81 102.689L122.938 97.5607C123.524 96.9749 123.524 96.0251 122.938 95.4393C122.352 94.8536 121.402 94.8536 120.817 95.4393L115.689 100.567L110.561 95.4393Z" fill="white"/>
<path fill-rule="evenodd" clip-rule="evenodd" d="M116 186.5C115.448 186.5 115 185.873 115 185.716V171.284C115 171.127 115.448 170.5 116 170.5C116.553 170.5 117 171.127 117 171.284V185.716C117 185.873 116.553 186.5 116 186.5ZM110.5 187C110.224 187 110 186.871 110 186.713V173.287C110 173.128 110.224 173 110.5 173C110.776 173 111 173.128 111 173.287V186.713C111 186.871 110.776 187 110.5 187ZM120 186.716C120 186.873 120.224 187 120.5 187C120.776 187 121 186.873 121 186.716V176.284C121 176.127 120.776 176 120.5 176C120.224 176 120 176.127 120 176.284V186.716Z" fill="#9DBEA6"/>
<g filter="url(#filter6_d_2132_13454)">
<path d="M198.244 46.8668C202.334 46.8556 206.363 45.866 210 43.9781C208.278 51.0797 204.062 57.3094 198.132 61.5123C192.203 65.7149 184.964 67.6044 177.759 66.8301C170.554 66.056 163.871 62.6706 158.953 57.3028C154.034 51.9345 151.212 44.9475 151.012 37.6395C150.811 30.3313 153.244 23.1983 157.861 17.5636C162.478 11.9291 168.964 8.17549 176.116 7C172.859 12.3108 171.595 18.6238 172.555 24.7938C173.515 30.9638 176.633 36.5829 181.347 40.6321C186.059 44.6813 192.054 46.8939 198.244 46.8668ZM187.581 36.136C188.467 36.1397 189.317 35.7879 189.945 35.1576C190.573 34.5278 190.927 33.6714 190.928 32.7777C190.929 31.8844 190.578 31.027 189.952 30.3954C189.325 29.7637 188.476 29.4091 187.59 29.4105C186.705 29.4114 185.856 29.7684 185.231 30.4019C184.607 31.0355 184.258 31.8938 184.262 32.787C184.265 33.6742 184.616 34.524 185.238 35.1511C185.86 35.7786 186.702 36.1322 187.581 36.136ZM189.075 17.7302L192.242 16.0697L195.478 17.7302L194.87 14.158L197.428 11.6322L193.887 11.116L192.242 7.8787L190.651 11.116L187.18 11.6322L189.669 14.158L189.075 17.7302Z" fill="white"/>
</g>
<defs>
<filter id="filter0_d_2132_13454" x="0" y="130" width="239" height="92" filterUnits="userSpaceOnUse" color-interpolation-filters="sRGB">
<feFlood flood-opacity="0" result="BackgroundImageFix"/>
<feColorMatrix in="SourceAlpha" type="matrix" values="0 0 0 0 0 0 0 0 0 0 0 0 0 0 0 0 0 0 127 0" result="hardAlpha"/>
<feOffset dx="4" dy="-7"/>
<feGaussianBlur stdDeviation="5.5"/>
<feComposite in2="hardAlpha" operator="out"/>
<feColorMatrix type="matrix" values="0 0 0 0 0.831373 0 0 0 0 0.85098 0 0 0 0 0.862745 0 0 0 0.25 0"/>
<feBlend mode="normal" in2="BackgroundImageFix" result="effect1_dropShadow_2132_13454"/>
<feBlend mode="normal" in="SourceGraphic" in2="effect1_dropShadow_2132_13454" result="shape"/>
</filter>
<filter id="filter1_f_2132_13454" x="126.473" y="130.385" width="25.0966" height="30.4118" filterUnits="userSpaceOnUse" color-interpolation-filters="sRGB">
<feFlood flood-opacity="0" result="BackgroundImageFix"/>
<feBlend mode="normal" in="SourceGraphic" in2="BackgroundImageFix" result="shape"/>
<feGaussianBlur stdDeviation="1.075" result="effect1_foregroundBlur_2132_13454"/>
</filter>
<filter id="filter2_f_2132_13454" x="79.0019" y="130.381" width="25.7092" height="29.7492" filterUnits="userSpaceOnUse" color-interpolation-filters="sRGB">
<feFlood flood-opacity="0" result="BackgroundImageFix"/>
<feBlend mode="normal" in="SourceGraphic" in2="BackgroundImageFix" result="shape"/>
<feGaussianBlur stdDeviation="1.075" result="effect1_foregroundBlur_2132_13454"/>
</filter>
<filter id="filter3_i_2132_13454" x="92.6086" y="43" width="45.311" height="24.9512" filterUnits="userSpaceOnUse" color-interpolation-filters="sRGB">
<feFlood flood-opacity="0" result="BackgroundImageFix"/>
<feBlend mode="normal" in="SourceGraphic" in2="BackgroundImageFix" result="shape"/>
<feColorMatrix in="SourceAlpha" type="matrix" values="0 0 0 0 0 0 0 0 0 0 0 0 0 0 0 0 0 0 127 0" result="hardAlpha"/>
<feOffset dx="2" dy="2"/>
<feComposite in2="hardAlpha" operator="arithmetic" k2="-1" k3="1"/>
<feColorMatrix type="matrix" values="0 0 0 0 0.870588 0 0 0 0 0.85098 0 0 0 0 0.768627 0 0 0 0.566073 0"/>
<feBlend mode="normal" in2="shape" result="effect1_innerShadow_2132_13454"/>
</filter>
<filter id="filter4_d_2132_13454" x="126.116" y="116.174" width="33.0544" height="33.4189" filterUnits="userSpaceOnUse" color-interpolation-filters="sRGB">
<feFlood flood-opacity="0" result="BackgroundImageFix"/>
<feColorMatrix in="SourceAlpha" type="matrix" values="0 0 0 0 0 0 0 0 0 0 0 0 0 0 0 0 0 0 127 0" result="hardAlpha"/>
<feOffset dy="4"/>
<feGaussianBlur stdDeviation="3.5"/>
<feComposite in2="hardAlpha" operator="out"/>
<feColorMatrix type="matrix" values="0 0 0 0 0.417604 0 0 0 0 0.475 0 0 0 0 0.465656 0 0 0 0.3 0"/>
<feBlend mode="normal" in2="BackgroundImageFix" result="effect1_dropShadow_2132_13454"/>
<feBlend mode="normal" in="SourceGraphic" in2="effect1_dropShadow_2132_13454" result="shape"/>
</filter>
<filter id="filter5_f_2132_13454" x="87.85" y="76.85" width="57.3" height="57.3" filterUnits="userSpaceOnUse" color-interpolation-filters="sRGB">
<feFlood flood-opacity="0" result="BackgroundImageFix"/>
<feBlend mode="normal" in="SourceGraphic" in2="BackgroundImageFix" result="shape"/>
<feGaussianBlur stdDeviation="2.575" result="effect1_foregroundBlur_2132_13454"/>
</filter>
<filter id="filter6_d_2132_13454" x="140" y="0" width="81" height="82" filterUnits="userSpaceOnUse" color-interpolation-filters="sRGB">
<feFlood flood-opacity="0" result="BackgroundImageFix"/>
<feColorMatrix in="SourceAlpha" type="matrix" values="0 0 0 0 0 0 0 0 0 0 0 0 0 0 0 0 0 0 127 0" result="hardAlpha"/>
<feOffset dy="4"/>
<feGaussianBlur stdDeviation="5.5"/>
<feComposite in2="hardAlpha" operator="out"/>
<feColorMatrix type="matrix" values="0 0 0 0 0.831373 0 0 0 0 0.85098 0 0 0 0 0.862745 0 0 0 0.45 0"/>
<feBlend mode="normal" in2="BackgroundImageFix" result="effect1_dropShadow_2132_13454"/>
<feBlend mode="normal" in="SourceGraphic" in2="effect1_dropShadow_2132_13454" result="shape"/>
</filter>
<linearGradient id="paint0_linear_2132_13454" x1="66.6044" y1="6.91272" x2="9.91247" y2="165.395" gradientUnits="userSpaceOnUse">
<stop stop-color="#EEF3F0" stop-opacity="0.0789496"/>
<stop offset="1" stop-color="#D9E4DD"/>
</linearGradient>
<linearGradient id="paint1_linear_2132_13454" x1="71.0611" y1="62.0704" x2="46.3438" y2="159.789" gradientUnits="userSpaceOnUse">
<stop stop-color="#EEF3F0" stop-opacity="0.0789496"/>
<stop offset="1" stop-color="#D9E4DD"/>
</linearGradient>
</defs>
</svg>
