<svg width="221" height="215" viewBox="0 0 221 215" fill="none" xmlns="http://www.w3.org/2000/svg">
<path d="M215.993 107.5C215.993 166.871 167.863 215 108.493 215C49.1221 215 0.992676 166.871 0.992676 107.5C0.992676 48.1294 49.1221 0 108.493 0C167.863 0 215.993 48.1294 215.993 107.5Z" fill="url(#paint0_linear_2128_13176)" fill-opacity="0.7"/>
<path opacity="0.5" fill-rule="evenodd" clip-rule="evenodd" d="M208.677 104.458C215.328 99.8168 216.958 90.6622 212.317 84.0106C207.676 77.359 198.521 75.7291 191.87 80.3702C185.218 85.0113 183.588 94.1659 188.229 100.818C192.871 107.469 202.025 109.099 208.677 104.458ZM176.857 79.385C179.251 77.7142 179.838 74.4185 178.167 72.0239C176.496 69.6293 173.201 69.0426 170.806 70.7134C168.411 72.3842 167.825 75.6798 169.495 78.0744C171.166 80.469 174.462 81.0558 176.857 79.385Z" fill="#E9ECEF"/>
<path opacity="0.5" fill-rule="evenodd" clip-rule="evenodd" d="M18.3015 106.716C21.2214 106.716 23.5884 104.349 23.5884 101.429C23.5884 98.5091 21.2214 96.1421 18.3015 96.1421C15.3817 96.1421 13.0146 98.5091 13.0146 101.429C13.0146 104.349 15.3817 106.716 18.3015 106.716Z" fill="#DED9C4"/>
<path fill-rule="evenodd" clip-rule="evenodd" d="M199.779 69.121C204.835 65.5938 206.073 58.6363 202.546 53.5811C199.019 48.5258 192.061 47.2872 187.006 50.8144C181.951 54.3417 180.712 61.2991 184.239 66.3544C187.767 71.4096 194.724 72.6483 199.779 69.121Z" fill="#FFEDEB"/>
<path d="M185.031 155.534C173.221 187.982 126.446 200.747 80.5573 184.045C34.6684 167.343 7.0422 127.498 18.8524 95.0501C30.6627 62.6017 77.437 49.837 123.326 66.5392C169.215 83.2413 196.841 123.086 185.031 155.534Z" fill="url(#paint1_linear_2128_13176)" fill-opacity="0.9"/>
<g filter="url(#filter0_d_2128_13176)">
<path d="M161.625 119.777C157.964 116.485 153.446 114.296 148.593 113.465C148.593 113.821 148.501 114.031 148.474 114.229C148.035 120.589 146.238 126.781 143.204 132.388C135.06 147.146 122.714 155.211 105.597 155.421H100.181C98.7052 155.421 98.047 156.555 98.798 157.78C102.962 164.579 108.787 169.231 116.758 170.614C120.207 171.037 123.681 171.209 127.154 171.128C127.964 171.078 128.752 171.405 129.289 172.011C131.609 174.488 133.981 176.913 136.326 179.364C138.131 181.248 139.923 183.172 141.781 185.029C142.567 185.931 143.678 186.485 144.871 186.569C146.064 186.653 147.242 186.261 148.146 185.478C149.251 184.473 149.83 183.015 149.714 181.526V172.144C149.714 171.023 150.018 170.628 151.124 170.207C153.856 169.336 156.475 168.14 158.924 166.648C174.447 155.975 175.805 132.373 161.626 119.777L161.625 119.777Z" fill="white"/>
</g>
<mask id="path-7-outside-1_2128_13176" maskUnits="userSpaceOnUse" x="37" y="68.942" width="111" height="107" fill="black">
<rect fill="white" x="37" y="68.942" width="111" height="107"/>
<path fill-rule="evenodd" clip-rule="evenodd" d="M120.881 75.6056C120.412 77.161 120.16 78.8103 120.16 80.5185V98.3497C120.16 107.739 127.771 115.35 137.16 115.35H143.354C143.318 115.738 143.276 116.127 143.228 116.515C142.117 125.526 138.022 133.905 131.593 140.318L131.592 140.318C125.039 146.751 116.172 150.276 106.991 150.095H99.3873C98.538 150.04 97.7108 150.38 97.1473 151.018C94.4994 153.807 91.84 156.587 89.1836 159.364L89.1818 159.366C86.1153 162.571 83.0529 165.773 80.0168 168.978C78.9451 170.242 77.3779 170.978 75.7206 170.994C74.3373 170.991 73.0127 170.43 72.0487 169.438C71.0835 168.446 70.5596 167.107 70.5955 165.723V150.793C70.5955 149.844 70.3316 149.475 69.3702 149.291C55.3236 145.68 46.7578 136.522 42.5947 122.937C41.9284 120.369 41.3961 117.771 41 115.149V107.928C41.2537 105.629 41.6949 103.355 42.3181 101.128C45.7566 88.6369 53.1624 79.584 65.4967 74.88C69.0418 73.5656 72.7975 72.9093 76.5782 72.9433H106.373C111.725 72.9177 116.556 73.8213 120.881 75.6056ZM91.9095 102.156C94.7721 102.156 97.0926 99.8358 97.0926 96.9732C97.0926 94.1106 94.7721 91.7901 91.9095 91.7901C89.047 91.7901 86.7264 94.1106 86.7264 96.9732C86.7264 99.8358 89.047 102.156 91.9095 102.156ZM91.9094 104.983C89.6732 104.983 87.8142 106.705 87.6437 108.935L86.251 127.147C85.999 130.442 88.6047 133.255 91.9094 133.255C95.2142 133.255 97.8199 130.442 97.5679 127.147L96.1752 108.935C96.0047 106.705 94.1457 104.983 91.9094 104.983Z"/>
</mask>
<path fill-rule="evenodd" clip-rule="evenodd" d="M120.881 75.6056C120.412 77.161 120.16 78.8103 120.16 80.5185V98.3497C120.16 107.739 127.771 115.35 137.16 115.35H143.354C143.318 115.738 143.276 116.127 143.228 116.515C142.117 125.526 138.022 133.905 131.593 140.318L131.592 140.318C125.039 146.751 116.172 150.276 106.991 150.095H99.3873C98.538 150.04 97.7108 150.38 97.1473 151.018C94.4994 153.807 91.84 156.587 89.1836 159.364L89.1818 159.366C86.1153 162.571 83.0529 165.773 80.0168 168.978C78.9451 170.242 77.3779 170.978 75.7206 170.994C74.3373 170.991 73.0127 170.43 72.0487 169.438C71.0835 168.446 70.5596 167.107 70.5955 165.723V150.793C70.5955 149.844 70.3316 149.475 69.3702 149.291C55.3236 145.68 46.7578 136.522 42.5947 122.937C41.9284 120.369 41.3961 117.771 41 115.149V107.928C41.2537 105.629 41.6949 103.355 42.3181 101.128C45.7566 88.6369 53.1624 79.584 65.4967 74.88C69.0418 73.5656 72.7975 72.9093 76.5782 72.9433H106.373C111.725 72.9177 116.556 73.8213 120.881 75.6056ZM91.9095 102.156C94.7721 102.156 97.0926 99.8358 97.0926 96.9732C97.0926 94.1106 94.7721 91.7901 91.9095 91.7901C89.047 91.7901 86.7264 94.1106 86.7264 96.9732C86.7264 99.8358 89.047 102.156 91.9095 102.156ZM91.9094 104.983C89.6732 104.983 87.8142 106.705 87.6437 108.935L86.251 127.147C85.999 130.442 88.6047 133.255 91.9094 133.255C95.2142 133.255 97.8199 130.442 97.5679 127.147L96.1752 108.935C96.0047 106.705 94.1457 104.983 91.9094 104.983Z" fill="#8BB8B1"/>
<path d="M120.881 75.6056L124.711 76.7598L125.756 73.2901L122.406 71.9079L120.881 75.6056ZM143.354 115.35L147.337 115.725L147.749 111.35H143.354V115.35ZM143.228 116.515L139.258 116.025L139.258 116.025L143.228 116.515ZM131.593 140.318L130.373 144.128L132.693 144.871L134.418 143.15L131.593 140.318ZM131.592 140.318L132.812 136.508L130.512 135.772L128.79 137.464L131.592 140.318ZM106.991 150.095L107.069 146.096L107.03 146.095H106.991V150.095ZM99.3873 150.095L99.1281 154.087L99.2576 154.095H99.3873V150.095ZM97.1473 151.018L100.048 153.772L100.098 153.72L100.145 153.666L97.1473 151.018ZM89.1836 159.364L86.2931 156.599L86.2926 156.599L89.1836 159.364ZM89.1818 159.366L92.0723 162.131L92.0728 162.13L89.1818 159.366ZM80.0168 168.978L77.1127 166.228L77.0371 166.307L76.9661 166.391L80.0168 168.978ZM75.7206 170.994L75.7126 174.994L75.7366 174.994L75.7605 174.994L75.7206 170.994ZM72.0487 169.438L74.9169 166.65L74.9153 166.648L72.0487 169.438ZM70.5955 165.723L74.5941 165.826L74.5955 165.774V165.723H70.5955ZM69.3702 149.291L68.3744 153.165L68.4959 153.196L68.619 153.22L69.3702 149.291ZM42.5947 122.937L38.7231 123.942L38.7449 124.026L38.7703 124.108L42.5947 122.937ZM41 115.149H37V115.45L37.0449 115.747L41 115.149ZM41 107.928L37.0241 107.489L37 107.708V107.928H41ZM42.3181 101.128L46.1701 102.206L46.1724 102.198L46.1746 102.19L42.3181 101.128ZM65.4967 74.88L64.1061 71.1294L64.0887 71.1359L64.0713 71.1425L65.4967 74.88ZM76.5782 72.9433L76.5422 76.9431L76.5602 76.9433H76.5782V72.9433ZM106.373 72.9433V76.9433H106.382L106.392 76.9432L106.373 72.9433ZM87.6437 108.935L91.632 109.24L91.632 109.24L87.6437 108.935ZM86.251 127.147L82.2626 126.842L82.2626 126.842L86.251 127.147ZM97.5679 127.147L101.556 126.842L101.556 126.842L97.5679 127.147ZM96.1752 108.935L100.164 108.63V108.63L96.1752 108.935ZM124.16 80.5185C124.16 79.2055 124.354 77.9449 124.711 76.7598L117.051 74.4514C116.471 76.377 116.16 78.4151 116.16 80.5185H124.16ZM124.16 98.3497V80.5185H116.16V98.3497H124.16ZM137.16 111.35C129.98 111.35 124.16 105.529 124.16 98.3497H116.16C116.16 109.948 125.562 119.35 137.16 119.35V111.35ZM143.354 111.35H137.16V119.35H143.354V111.35ZM147.198 117.004C147.25 116.578 147.297 116.151 147.337 115.725L139.372 114.975C139.339 115.325 139.301 115.675 139.258 116.025L147.198 117.004ZM134.418 143.15C141.479 136.106 145.978 126.902 147.198 117.004L139.258 116.025C138.257 124.15 134.564 131.704 128.768 137.486L134.418 143.15ZM130.372 144.127L130.373 144.128L132.813 136.509L132.812 136.508L130.372 144.127ZM106.912 154.094C117.169 154.296 127.074 150.359 134.394 143.172L128.79 137.464C123.004 143.144 115.175 146.256 107.069 146.096L106.912 154.094ZM99.3873 154.095H106.991V146.095H99.3873V154.095ZM100.145 153.666C99.8869 153.959 99.5102 154.111 99.1281 154.087L99.6465 146.103C97.5659 145.968 95.5347 146.801 94.1493 148.37L100.145 153.666ZM92.0741 162.129C94.7296 159.353 97.3942 156.567 100.048 153.772L94.2466 148.264C91.6046 151.046 88.9503 153.821 86.2931 156.599L92.0741 162.129ZM92.0728 162.13L92.0745 162.128L86.2926 156.599L86.2909 156.601L92.0728 162.13ZM82.921 171.729C85.9491 168.532 89.0047 165.338 92.0723 162.131L86.2913 156.601C83.226 159.805 80.1567 163.014 77.1127 166.228L82.921 171.729ZM75.7605 174.994C78.5787 174.966 81.2448 173.715 83.0676 171.565L76.9661 166.391C76.6454 166.769 76.177 166.989 75.6807 166.994L75.7605 174.994ZM69.1804 172.226C70.8952 173.99 73.2509 174.989 75.7126 174.994L75.7286 166.994C75.4236 166.993 75.1302 166.869 74.9169 166.65L69.1804 172.226ZM66.5968 165.619C66.5331 168.08 67.4648 170.463 69.182 172.228L74.9153 166.648C74.7023 166.429 74.5862 166.133 74.5941 165.826L66.5968 165.619ZM66.5955 150.793V165.723H74.5955V150.793H66.5955ZM68.619 153.22C68.8196 153.258 67.9379 153.156 67.2133 152.245C66.5169 151.37 66.5955 150.524 66.5955 150.793H74.5955C74.5955 150.113 74.5421 148.608 73.4735 147.264C72.3766 145.886 70.8822 145.507 70.1214 145.362L68.619 153.22ZM38.7703 124.108C43.2951 138.874 52.8324 149.17 68.3744 153.165L70.366 145.417C57.8149 142.191 50.2205 134.169 46.4192 121.765L38.7703 124.108ZM37.0449 115.747C37.4618 118.506 38.0219 121.24 38.7231 123.942L46.4664 121.932C45.8348 119.498 45.3305 117.036 44.9551 114.552L37.0449 115.747ZM37 107.928V115.149H45V107.928H37ZM38.4661 100.05C37.7845 102.486 37.3017 104.974 37.0241 107.489L44.9759 108.367C45.2056 106.285 45.6053 104.225 46.1701 102.206L38.4661 100.05ZM64.0713 71.1425C50.418 76.3496 42.1998 86.4863 38.4615 100.067L46.1746 102.19C49.3134 90.7874 55.9068 82.8183 66.922 78.6174L64.0713 71.1425ZM76.6141 68.9434C72.3468 68.9051 68.1077 69.6458 64.1061 71.1294L66.8872 78.6305C69.9759 77.4853 73.2482 76.9135 76.5422 76.9431L76.6141 68.9434ZM106.373 68.9433H76.5782V76.9433H106.373V68.9433ZM122.406 71.9079C117.539 69.8996 112.174 68.9155 106.354 68.9433L106.392 76.9432C111.275 76.9199 115.574 77.7431 119.355 79.3032L122.406 71.9079ZM93.0926 96.9732C93.0926 97.6266 92.5629 98.1563 91.9095 98.1563V106.156C96.9812 106.156 101.093 102.045 101.093 96.9732H93.0926ZM91.9095 95.7901C92.5629 95.7901 93.0926 96.3198 93.0926 96.9732H101.093C101.093 91.9015 96.9812 87.7901 91.9095 87.7901V95.7901ZM90.7264 96.9732C90.7264 96.3198 91.2561 95.7901 91.9095 95.7901V87.7901C86.8378 87.7901 82.7264 91.9015 82.7264 96.9732H90.7264ZM91.9095 98.1563C91.2561 98.1563 90.7264 97.6266 90.7264 96.9732H82.7264C82.7264 102.045 86.8378 106.156 91.9095 106.156V98.1563ZM91.632 109.24C91.6431 109.095 91.764 108.983 91.9094 108.983V100.983C87.5823 100.983 83.9852 104.316 83.6553 108.63L91.632 109.24ZM90.2393 127.452L91.632 109.24L83.6553 108.63L82.2626 126.842L90.2393 127.452ZM91.9094 129.255C90.9341 129.255 90.165 128.424 90.2393 127.452L82.2626 126.842C81.8331 132.46 86.2754 137.255 91.9094 137.255V129.255ZM93.5795 127.452C93.6539 128.424 92.8848 129.255 91.9094 129.255V137.255C97.5435 137.255 101.986 132.46 101.556 126.842L93.5795 127.452ZM92.1869 109.24L93.5795 127.452L101.556 126.842L100.164 108.63L92.1869 109.24ZM91.9094 108.983C92.0549 108.983 92.1758 109.095 92.1869 109.24L100.164 108.63C99.8336 104.316 96.2366 100.983 91.9094 100.983V108.983Z" fill="white" mask="url(#path-7-outside-1_2128_13176)"/>
<path d="M177.071 72.0582V72H177.008L177.071 72.0582Z" fill="black"/>
<path d="M129.647 72.0005H129.584V72.0587L129.647 72.0005Z" fill="black"/>
<path d="M157.362 96.343C156.323 97.4578 154.852 98.1022 153.326 98.1022C151.799 98.1022 150.328 97.462 149.29 96.343L132.521 78.3245C131.47 77.197 129.583 77.9389 129.583 79.4776V102.524C129.583 104.398 131.101 105.916 132.975 105.916H173.676C175.549 105.916 177.067 104.398 177.067 102.524V79.4776C177.067 77.9389 175.181 77.197 174.129 78.3245L157.362 96.343Z" fill="#DED9C4"/>
<path d="M153.326 93.8638C153.533 93.8638 153.932 93.8127 154.258 93.4569L171.5 74.926C172.535 73.815 171.746 72.0051 170.228 72.0051H136.421C134.903 72.0051 134.115 73.8155 135.149 74.926L152.392 93.4569C152.722 93.8089 153.116 93.8638 153.324 93.8638H153.326Z" fill="#C3C3A5"/>
<defs>
<filter id="filter0_d_2128_13176" x="87.4856" y="106.465" width="94.9795" height="95.1149" filterUnits="userSpaceOnUse" color-interpolation-filters="sRGB">
<feFlood flood-opacity="0" result="BackgroundImageFix"/>
<feColorMatrix in="SourceAlpha" type="matrix" values="0 0 0 0 0 0 0 0 0 0 0 0 0 0 0 0 0 0 127 0" result="hardAlpha"/>
<feOffset dy="4"/>
<feGaussianBlur stdDeviation="5.5"/>
<feComposite in2="hardAlpha" operator="out"/>
<feColorMatrix type="matrix" values="0 0 0 0 0.831373 0 0 0 0 0.85098 0 0 0 0 0.862745 0 0 0 0.45 0"/>
<feBlend mode="normal" in2="BackgroundImageFix" result="effect1_dropShadow_2128_13176"/>
<feBlend mode="normal" in="SourceGraphic" in2="effect1_dropShadow_2128_13176" result="shape"/>
</filter>
<linearGradient id="paint0_linear_2128_13176" x1="50.6616" y1="0.271818" x2="-10.4841" y2="171.205" gradientUnits="userSpaceOnUse">
<stop stop-color="#EEF3F0" stop-opacity="0.0789496"/>
<stop offset="1" stop-color="#D9E4DD"/>
</linearGradient>
<linearGradient id="paint1_linear_2128_13176" x1="55.9177" y1="61.5068" x2="25.6025" y2="171.541" gradientUnits="userSpaceOnUse">
<stop stop-color="#EEF3F0" stop-opacity="0.0789496"/>
<stop offset="1" stop-color="#D9E4DD"/>
</linearGradient>
</defs>
</svg>
