<svg width="206" height="214" viewBox="0 0 206 214" fill="none" xmlns="http://www.w3.org/2000/svg">
<path d="M206 100.352C206 155.775 161.228 196 106 196C50.7715 196 6 155.775 6 100.352C6 44.9291 50.7715 0 106 0C161.228 0 206 44.9291 206 100.352Z" fill="url(#paint0_linear_2131_13279)" fill-opacity="0.7"/>
<path opacity="0.5" fill-rule="evenodd" clip-rule="evenodd" d="M178.358 60.1739C187.098 60.1739 194.183 53.0885 194.183 44.3483C194.183 35.6081 187.098 28.5228 178.358 28.5228C169.617 28.5228 162.532 35.6081 162.532 44.3483C162.532 53.0885 169.617 60.1739 178.358 60.1739ZM165.697 18.3944C168.844 18.3944 171.394 15.8437 171.394 12.6972C171.394 9.55072 168.844 7 165.697 7C162.551 7 160 9.55072 160 12.6972C160 15.8437 162.551 18.3944 165.697 18.3944Z" fill="#E9ECEF"/>
<path opacity="0.5" fill-rule="evenodd" clip-rule="evenodd" d="M36.2238 53.8241C39.3703 53.8241 41.921 51.2734 41.921 48.1269C41.921 44.9804 39.3703 42.4297 36.2238 42.4297C33.0773 42.4297 30.5266 44.9804 30.5266 48.1269C30.5266 51.2734 33.0773 53.8241 36.2238 53.8241Z" fill="#DED9C4"/>
<path fill-rule="evenodd" clip-rule="evenodd" d="M12.0274 73.7131C18.67 73.7131 24.0549 68.3282 24.0549 61.6856C24.0549 55.0431 18.67 49.6582 12.0274 49.6582C5.38486 49.6582 0 55.0431 0 61.6856C0 68.3282 5.38486 73.7131 12.0274 73.7131Z" fill="#FFEDEB"/>
<path d="M177.208 145.101C166.19 175.374 122.552 187.282 79.7404 171.7C36.9286 156.118 11.1548 118.945 22.1731 88.6729C33.1914 58.4004 76.8293 46.4916 119.641 62.0738C162.453 77.656 188.227 114.829 177.208 145.101Z" fill="url(#paint1_linear_2131_13279)" fill-opacity="0.9"/>
<g filter="url(#filter0_d_2131_13279)">
<path fill-rule="evenodd" clip-rule="evenodd" d="M45.9574 178.212V44.8766C45.9574 40.4583 49.5391 36.8766 53.9574 36.8766H147.832C152.25 36.8766 155.832 40.4583 155.832 44.8766V178.454C140.053 189.05 121.254 195.2 101.074 195.2C80.7408 195.2 61.8099 188.956 45.9574 178.212Z" fill="white"/>
</g>
<mask id="mask0_2131_13279" style="mask-type:alpha" maskUnits="userSpaceOnUse" x="45" y="36" width="160" height="160">
<path fill-rule="evenodd" clip-rule="evenodd" d="M45.7318 178.716V36.8765H156.145V178.894C140.302 189.207 121.388 195.199 101.074 195.199C80.6444 195.199 61.6302 189.138 45.7318 178.716Z" fill="#DCE9E7"/>
</mask>
<g mask="url(#mask0_2131_13279)">
<g opacity="0.6">
<rect x="51.4652" y="84.7971" width="98.862" height="36.201" rx="8" fill="#8BB8B1"/>
<rect x="57.0674" y="90.569" width="87.4525" height="25.51" rx="6.5" fill="#C3C3A5" stroke="white" stroke-width="3"/>
<rect x="87.4233" y="101.319" width="26.1253" height="4.38388" rx="2.19194" stroke="#486661" stroke-opacity="0.3" stroke-width="3"/>
<rect x="91.077" y="105.666" width="3.48683" height="1.43575" rx="0.717877" transform="rotate(-80 91.077 105.666)" fill="#486661"/>
<rect width="3.48683" height="1.43575" rx="0.717877" transform="matrix(-0.173648 -0.984808 -0.984808 0.173648 109.899 105.772)" fill="#486661"/>
<g filter="url(#filter1_d_2131_13279)">
<rect x="88.3848" y="104.536" width="24.6129" height="3.48683" rx="1.74342" fill="#486661"/>
</g>
</g>
<g opacity="0.6">
<rect x="51.1619" y="42.3066" width="99.5527" height="36.201" rx="8" fill="#8BB8B1"/>
<rect x="57.0671" y="47.4268" width="87.4525" height="25.51" rx="6.5" fill="#C3C3A5" stroke="white" stroke-width="3"/>
<rect x="87.4231" y="57.2393" width="26.1253" height="4.38388" rx="2.19194" stroke="#486661" stroke-opacity="0.3" stroke-width="3"/>
<rect x="91.0769" y="61.5865" width="3.48683" height="1.43575" rx="0.717877" transform="rotate(-80 91.0769 61.5865)" fill="#486661"/>
<rect width="3.48683" height="1.43575" rx="0.717877" transform="matrix(-0.173648 -0.984808 -0.984808 0.173648 109.899 61.6926)" fill="#486661"/>
<g filter="url(#filter2_d_2131_13279)">
<rect x="88.3843" y="60.4567" width="24.6129" height="3.48683" rx="1.74342" fill="#486661"/>
</g>
</g>
</g>
<rect x="51.4648" y="126.336" width="98.862" height="41.9968" rx="7" fill="#486661"/>
<path d="M51.5 135L39.5 161.499L39.6219 166.152C39.7661 171.655 47.398 172.92 49.3092 167.757L53.2905 157.004L51.5 135Z" fill="#66938C"/>
<path d="M51.5 135L150.31 135.353V157.004L51.5 156.651V135Z" fill="#56837C"/>
<path d="M150 156.657V135L162.5 160L162.941 162.314C162.965 162.438 162.977 162.563 162.977 162.689V191.832L150 156.657Z" fill="#66938C"/>
<path d="M111.798 153.136C124.232 151.002 136.762 145.418 137.492 135.659C138.223 125.901 129.667 122.175 125.493 123.008C121.928 123.72 117.641 126.422 118.581 132.399C119.52 138.376 126.928 139.325 133.971 136.964C139.796 134.575 160.57 120.894 166.1 115.161" stroke="#C3C3A5" stroke-width="2" stroke-linecap="round" stroke-dasharray="5 5"/>
<path d="M39.3834 163.083C39.4289 158.702 42.99 155.173 47.3714 155.167L154.988 155.011C159.411 155.005 163 158.589 163 163.011V192C163 196.418 159.418 200 155 200H47.0835C42.6327 200 39.0377 196.368 39.0839 191.917L39.3834 163.083Z" fill="#8BB8B1"/>
<path d="M47 167C47 164.238 49.2386 162 52 162H151C153.761 162 156 164.238 156 167V188C156 190.761 153.761 193 151 193H52C49.2386 193 47 190.761 47 188V167Z" fill="#C3C3A5"/>
<rect x="45.5" y="160.5" width="111" height="34" rx="6.5" stroke="white" stroke-width="3"/>
<rect x="84.7883" y="173.329" width="34.0406" height="6.39058" rx="3.19529" stroke="#486661" stroke-opacity="0.3" stroke-width="3"/>
<rect x="89.8427" y="179.265" width="4.43444" height="1.82595" rx="0.912973" transform="rotate(-80 89.8427 179.265)" fill="#486661"/>
<rect width="4.43444" height="1.82595" rx="0.912973" transform="matrix(-0.173648 -0.984808 -0.984808 0.173648 113.779 179.4)" fill="#486661"/>
<g filter="url(#filter3_d_2131_13279)">
<rect x="86.4185" y="177.829" width="31.3019" height="4.43444" rx="2.21722" fill="#486661"/>
</g>
<mask id="path-32-outside-1_2131_13279" maskUnits="userSpaceOnUse" x="161.499" y="99.1654" width="19.8795" height="19.8795" fill="black">
<rect fill="white" x="161.499" y="99.1654" width="19.8795" height="19.8795"/>
<path fill-rule="evenodd" clip-rule="evenodd" d="M176.05 108.85C176.462 109.635 176.624 110.794 176.427 112.039C176.091 114.16 174.838 115.723 173.63 115.532C172.606 115.369 171.942 114 171.967 112.297C171.123 112.533 170.374 112.453 169.904 111.998C169.441 111.55 169.333 110.816 169.532 109.977C168.003 109.977 166.78 109.362 166.594 108.395C166.364 107.193 167.823 105.903 169.855 105.514C170.996 105.294 172.076 105.406 172.843 105.76C174.184 104.952 175.518 104.792 176.222 105.474C176.924 106.154 176.809 107.487 176.05 108.85Z"/>
</mask>
<path fill-rule="evenodd" clip-rule="evenodd" d="M176.05 108.85C176.462 109.635 176.624 110.794 176.427 112.039C176.091 114.16 174.838 115.723 173.63 115.532C172.606 115.369 171.942 114 171.967 112.297C171.123 112.533 170.374 112.453 169.904 111.998C169.441 111.55 169.333 110.816 169.532 109.977C168.003 109.977 166.78 109.362 166.594 108.395C166.364 107.193 167.823 105.903 169.855 105.514C170.996 105.294 172.076 105.406 172.843 105.76C174.184 104.952 175.518 104.792 176.222 105.474C176.924 106.154 176.809 107.487 176.05 108.85Z" fill="#56837C"/>
<path d="M176.05 108.85L174.303 107.877L173.777 108.822L174.28 109.78L176.05 108.85ZM176.427 112.039L174.452 111.726L174.452 111.726L176.427 112.039ZM173.63 115.532L173.943 113.556L173.943 113.556L173.63 115.532ZM171.967 112.297L173.967 112.326L174.006 109.65L171.429 110.371L171.967 112.297ZM169.904 111.998L171.296 110.561L171.296 110.561L169.904 111.998ZM169.532 109.978L171.478 110.438L172.061 107.978L169.533 107.978L169.532 109.978ZM166.594 108.395L164.63 108.772L164.63 108.772L166.594 108.395ZM169.855 105.514L169.478 103.549L169.855 105.514ZM172.843 105.76L172.006 107.576L172.968 108.019L173.875 107.473L172.843 105.76ZM176.222 105.474L174.831 106.911L174.831 106.911L176.222 105.474ZM174.28 109.78C174.442 110.09 174.6 110.79 174.452 111.726L178.402 112.353C178.648 110.8 178.482 109.18 177.821 107.92L174.28 109.78ZM174.452 111.726C174.328 112.507 174.046 113.088 173.794 113.402C173.501 113.768 173.53 113.491 173.943 113.556L173.316 117.507C174.938 117.764 176.197 116.8 176.916 115.903C177.677 114.953 178.19 113.692 178.402 112.353L174.452 111.726ZM173.943 113.556C174.29 113.611 174.312 113.83 174.19 113.59C174.078 113.367 173.958 112.934 173.967 112.326L169.968 112.267C169.952 113.362 170.152 114.466 170.62 115.394C171.08 116.305 171.946 117.29 173.316 117.507L173.943 113.556ZM171.429 110.371C171.318 110.401 171.231 110.416 171.166 110.423C171.101 110.429 171.068 110.425 171.062 110.424C171.057 110.424 171.084 110.427 171.132 110.448C171.181 110.471 171.24 110.508 171.296 110.561L168.513 113.435C169.72 114.604 171.349 114.546 172.506 114.223L171.429 110.371ZM171.296 110.561C171.35 110.614 171.389 110.671 171.413 110.72C171.436 110.767 171.441 110.794 171.44 110.791C171.439 110.787 171.435 110.756 171.438 110.693C171.442 110.631 171.453 110.546 171.478 110.438L167.586 109.517C167.311 110.675 167.321 112.281 168.513 113.435L171.296 110.561ZM169.533 107.978C169.014 107.977 168.663 107.87 168.493 107.78C168.321 107.689 168.502 107.723 168.558 108.018L164.63 108.772C164.872 110.034 165.757 110.859 166.625 111.317C167.496 111.777 168.521 111.977 169.531 111.978L169.533 107.978ZM168.558 108.018C168.63 108.392 168.384 108.428 168.701 108.148C168.979 107.903 169.506 107.617 170.232 107.478L169.478 103.549C168.172 103.8 166.954 104.354 166.052 105.151C165.188 105.914 164.328 107.196 164.63 108.772L168.558 108.018ZM170.232 107.478C171.059 107.319 171.698 107.435 172.006 107.576L173.68 103.943C172.453 103.378 170.934 103.27 169.478 103.549L170.232 107.478ZM173.875 107.473C174.364 107.179 174.746 107.07 174.96 107.05C175.173 107.029 175.028 107.102 174.831 106.911L177.613 104.037C176.712 103.164 175.548 102.976 174.583 103.067C173.619 103.159 172.663 103.534 171.811 104.047L173.875 107.473ZM174.831 106.911C174.634 106.72 174.7 106.573 174.688 106.784C174.675 106.997 174.58 107.38 174.303 107.877L177.798 109.823C178.28 108.957 178.622 107.992 178.68 107.027C178.739 106.061 178.512 104.907 177.613 104.037L174.831 106.911Z" fill="white" mask="url(#path-32-outside-1_2131_13279)"/>
<path fill-rule="evenodd" clip-rule="evenodd" d="M166.594 108.395C166.364 107.193 167.823 105.903 169.855 105.513C171.886 105.124 173.72 105.782 173.95 106.983C174.031 107.402 173.906 107.831 173.623 108.229C174.011 107.928 174.432 107.786 174.848 107.852C176.056 108.044 176.763 109.918 176.427 112.039C176.091 114.159 174.838 115.723 173.63 115.531C172.421 115.34 171.714 113.465 172.05 111.345C172.21 110.341 172.574 109.463 173.042 108.836C172.457 109.307 171.635 109.684 170.69 109.865C168.658 110.255 166.825 109.596 166.594 108.395Z" fill="#C3C3A5"/>
<defs>
<filter id="filter0_d_2131_13279" x="38.9574" y="18.8766" width="131.874" height="180.323" filterUnits="userSpaceOnUse" color-interpolation-filters="sRGB">
<feFlood flood-opacity="0" result="BackgroundImageFix"/>
<feColorMatrix in="SourceAlpha" type="matrix" values="0 0 0 0 0 0 0 0 0 0 0 0 0 0 0 0 0 0 127 0" result="hardAlpha"/>
<feOffset dx="4" dy="-7"/>
<feGaussianBlur stdDeviation="5.5"/>
<feComposite in2="hardAlpha" operator="out"/>
<feColorMatrix type="matrix" values="0 0 0 0 0.831373 0 0 0 0 0.85098 0 0 0 0 0.862745 0 0 0 0.25 0"/>
<feBlend mode="normal" in2="BackgroundImageFix" result="effect1_dropShadow_2131_13279"/>
<feBlend mode="normal" in="SourceGraphic" in2="effect1_dropShadow_2131_13279" result="shape"/>
</filter>
<filter id="filter1_d_2131_13279" x="68.3848" y="95.5358" width="64.6129" height="43.4868" filterUnits="userSpaceOnUse" color-interpolation-filters="sRGB">
<feFlood flood-opacity="0" result="BackgroundImageFix"/>
<feColorMatrix in="SourceAlpha" type="matrix" values="0 0 0 0 0 0 0 0 0 0 0 0 0 0 0 0 0 0 127 0" result="hardAlpha"/>
<feOffset dy="11"/>
<feGaussianBlur stdDeviation="10"/>
<feComposite in2="hardAlpha" operator="out"/>
<feColorMatrix type="matrix" values="0 0 0 0 0.337255 0 0 0 0 0.513726 0 0 0 0 0.486275 0 0 0 0.5 0"/>
<feBlend mode="normal" in2="BackgroundImageFix" result="effect1_dropShadow_2131_13279"/>
<feBlend mode="normal" in="SourceGraphic" in2="effect1_dropShadow_2131_13279" result="shape"/>
</filter>
<filter id="filter2_d_2131_13279" x="68.3843" y="51.4567" width="64.6129" height="43.4868" filterUnits="userSpaceOnUse" color-interpolation-filters="sRGB">
<feFlood flood-opacity="0" result="BackgroundImageFix"/>
<feColorMatrix in="SourceAlpha" type="matrix" values="0 0 0 0 0 0 0 0 0 0 0 0 0 0 0 0 0 0 127 0" result="hardAlpha"/>
<feOffset dy="11"/>
<feGaussianBlur stdDeviation="10"/>
<feComposite in2="hardAlpha" operator="out"/>
<feColorMatrix type="matrix" values="0 0 0 0 0.337255 0 0 0 0 0.513726 0 0 0 0 0.486275 0 0 0 0.5 0"/>
<feBlend mode="normal" in2="BackgroundImageFix" result="effect1_dropShadow_2131_13279"/>
<feBlend mode="normal" in="SourceGraphic" in2="effect1_dropShadow_2131_13279" result="shape"/>
</filter>
<filter id="filter3_d_2131_13279" x="66.4185" y="168.829" width="71.3019" height="44.4344" filterUnits="userSpaceOnUse" color-interpolation-filters="sRGB">
<feFlood flood-opacity="0" result="BackgroundImageFix"/>
<feColorMatrix in="SourceAlpha" type="matrix" values="0 0 0 0 0 0 0 0 0 0 0 0 0 0 0 0 0 0 127 0" result="hardAlpha"/>
<feOffset dy="11"/>
<feGaussianBlur stdDeviation="10"/>
<feComposite in2="hardAlpha" operator="out"/>
<feColorMatrix type="matrix" values="0 0 0 0 0.337255 0 0 0 0 0.513726 0 0 0 0 0.486275 0 0 0 0.5 0"/>
<feBlend mode="normal" in2="BackgroundImageFix" result="effect1_dropShadow_2131_13279"/>
<feBlend mode="normal" in="SourceGraphic" in2="effect1_dropShadow_2131_13279" result="shape"/>
</filter>
<linearGradient id="paint0_linear_2131_13279" x1="46.9311" y1="-30.7139" x2="-16.2398" y2="150.119" gradientUnits="userSpaceOnUse">
<stop stop-color="#EEF3F0" stop-opacity="0.0789496"/>
<stop offset="1" stop-color="#D9E4DD"/>
</linearGradient>
<linearGradient id="paint1_linear_2131_13279" x1="52.5955" y1="35.2811" x2="19.9275" y2="153.855" gradientUnits="userSpaceOnUse">
<stop stop-color="#EEF3F0" stop-opacity="0.0789496"/>
<stop offset="1" stop-color="#D9E4DD"/>
</linearGradient>
</defs>
</svg>
