<svg width="215" height="197" viewBox="0 0 215 197" fill="none" xmlns="http://www.w3.org/2000/svg">
<path fill-rule="evenodd" clip-rule="evenodd" d="M115.885 192.775C162.008 185.277 197.217 145.259 197.217 97.0183C197.217 43.4366 153.781 0 100.199 0C46.6174 0 3.18079 43.4366 3.18079 97.0183C3.18079 143.98 36.5466 183.148 80.8651 192.11C78.6758 188.856 77.4024 184.965 77.4024 180.783C77.4024 169.364 86.8968 160.107 98.6086 160.107C110.32 160.107 119.815 169.364 119.815 180.783C119.815 185.253 118.359 189.393 115.885 192.775Z" fill="url(#paint0_linear_2131_13241)" fill-opacity="0.7"/>
<path opacity="0.5" fill-rule="evenodd" clip-rule="evenodd" d="M21.736 78.4628C24.3712 78.4628 26.5074 76.3266 26.5074 73.6914C26.5074 71.0563 24.3712 68.92 21.736 68.92C19.1008 68.92 16.9646 71.0563 16.9646 73.6914C16.9646 76.3266 19.1008 78.4628 21.736 78.4628Z" fill="#DED9C4"/>
<ellipse cx="94.2869" cy="113.076" rx="79.8001" ry="56.4272" transform="rotate(20 94.2869 113.076)" fill="url(#paint1_linear_2131_13241)" fill-opacity="0.9"/>
<path opacity="0.5" fill-rule="evenodd" clip-rule="evenodd" d="M194.566 130.418C201.886 130.418 207.82 124.484 207.82 117.164C207.82 109.844 201.886 103.91 194.566 103.91C187.246 103.91 181.313 109.844 181.313 117.164C181.313 124.484 187.246 130.418 194.566 130.418ZM183.963 95.4278C186.598 95.4278 188.735 93.2916 188.735 90.6564C188.735 88.0212 186.598 85.885 183.963 85.885C181.328 85.885 179.192 88.0212 179.192 90.6564C179.192 93.2916 181.328 95.4278 183.963 95.4278Z" fill="#E9ECEF"/>
<path fill-rule="evenodd" clip-rule="evenodd" d="M204.109 99.6691C209.672 99.6691 214.182 95.1593 214.182 89.5961C214.182 84.033 209.672 79.5232 204.109 79.5232C198.546 79.5232 194.036 84.033 194.036 89.5961C194.036 95.1593 198.546 99.6691 204.109 99.6691Z" fill="#FFEDEB"/>
<g filter="url(#filter0_d_2131_13241)">
<path fill-rule="evenodd" clip-rule="evenodd" d="M78.7577 42.8333C78.7577 39.6117 81.3694 37 84.5911 37C87.8127 37 90.4244 39.6117 90.4244 42.8333V63.9041C90.4244 65.0087 91.3198 65.9041 92.4244 65.9041C94.0813 65.9041 95.4244 64.561 95.4244 62.9041V57.3948C95.4244 54.1732 98.0361 51.5615 101.258 51.5615C104.479 51.5615 107.091 54.1732 107.091 57.3948V65.9041V73.4885C107.091 75.6977 105.3 77.4886 103.091 77.4886H95.4244H94.2859C92.1532 77.4886 90.4244 79.2174 90.4244 81.35V92.9344V113C90.4244 114.105 89.529 115 88.4244 115H80.7577C79.6532 115 78.7577 114.105 78.7577 113V97.9344C78.7577 95.173 76.5192 92.9344 73.7577 92.9344H66.0911C63.8819 92.9344 62.0911 91.1436 62.0911 88.9344V81.35V66.7727C62.0911 63.5511 64.7027 60.9394 67.9244 60.9394C71.1461 60.9394 73.7577 63.5511 73.7577 66.7727V78.85C73.7577 80.2307 74.877 81.35 76.2577 81.35C77.6384 81.35 78.7577 80.2307 78.7577 78.85V77.4886V65.9041V42.8333Z" fill="white"/>
</g>
<g filter="url(#filter1_d_2131_13241)">
<path fill-rule="evenodd" clip-rule="evenodd" d="M47.4614 76.3704C47.4614 74.509 45.9525 73 44.0911 73C42.2297 73 40.7207 74.509 40.7207 76.3704V88.5199C40.7207 89.1581 40.2033 89.6755 39.5651 89.6755C38.6078 89.6755 37.8318 88.8994 37.8318 87.9421V84.7712C37.8318 82.9098 36.3228 81.4009 34.4614 81.4009C32.6 81.4009 31.0911 82.9098 31.0911 84.7712V89.6755V92.3588C31.0911 94.5679 32.8819 96.3588 35.0911 96.3588H37.8318H38.4929C39.7233 96.3588 40.7207 97.3562 40.7207 98.5866V105.27V116C40.7207 117.105 41.6161 118 42.7207 118H45.4614C46.566 118 47.4614 117.105 47.4614 116V108.159C47.4614 106.563 48.7548 105.27 50.3503 105.27H53.0911C55.3002 105.27 57.0911 103.479 57.0911 101.27V98.5866V90.1815C57.0911 88.3201 55.5821 86.8112 53.7207 86.8112C51.8593 86.8112 50.3503 88.3201 50.3503 90.1816V97.1421C50.3503 97.9399 49.7036 98.5866 48.9059 98.5866C48.1081 98.5866 47.4614 97.9399 47.4614 97.1421V96.3588V89.6755V76.3704Z" fill="white"/>
</g>
<path d="M62.591 116C70.8406 118.87 95.2519 111.367 108.138 109.786C110.74 109.466 113.331 110.042 115.732 111.093L129.736 117.22C137.389 120.568 140.426 129.831 136.24 137.06L133.521 141.757C133.235 142.251 133.008 142.792 132.797 143.322C127.808 155.853 109.129 140.541 96.5911 142.5C88.7048 143.732 87.3326 144.257 80.0911 142.5C72.6407 140.693 59.3872 136.543 56.0911 133.5C49.5911 127.5 36.091 128 27.591 124.5C20.791 121.7 30.4244 117.667 36.091 116C41.091 114.667 53.391 112.8 62.591 116Z" fill="#DED9C4"/>
<path d="M160.171 60.3151C159.082 62.3988 157.277 63.6061 156.14 63.0118C155.004 62.4174 154.966 60.2464 156.056 58.1627C157.145 56.079 158.95 54.8716 160.087 55.466C161.223 56.0603 161.261 58.2314 160.171 60.3151Z" fill="#C3C3A5"/>
<path fill-rule="evenodd" clip-rule="evenodd" d="M158.647 63.3754C157.809 63.9365 156.72 64.2755 155.746 63.7662C154.772 63.257 154.43 62.1695 154.412 61.1605C154.394 60.1149 154.703 58.9112 155.301 57.768C155.899 56.6247 156.711 55.6837 157.58 55.1022C158.419 54.5411 159.508 54.202 160.481 54.7113C161.455 55.2206 161.798 56.3081 161.816 57.317C161.834 58.3626 161.524 59.5663 160.926 60.7096C160.328 61.8528 159.517 62.7939 158.647 63.3754ZM156.141 63.0117C157.277 63.606 159.082 62.3987 160.172 60.315C161.261 58.2313 161.223 56.0602 160.087 55.4659C158.95 54.8715 157.146 56.0789 156.056 58.1626C154.966 60.2463 155.004 62.4173 156.141 63.0117Z" fill="white"/>
<path fill-rule="evenodd" clip-rule="evenodd" d="M153.971 59.8539C153.578 59.0943 154.301 57.9406 155.585 57.277C156.869 56.6134 158.228 56.6913 158.621 57.4509C158.758 57.7154 158.759 58.0278 158.649 58.3506C158.849 58.0722 159.103 57.8936 159.394 57.8554C160.242 57.7444 161.087 58.8604 161.282 60.3481C161.477 61.8357 160.947 63.1316 160.099 63.2425C159.252 63.3535 158.407 62.2375 158.212 60.7499C158.12 60.0459 158.19 59.3849 158.379 58.8721C158.08 59.3041 157.604 59.719 157.007 60.0278C155.723 60.6914 154.364 60.6136 153.971 59.8539Z" fill="#658580"/>
<path fill-rule="evenodd" clip-rule="evenodd" d="M153.428 58.0773C153.814 57.4607 154.441 56.9099 155.194 56.5204C155.948 56.1309 156.76 55.9384 157.486 55.98C158.173 56.0194 158.947 56.2905 159.347 57.0038C160.177 56.9245 160.844 57.4355 161.262 57.9881C161.708 58.5772 162.014 59.3743 162.126 60.2375C162.239 61.1006 162.15 61.9495 161.87 62.6335C161.601 63.2915 161.069 63.9744 160.21 64.0868C159.351 64.1992 158.661 63.6763 158.232 63.1097C157.786 62.5206 157.48 61.7235 157.368 60.8603C157.365 60.8413 157.363 60.8224 157.36 60.8034C156.617 61.1801 155.82 61.3656 155.106 61.3247C154.401 61.2843 153.605 61 153.215 60.2448C152.824 59.4896 153.053 58.6754 153.428 58.0773ZM157.328 59.8444C157.776 59.5635 158.136 59.2234 158.379 58.872C158.231 59.272 158.156 59.762 158.174 60.2923C158.179 60.442 158.192 60.5948 158.212 60.7498C158.407 62.2374 159.252 63.3534 160.099 63.2425C160.947 63.1315 161.477 61.8356 161.282 60.348C161.102 58.9682 160.361 57.9082 159.579 57.8502C159.517 57.8457 159.456 57.8473 159.394 57.8553C159.103 57.8935 158.849 58.0721 158.649 58.3505C158.759 58.0277 158.758 57.7154 158.621 57.4508C158.593 57.3967 158.56 57.3461 158.523 57.2989C158.035 56.6839 156.778 56.6606 155.585 57.2769C154.301 57.9405 153.578 59.0942 153.971 59.8539C154.364 60.6135 155.723 60.6914 157.007 60.0278C157.118 59.9701 157.226 59.9088 157.328 59.8444Z" fill="white"/>
<path d="M60.8021 127.966C58.7569 127.966 57.099 129.624 57.099 131.669V191.276C57.099 193.322 58.7569 194.98 60.8021 194.98H144.252C146.297 194.98 147.955 193.322 147.955 191.276V131.669C147.955 129.624 146.297 127.966 144.252 127.966H60.8021Z" fill="#8BB8B1" stroke="white" stroke-width="4"/>
<path d="M45.0254 126.759C44.8132 126.861 44.6245 127.006 44.4711 127.185L33.4522 140.02C32.8478 140.725 33.6456 141.75 34.4768 141.338L57.0405 130.141C57.2741 130.025 57.4779 129.857 57.6363 129.65L68.4654 115.489L45.0254 126.759Z" fill="#8BB8B1"/>
<path fill-rule="evenodd" clip-rule="evenodd" d="M71.1075 113.34C70.1129 112.117 68.4098 111.737 66.9896 112.42L43.5496 123.69C42.9131 123.996 42.3469 124.43 41.8868 124.966L30.8679 137.802C27.8458 141.322 31.8348 146.451 35.991 144.389L58.5547 133.192C59.2554 132.844 59.8669 132.341 60.3421 131.719L71.1712 117.559C72.1284 116.307 72.1021 114.562 71.1075 113.34ZM45.0255 126.759C44.8133 126.861 44.6246 127.006 44.4712 127.185L33.4523 140.02C32.8479 140.725 33.6457 141.75 34.477 141.338L57.0407 130.141C57.2742 130.025 57.4781 129.857 57.6365 129.65L68.4655 115.49L45.0255 126.759Z" fill="white"/>
<path d="M163.364 128.462C163.576 128.564 163.764 128.709 163.918 128.888L174.937 141.723C175.541 142.428 174.743 143.453 173.912 143.041L151.348 131.844C151.115 131.728 150.911 131.56 150.753 131.353L139.924 117.192L163.364 128.462Z" fill="#8BB8B1"/>
<path fill-rule="evenodd" clip-rule="evenodd" d="M137.281 115.043C138.276 113.82 139.979 113.44 141.399 114.123L164.839 125.393C165.476 125.699 166.042 126.133 166.502 126.669L177.521 139.505C180.543 143.025 176.554 148.155 172.398 146.092L149.834 134.895C149.133 134.547 148.522 134.044 148.047 133.422L137.218 119.262C136.26 118.01 136.287 116.265 137.281 115.043ZM163.363 128.462C163.576 128.564 163.764 128.709 163.918 128.888L174.937 141.724C175.541 142.428 174.743 143.453 173.912 143.041L151.348 131.844C151.115 131.728 150.911 131.56 150.752 131.353L139.923 117.193L163.363 128.462Z" fill="white"/>
<path d="M69.5975 117.026C69.919 116.595 70.4248 116.341 70.9622 116.341H134.091C134.628 116.341 135.134 116.595 135.455 117.026L145.626 130.65C146.464 131.773 145.663 133.372 144.261 133.372H60.7918C59.3902 133.372 58.5886 131.773 59.4271 130.65L69.5975 117.026Z" fill="url(#paint2_linear_2131_13241)"/>
<path fill-rule="evenodd" clip-rule="evenodd" d="M70.9627 112.935H134.091C135.703 112.935 137.221 113.696 138.185 114.988L148.356 128.613C150.871 131.982 148.466 136.778 144.262 136.778H60.7923C56.5874 136.778 54.1827 131.982 56.698 128.613L66.8684 114.988C67.8328 113.696 69.3505 112.935 70.9627 112.935ZM70.9627 116.341C70.4253 116.341 69.9194 116.595 69.5979 117.026L59.4275 130.65C58.5891 131.773 59.3906 133.372 60.7923 133.372H144.262C145.663 133.372 146.465 131.773 145.626 130.65L135.456 117.026C135.134 116.595 134.629 116.341 134.091 116.341H70.9627Z" fill="white"/>
<g filter="url(#filter2_d_2131_13241)">
<path d="M55.9594 136.077C56.235 135.467 56.8422 135.075 57.5114 135.075H145.839C146.508 135.075 147.115 135.467 147.391 136.077L155.087 153.107C155.596 154.235 154.772 155.512 153.535 155.512H49.8156C48.5786 155.512 47.7543 154.235 48.2636 153.107L55.9594 136.077Z" fill="#8BB8B1"/>
<path d="M149.214 135.253L147.391 136.077L149.213 135.253C148.614 133.927 147.294 133.075 145.839 133.075H57.5114C56.0563 133.075 54.736 133.927 54.1369 135.253L46.4411 152.284C45.3335 154.735 47.126 157.512 49.8156 157.512H153.535C156.224 157.512 158.017 154.735 156.909 152.284L149.214 135.253Z" stroke="white" stroke-width="4"/>
</g>
<path fill-rule="evenodd" clip-rule="evenodd" d="M155.934 65.44C155.769 66.1624 155.577 66.9325 155.359 67.7391C155.236 68.1931 154.769 68.4617 154.315 68.3391C153.861 68.2165 153.592 67.749 153.715 67.295C153.927 66.5089 154.114 65.7603 154.273 65.0605L155.934 65.44ZM153.44 71.1899C153.885 71.3424 154.122 71.8267 153.969 72.2716C153.473 73.7193 152.91 75.2126 152.282 76.7044C152.099 77.1379 151.6 77.3412 151.166 77.1587C150.733 76.9761 150.529 76.4768 150.712 76.0434C151.324 74.5904 151.873 73.1335 152.358 71.7192C152.511 71.2744 152.995 71.0374 153.44 71.1899ZM131.137 73.6913C131.996 73.6282 132.924 73.6475 133.921 73.7722C134.877 73.8917 135.74 74.1243 136.51 74.4689C136.939 74.6609 137.132 75.1646 136.94 75.5939C136.748 76.0232 136.244 76.2156 135.815 76.0235C135.217 75.7563 134.521 75.5635 133.71 75.4621C132.82 75.3509 132.005 75.3351 131.261 75.3898C130.792 75.4243 130.384 75.0721 130.35 74.603C130.315 74.134 130.668 73.7258 131.137 73.6913ZM126.99 75.7021C127.256 76.0897 127.158 76.6198 126.77 76.8861C125.971 77.4352 125.46 78.014 125.207 78.4146C124.945 79.0393 124.712 79.7885 124.561 80.6102C124.476 81.0728 124.033 81.379 123.57 81.2942C123.107 81.2094 122.801 80.7657 122.886 80.3031C123.064 79.3312 123.344 78.4397 123.666 77.6878C123.681 77.6524 123.699 77.6181 123.718 77.5851C124.102 76.9454 124.803 76.171 125.806 75.4824C126.193 75.2161 126.723 75.3144 126.99 75.7021ZM139.099 77.8712C139.531 77.6842 140.032 77.8824 140.219 78.3139C140.85 79.77 141.149 81.4864 141.213 83.363C141.229 83.833 140.862 84.2271 140.392 84.2433C139.922 84.2595 139.527 83.8917 139.511 83.4216C139.451 81.6753 139.175 80.1877 138.657 78.9911C138.47 78.5596 138.668 78.0582 139.099 77.8712ZM149.904 79.8592C150.321 80.0769 150.482 80.5913 150.265 81.0082C149.519 82.437 148.708 83.8234 147.834 85.1203C147.571 85.5102 147.041 85.6132 146.651 85.3502C146.262 85.0873 146.159 84.558 146.422 84.1681C147.255 82.9321 148.034 81.6018 148.755 80.22C148.973 79.8031 149.487 79.6416 149.904 79.8592ZM123.718 84.6812C124.166 84.5383 124.645 84.7856 124.788 85.2337C125.213 86.5651 126.01 87.8608 127.363 88.9628C127.727 89.2599 127.782 89.7963 127.485 90.1609C127.188 90.5254 126.651 90.5802 126.287 90.2831C124.665 88.9618 123.686 87.3816 123.166 85.7513C123.023 85.3033 123.27 84.8242 123.718 84.6812ZM140.203 87.3881C140.67 87.4463 141.001 87.8718 140.943 88.3385C140.868 88.9378 140.78 89.5485 140.68 90.1691C141.694 89.5181 142.669 88.6892 143.602 87.7155C143.927 87.3759 144.466 87.3643 144.806 87.6896C145.145 88.0149 145.157 88.5539 144.832 88.8935C143.652 90.125 142.375 91.1788 140.999 91.967C140.793 92.0852 140.558 92.1075 140.346 92.0481C140.273 92.4246 140.197 92.804 140.118 93.186C140.022 93.6464 139.571 93.9418 139.11 93.8459C138.65 93.75 138.354 93.299 138.45 92.8386C138.792 91.1982 139.067 89.6203 139.253 88.1278C139.311 87.6611 139.737 87.3299 140.203 87.3881ZM130.518 91.6648C130.655 91.2149 131.131 90.9612 131.581 91.0981C132.303 91.3181 133.096 91.5076 133.963 91.6607C134.694 91.7896 135.403 91.825 136.091 91.7775C136.56 91.7451 136.967 92.0992 136.999 92.5684C137.032 93.0375 136.678 93.4441 136.209 93.4765C135.38 93.5336 134.533 93.4906 133.667 93.3379C132.738 93.1738 131.878 92.9689 131.085 92.7274C130.635 92.5905 130.381 92.1147 130.518 91.6648ZM138.387 96.9131C138.842 97.0302 139.116 97.4944 138.999 97.9498C138.601 99.5005 138.168 101.075 137.718 102.656C137.589 103.108 137.118 103.371 136.665 103.242C136.213 103.113 135.951 102.642 136.08 102.189C136.527 100.618 136.956 99.0583 137.35 97.5259C137.467 97.0704 137.931 96.7961 138.387 96.9131ZM135.78 106.266C136.231 106.4 136.487 106.874 136.353 107.324C136.171 107.936 135.99 108.545 135.809 109.152C135.526 110.1 135.245 111.041 134.969 111.975C134.836 112.426 134.362 112.683 133.911 112.55C133.46 112.416 133.202 111.943 133.336 111.492C133.612 110.557 133.894 109.611 134.178 108.661C134.359 108.055 134.54 107.447 134.721 106.839C134.855 106.388 135.329 106.132 135.78 106.266ZM133.035 115.58C133.488 115.706 133.753 116.176 133.627 116.629C133.177 118.249 132.767 119.811 132.418 121.295C132.31 121.753 131.852 122.036 131.394 121.929C130.936 121.821 130.652 121.362 130.76 120.905C131.116 119.392 131.532 117.807 131.986 116.173C132.112 115.72 132.581 115.454 133.035 115.58ZM130.778 125.023C131.243 125.089 131.567 125.521 131.5 125.986C131.381 126.813 131.299 127.589 131.259 128.311L129.559 128.216C129.602 127.436 129.69 126.609 129.814 125.744C129.881 125.279 130.312 124.956 130.778 125.023Z" fill="#E2EBE6"/>
<defs>
<filter id="filter0_d_2131_13241" x="51.0911" y="30" width="67" height="100" filterUnits="userSpaceOnUse" color-interpolation-filters="sRGB">
<feFlood flood-opacity="0" result="BackgroundImageFix"/>
<feColorMatrix in="SourceAlpha" type="matrix" values="0 0 0 0 0 0 0 0 0 0 0 0 0 0 0 0 0 0 127 0" result="hardAlpha"/>
<feOffset dy="4"/>
<feGaussianBlur stdDeviation="5.5"/>
<feComposite in2="hardAlpha" operator="out"/>
<feColorMatrix type="matrix" values="0 0 0 0 0.831373 0 0 0 0 0.85098 0 0 0 0 0.862745 0 0 0 0.45 0"/>
<feBlend mode="normal" in2="BackgroundImageFix" result="effect1_dropShadow_2131_13241"/>
<feBlend mode="normal" in="SourceGraphic" in2="effect1_dropShadow_2131_13241" result="shape"/>
</filter>
<filter id="filter1_d_2131_13241" x="20.0911" y="66" width="48" height="67" filterUnits="userSpaceOnUse" color-interpolation-filters="sRGB">
<feFlood flood-opacity="0" result="BackgroundImageFix"/>
<feColorMatrix in="SourceAlpha" type="matrix" values="0 0 0 0 0 0 0 0 0 0 0 0 0 0 0 0 0 0 127 0" result="hardAlpha"/>
<feOffset dy="4"/>
<feGaussianBlur stdDeviation="5.5"/>
<feComposite in2="hardAlpha" operator="out"/>
<feColorMatrix type="matrix" values="0 0 0 0 0.831373 0 0 0 0 0.85098 0 0 0 0 0.862745 0 0 0 0.45 0"/>
<feBlend mode="normal" in2="BackgroundImageFix" result="effect1_dropShadow_2131_13241"/>
<feBlend mode="normal" in="SourceGraphic" in2="effect1_dropShadow_2131_13241" result="shape"/>
</filter>
<filter id="filter2_d_2131_13241" x="33.106" y="124.075" width="137.138" height="50.4368" filterUnits="userSpaceOnUse" color-interpolation-filters="sRGB">
<feFlood flood-opacity="0" result="BackgroundImageFix"/>
<feColorMatrix in="SourceAlpha" type="matrix" values="0 0 0 0 0 0 0 0 0 0 0 0 0 0 0 0 0 0 127 0" result="hardAlpha"/>
<feOffset dy="4"/>
<feGaussianBlur stdDeviation="5.5"/>
<feComposite in2="hardAlpha" operator="out"/>
<feColorMatrix type="matrix" values="0 0 0 0 0.470588 0 0 0 0 0.623529 0 0 0 0 0.6 0 0 0 1 0"/>
<feBlend mode="normal" in2="BackgroundImageFix" result="effect1_dropShadow_2131_13241"/>
<feBlend mode="normal" in="SourceGraphic" in2="effect1_dropShadow_2131_13241" result="shape"/>
</filter>
<linearGradient id="paint0_linear_2131_13241" x1="52.5961" y1="-17.0575" x2="-7.51485" y2="150.983" gradientUnits="userSpaceOnUse">
<stop stop-color="#EEF3F0" stop-opacity="0.0789496"/>
<stop offset="1" stop-color="#D9E4DD"/>
</linearGradient>
<linearGradient id="paint1_linear_2131_13241" x1="49.8993" y1="46.7282" x2="23.6913" y2="150.34" gradientUnits="userSpaceOnUse">
<stop stop-color="#EEF3F0" stop-opacity="0.0789496"/>
<stop offset="1" stop-color="#D9E4DD"/>
</linearGradient>
<linearGradient id="paint2_linear_2131_13241" x1="102.526" y1="116.341" x2="102.526" y2="133.372" gradientUnits="userSpaceOnUse">
<stop stop-color="#6C8D89"/>
<stop offset="1" stop-color="#55726D"/>
</linearGradient>
</defs>
</svg>
