<svg width="171" height="140" viewBox="0 0 171 140" fill="none" xmlns="http://www.w3.org/2000/svg">
<ellipse cx="85.5" cy="135" rx="85.5" ry="5" fill="#F5F5F5"/>
<path d="M134.269 67.5854H134.111C122.367 66.6252 114.273 56.5746 113.947 56.1694C113.322 55.3158 113.484 54.1216 114.313 53.4646C115.143 52.8076 116.343 52.9226 117.033 53.725C117.125 53.8439 124.042 62.3619 133.621 63.5775C136.707 60.4944 139.352 52.3553 139.057 49.8933C139.057 49.8668 139.057 49.8448 139.057 49.8228C138.995 49.03 138.845 46.2994 139.625 44.6918C140.158 43.8358 141.251 43.5198 142.159 43.9596C143.067 44.3994 143.495 45.4529 143.152 46.4007C142.958 46.8059 142.866 48.2637 142.958 49.4837C143.399 53.5356 139.872 63.7624 135.464 67.1846C135.12 67.4452 134.701 67.586 134.269 67.5854Z" fill="#263238"/>
<path d="M40.9097 56.9137C32.7063 56.8145 24.9285 53.2492 19.5029 47.1009C18.8782 46.4055 18.8303 45.3667 19.3883 44.6169C22.5711 40.3403 28.2049 30.2412 29.0866 26.9512C28.6683 26.1578 28.0361 25.4972 27.2616 25.0441C26.6313 24.7507 26.2036 24.1458 26.1374 23.4542L25.82 20.2302C25.7561 19.1742 26.5391 18.2565 27.5929 18.1523C28.6467 18.0481 29.5945 18.7946 29.739 19.8427L29.9595 22.0844C31.2626 23.0843 32.2946 24.3939 32.9615 25.8942C33.0938 26.2082 33.1424 26.5511 33.1026 26.8895C32.697 30.3822 27.0235 40.4989 23.5321 45.6123C31.6831 53.7294 41.4255 52.9895 41.8531 52.9498C42.9214 52.8759 43.8533 53.6679 43.9515 54.7332C44.0498 55.7986 43.2784 56.7473 42.2146 56.8697C42.1 56.8785 41.6459 56.9137 40.9097 56.9137Z" fill="#263238"/>
<path d="M104.412 134.989H99.1217C98.5063 134.989 97.9262 134.702 97.5534 134.213C97.1805 133.724 97.0579 133.089 97.2217 132.496C98.6015 127.546 99.2804 123.516 99.7873 117.209C97.9182 108.4 96.1593 100.38 96.1416 100.301C95.9429 99.2536 96.6143 98.2385 97.6565 98.0107C98.6987 97.7829 99.733 98.4251 99.9901 99.4595C99.9901 99.5388 101.806 107.766 103.698 116.672C103.738 116.857 103.75 117.047 103.733 117.235C103.292 122.899 102.714 126.815 101.674 131.056H104.398C105.449 131.106 106.276 131.971 106.276 133.023C106.276 134.074 105.449 134.939 104.398 134.989H104.412Z" fill="#263238"/>
<path d="M63.6126 134.989H60.6326C60.0627 134.991 59.5202 134.745 59.1461 134.316C58.772 133.886 58.6034 133.315 58.6841 132.752C59.191 129.14 61.7699 122.564 64.5472 115.954C65.5302 107.233 66.3325 99.7457 66.3413 99.6577C66.4006 98.9429 66.8443 98.317 67.4993 98.0237C68.1544 97.7304 68.9173 97.8163 69.4907 98.2477C70.064 98.6792 70.3572 99.3881 70.2559 100.098C70.2559 100.173 69.4272 107.832 68.4265 116.68C68.4061 116.865 68.3586 117.046 68.2854 117.218C66.3325 121.899 64.1019 127.414 63.0836 131.065H63.6126C64.338 131.03 65.0235 131.398 65.3965 132.02C65.7695 132.643 65.7695 133.42 65.3965 134.042C65.0235 134.665 64.338 135.032 63.6126 134.998V134.989Z" fill="#263238"/>
<path fill-rule="evenodd" clip-rule="evenodd" d="M42.3777 103.736H118.271C118.379 103.736 118.482 103.689 118.554 103.608C118.628 103.532 118.668 103.429 118.664 103.322C117.081 65.6389 117.081 32.0472 118.664 0.626896C118.671 0.519453 118.633 0.41395 118.558 0.336212C118.483 0.257735 118.38 0.213178 118.271 0.212891H65.3275C65.2234 0.212734 65.1234 0.253928 65.0497 0.327404L42.1 23.2606C42.0294 23.3295 41.9869 23.4221 41.981 23.5205C40.8833 47.7442 40.8833 74.6104 41.981 103.357C41.9904 103.569 42.1653 103.736 42.3777 103.736ZM117.862 102.948H42.7524C41.6724 74.4299 41.6724 47.775 42.7524 23.7099L65.4906 1.00126H117.862C116.297 32.219 116.301 65.5728 117.862 102.948Z" fill="#263238"/>
<path d="M104.663 92.43H96.3841C96.221 92.43 96.0887 92.2979 96.0887 92.135C96.0887 92.0571 96.12 91.9825 96.1755 91.9278C96.231 91.8732 96.3062 91.8431 96.3841 91.8443H104.663C104.741 91.8431 104.816 91.8732 104.872 91.9278C104.927 91.9825 104.958 92.0571 104.958 92.135C104.958 92.2132 104.927 92.2883 104.872 92.3436C104.816 92.399 104.741 92.43 104.663 92.43Z" fill="#1AA99C"/>
<path d="M92.9544 92.43H55.9774C55.8142 92.43 55.682 92.2979 55.682 92.135C55.682 92.0571 55.7133 91.9825 55.7688 91.9278C55.8243 91.8732 55.8994 91.8431 55.9774 91.8443H92.9456C93.0235 91.8431 93.0987 91.8732 93.1542 91.9278C93.2097 91.9825 93.241 92.0571 93.241 92.135C93.241 92.2946 93.1141 92.4253 92.9544 92.43Z" fill="#1AA99C"/>
<path d="M69.7666 48.2682C69.6785 46.348 68.5896 44.8329 67.3288 44.8769C66.068 44.921 65.1247 46.5109 65.204 48.4312C65.2834 50.3515 66.381 51.8665 67.6418 51.8181C68.9026 51.7697 69.8548 50.1841 69.7666 48.2682Z" fill="#1AA99C"/>
<path d="M96.3798 47.6647C96.2916 45.7488 95.2028 44.2337 93.942 44.2778C92.6812 44.3218 91.7378 45.9118 91.8172 47.8321C91.8965 49.7523 92.9986 51.2674 94.255 51.219C95.5113 51.1705 96.4679 49.585 96.3798 47.6647Z" fill="#1AA99C"/>
<path d="M76.41 56.1122C80.5196 54.5785 85.0774 54.7853 89.031 56.6848C89.1621 56.7571 89.2587 56.8789 89.2993 57.0229C89.3399 57.1669 89.3211 57.3211 89.247 57.4511C89.0913 57.7205 88.7487 57.8164 88.4756 57.667C88.4094 57.6317 82.1276 54.2492 74.629 58.1074C74.351 58.2478 74.0116 58.1426 73.862 57.8696C73.7927 57.7371 73.7794 57.5825 73.8249 57.4402C73.8705 57.2979 73.9711 57.1797 74.1044 57.112C74.8492 56.7266 75.6195 56.3926 76.41 56.1122Z" fill="#1AA99C"/>
<path d="M65.9578 30.2765C66.1534 30.2819 66.3444 30.3364 66.5133 30.4351C67.0496 30.7523 67.2305 31.4417 66.9189 31.981C65.1383 35.1513 61.9213 37.254 58.3006 37.6141C57.6764 37.6391 57.148 37.1582 57.1147 36.535C57.1016 36.2371 57.2076 35.9462 57.4094 35.7264C57.6112 35.5066 57.8921 35.3761 58.1904 35.3635C58.3623 35.3635 62.4312 35.108 64.9616 30.8403C65.1637 30.4827 65.5469 30.2658 65.9578 30.2765Z" fill="#1AA99C"/>
<path d="M92.5885 29.6291C92.9625 29.5554 93.3485 29.6746 93.6157 29.9462C97.1423 33.4696 101.172 32.7605 101.339 32.7297C101.945 32.6206 102.529 33.0096 102.662 33.6106C102.721 33.9027 102.662 34.2065 102.496 34.4546C102.331 34.7027 102.073 34.8745 101.78 34.9318C101.559 34.9715 96.4282 35.9492 91.989 31.5185C91.6936 31.2263 91.5845 30.7947 91.7056 30.3974C91.8268 30.0002 92.1582 29.7026 92.5665 29.6247L92.5885 29.6291Z" fill="#1AA99C"/>
<path opacity="0.2" d="M117.13 41.9567L113.907 42.2562C112.754 42.3638 111.7 41.5978 111.447 40.468L106.982 20.4813C106.714 19.2752 107.448 18.0732 108.644 17.7594L117.28 15.4956L117.13 41.9567Z" fill="black"/>
<path opacity="0.2" d="M67.4391 25.586C65.1952 19.4684 62.9514 9.6776 65.3186 0.609131L42.3689 23.5424C48.8624 25.7225 59.2043 26.6518 67.4391 25.586Z" fill="black"/>
<path d="M65.3274 23.5424C62.8103 16.1167 63.8374 6.02202 65.3274 0.609131L42.3777 23.5424C49.3252 24.8064 57.0883 24.6038 65.3274 23.5424Z" fill="white"/>
<path fill-rule="evenodd" clip-rule="evenodd" d="M42.3116 23.9257C45.8044 24.538 49.3455 24.8329 52.8916 24.8065C57.0719 24.7816 61.2464 24.4888 65.3892 23.9301C65.506 23.9163 65.61 23.8497 65.6713 23.7495C65.732 23.6488 65.7465 23.5269 65.711 23.4148C63.1762 15.9539 64.3268 5.75351 65.711 0.714982C65.7607 0.542596 65.6868 0.358537 65.5318 0.268088C65.3767 0.17764 65.18 0.203883 65.0542 0.331807L42.1044 23.265C41.9992 23.367 41.9605 23.5194 42.0043 23.6591C42.0481 23.7988 42.167 23.9019 42.3116 23.9257ZM64.7941 23.2122C56.3786 24.2692 49.2944 24.2912 43.1933 23.2827L64.5825 1.89534C63.1894 7.92483 62.7178 16.6321 64.7941 23.2122Z" fill="#263238"/>
<path d="M144.188 57.0415C143.89 57.0413 143.629 56.8406 143.553 56.5526L135.468 25.7753C135.376 25.4238 135.586 25.0639 135.938 24.9715C136.29 24.8791 136.65 25.0891 136.742 25.4406L144.827 56.2179C144.871 56.3867 144.847 56.5661 144.758 56.7165C144.669 56.8669 144.525 56.9759 144.356 57.0194C144.301 57.0357 144.245 57.0431 144.188 57.0415Z" fill="#263238"/>
<path d="M158.819 12.9406L159.247 12.8305L159.854 15.1845L159.426 15.2946L158.819 12.9406Z" fill="#407BFF"/>
<path d="M157.858 9.46622L156.161 3.0051C155.68 1.18385 153.815 0.0945913 151.991 0.569522L147.552 1.73226L147.441 1.29183L151.881 0.124687C153.938 -0.408985 156.041 0.819474 156.584 2.87298L158.286 9.3385L157.858 9.46622Z" fill="#407BFF"/>
<path d="M109.341 18.319C108.605 15.519 110.28 12.6534 113.08 11.9194L149.442 2.38876C152.24 1.65526 155.104 3.32852 155.839 6.12672L159.669 20.712C160.404 23.5119 158.729 26.3776 155.929 27.1116L119.567 36.6422C116.769 37.3757 113.905 35.7024 113.17 32.9042L109.341 18.319Z" fill="#1AA99C"/>
<path d="M121.073 27.5095C120.226 27.7204 119.416 27.7286 118.642 27.5341C117.876 27.3377 117.219 26.9696 116.673 26.4298C116.132 25.8804 115.761 25.2059 115.562 24.4064C115.363 23.6068 115.374 22.8414 115.596 22.1101C115.823 21.369 116.229 20.7319 116.813 20.1987C117.406 19.6635 118.125 19.2905 118.971 19.0795C119.817 18.8686 120.623 18.8613 121.389 19.0578C122.156 19.2542 122.813 19.6262 123.362 20.1737C123.909 20.7135 124.282 21.3831 124.481 22.1826C124.68 22.9821 124.666 23.7524 124.439 24.4935C124.209 25.2268 123.803 25.86 123.218 26.3932C122.634 26.9264 121.919 27.2985 121.073 27.5095ZM120.672 25.9027C121.153 25.7827 121.561 25.5656 121.895 25.2515C122.227 24.9296 122.452 24.5436 122.571 24.0936C122.697 23.6416 122.697 23.1633 122.572 22.6587C122.446 22.1542 122.221 21.732 121.897 21.3923C121.581 21.0506 121.202 20.8194 120.76 20.6989C120.315 20.5705 119.853 20.5663 119.371 20.6863C118.89 20.8063 118.483 21.0273 118.151 21.3491C117.818 21.6633 117.587 22.0463 117.461 22.4983C117.342 22.9484 117.346 23.4257 117.472 23.9303C117.597 24.4348 117.818 24.8579 118.134 25.1996C118.458 25.5394 118.842 25.7734 119.287 25.9018C119.729 26.0224 120.191 26.0226 120.672 25.9027Z" fill="white"/>
<path d="M131.673 24.8665C130.827 25.0774 130.017 25.0856 129.243 24.8911C128.476 24.6947 127.82 24.3266 127.273 23.7868C126.732 23.2374 126.362 22.5629 126.163 21.7634C125.963 20.9638 125.974 20.1984 126.196 19.4671C126.424 18.726 126.829 18.0889 127.414 17.5557C128.006 17.0205 128.725 16.6475 129.571 16.4365C130.417 16.2256 131.223 16.2183 131.99 16.4148C132.756 16.6112 133.414 16.9832 133.962 17.5307C134.509 18.0705 134.882 18.7401 135.082 19.5396C135.281 20.3392 135.267 21.1094 135.039 21.8505C134.81 22.5838 134.403 23.217 133.819 23.7502C133.234 24.2834 132.519 24.6555 131.673 24.8665ZM131.272 23.2597C131.754 23.1397 132.161 22.9226 132.495 22.6085C132.827 22.2866 133.052 21.9006 133.171 21.4506C133.298 20.9986 133.298 20.5203 133.172 20.0157C133.046 19.5112 132.821 19.089 132.498 18.7493C132.182 18.4076 131.802 18.1764 131.36 18.0559C130.916 17.9275 130.453 17.9234 129.972 18.0433C129.491 18.1633 129.084 18.3843 128.752 18.7062C128.418 19.0203 128.188 19.4033 128.061 19.8553C127.943 20.3054 127.946 20.7827 128.072 21.2873C128.198 21.7918 128.419 22.2149 128.735 22.5566C129.059 22.8964 129.443 23.1304 129.887 23.2588C130.329 23.3794 130.791 23.3796 131.272 23.2597Z" fill="white"/>
<path d="M139.787 14.0378C140.509 13.8578 141.164 13.8223 141.752 13.9313C142.348 14.0384 142.844 14.2774 143.242 14.6482C143.639 15.0191 143.913 15.5072 144.064 16.1127C144.213 16.7104 144.2 17.2702 144.025 17.792C143.849 18.3061 143.522 18.7502 143.047 19.1244C142.577 19.4888 141.981 19.7611 141.259 19.9411L139.617 20.3504L140.178 22.5976L138.291 23.0679L136.259 14.9174L139.787 14.0378ZM140.771 18.4302C141.338 18.2889 141.739 18.0612 141.974 17.747C142.207 17.4251 142.267 17.039 142.155 16.5888C142.041 16.1308 141.806 15.8183 141.451 15.6512C141.094 15.4764 140.632 15.4596 140.066 15.6008L138.529 15.9841L139.234 18.8134L140.771 18.4302Z" fill="white"/>
<path d="M150.309 20.2201C149.664 20.3807 149.018 20.4511 148.37 20.4313C147.728 20.4018 147.19 20.2928 146.755 20.1043L147.041 18.5242C147.454 18.6932 147.921 18.7954 148.441 18.8306C148.961 18.8659 149.462 18.8235 149.943 18.7035C150.478 18.57 150.855 18.3937 151.072 18.1746C151.288 17.9477 151.363 17.7023 151.297 17.4384C151.249 17.2443 151.131 17.1045 150.945 17.019C150.765 16.9238 150.544 16.8674 150.285 16.8498C150.032 16.8302 149.693 16.8242 149.266 16.8317C148.608 16.839 148.063 16.8183 147.63 16.7695C147.198 16.7208 146.797 16.5692 146.429 16.3148C146.068 16.0584 145.82 15.6586 145.684 15.1152C145.566 14.6417 145.588 14.1828 145.749 13.7386C145.909 13.2866 146.216 12.8842 146.672 12.5314C147.136 12.1766 147.741 11.9063 148.486 11.7205C149.006 11.5908 149.53 11.5262 150.058 11.5265C150.586 11.5268 151.065 11.597 151.496 11.737L151.27 13.3143C150.411 13.0751 149.605 13.0493 148.852 13.2371C148.324 13.3687 147.953 13.5518 147.74 13.7864C147.534 14.0191 147.466 14.2752 147.536 14.5547C147.605 14.8341 147.801 15.0079 148.123 15.076C148.451 15.1344 148.93 15.1551 149.561 15.138C150.219 15.1307 150.764 15.1514 151.197 15.2002C151.629 15.249 152.025 15.3976 152.384 15.6462C152.75 15.8929 153.001 16.2879 153.137 16.8312C153.253 17.297 153.227 17.7568 153.06 18.2107C152.899 18.655 152.586 19.0545 152.122 19.4092C151.658 19.764 151.054 20.0343 150.309 20.2201Z" fill="white"/>
</svg>
