<svg width="16" height="16" viewBox="0 0 16 16" fill="none" xmlns="http://www.w3.org/2000/svg">
<path fill-rule="evenodd" clip-rule="evenodd" d="M6.87461 11.55L6.88539 11.6713L6.88663 11.6805C6.91718 11.8474 7.0053 11.9983 7.13566 12.1069C7.26601 12.2155 7.43033 12.275 7.6 12.275C7.79227 12.2749 7.9767 12.1986 8.11265 12.0626C8.24862 11.9266 8.325 11.7422 8.325 11.55V7.17495L8.31461 7.0536L8.3134 7.04464C8.28112 6.86636 8.18327 6.70663 8.03911 6.5969C7.89495 6.48718 7.71492 6.4354 7.53449 6.45177C7.35406 6.46814 7.1863 6.55147 7.06424 6.68535C6.94222 6.81919 6.87471 6.99403 6.875 7.17514L6.87461 11.55ZM6.875 7.17514L6.88539 11.6713L6.88663 11.6805C6.89442 11.723 6.87051 11.6409 6.88663 11.6805L6.87461 11.55L6.875 7.17514ZM7.6 12.275C7.63981 12.2838 7.55877 12.274 7.6 12.275ZM4.69161 14.8214C5.61368 15.2034 6.60195 15.4 7.6 15.4C9.61565 15.4 11.5487 14.5992 12.974 13.174C14.3993 11.7487 15.2 9.8156 15.2 7.79995C15.2 5.78431 14.3993 3.85122 12.974 2.42594C11.5487 1.00066 9.61565 0.199951 7.6 0.199951C6.60195 0.199951 5.61368 0.396532 4.69161 0.778467C3.76953 1.1604 2.93171 1.72021 2.22599 2.42594C1.52026 3.13167 0.960451 3.96948 0.578515 4.89156C0.196579 5.81363 0 6.80191 0 7.79995C0 8.798 0.196579 9.78627 0.578515 10.7083C0.960451 11.6304 1.52026 12.4682 2.22599 13.174C2.93171 13.8797 3.76953 14.4395 4.69161 14.8214ZM11.9487 12.1487C10.7954 13.302 9.23108 13.95 7.6 13.95C5.96892 13.95 4.40464 13.302 3.25129 12.1487C2.09795 10.9953 1.45 9.43103 1.45 7.79995C1.45 6.16887 2.09795 4.60459 3.25129 3.45125C4.40464 2.2979 5.96892 1.64995 7.6 1.64995C9.23108 1.64995 10.7954 2.2979 11.9487 3.45125C13.1021 4.60459 13.75 6.16887 13.75 7.79995C13.75 9.43103 13.1021 10.9953 11.9487 12.1487ZM6.86638 5.09607C7.06095 5.29064 7.32484 5.39995 7.6 5.39995C7.87516 5.39995 8.13906 5.29064 8.33362 5.09607C8.52819 4.90151 8.6375 4.63761 8.6375 4.36245C8.6375 4.08729 8.52819 3.8234 8.33362 3.62883C8.13906 3.43426 7.87516 3.32495 7.6 3.32495C7.32484 3.32495 7.06095 3.43426 6.86638 3.62883C6.67181 3.8234 6.5625 4.08729 6.5625 4.36245C6.5625 4.63761 6.67181 4.90151 6.86638 5.09607ZM6.66365 4.31596C6.66289 4.33141 6.6625 4.34691 6.6625 4.36245Z" fill="black"/>
</svg>
