<svg width="101" height="108" viewBox="0 0 101 108" fill="none" xmlns="http://www.w3.org/2000/svg">
<path fill-rule="evenodd" clip-rule="evenodd" d="M83.3396 87.6983C93.7231 78.5127 100.27 65.0883 100.27 50.1349C100.27 22.4461 77.8236 0 50.1349 0C22.4461 0 0 22.4461 0 50.1349C0 77.8236 22.4461 100.27 50.1349 100.27C53.1941 100.27 56.1893 99.9957 59.0973 99.4709C57.8923 97.4486 57.2001 95.0851 57.2001 92.56C57.2001 85.0934 63.2531 79.0401 70.72 79.0401C76.473 79.0401 81.387 82.6336 83.3396 87.6983Z" fill="url(#paint0_linear_2144_14843)" fill-opacity="0.7"/>
<path opacity="0.5" fill-rule="evenodd" clip-rule="evenodd" d="M89.0373 48.0774C92.8199 48.0774 95.8863 45.011 95.8863 41.2284C95.8863 37.4458 92.8199 34.3794 89.0373 34.3794C85.2547 34.3794 82.1883 37.4458 82.1883 41.2284C82.1883 45.011 85.2547 48.0774 89.0373 48.0774ZM83.5581 29.996C84.9198 29.996 86.0237 28.8921 86.0237 27.5303C86.0237 26.1686 84.9198 25.0647 83.5581 25.0647C82.1963 25.0647 81.0924 26.1686 81.0924 27.5303C81.0924 28.8921 82.1963 29.996 83.5581 29.996Z" fill="#E9ECEF"/>
<path opacity="0.5" fill-rule="evenodd" clip-rule="evenodd" d="M15.0677 39.3107C16.4294 39.3107 17.5333 38.2068 17.5333 36.845C17.5333 35.4833 16.4294 34.3794 15.0677 34.3794C13.706 34.3794 12.6021 35.4833 12.6021 36.845C12.6021 38.2068 13.706 39.3107 15.0677 39.3107Z" fill="#DED9C4"/>
<path fill-rule="evenodd" clip-rule="evenodd" d="M95.0644 32.1876C97.9392 32.1876 100.27 29.8571 100.27 26.9824C100.27 24.1076 97.9392 21.7771 95.0644 21.7771C92.1896 21.7771 89.8591 24.1076 89.8591 26.9824C89.8591 29.8571 92.1896 32.1876 95.0644 32.1876Z" fill="#FFEDEB"/>
<path fill-rule="evenodd" clip-rule="evenodd" d="M79.0889 81.941C82.1513 79.4022 84.4805 76.2449 85.8303 72.5363C91.3382 57.4034 78.4542 38.8211 57.0529 31.0317C35.6517 23.2423 13.8375 29.1954 8.32958 44.3284C2.82163 59.4613 15.7057 78.0436 37.1069 85.833C44.0924 88.3755 51.122 89.4539 57.6141 89.2268C59.0987 83.372 64.4035 79.0402 70.72 79.0402C73.88 79.0402 76.7869 80.1244 79.0889 81.941Z" fill="url(#paint1_linear_2144_14843)" fill-opacity="0.9"/>
<path fill-rule="evenodd" clip-rule="evenodd" d="M80.3892 82.4606C78.0375 80.3347 74.92 79.04 71.5001 79.04C64.1768 79.04 58.2401 84.9767 58.2401 92.3C58.2401 94.1226 58.6078 95.8592 59.273 97.4398L30.5675 91.6855C28.8631 91.3438 27.7609 89.6726 28.1056 87.9531L40.9919 23.6698C41.3366 21.9503 42.9978 20.8331 44.7022 21.1747L87.7352 29.8012C89.4396 30.1429 90.5419 31.8141 90.1972 33.5336L80.3892 82.4606Z" fill="#DED9C4"/>
<mask id="mask0_2144_14843" style="mask-type:alpha" maskUnits="userSpaceOnUse" x="28" y="21" width="63" height="77">
<path fill-rule="evenodd" clip-rule="evenodd" d="M80.3892 82.4606C78.0375 80.3347 74.92 79.04 71.5001 79.04C64.1768 79.04 58.2401 84.9767 58.2401 92.3C58.2401 94.1226 58.6078 95.8592 59.273 97.4398L30.5675 91.6855C28.8631 91.3438 27.7609 89.6726 28.1056 87.9531L40.9919 23.6698C41.3366 21.9503 42.9978 20.8331 44.7022 21.1747L87.7352 29.8012C89.4396 30.1429 90.5419 31.8141 90.1972 33.5336L80.3892 82.4606Z" fill="#DED9C4"/>
</mask>
<g mask="url(#mask0_2144_14843)">
<g filter="url(#filter0_f_2144_14843)">
<path d="M76.96 25.48L82.1601 27.56L79.56 83.7201L72.54 81.64L76.96 25.48Z" fill="#9D977D"/>
</g>
</g>
<g filter="url(#filter1_d_2144_14843)">
<path fill-rule="evenodd" clip-rule="evenodd" d="M76.5481 80.3573C74.7834 79.5129 72.807 79.0401 70.7201 79.0401C63.2533 79.0401 57.2002 85.0934 57.2002 92.56C57.2002 95.4817 58.1269 98.1869 59.7024 100.398H26.7336C24.8926 100.398 23.4001 98.8918 23.4001 97.0345V27.6003C23.4001 25.743 24.8926 24.2371 26.7336 24.2371H73.2147C75.0557 24.2371 76.5481 25.743 76.5481 27.6003V80.3573Z" fill="#8BB8B1"/>
</g>
<g filter="url(#filter2_d_2144_14843)">
<path fill-rule="evenodd" clip-rule="evenodd" d="M78.6281 83.6585L75.6503 82.2338C74.1599 81.5206 72.4896 81.1203 70.72 81.1203C64.402 81.1203 59.2801 86.2423 59.2801 92.5602C59.2801 95.035 60.0636 97.3207 61.3962 99.1907L63.7387 102.478H26.7335C23.7263 102.478 21.3201 100.023 21.3201 97.0346V27.6005C21.3201 24.6119 23.7263 22.1572 26.7335 22.1572H73.2146C76.2219 22.1572 78.6281 24.6119 78.6281 27.6005V83.6585ZM76.5481 80.3575V27.6005C76.5481 25.7431 75.0556 24.2372 73.2146 24.2372H26.7335C24.8925 24.2372 23.4001 25.7431 23.4001 27.6005V97.0346C23.4001 98.892 24.8925 100.398 26.7335 100.398H59.7023C59.2372 99.7452 58.8287 99.0495 58.4838 98.3179C57.6604 96.571 57.2001 94.6194 57.2001 92.5602C57.2001 85.0936 63.2532 79.0403 70.72 79.0403C72.0204 79.0403 73.2779 79.2239 74.4681 79.5665C75.1879 79.7738 75.883 80.0392 76.5481 80.3575Z" fill="white"/>
</g>
<g filter="url(#filter3_f_2144_14843)">
<path d="M35.4542 22.5928H65.042V29.1678H35.4542V22.5928Z" fill="#527A74" fill-opacity="0.45"/>
</g>
<path fill-rule="evenodd" clip-rule="evenodd" d="M28.7671 27.5247C27.6184 27.5247 26.6871 28.4559 26.6871 29.6047V95.03C26.6871 96.1788 27.6184 97.11 28.7671 97.11H57.9848C57.4768 95.6882 57.2001 94.1565 57.2001 92.5601C57.2001 85.0934 63.2532 79.0401 70.72 79.0401C71.5882 79.0401 72.4373 79.122 73.2599 79.2783V29.6047C73.2599 28.4559 72.3287 27.5247 71.1799 27.5247H28.7671Z" fill="white"/>
<path fill-rule="evenodd" clip-rule="evenodd" d="M82.1602 92.8203C82.1602 98.995 77.1546 104 70.9801 104C64.8056 104 59.8002 98.995 59.8002 92.8203C59.8002 86.646 64.8056 81.6404 70.9801 81.6404C77.1546 81.6404 82.1602 86.646 82.1602 92.8203Z" fill="#FFACA0"/>
<g filter="url(#filter4_f_2144_14843)">
<path fill-rule="evenodd" clip-rule="evenodd" d="M66.0652 90.3497C65.9715 90.6542 66.1481 90.9758 66.4553 91.0601L67.9861 91.4798C68.2989 91.5656 68.6233 91.3874 68.7187 91.0774C68.9754 90.1358 69.7458 89.6222 70.6874 89.6222C71.8001 89.6222 72.8273 90.3926 72.8273 91.5481C72.8273 92.5753 71.9713 93.3457 70.9441 93.474C70.0025 93.5596 69.3178 94.3727 69.3178 95.3143V96.9835C69.3178 97.2707 69.5506 97.5035 69.8378 97.5035H71.5796C71.8668 97.5035 72.0996 97.2707 72.0996 96.9835V96.0419C74.1111 95.4856 75.5663 93.688 75.5663 91.5481C75.5663 88.8946 73.2978 86.8403 70.6872 86.8403C68.5047 86.8403 66.6215 88.2098 66.0652 90.3497ZM70.7302 101.783C71.6993 101.783 72.4848 100.998 72.4848 100.029C72.4848 99.0595 71.6993 98.2738 70.7302 98.2738C69.761 98.2738 68.9755 99.0595 68.9755 100.029C68.9755 100.998 69.761 101.783 70.7302 101.783Z" fill="#D8897E" fill-opacity="0.64"/>
</g>
<path fill-rule="evenodd" clip-rule="evenodd" d="M66.0653 88.7895C65.9716 89.094 66.1482 89.4156 66.4554 89.4998L67.9861 89.9196C68.299 90.0054 68.6234 89.8272 68.7188 89.5172C68.9755 88.5756 69.7459 88.062 70.6874 88.062C71.8001 88.062 72.8273 88.8323 72.8273 89.9879C72.8273 91.0151 71.9714 91.7854 70.9442 91.9138C70.0026 91.9994 69.3179 92.8125 69.3179 93.7541V94.9433C69.3179 95.4956 69.7656 95.9433 70.3179 95.9433H71.0997C71.652 95.9433 72.0997 95.4956 72.0997 94.9433V94.4817C74.1112 93.9254 75.5664 92.1278 75.5664 89.9879C75.5664 87.3344 73.2978 85.2801 70.6873 85.2801C68.5048 85.2801 66.6216 86.6496 66.0653 88.7895ZM70.7302 100.223C71.6994 100.223 72.4849 99.4373 72.4849 98.4683C72.4849 97.4992 71.6994 96.7135 70.7302 96.7135C69.7611 96.7135 68.9756 97.4992 68.9756 98.4683C68.9756 99.4373 69.7611 100.223 70.7302 100.223Z" fill="white"/>
<g filter="url(#filter5_f_2144_14843)">
<path d="M68.4333 90.6936H68.7849V98.8036H68.4333V90.6936Z" fill="#527A74" fill-opacity="0.45"/>
</g>
<path fill-rule="evenodd" clip-rule="evenodd" d="M47.5504 41.6896C47.4684 41.4934 47.2212 41.4305 47.0554 41.5637L46.2487 42.2118C45.9129 42.4817 45.4219 42.4281 45.1521 42.0923C44.8823 41.7565 44.9358 41.2655 45.2716 40.9957L46.0783 40.3476C47.0535 39.5641 48.5077 39.934 48.9899 41.0883L49.17 41.5194C49.1725 41.5255 49.1747 41.5285 49.1755 41.5296C49.1765 41.5309 49.1774 41.5317 49.1785 41.5326C49.181 41.5345 49.1864 41.5374 49.1946 41.5387C49.2028 41.54 49.2089 41.5388 49.2118 41.5378C49.2131 41.5373 49.2143 41.5368 49.2155 41.5359C49.2167 41.5351 49.2197 41.5329 49.224 41.5279C49.8515 40.7939 50.9827 40.783 51.6242 41.5048L52.0318 41.9634L52.3542 42.3727C52.7288 41.3625 54.1164 41.0989 54.8202 42.0038L54.9393 42.1569L55.4541 41.5327C55.9572 40.9226 56.8317 41.0482 57.2198 41.6016L57.6648 41.3794C57.7233 41.3501 57.7696 41.3013 57.7957 41.2413L57.817 41.1922C58.3046 40.0712 59.7208 39.7146 60.6812 40.4709L61.286 40.9472L61.8293 40.5952C62.6519 40.0621 63.7123 40.0672 64.5297 40.6082L64.8255 40.8039C65.1113 40.993 65.4549 41.0745 65.7952 41.0338L67.5077 40.8293C67.9354 40.7782 68.3236 41.0835 68.3747 41.5113C68.4257 41.939 68.1204 42.3272 67.6927 42.3783L65.9802 42.5828C65.2729 42.6673 64.5587 42.4979 63.9646 42.1048L63.6689 41.9091C63.3688 41.7105 62.9796 41.7087 62.6776 41.9044L61.7474 42.507C61.4187 42.7201 60.9908 42.7003 60.683 42.458L59.7161 41.6965C59.559 41.5728 59.3273 41.6311 59.2475 41.8145L59.2262 41.8636C59.054 42.2594 58.7481 42.582 58.3619 42.7749L57.4566 43.2272C57.0204 43.4451 56.5387 43.3458 56.2186 43.0576L56.0538 43.2575C55.464 43.9727 54.3633 43.957 53.794 43.2253L53.749 43.1674C53.3746 44.1728 51.9954 44.4383 51.289 43.5415L50.835 42.9651L50.4581 42.5411C50.4535 42.5359 50.45 42.534 50.4475 42.5329C50.4442 42.5315 50.4395 42.5303 50.4338 42.5304C50.4281 42.5304 50.4235 42.5317 50.4202 42.5332C50.4177 42.5343 50.4143 42.5362 50.4097 42.5416C49.6388 43.4433 48.1878 43.2154 47.7305 42.1207L47.5504 41.6896Z" fill="#DED9C4"/>
<path fill-rule="evenodd" clip-rule="evenodd" d="M47.3896 54.8477C47.2158 54.6382 46.9061 54.6068 46.6939 54.7773L45.7287 55.5528C45.3928 55.8226 44.9019 55.7691 44.6321 55.4333C44.3622 55.0975 44.4158 54.6065 44.7516 54.3367L45.7168 53.5612C46.5933 52.857 47.8727 52.9864 48.5904 53.852L48.8284 54.139C48.9014 54.227 49.0362 54.2281 49.1105 54.1411C49.798 53.337 51.0373 53.3251 51.7402 54.1159L52.0317 54.4439L52.1382 54.579C52.4264 54.9449 52.9901 54.9152 53.2382 54.521C53.8502 53.5488 55.0996 53.1991 56.1272 53.7124L56.8641 54.0804H57.8168C57.8694 54.0804 57.9195 54.0585 57.9552 54.0199C58.6224 53.2991 59.7523 53.269 60.4569 53.9533L60.7511 54.2391C60.9306 54.4135 61.2007 54.4553 61.4246 54.3435L62.1072 54.0025C62.1806 53.9658 62.2506 53.9229 62.3165 53.8741C63.11 53.2868 64.1571 53.1691 65.0612 53.5657L65.8245 53.9005C66.219 54.0736 66.3986 54.5336 66.2255 54.9281C66.0525 55.3226 65.5924 55.5022 65.1979 55.3291L64.4346 54.9943C64.0426 54.8224 63.5886 54.8734 63.2445 55.128C63.1059 55.2306 62.9587 55.321 62.8044 55.398L62.1218 55.739C61.3049 56.1471 60.3192 55.9944 59.6642 55.3581L59.37 55.0724C59.294 54.9986 59.1721 55.0018 59.1001 55.0796C58.7692 55.4371 58.304 55.6404 57.8168 55.6404H56.4962L55.4302 55.108C55.1201 54.9531 54.7431 55.0586 54.5585 55.352C53.7361 56.6585 51.868 56.7571 50.9127 55.5443L50.835 55.4456L50.5742 55.1522C50.4999 55.0686 50.3689 55.0699 50.2962 55.1549C49.593 55.9774 48.3183 55.9678 47.6276 55.1347L47.3896 54.8477Z" fill="#DED9C4"/>
<path fill-rule="evenodd" clip-rule="evenodd" d="M47.3896 68.5469C47.2158 68.3374 46.9061 68.3061 46.6939 68.4766L45.7287 69.252C45.3928 69.5219 44.9019 69.4683 44.6321 69.1325C44.3622 68.7967 44.4158 68.3057 44.7516 68.0359L45.7168 67.2604C46.5933 66.5562 47.8727 66.6857 48.5904 67.5512L48.8284 67.8382C48.9014 67.9263 49.0362 67.9273 49.1105 67.8403C49.798 67.0362 51.0373 67.0243 51.7402 67.8151L52.0317 68.1431L52.1382 68.2782C52.4264 68.6441 52.9901 68.6144 53.2382 68.2202C53.8502 67.248 55.0996 66.8983 56.1272 67.4116L56.8641 67.7796H57.8168C57.8694 67.7796 57.9195 67.7577 57.9552 67.7191C58.6224 66.9983 59.7523 66.9682 60.4569 67.6526L60.7511 67.9383C60.9306 68.1127 61.2007 68.1545 61.4246 68.0427L62.1072 67.7017C62.1806 67.6651 62.2506 67.6221 62.3165 67.5734C63.11 66.986 64.1571 66.8684 65.0612 67.2649L65.8245 67.5997C66.219 67.7728 66.3986 68.2329 66.2255 68.6274C66.0525 69.0219 65.5924 69.2014 65.1979 69.0283L64.4346 68.6935C64.0426 68.5216 63.5886 68.5726 63.2445 68.8273C63.1059 68.9298 62.9587 69.0202 62.8044 69.0973L62.1218 69.4383C61.3049 69.8464 60.3192 69.6936 59.6642 69.0573L59.37 68.7716C59.294 68.6978 59.1721 68.701 59.1001 68.7788C58.7692 69.1364 58.304 69.3396 57.8168 69.3396H56.4962L55.4302 68.8072C55.1201 68.6523 54.7431 68.7579 54.5585 69.0512C53.7361 70.3577 51.868 70.4563 50.9127 69.2436L50.835 69.1448L50.5742 68.8514C50.4999 68.7678 50.3689 68.7691 50.2962 68.8541C49.593 69.6766 48.3183 69.667 47.6276 68.834L47.3896 68.5469Z" fill="#DED9C4"/>
<path fill-rule="evenodd" clip-rule="evenodd" d="M46.1038 81.674L45.8866 81.9957C45.6455 82.3527 45.1606 82.4467 44.8036 82.2056C44.4466 81.9645 44.3527 81.4796 44.5937 81.1226L45.0335 80.4714C45.5725 79.6733 46.7247 79.7045 47.2403 80.4577C47.8057 80.0809 48.6463 80.2377 48.9821 80.9341L49.0418 81.058C49.4693 80.2137 50.6147 79.9638 51.3492 80.64L51.4138 80.6994H51.45C51.9556 80.0208 53.0274 80.0515 53.4753 80.8176L53.568 80.7323C53.5734 80.7273 53.5784 80.7218 53.5828 80.7158C54.1178 79.9859 55.1542 79.8513 55.858 80.4202L56.1306 80.6406C56.4656 80.9114 56.5176 81.4026 56.2467 81.7376C55.9759 82.0726 55.4848 82.1246 55.1498 81.8537L54.8772 81.6334C54.8731 81.63 54.8704 81.629 54.8684 81.6285C54.8659 81.6278 54.8623 81.6274 54.8581 81.628C54.8538 81.6285 54.8505 81.6298 54.8482 81.6311C54.8464 81.6322 54.8441 81.6338 54.8409 81.6381C54.7768 81.7255 54.7044 81.8065 54.6246 81.88L54.3345 82.1471C53.7532 82.6823 52.857 82.5974 52.3782 82.0097C52.1696 82.1688 51.9111 82.2594 51.6389 82.2594H50.8051L50.3896 81.8769C49.9269 82.9337 48.4431 83.064 47.8228 82.0976C47.2702 82.4684 46.4533 82.3258 46.1038 81.674ZM48.4176 81.5592L49.1348 81.2526C49.1321 81.2462 49.1249 81.235 49.1132 81.2237L48.4176 81.5592Z" fill="#DED9C4"/>
<path d="M32.7601 40.5602C32.7601 39.4115 33.6914 38.4802 34.8401 38.4802H38.4801C39.6289 38.4802 40.5601 39.4115 40.5601 40.5602V44.2002C40.5601 45.349 39.6289 46.2802 38.4801 46.2802H34.8401C33.6914 46.2802 32.7601 45.349 32.7601 44.2002V40.5602Z" fill="#FFEDEB"/>
<path fill-rule="evenodd" clip-rule="evenodd" d="M36.8317 42.9847C36.7947 43.1048 36.8644 43.2317 36.9856 43.265L37.5896 43.4306C37.713 43.4644 37.841 43.3941 37.8786 43.2718C37.9799 42.9003 38.2839 42.6977 38.6554 42.6977C39.0944 42.6977 39.4997 43.0016 39.4997 43.4575C39.4997 43.8628 39.1619 44.1668 38.7567 44.2174C38.3852 44.2512 38.115 44.572 38.115 44.9435V45.4963C38.115 45.7835 38.3478 46.0163 38.635 46.0163H38.6926C38.9798 46.0163 39.2126 45.7835 39.2126 45.4963V45.2306C40.0062 45.0111 40.5803 44.3018 40.5803 43.4575C40.5803 42.4106 39.6853 41.6001 38.6553 41.6001C37.7942 41.6001 37.0512 42.1404 36.8317 42.9847ZM38.6524 48.2249C39.0348 48.2249 39.3447 47.9149 39.3447 47.5326C39.3447 47.1502 39.0348 46.8403 38.6524 46.8403C38.27 46.8403 37.9601 47.1502 37.9601 47.5326C37.9601 47.9149 38.27 48.2249 38.6524 48.2249Z" fill="#FFACA0"/>
<path fill-rule="evenodd" clip-rule="evenodd" d="M37.8786 43.2718C37.841 43.3941 37.713 43.4644 37.5896 43.4306L36.9856 43.265C36.8644 43.2317 36.7947 43.1048 36.8317 42.9847C37.0512 42.1404 37.7942 41.6001 38.6553 41.6001C39.6853 41.6001 40.5803 42.4106 40.5803 43.4575C40.5803 44.3018 40.0062 45.011 39.2126 45.2305V45.4963C39.2126 45.7835 38.9798 46.0163 38.6926 46.0163H38.635C38.3478 46.0163 38.115 45.7835 38.115 45.4963V44.9435C38.115 44.572 38.3852 44.2512 38.7567 44.2174C39.162 44.1667 39.4997 43.8628 39.4997 43.4575C39.4997 43.0016 39.0944 42.6977 38.6554 42.6977C38.2839 42.6977 37.9799 42.9003 37.8786 43.2718ZM38.6981 43.7006C38.7913 43.6877 38.8673 43.6472 38.9154 43.5999C38.9611 43.5548 38.9797 43.5075 38.9797 43.4575C38.9797 43.3957 38.9561 43.346 38.9051 43.3026C38.8483 43.2542 38.7586 43.2177 38.6554 43.2177C38.4925 43.2177 38.4134 43.2873 38.3803 43.4086L38.3781 43.4167L38.3756 43.4248C38.2554 43.8156 37.8464 44.0402 37.4521 43.9321L36.8481 43.7664C36.4484 43.6568 36.2167 43.2418 36.3307 42.8453C36.6158 41.7644 37.5733 41.0801 38.6553 41.0801C39.945 41.0801 41.1003 42.0966 41.1003 43.4575C41.1003 44.4061 40.5384 45.2154 39.7282 45.5929C39.6943 45.9601 39.4696 46.2721 39.1541 46.4286C39.5733 46.6194 39.8647 47.042 39.8647 47.5326C39.8647 48.2021 39.322 48.7449 38.6524 48.7449C37.9828 48.7449 37.4401 48.2021 37.4401 47.5326C37.4401 47.0373 37.7371 46.6113 38.1628 46.4232C37.8258 46.2511 37.595 45.9007 37.595 45.4963V44.9435C37.595 44.329 38.0433 43.7662 38.6981 43.7006ZM39.3447 47.5326C39.3447 47.9149 39.0348 48.2249 38.6524 48.2249C38.27 48.2249 37.9601 47.9149 37.9601 47.5326C37.9601 47.1502 38.27 46.8402 38.6524 46.8402C39.0348 46.8402 39.3447 47.1502 39.3447 47.5326Z" fill="white"/>
<path d="M32.7601 53.5605C32.7601 52.4117 33.6914 51.4805 34.8401 51.4805H38.4801C39.6289 51.4805 40.5601 52.4117 40.5601 53.5605V57.2005C40.5601 58.3492 39.6289 59.2805 38.4801 59.2805H34.8401C33.6914 59.2805 32.7601 58.3492 32.7601 57.2005V53.5605Z" fill="#FFEDEB"/>
<path fill-rule="evenodd" clip-rule="evenodd" d="M36.8317 55.985C36.7947 56.1051 36.8644 56.232 36.9856 56.2652L37.5896 56.4308C37.713 56.4647 37.841 56.3944 37.8786 56.2721C37.9799 55.9006 38.2839 55.6979 38.6554 55.6979C39.0944 55.6979 39.4997 56.0019 39.4997 56.4578C39.4997 56.8631 39.1619 57.167 38.7567 57.2176C38.3852 57.2514 38.115 57.5722 38.115 57.9437V58.4966C38.115 58.7838 38.3478 59.0166 38.635 59.0166H38.6926C38.9798 59.0166 39.2126 58.7838 39.2126 58.4966V58.2308C40.0062 58.0113 40.5803 57.3021 40.5803 56.4578C40.5803 55.4109 39.6853 54.6003 38.6553 54.6003C37.7942 54.6003 37.0512 55.1407 36.8317 55.985ZM38.6523 61.2251C39.0347 61.2251 39.3446 60.9152 39.3446 60.5328C39.3446 60.1505 39.0347 59.8405 38.6523 59.8405C38.27 59.8405 37.96 60.1505 37.96 60.5328C37.96 60.9152 38.27 61.2251 38.6523 61.2251Z" fill="#FFACA0"/>
<path fill-rule="evenodd" clip-rule="evenodd" d="M37.8786 56.272C37.841 56.3944 37.713 56.4647 37.5896 56.4308L36.9856 56.2652C36.8644 56.232 36.7947 56.1051 36.8317 55.985C37.0512 55.1407 37.7942 54.6003 38.6553 54.6003C39.6853 54.6003 40.5803 55.4108 40.5803 56.4578C40.5803 57.3021 40.0062 58.0113 39.2126 58.2308V58.4965C39.2126 58.7837 38.9798 59.0165 38.6926 59.0165H38.635C38.3478 59.0165 38.115 58.7837 38.115 58.4965V57.9437C38.115 57.5722 38.3852 57.2514 38.7567 57.2176C39.162 57.167 39.4997 56.863 39.4997 56.4578C39.4997 56.0018 39.0944 55.6979 38.6554 55.6979C38.2839 55.6979 37.9799 55.9005 37.8786 56.272ZM38.6981 56.7009C38.7913 56.6879 38.8673 56.6474 38.9154 56.6001C38.9611 56.5551 38.9797 56.5077 38.9797 56.4578C38.9797 56.3959 38.9561 56.3462 38.9051 56.3028C38.8483 56.2545 38.7586 56.2179 38.6554 56.2179C38.4925 56.2179 38.4134 56.2876 38.3803 56.4088L38.3781 56.417L38.3756 56.425C38.2554 56.8158 37.8464 57.0404 37.4521 56.9323L36.8481 56.7667C36.4484 56.6571 36.2167 56.2421 36.3307 55.8455C36.6158 54.7646 37.5733 54.0803 38.6553 54.0803C39.945 54.0803 41.1003 55.0969 41.1003 56.4578C41.1003 57.4063 40.5384 58.2156 39.7282 58.5931C39.6943 58.9604 39.4696 59.2723 39.154 59.4288C39.5732 59.6196 39.8647 60.0422 39.8647 60.5328C39.8647 61.2023 39.3219 61.7451 38.6523 61.7451C37.9828 61.7451 37.44 61.2023 37.44 60.5328C37.44 60.0375 37.7371 59.6115 38.1628 59.4234C37.8258 59.2513 37.595 58.9009 37.595 58.4965V57.9437C37.595 57.3292 38.0433 56.7664 38.6981 56.7009ZM39.3447 60.5328C39.3447 60.9152 39.0347 61.2251 38.6523 61.2251C38.27 61.2251 37.96 60.9152 37.96 60.5328C37.96 60.1505 38.27 59.8405 38.6523 59.8405C39.0347 59.8405 39.3447 60.1505 39.3447 60.5328Z" fill="white"/>
<path d="M32.7601 66.5605C32.7601 65.4117 33.6914 64.4805 34.8401 64.4805H38.4801C39.6289 64.4805 40.5601 65.4117 40.5601 66.5605V70.2005C40.5601 71.3492 39.6289 72.2805 38.4801 72.2805H34.8401C33.6914 72.2805 32.7601 71.3492 32.7601 70.2005V66.5605Z" fill="#FFEDEB"/>
<path fill-rule="evenodd" clip-rule="evenodd" d="M36.8317 68.985C36.7947 69.1051 36.8644 69.232 36.9856 69.2652L37.5896 69.4308C37.713 69.4647 37.841 69.3944 37.8786 69.2721C37.9799 68.9006 38.2839 68.6979 38.6554 68.6979C39.0944 68.6979 39.4997 69.0019 39.4997 69.4578C39.4997 69.8631 39.1619 70.167 38.7567 70.2176C38.3852 70.2514 38.115 70.5722 38.115 70.9437V71.4966C38.115 71.7838 38.3478 72.0166 38.635 72.0166H38.6926C38.9798 72.0166 39.2126 71.7838 39.2126 71.4966V71.2308C40.0062 71.0113 40.5803 70.3021 40.5803 69.4578C40.5803 68.4109 39.6853 67.6003 38.6553 67.6003C37.7942 67.6003 37.0512 68.1407 36.8317 68.985ZM38.6523 74.2251C39.0347 74.2251 39.3446 73.9152 39.3446 73.5328C39.3446 73.1505 39.0347 72.8405 38.6523 72.8405C38.27 72.8405 37.96 73.1505 37.96 73.5328C37.96 73.9152 38.27 74.2251 38.6523 74.2251Z" fill="#FFACA0"/>
<path fill-rule="evenodd" clip-rule="evenodd" d="M37.8786 69.272C37.841 69.3944 37.713 69.4647 37.5896 69.4308L36.9856 69.2652C36.8644 69.232 36.7947 69.1051 36.8317 68.985C37.0512 68.1407 37.7942 67.6003 38.6553 67.6003C39.6853 67.6003 40.5803 68.4108 40.5803 69.4578C40.5803 70.3021 40.0062 71.0113 39.2126 71.2308V71.4965C39.2126 71.7837 38.9798 72.0165 38.6926 72.0165H38.635C38.3478 72.0165 38.115 71.7837 38.115 71.4965V70.9437C38.115 70.5722 38.3852 70.2514 38.7567 70.2176C39.162 70.167 39.4997 69.863 39.4997 69.4578C39.4997 69.0018 39.0944 68.6979 38.6554 68.6979C38.2839 68.6979 37.9799 68.9005 37.8786 69.272ZM38.6981 69.7009C38.7913 69.6879 38.8673 69.6474 38.9154 69.6001C38.9611 69.5551 38.9797 69.5077 38.9797 69.4578C38.9797 69.3959 38.9561 69.3462 38.9051 69.3028C38.8483 69.2545 38.7586 69.2179 38.6554 69.2179C38.4925 69.2179 38.4134 69.2876 38.3803 69.4088L38.3781 69.417L38.3756 69.425C38.2554 69.8158 37.8464 70.0404 37.4521 69.9323L36.8481 69.7667C36.4484 69.6571 36.2167 69.2421 36.3307 68.8455C36.6158 67.7646 37.5733 67.0803 38.6553 67.0803C39.945 67.0803 41.1003 68.0969 41.1003 69.4578C41.1003 70.4063 40.5384 71.2156 39.7282 71.5931C39.6943 71.9604 39.4696 72.2723 39.154 72.4288C39.5732 72.6196 39.8647 73.0422 39.8647 73.5328C39.8647 74.2023 39.3219 74.7451 38.6523 74.7451C37.9828 74.7451 37.44 74.2023 37.44 73.5328C37.44 73.0375 37.7371 72.6115 38.1628 72.4234C37.8258 72.2513 37.595 71.9009 37.595 71.4965V70.9437C37.595 70.3292 38.0433 69.7664 38.6981 69.7009ZM39.3447 73.5328C39.3447 73.9152 39.0347 74.2251 38.6523 74.2251C38.27 74.2251 37.96 73.9152 37.96 73.5328C37.96 73.1505 38.27 72.8405 38.6523 72.8405C39.0347 72.8405 39.3447 73.1505 39.3447 73.5328Z" fill="white"/>
<path d="M32.7601 79.5605C32.7601 78.4117 33.6914 77.4805 34.8401 77.4805H38.4801C39.6289 77.4805 40.5601 78.4117 40.5601 79.5605V83.2005C40.5601 84.3492 39.6289 85.2805 38.4801 85.2805H34.8401C33.6914 85.2805 32.7601 84.3492 32.7601 83.2005V79.5605Z" fill="#FFEDEB"/>
<path fill-rule="evenodd" clip-rule="evenodd" d="M36.8317 81.985C36.7947 82.1051 36.8644 82.232 36.9856 82.2652L37.5896 82.4308C37.713 82.4647 37.841 82.3944 37.8786 82.2721C37.9799 81.9006 38.2839 81.6979 38.6554 81.6979C39.0944 81.6979 39.4997 82.0019 39.4997 82.4578C39.4997 82.8631 39.1619 83.167 38.7567 83.2176C38.3852 83.2514 38.115 83.5722 38.115 83.9437V84.4966C38.115 84.7838 38.3478 85.0166 38.635 85.0166H38.6926C38.9798 85.0166 39.2126 84.7838 39.2126 84.4966V84.2308C40.0062 84.0113 40.5803 83.3021 40.5803 82.4578C40.5803 81.4109 39.6853 80.6003 38.6553 80.6003C37.7942 80.6003 37.0512 81.1407 36.8317 81.985ZM38.6523 87.2251C39.0347 87.2251 39.3446 86.9152 39.3446 86.5328C39.3446 86.1505 39.0347 85.8405 38.6523 85.8405C38.27 85.8405 37.96 86.1505 37.96 86.5328C37.96 86.9152 38.27 87.2251 38.6523 87.2251Z" fill="#FFACA0"/>
<path fill-rule="evenodd" clip-rule="evenodd" d="M37.8786 82.272C37.841 82.3944 37.713 82.4647 37.5896 82.4308L36.9856 82.2652C36.8644 82.232 36.7947 82.1051 36.8317 81.985C37.0512 81.1407 37.7942 80.6003 38.6553 80.6003C39.6853 80.6003 40.5803 81.4108 40.5803 82.4578C40.5803 83.3021 40.0062 84.0113 39.2126 84.2308V84.4965C39.2126 84.7837 38.9798 85.0165 38.6926 85.0165H38.635C38.3478 85.0165 38.115 84.7837 38.115 84.4965V83.9437C38.115 83.5722 38.3852 83.2514 38.7567 83.2176C39.162 83.167 39.4997 82.863 39.4997 82.4578C39.4997 82.0018 39.0944 81.6979 38.6554 81.6979C38.2839 81.6979 37.9799 81.9005 37.8786 82.272ZM38.6981 82.7009C38.7913 82.6879 38.8673 82.6474 38.9154 82.6001C38.9611 82.5551 38.9797 82.5077 38.9797 82.4578C38.9797 82.3959 38.9561 82.3462 38.9051 82.3028C38.8483 82.2545 38.7586 82.2179 38.6554 82.2179C38.4925 82.2179 38.4134 82.2876 38.3803 82.4088L38.3781 82.417L38.3756 82.425C38.2554 82.8158 37.8464 83.0404 37.4521 82.9323L36.8481 82.7667C36.4484 82.6571 36.2167 82.2421 36.3307 81.8455C36.6158 80.7646 37.5733 80.0803 38.6553 80.0803C39.945 80.0803 41.1003 81.0969 41.1003 82.4578C41.1003 83.4063 40.5384 84.2156 39.7282 84.5931C39.6943 84.9604 39.4696 85.2723 39.154 85.4288C39.5732 85.6196 39.8647 86.0422 39.8647 86.5328C39.8647 87.2023 39.3219 87.7451 38.6523 87.7451C37.9828 87.7451 37.44 87.2023 37.44 86.5328C37.44 86.0375 37.7371 85.6115 38.1628 85.4234C37.8258 85.2513 37.595 84.9009 37.595 84.4965V83.9437C37.595 83.3292 38.0433 82.7664 38.6981 82.7009ZM39.3447 86.5328C39.3447 86.9152 39.0347 87.2251 38.6523 87.2251C38.27 87.2251 37.96 86.9152 37.96 86.5328C37.96 86.1505 38.27 85.8405 38.6523 85.8405C39.0347 85.8405 39.3447 86.1505 39.3447 86.5328Z" fill="white"/>
<path fill-rule="evenodd" clip-rule="evenodd" d="M50.0266 21.4978C49.3945 21.4978 48.8818 20.9826 48.8818 20.347C48.8818 19.7118 49.3945 19.1965 50.0266 19.1965C50.6587 19.1965 51.1714 19.7118 51.1714 20.347C51.1714 20.9826 50.6587 21.4978 50.0266 21.4978ZM52.8633 20.5905C52.8633 18.9736 51.5699 17.6626 49.9741 17.6626C48.3786 17.6626 47.085 18.9736 47.085 20.5905H40.63C39.8898 20.5905 39.2898 21.1986 39.2898 21.949V27.8105C39.2898 28.5606 39.8898 29.169 40.63 29.169H59.3183C60.0584 29.169 60.6588 28.5606 60.6588 27.8105V21.949C60.6588 21.1986 60.0584 20.5905 59.3183 20.5905H52.8633Z" fill="#DED9C4"/>
<path fill-rule="evenodd" clip-rule="evenodd" d="M75.4525 70.2673C75.083 70.2646 74.7083 70.2643 74.3567 70.2588C74.7083 70.2643 75.0829 70.2646 75.4524 70.2672L75.4525 70.2673Z" fill="#0D8B84"/>
<defs>
<filter id="filter0_f_2144_14843" x="63.54" y="16.48" width="27.62" height="76.24" filterUnits="userSpaceOnUse" color-interpolation-filters="sRGB">
<feFlood flood-opacity="0" result="BackgroundImageFix"/>
<feBlend mode="normal" in="SourceGraphic" in2="BackgroundImageFix" result="shape"/>
<feGaussianBlur stdDeviation="4.5" result="effect1_foregroundBlur_2144_14843"/>
</filter>
<filter id="filter1_d_2144_14843" x="23.4001" y="16.2371" width="61.1479" height="84.1606" filterUnits="userSpaceOnUse" color-interpolation-filters="sRGB">
<feFlood flood-opacity="0" result="BackgroundImageFix"/>
<feColorMatrix in="SourceAlpha" type="matrix" values="0 0 0 0 0 0 0 0 0 0 0 0 0 0 0 0 0 0 127 0" result="hardAlpha"/>
<feOffset dx="4" dy="-4"/>
<feGaussianBlur stdDeviation="2"/>
<feComposite in2="hardAlpha" operator="out"/>
<feColorMatrix type="matrix" values="0 0 0 0 0.831373 0 0 0 0 0.85098 0 0 0 0 0.862745 0 0 0 0.25 0"/>
<feBlend mode="normal" in2="BackgroundImageFix" result="effect1_dropShadow_2144_14843"/>
<feBlend mode="normal" in="SourceGraphic" in2="effect1_dropShadow_2144_14843" result="shape"/>
</filter>
<filter id="filter2_d_2144_14843" x="21.3201" y="14.1572" width="65.308" height="88.3206" filterUnits="userSpaceOnUse" color-interpolation-filters="sRGB">
<feFlood flood-opacity="0" result="BackgroundImageFix"/>
<feColorMatrix in="SourceAlpha" type="matrix" values="0 0 0 0 0 0 0 0 0 0 0 0 0 0 0 0 0 0 127 0" result="hardAlpha"/>
<feOffset dx="4" dy="-4"/>
<feGaussianBlur stdDeviation="2"/>
<feComposite in2="hardAlpha" operator="out"/>
<feColorMatrix type="matrix" values="0 0 0 0 0.831373 0 0 0 0 0.85098 0 0 0 0 0.862745 0 0 0 0.25 0"/>
<feBlend mode="normal" in2="BackgroundImageFix" result="effect1_dropShadow_2144_14843"/>
<feBlend mode="normal" in="SourceGraphic" in2="effect1_dropShadow_2144_14843" result="shape"/>
</filter>
<filter id="filter3_f_2144_14843" x="27.2994" y="14.4379" width="45.8975" height="22.8846" filterUnits="userSpaceOnUse" color-interpolation-filters="sRGB">
<feFlood flood-opacity="0" result="BackgroundImageFix"/>
<feBlend mode="normal" in="SourceGraphic" in2="BackgroundImageFix" result="shape"/>
<feGaussianBlur stdDeviation="4.07742" result="effect1_foregroundBlur_2144_14843"/>
</filter>
<filter id="filter4_f_2144_14843" x="60.04" y="80.8403" width="21.5262" height="26.9429" filterUnits="userSpaceOnUse" color-interpolation-filters="sRGB">
<feFlood flood-opacity="0" result="BackgroundImageFix"/>
<feBlend mode="normal" in="SourceGraphic" in2="BackgroundImageFix" result="shape"/>
<feGaussianBlur stdDeviation="3" result="effect1_foregroundBlur_2144_14843"/>
</filter>
<filter id="filter5_f_2144_14843" x="63.2833" y="85.5436" width="10.6516" height="18.4099" filterUnits="userSpaceOnUse" color-interpolation-filters="sRGB">
<feFlood flood-opacity="0" result="BackgroundImageFix"/>
<feBlend mode="normal" in="SourceGraphic" in2="BackgroundImageFix" result="shape"/>
<feGaussianBlur stdDeviation="2.575" result="effect1_foregroundBlur_2144_14843"/>
</filter>
<linearGradient id="paint0_linear_2144_14843" x1="22.2482" y1="-6.21456" x2="-8.81456" y2="80.6216" gradientUnits="userSpaceOnUse">
<stop stop-color="#EEF3F0" stop-opacity="0.0789496"/>
<stop offset="1" stop-color="#D9E4DD"/>
</linearGradient>
<linearGradient id="paint1_linear_2144_14843" x1="37.2519" y1="20.9691" x2="6.21302" y2="66.6503" gradientUnits="userSpaceOnUse">
<stop stop-color="#EEF3F0" stop-opacity="0.0789496"/>
<stop offset="1" stop-color="#D9E4DD"/>
</linearGradient>
</defs>
</svg>
