<?xml version="1.0" encoding="UTF-8"?>
<svg width="34px" height="34px" viewBox="0 0 34 34" version="1.1" xmlns="http://www.w3.org/2000/svg" xmlns:xlink="http://www.w3.org/1999/xlink">
    <title>AA39B1A0-71D7-4C9C-A2C2-8AB9B4E87D0F</title>
    <g id="Page-1" stroke="none" stroke-width="1" fill="none" fill-rule="evenodd">
        <g id="1-Episode-Home" transform="translate(-291.000000, -53.000000)">
            <g id="Group-6" transform="translate(291.500000, 53.500000)">
                <path d="M23.5,0 L9.5,0 C4.25329488,0 0,4.25329488 0,9.5 L0,23.5 C0,28.7467051 4.25329488,33 9.5,33 L23.5,33 C28.7467051,33 33,28.7467051 33,23.5 L33,9.5 C33,4.25329488 28.7467051,0 23.5,0 Z M9.5,1 L23.5,1 C28.1944204,1 32,4.80557963 32,9.5 L32,23.5 C32,28.1944204 28.1944204,32 23.5,32 L9.5,32 C4.80557963,32 1,28.1944204 1,23.5 L1,9.5 C1,4.80557963 4.80557963,1 9.5,1 Z" id="Rectangle" fill="#CBE5E3" fill-rule="nonzero"></path>
                <path d="M17.538,20.8999999 L15.462,20.8999999 C14.6912895,20.8999999 14.2102792,21.7351072 14.597,22.4017718 C14.9905775,23.0802566 15.7156245,23.4978737 16.5,23.4978737 C17.2843755,23.4978737 18.0094225,23.0802566 18.403,22.4017718 C18.7897208,21.7351072 18.3087105,20.8999999 17.538,20.8999999 Z M10.3668252,20.4930296 L10.5,20.5 L22.5,20.5 L22.6331748,20.4930296 C23.7889417,20.3690393 23.7889417,18.6309607 22.6331748,18.5069704 L22.5,18.5 C22.0581722,18.5 21.7,18.1418278 21.7,17.6999999 L21.7,14.6999999 C21.7,11.8281193 19.3718807,9.5 16.5,9.5 C13.6281193,9.5 11.3,11.8281193 11.3,14.6999999 L11.3,17.6999999 C11.3,18.107841 10.9948118,18.4444016 10.6003503,18.4937669 L10.5,18.5 C9.21264368,18.5 9.16825208,20.3644471 10.3668252,20.4930296 Z M16.5,11.5 C18.2673112,11.5 19.7,12.9326888 19.7,14.7 L19.7,17.6999999 L19.70511,17.8705681 C19.7152813,18.0398338 19.7404898,18.2050454 19.7794176,18.3648849 L19.816,18.5 L13.183,18.5 L13.2205824,18.3648849 C13.2724861,18.1517655 13.3,17.9290958 13.3,17.6999999 L13.3,14.6999999 C13.3,12.9326888 14.7326888,11.5 16.5,11.5 Z" id="Shape" fill="#141414" fill-rule="nonzero"></path>
                <g id="bell" transform="translate(9.500000, 9.500000)"></g>
            </g>
        </g>
    </g>
</svg>