<?xml version="1.0" encoding="UTF-8"?>
<svg width="20px" height="20px" viewBox="0 0 20 20" version="1.1" xmlns="http://www.w3.org/2000/svg" xmlns:xlink="http://www.w3.org/1999/xlink">
    <title>D125C7BA-A394-4B72-9092-9A78DB911862</title>
    <g id="Page-1" stroke="none" stroke-width="1" fill="none" fill-rule="evenodd">
        <g id="2-ToC-Form-Filter" transform="translate(-344.000000, -152.000000)">
            <g id="Group-13-Copy" transform="translate(247.000000, 141.000000)">
                <g id="uil:calender" transform="translate(97.000000, 11.000000)">
                    <rect id="ViewBox" x="0" y="0" width="20" height="20"></rect>
                    <path d="M15.8333333,3.33333333 L14.1666667,3.33333333 L14.1666667,2.5 C14.1666667,2.03976271 13.7935706,1.66666667 13.3333333,1.66666667 C12.873096,1.66666667 12.5,2.03976271 12.5,2.5 L12.5,3.33333333 L7.5,3.33333333 L7.5,2.5 C7.5,2.03976271 7.12690396,1.66666667 6.66666667,1.66666667 C6.20642938,1.66666667 5.83333333,2.03976271 5.83333333,2.5 L5.83333333,3.33333333 L4.16666667,3.33333333 C2.78595479,3.33333333 1.66666667,4.45262146 1.66666667,5.83333333 L1.66666667,15.8333333 C1.66666667,17.2140452 2.78595479,18.3333333 4.16666667,18.3333333 L15.8333333,18.3333333 C17.2140452,18.3333333 18.3333333,17.2140452 18.3333333,15.8333333 L18.3333333,5.83333333 C18.3333333,4.45262146 17.2140452,3.33333333 15.8333333,3.33333333 Z M16.6666667,15.8333333 C16.6666667,16.2935706 16.2935706,16.6666667 15.8333333,16.6666667 L4.16666667,16.6666667 C3.70642938,16.6666667 3.33333333,16.2935706 3.33333333,15.8333333 L3.33333333,10 L16.6666667,10 L16.6666667,15.8333333 Z M16.6666667,8.33333333 L3.33333333,8.33333333 L3.33333333,5.83333333 C3.33333333,5.37309604 3.70642938,5 4.16666667,5 L5.83333333,5 L5.83333333,5.83333333 C5.83333333,6.29357062 6.20642938,6.66666667 6.66666667,6.66666667 C7.12690396,6.66666667 7.5,6.29357062 7.5,5.83333333 L7.5,5 L12.5,5 L12.5,5.83333333 C12.5,6.29357062 12.873096,6.66666667 13.3333333,6.66666667 C13.7935706,6.66666667 14.1666667,6.29357062 14.1666667,5.83333333 L14.1666667,5 L15.8333333,5 C16.2935706,5 16.6666667,5.37309604 16.6666667,5.83333333 L16.6666667,8.33333333 Z" id="Shape" fill="#666666" fill-rule="nonzero"></path>
                </g>
            </g>
        </g>
    </g>
</svg>