<?xml version="1.0" encoding="UTF-8"?>
<svg width="18px" height="18px" viewBox="0 0 18 18" version="1.1" xmlns="http://www.w3.org/2000/svg" xmlns:xlink="http://www.w3.org/1999/xlink">
    <title>AB93455D-05A0-4B67-8BE5-A60467F2AAA4</title>
    <g id="Page-1" stroke="none" stroke-width="1" fill="none" fill-rule="evenodd" stroke-linecap="round" stroke-linejoin="round">
        <g id="6-ToC-Form-Detail" transform="translate(-75.000000, -398.000000)" stroke="#333333" stroke-width="2">
            <g id="Group-5" transform="translate(16.000000, 351.000000)">
                <g id="Group-4-Copy" transform="translate(0.000000, 0.000000)">
                    <g id="Group-13" transform="translate(179.000000, 55.000000) scale(-1, 1) translate(-179.000000, -55.000000) translate(0.000000, 30.000000)">
                        <g id="Group-12" transform="translate(184.983007, 0.000000)">
                            <g id="Group-10" transform="translate(60.000000, 16.000000)">
                                <path d="M52.9995008,13.9193867 L52.9995008,16.3160305 C53.0013269,16.7659165 52.8133998,17.1957252 52.481888,17.4998645 C52.1503761,17.8040038 51.7060034,17.9542867 51.2579397,17.913793 C48.7996494,17.6466796 46.4382885,16.806659 44.3635946,15.4612275 C42.4333602,14.2346763 40.7968583,12.5981745 39.5703071,10.6679401 C38.2201803,8.58382185 37.3799688,6.21097724 37.1177417,3.74163966 C37.0773768,3.29496305 37.2266068,2.85188761 37.5289784,2.52064639 C37.83135,2.18940516 38.2590188,2.00050091 38.7075153,2 L41.1041591,2 C41.9061272,1.99218547 42.5896794,2.58004035 42.7019216,3.37415429 C42.8030783,4.14113337 42.9906768,4.89420711 43.2611384,5.61901059 C43.4806191,6.20289294 43.3402397,6.86111615 42.9016419,7.30465001 L41.8870627,8.3192292 C43.0243145,10.319265 44.6803144,11.9752649 46.6803502,13.1125167 L47.6949294,12.0979375 C48.1384632,11.6593396 48.7966864,11.5189603 49.3805688,11.7384409 C50.1053723,12.0089026 50.858446,12.196501 51.6254251,12.2976578 C52.4287502,12.4109873 53.0196246,13.1083566 52.9995008,13.9193867 Z" id="Shape" transform="translate(45.055626, 9.960142) scale(-1, 1) translate(-45.055626, -9.960142) "></path>
                            </g>
                        </g>
                    </g>
                </g>
            </g>
        </g>
    </g>
</svg>