<svg width="16" height="14" viewBox="0 0 16 14" fill="none" xmlns="http://www.w3.org/2000/svg">
<path fill-rule="evenodd" clip-rule="evenodd" d="M11.2381 1.93773L10.2857 0H5.71428L4.76189 1.93773H1.33331C0.594697 1.93773 0 2.54257 0 3.2941V11.8201C0 12.5715 0.594561 13.1765 1.33331 13.1765H14.6667C15.4053 13.1765 16 12.5716 16 11.8201V3.2941C16 2.54271 15.4054 1.93773 14.6667 1.93773H11.2381ZM4.70588 8C4.70588 6.18069 6.18065 4.70588 8 4.70588C9.81931 4.70588 11.2941 6.18069 11.2941 8C11.2941 9.81931 9.81922 11.2941 8 11.2941C6.18069 11.2941 4.70588 9.81931 4.70588 8Z" fill="#333333"/>
</svg>
