<svg width="19" height="20" viewBox="0 0 19 20" fill="none" xmlns="http://www.w3.org/2000/svg">
<path d="M15.0199 3.16396C13.4566 1.60952 10.9341 1.60061 9.35987 3.14396L2.69987 9.68796C2.30672 10.075 1.67462 10.0715 1.28587 9.67996C1.09947 9.49205 0.995706 9.23756 0.997584 8.97288C0.999461 8.70821 1.10682 8.45521 1.29587 8.26996L7.95387 1.72796C10.3112 -0.585914 14.0908 -0.574326 16.4339 1.75396C17.562 2.87533 18.1964 4.4003 18.1964 5.99096C18.1964 7.58162 17.562 9.1066 16.4339 10.228L7.76987 18.856C6.23626 20.3804 3.75949 20.3804 2.22587 18.856C1.49099 18.1251 1.0778 17.1314 1.0778 16.095C1.0778 15.0585 1.49099 14.0648 2.22587 13.334L10.3059 5.28796C10.6966 4.90001 11.3272 4.90001 11.7179 5.28796C11.905 5.47447 12.0101 5.72778 12.0101 5.99196C12.0101 6.25615 11.905 6.50946 11.7179 6.69596L3.63987 14.742C3.2797 15.1001 3.07718 15.587 3.07718 16.095C3.07718 16.6029 3.2797 17.0898 3.63987 17.448C4.39159 18.1976 5.60816 18.1976 6.35987 17.448L15.0199 8.81996C15.7727 8.07142 16.196 7.0536 16.196 5.99196C16.196 4.93032 15.7727 3.9125 15.0199 3.16396Z" fill="#767B7A"/>
</svg>
