<?xml version="1.0" encoding="UTF-8"?>
<svg width="33px" height="34px" viewBox="0 0 33 34" version="1.1" xmlns="http://www.w3.org/2000/svg" xmlns:xlink="http://www.w3.org/1999/xlink">
    <title>37F8A183-D6B3-434D-B462-A136C43D4951</title>
    <g id="Page-1" stroke="none" stroke-width="1" fill="none" fill-rule="evenodd">
        <g id="2-Episode-Home-Menu" transform="translate(-16.000000, -52.000000)">
            <g id="x-square" transform="translate(16.000000, 52.500000)">
                <line x1="9.5" y1="10.5" x2="22.5" y2="23.5" id="Shape" stroke="#000000" stroke-width="2" stroke-linecap="round" stroke-linejoin="round"></line>
                <path d="M23.5,0 L9.5,0 C4.25329488,0 0,4.25329488 0,9.5 L0,23.5 C0,28.7467051 4.25329488,33 9.5,33 L23.5,33 C28.7467051,33 33,28.7467051 33,23.5 L33,9.5 C33,4.25329488 28.7467051,0 23.5,0 Z M9.5,1 L23.5,1 C28.1944204,1 32,4.80557963 32,9.5 L32,23.5 C32,28.1944204 28.1944204,32 23.5,32 L9.5,32 C4.80557963,32 1,28.1944204 1,23.5 L1,9.5 C1,4.80557963 4.80557963,1 9.5,1 Z" id="Rectangle" fill="#CBE5E3" fill-rule="nonzero"></path>
                <line x1="22.5" y1="10.5" x2="9.5" y2="23.5" id="Shape" stroke="#000000" stroke-width="2" stroke-linecap="round" stroke-linejoin="round"></line>
            </g>
        </g>
    </g>
</svg>