<?xml version="1.0" encoding="UTF-8"?>
<svg width="13px" height="16px" viewBox="0 0 13 16" version="1.1" xmlns="http://www.w3.org/2000/svg" xmlns:xlink="http://www.w3.org/1999/xlink">
    <title>BD644DA7-8016-4ED5-AAF8-64A4B629A432</title>
    <g id="Page-1" stroke="none" stroke-width="1" fill="none" fill-rule="evenodd">
        <g id="2-Episode-Home-Menu" transform="translate(-17.000000, -244.000000)" fill="#000000" fill-rule="nonzero">
            <g id="user-plus" transform="translate(17.000000, 244.000000)">
                <path d="M9.17647059,9.17647059 C11.2325771,9.17647059 12.9096256,10.799411 12.9964674,12.8341432 L13,13 L13,14.5294118 C13,14.9517472 12.6576295,15.2941176 12.2352941,15.2941176 C11.8431255,15.2941176 11.5199063,14.9989104 11.475733,14.6185926 L11.4705882,14.5294118 L11.4705882,13 C11.4705882,11.778244 10.5155318,10.7795534 9.31126743,10.7097768 L9.17647059,10.7058824 L3.82352941,10.7058824 C2.60177344,10.7058824 1.60308286,11.6609388 1.53330618,12.8652032 L1.52941176,13 L1.52941176,14.5294118 C1.52941176,14.9517472 1.18704128,15.2941176 0.764705882,15.2941176 C0.372537299,15.2941176 0.0493180536,14.9989104 0.00514473572,14.6185926 L0,14.5294118 L0,13 C0,10.9438935 1.62294042,9.26684497 3.65767264,9.18000316 L3.82352941,9.17647059 L9.17647059,9.17647059 Z M6.5,0 C4.38832302,0 2.67647059,1.71185243 2.67647059,3.82352941 C2.67647059,5.9352064 4.38832302,7.64705882 6.5,7.64705882 C8.61167698,7.64705882 10.3235294,5.9352064 10.3235294,3.82352941 C10.3235294,1.71185243 8.61167698,0 6.5,0 Z M6.5,1.52941176 C7.76700619,1.52941176 8.79411765,2.55652322 8.79411765,3.82352941 C8.79411765,5.0905356 7.76700619,6.11764706 6.5,6.11764706 C5.23299381,6.11764706 4.20588235,5.0905356 4.20588235,3.82352941 C4.20588235,2.55652322 5.23299381,1.52941176 6.5,1.52941176 Z" id="Combined-Shape"></path>
            </g>
        </g>
    </g>
</svg>