<svg width="148" height="165" viewBox="0 0 148 165" fill="none" xmlns="http://www.w3.org/2000/svg">
<g id="Group 9">
<path id="Combined Shape" fill-rule="evenodd" clip-rule="evenodd" d="M121.525 130.724C137.71 117.15 148 96.7766 148 74C148 33.1309 114.869 0 74 0C33.1309 0 0 33.1309 0 74C0 114.869 33.1309 148 74 148C77.0369 148 80.0311 147.817 82.9722 147.462C81.6281 144.691 80.8743 141.581 80.8743 138.295C80.8743 126.682 90.2886 117.268 101.902 117.268C110.846 117.268 118.486 122.852 121.525 130.724Z" fill="url(#paint0_linear_2401_13554)" fill-opacity="0.7"/>
<path id="Combined-Shape" opacity="0.5" fill-rule="evenodd" clip-rule="evenodd" d="M131.421 67.1257C137.004 67.1257 141.53 62.5996 141.53 57.0164C141.53 51.4332 137.004 46.9071 131.421 46.9071C125.838 46.9071 121.311 51.4332 121.311 57.0164C121.311 62.5996 125.838 67.1257 131.421 67.1257ZM123.333 40.4371C125.343 40.4371 126.973 38.8077 126.973 36.7978C126.973 34.7878 125.343 33.1584 123.333 33.1584C121.323 33.1584 119.694 34.7878 119.694 36.7978C119.694 38.8077 121.323 40.4371 123.333 40.4371Z" fill="#E9ECEF"/>
<path id="Combined-Shape_2" opacity="0.5" fill-rule="evenodd" clip-rule="evenodd" d="M22.2404 54.1859C24.2504 54.1859 25.8798 52.5565 25.8798 50.5466C25.8798 48.5366 24.2504 46.9072 22.2404 46.9072C20.2305 46.9072 18.6011 48.5366 18.6011 50.5466C18.6011 52.5565 20.2305 54.1859 22.2404 54.1859Z" fill="#DED9C4"/>
<path id="Combined-Shape_3" fill-rule="evenodd" clip-rule="evenodd" d="M140.317 43.672C144.56 43.672 148 40.2322 148 35.989C148 31.7457 144.56 28.3059 140.317 28.3059C136.074 28.3059 132.634 31.7457 132.634 35.989C132.634 40.2322 136.074 43.672 140.317 43.672Z" fill="#FFEDEB"/>
<path id="Combined Shape_2" fill-rule="evenodd" clip-rule="evenodd" d="M115.295 122.084C120.527 118.158 124.488 113.107 126.687 107.065C134.817 84.7289 115.799 57.3012 84.2108 45.8038C52.6222 34.3065 20.424 43.0934 12.2942 65.43C4.16434 87.7665 23.1814 115.194 54.7701 126.692C63.9701 130.04 73.2218 131.668 81.9156 131.742C84.6696 123.338 92.5768 117.268 101.902 117.268C106.991 117.268 111.657 119.075 115.295 122.084Z" fill="url(#paint1_linear_2401_13554)" fill-opacity="0.9"/>
<g id="Group 7 Copy 2">
<g id="Combined Shape_3">
<mask id="path-6-outside-1_2401_13554" maskUnits="userSpaceOnUse" x="30.776" y="34.8196" width="87" height="121" fill="black">
<rect fill="white" x="30.776" y="34.8196" width="87" height="121"/>
<path fill-rule="evenodd" clip-rule="evenodd" d="M113.223 121.02C109.922 118.773 105.93 117.459 101.63 117.459C90.2702 117.459 81.0614 126.629 81.0614 137.941C81.0614 143.014 82.9134 147.657 85.9809 151.234H39.6962C36.9789 151.234 34.776 149.011 34.776 146.27V43.7838C34.776 41.0423 36.9789 38.8196 39.6962 38.8196H108.303C111.021 38.8196 113.223 41.0423 113.223 43.7838V121.02Z"/>
</mask>
<path fill-rule="evenodd" clip-rule="evenodd" d="M113.223 121.02C109.922 118.773 105.93 117.459 101.63 117.459C90.2702 117.459 81.0614 126.629 81.0614 137.941C81.0614 143.014 82.9134 147.657 85.9809 151.234H39.6962C36.9789 151.234 34.776 149.011 34.776 146.27V43.7838C34.776 41.0423 36.9789 38.8196 39.6962 38.8196H108.303C111.021 38.8196 113.223 41.0423 113.223 43.7838V121.02Z" fill="#8BB8B1"/>
<path d="M113.223 121.02L110.973 124.327L117.223 128.582V121.02H113.223ZM85.9809 151.234V155.234H94.6795L89.0175 148.63L85.9809 151.234ZM101.63 121.459C105.103 121.459 108.315 122.518 110.973 124.327L115.474 117.714C111.53 115.029 106.757 113.459 101.63 113.459V121.459ZM85.0614 137.941C85.0614 128.854 92.4635 121.459 101.63 121.459V113.459C88.077 113.459 77.0614 124.404 77.0614 137.941H85.0614ZM89.0175 148.63C86.547 145.749 85.0614 142.022 85.0614 137.941H77.0614C77.0614 144.007 79.2798 149.564 82.9442 153.838L89.0175 148.63ZM85.9809 147.234H39.6962V155.234H85.9809V147.234ZM39.6962 147.234C39.2216 147.234 38.776 146.836 38.776 146.27H30.776C30.776 151.187 34.7361 155.234 39.6962 155.234V147.234ZM38.776 146.27V43.7838H30.776V146.27H38.776ZM38.776 43.7838C38.776 43.2177 39.2216 42.8196 39.6962 42.8196V34.8196C34.7361 34.8196 30.776 38.8669 30.776 43.7838H38.776ZM39.6962 42.8196H108.303V34.8196H39.6962V42.8196ZM108.303 42.8196C108.778 42.8196 109.223 43.2177 109.223 43.7838H117.223C117.223 38.8669 113.263 34.8196 108.303 34.8196V42.8196ZM109.223 43.7838V121.02H117.223V43.7838H109.223Z" fill="white" mask="url(#path-6-outside-1_2401_13554)"/>
</g>
<path id="Combined Shape_4" fill-rule="evenodd" clip-rule="evenodd" d="M43.6284 43.6721C41.4193 43.6721 39.6284 45.463 39.6284 47.6721V142.381C39.6284 144.591 41.4193 146.381 43.6284 146.381H78.4582C77.0598 143.358 76.2798 139.992 76.2798 136.445C76.2798 123.314 86.9663 112.669 100.149 112.669C103.038 112.669 105.807 113.181 108.371 114.117V47.6721C108.371 45.463 106.58 43.6721 104.371 43.6721H43.6284Z" fill="white"/>
<g id="Group 13">
<path id="Shape" fill-rule="evenodd" clip-rule="evenodd" d="M94.9382 152.505C97.7005 153.945 100.828 154.533 103.925 154.194L103.926 154.194C108.064 153.746 111.856 151.675 114.469 148.434C117.081 145.194 118.302 141.049 117.863 136.91C117.538 133.812 116.301 130.88 114.308 128.485C112.315 126.09 109.656 124.341 106.668 123.459C103.68 122.577 100.498 122.602 97.5241 123.53C94.5502 124.458 91.9187 126.248 89.9633 128.674C88.0076 131.099 86.816 134.05 86.539 137.153C86.2622 140.255 86.9126 143.371 88.4075 146.104C89.9028 148.837 92.1758 151.065 94.9382 152.505ZM101.115 127.458L101.115 127.458L101.115 127.458C104.046 127.164 106.974 128.045 109.256 129.907C111.539 131.769 112.99 134.46 113.291 137.39C113.52 139.586 113.094 141.8 112.063 143.753C111.033 145.705 109.446 147.308 107.504 148.358C105.562 149.407 103.352 149.856 101.154 149.648C98.9564 149.44 96.87 148.584 95.1592 147.189C93.4487 145.793 92.191 143.921 91.5455 141.81C90.9001 139.699 90.8961 137.444 91.534 135.33C92.172 133.217 93.4232 131.34 95.1287 129.939C96.8345 128.537 98.918 127.674 101.115 127.458Z" fill="#DED9C4"/>
<g id="Group 988">
<path id="Path" d="M98.6145 134.98L105.893 142.259" stroke="#FFACA0" stroke-width="3" stroke-linecap="round" stroke-linejoin="round"/>
<path id="Path_2" d="M105.893 134.98L98.6145 142.259" stroke="#FFACA0" stroke-width="3" stroke-linecap="round" stroke-linejoin="round"/>
</g>
<path id="Path_3" d="M112.843 147.854L114.415 145.76L121.26 151.302L119.687 153.396L112.843 147.854Z" fill="#DED9C4"/>
<g id="Path_4" filter="url(#filter0_i_2401_13554)">
<path d="M117.557 147.891C118.034 147.298 119.01 147.299 119.487 147.688L128.959 153.674C129.549 154.155 129.64 155.024 129.163 155.616L126.305 159.933C125.828 160.525 124.852 160.525 124.374 160.136L115.856 152.242C115.267 151.761 115.175 150.892 115.652 150.3L117.557 147.891Z" fill="#C3C3A5"/>
</g>
</g>
<g id="Group 11">
<g id="Oval" filter="url(#filter1_i_2401_13554)">
<circle cx="73.5956" cy="77.6394" r="18.6011" fill="url(#paint2_linear_2401_13554)"/>
</g>
<mask id="mask0_2401_13554" style="mask-type:alpha" maskUnits="userSpaceOnUse" x="54" y="59" width="39" height="38">
<circle id="Oval_2" cx="73.5956" cy="77.6394" r="18.6011" fill="white"/>
</mask>
<g mask="url(#mask0_2401_13554)">
<g id="Group 10">
<path id="Fill 25" fill-rule="evenodd" clip-rule="evenodd" d="M87.5686 89.0978C87.133 87.5019 85.8185 86.2994 84.1851 85.9861C81.6197 85.4941 79.2559 85.6059 79.2559 85.6059H69.5529C69.5529 85.6059 67.1891 85.4941 64.6238 85.9861C62.9903 86.2994 61.6759 87.5019 61.2403 89.0978C60.414 92.1267 58.4332 97.5111 58.4332 101.823L59.3088 101.852C61.5972 101.874 63.7287 103.012 65.0099 104.897L64.8845 106.838L74.2632 107.302L74.2841 107.315L74.4043 107.309L74.5247 107.315L74.522 107.303L83.9244 106.838L83.799 104.897C85.0802 103.012 87.2116 101.874 89.5001 101.852L90.3757 101.823C90.3757 97.5111 88.3949 92.1267 87.5686 89.0978Z" fill="white"/>
<path id="Combined Shape_5" fill-rule="evenodd" clip-rule="evenodd" d="M67.9737 75.9398C67.502 74.1203 65.9805 66.4331 74.4048 66.5091C82.8294 66.4331 81.3079 74.1203 80.8363 75.9398C80.7672 76.2067 80.7081 76.4751 80.6528 76.746C80.3999 77.9876 79.4791 81.625 77.1858 83.3677C77.3289 84.1331 77.8137 85.0937 79.2567 85.6062C79.2567 85.6062 79.0722 88.8854 74.4048 88.8854C69.7377 88.8854 69.5529 85.6062 69.5529 85.6062C70.996 85.0937 71.4809 84.1331 71.6241 83.3677C69.3309 81.6251 68.4101 77.9876 68.1571 76.746C68.1018 76.4751 68.0427 76.2067 67.9737 75.9398Z" fill="#F7D3CE"/>
<path id="Fill 57" fill-rule="evenodd" clip-rule="evenodd" d="M80.8362 75.9399C80.8362 75.9399 77.7991 70.7651 75.1577 71.1202C73.02 71.4075 68.8424 72.9958 68.1659 75.0438C68.0919 75.2679 68.0058 75.4778 67.9059 75.666C67.9059 75.666 65.3939 70.5613 67.3084 67.4627C68.9036 64.8813 74.4044 63.3688 79.4656 66.3069C79.4656 66.3069 84.359 65.9215 80.8362 75.9399Z" fill="#2A211F"/>
<path id="Combined Shape_6" fill-rule="evenodd" clip-rule="evenodd" d="M66.9446 73.0627C68.0767 72.7431 68.1037 74.0022 68.1037 74.0022L68.3803 76.4666C66.7458 77.0087 65.8125 73.3825 66.9446 73.0627ZM82 73.0627C80.8679 72.7432 80.841 74.0023 80.841 74.0023L80.5643 76.4667C82.1986 77.0087 83.1322 73.3826 82 73.0627Z" fill="#F7D3CE"/>
<path id="Fill 33" fill-rule="evenodd" clip-rule="evenodd" d="M64.4755 103.626C64.4755 103.626 65.4338 93.8569 66.1458 90.9839C66.1458 90.9839 64.1771 97.6045 63.8004 102.851L64.4755 103.626Z" fill="#F3F1F1"/>
<path id="Fill 35" fill-rule="evenodd" clip-rule="evenodd" d="M84.4467 103.751C84.4467 103.751 83.2101 93.8979 82.4982 91.0249C82.4982 91.0249 84.5466 97.6288 84.9236 102.875L84.4467 103.751Z" fill="#F3F1F1"/>
<path id="Fill 63" fill-rule="evenodd" clip-rule="evenodd" d="M69.5528 85.595L68.0121 85.613C68.0121 85.613 68.4075 90.3635 74.2241 90.2233C80.0403 90.083 80.8015 85.613 80.8015 85.613H79.2566C79.2563 85.6119 78.8807 88.8277 74.4047 88.8851C69.929 88.9423 69.5528 85.6059 69.5528 85.6059V85.595Z" fill="#FFACA0"/>
</g>
</g>
</g>
<path id="Fill 69" fill-rule="evenodd" clip-rule="evenodd" d="M111.607 106.76C111.061 106.756 110.508 106.756 109.989 106.748C110.508 106.756 111.061 106.756 111.606 106.76L111.607 106.76Z" fill="#0D8B84"/>
<path id="Path 5" d="M51.7595 102.716L53.8102 101.52C54.9779 100.839 56.4771 101.238 57.1513 102.41L57.4004 102.843C58.0302 103.938 59.4986 104.193 60.4612 103.376V103.376C61.2048 102.744 62.2934 102.734 63.0489 103.351L63.9103 104.055L65.1545 105.202C65.91 105.898 67.1357 105.526 67.3772 104.528V104.528C67.6197 103.525 68.8523 103.156 69.6061 103.86L70.3425 104.547C70.932 105.097 71.8427 105.111 72.4479 104.578L74.0297 103.185C74.4269 102.835 75.0511 103.117 75.0511 103.646V103.646C75.0511 104.073 75.4747 104.37 75.8757 104.224L77.9403 103.475C78.4578 103.288 78.8991 102.92 79.182 102.448V102.448C79.806 101.406 81.16 101.036 82.2143 101.639L84.7607 103.095C84.8593 103.152 84.9792 103.156 85.0819 103.108L87.0858 102.165C88.3397 101.575 89.7925 101.581 91.0416 102.181L91.6503 102.474C92.6195 102.939 93.696 103.136 94.7673 103.043L98.5361 102.716" stroke="#DED9C4" stroke-width="3" stroke-linecap="round"/>
<path id="Path 5 Copy 2" d="M51.7595 114.039L53.8151 112.841C54.9844 112.16 56.4846 112.56 57.1602 113.732L57.4089 114.164C58.0405 115.26 59.5107 115.516 60.4755 114.698V114.698C61.2206 114.066 62.3103 114.056 63.0672 114.673L63.9302 115.377L65.1778 116.525C65.9344 117.221 67.1606 116.849 67.4027 115.85V115.85C67.6457 114.847 68.879 114.477 69.6339 115.181L70.2133 115.721C70.8945 116.356 71.9461 116.371 72.6455 115.756L73.9107 114.644C74.6634 113.982 75.6539 113.656 76.6524 113.743L79.2568 113.968" stroke="#DED9C4" stroke-width="3" stroke-linecap="round"/>
</g>
</g>
<defs>
<filter id="filter0_i_2401_13554" x="115.347" y="147.417" width="14.1222" height="12.989" filterUnits="userSpaceOnUse" color-interpolation-filters="sRGB">
<feFlood flood-opacity="0" result="BackgroundImageFix"/>
<feBlend mode="normal" in="SourceGraphic" in2="BackgroundImageFix" result="shape"/>
<feColorMatrix in="SourceAlpha" type="matrix" values="0 0 0 0 0 0 0 0 0 0 0 0 0 0 0 0 0 0 127 0" result="hardAlpha"/>
<feOffset dy="2"/>
<feComposite in2="hardAlpha" operator="arithmetic" k2="-1" k3="1"/>
<feColorMatrix type="matrix" values="0 0 0 0 0.870588 0 0 0 0 0.85098 0 0 0 0 0.768627 0 0 0 0.566073 0"/>
<feBlend mode="normal" in2="shape" result="effect1_innerShadow_2401_13554"/>
</filter>
<filter id="filter1_i_2401_13554" x="54.9945" y="59.0383" width="37.2021" height="37.2021" filterUnits="userSpaceOnUse" color-interpolation-filters="sRGB">
<feFlood flood-opacity="0" result="BackgroundImageFix"/>
<feBlend mode="normal" in="SourceGraphic" in2="BackgroundImageFix" result="shape"/>
<feColorMatrix in="SourceAlpha" type="matrix" values="0 0 0 0 0 0 0 0 0 0 0 0 0 0 0 0 0 0 127 0" result="hardAlpha"/>
<feOffset dx="-2" dy="-3"/>
<feComposite in2="hardAlpha" operator="arithmetic" k2="-1" k3="1"/>
<feColorMatrix type="matrix" values="0 0 0 0 0.866667 0 0 0 0 0.901961 0 0 0 0 0.878431 0 0 0 1 0"/>
<feBlend mode="normal" in2="shape" result="effect1_innerShadow_2401_13554"/>
</filter>
<linearGradient id="paint0_linear_2401_13554" x1="34.1907" y1="0.187112" x2="-7.90032" y2="117.853" gradientUnits="userSpaceOnUse">
<stop stop-color="#EEF3F0" stop-opacity="0.0789496"/>
<stop offset="1" stop-color="#D9E4DD"/>
</linearGradient>
<linearGradient id="paint1_linear_2401_13554" x1="37.8089" y1="42.3396" x2="16.9419" y2="118.082" gradientUnits="userSpaceOnUse">
<stop stop-color="#EEF3F0" stop-opacity="0.0789496"/>
<stop offset="1" stop-color="#D9E4DD"/>
</linearGradient>
<linearGradient id="paint2_linear_2401_13554" x1="90.1281" y1="91.1752" x2="91.6191" y2="59.7838" gradientUnits="userSpaceOnUse">
<stop stop-color="#E9F4EA"/>
<stop offset="1" stop-color="#CEE5D0" stop-opacity="0.01"/>
</linearGradient>
</defs>
</svg>
