<svg width="183" height="194" viewBox="0 0 183 194" fill="none" xmlns="http://www.w3.org/2000/svg">
<path d="M183 91.5C183 142.034 142.034 183 91.5 183C40.9659 183 0 142.034 0 91.5C0 40.9659 40.9659 0 91.5 0C142.034 0 183 40.9659 183 91.5Z" fill="url(#paint0_linear_2403_13380)" fill-opacity="0.7"/>
<path opacity="0.5" fill-rule="evenodd" clip-rule="evenodd" d="M162.5 83C169.404 83 175 77.4036 175 70.5C175 63.5964 169.404 58 162.5 58C155.596 58 150 63.5964 150 70.5C150 77.4036 155.596 83 162.5 83ZM152.5 50C154.985 50 157 47.9853 157 45.5C157 43.0147 154.985 41 152.5 41C150.015 41 148 43.0147 148 45.5C148 47.9853 150.015 50 152.5 50Z" fill="#E9ECEF"/>
<path opacity="0.5" fill-rule="evenodd" clip-rule="evenodd" d="M27.5 67C29.9853 67 32 64.9853 32 62.5C32 60.0147 29.9853 58 27.5 58C25.0147 58 23 60.0147 23 62.5C23 64.9853 25.0147 67 27.5 67Z" fill="#DED9C4"/>
<path fill-rule="evenodd" clip-rule="evenodd" d="M173.5 54C178.747 54 183 49.7467 183 44.5C183 39.2533 178.747 35 173.5 35C168.253 35 164 39.2533 164 44.5C164 49.7467 168.253 54 173.5 54Z" fill="#FFEDEB"/>
<path d="M156.646 132.385C146.594 160.004 106.781 170.869 67.7225 156.653C28.6636 142.436 5.14916 108.522 15.2016 80.9034C25.254 53.2846 65.0666 42.4197 104.126 56.636C143.184 70.8523 166.699 104.766 156.646 132.385Z" fill="url(#paint1_linear_2403_13380)" fill-opacity="0.9"/>
<mask id="path-6-outside-1_2403_13380" maskUnits="userSpaceOnUse" x="39" y="44" width="105" height="147" fill="black">
<rect fill="white" x="39" y="44" width="105" height="147"/>
<path d="M133.915 186.999H49.0838C45.7238 186.999 43 184.251 43 180.861V54.1382C43 50.7484 45.7238 48 49.0838 48H133.915C137.275 48 139.999 50.7484 139.999 54.1382V180.861C139.999 184.251 137.275 186.999 133.915 186.999Z"/>
</mask>
<path d="M133.915 186.999H49.0838C45.7238 186.999 43 184.251 43 180.861V54.1382C43 50.7484 45.7238 48 49.0838 48H133.915C137.275 48 139.999 50.7484 139.999 54.1382V180.861C139.999 184.251 137.275 186.999 133.915 186.999Z" fill="#8BB8B1"/>
<path d="M133.915 182.999H49.0838V190.999H133.915V182.999ZM49.0838 182.999C47.9665 182.999 47 182.075 47 180.861H39C39 186.426 43.4811 190.999 49.0838 190.999V182.999ZM47 180.861V54.1382H39V180.861H47ZM47 54.1382C47 52.9238 47.9665 52 49.0838 52V44C43.4811 44 39 48.573 39 54.1382H47ZM49.0838 52H133.915V44H49.0838V52ZM133.915 52C135.033 52 135.999 52.9238 135.999 54.1382H143.999C143.999 48.573 139.518 44 133.915 44V52ZM135.999 54.1382V180.861H143.999V54.1382H135.999ZM135.999 180.861C135.999 182.075 135.033 182.999 133.915 182.999V190.999C139.518 190.999 143.999 186.426 143.999 180.861H135.999Z" fill="white" mask="url(#path-6-outside-1_2403_13380)"/>
<path d="M133.915 166.999H49.0838C45.7238 166.999 43 164.251 43 160.861V54.1382C43 50.7484 45.7238 48 49.0838 48H133.915C137.275 48 139.999 50.7484 139.999 54.1382V160.861C139.999 164.251 137.275 166.999 133.915 166.999Z" fill="#8BB8B1"/>
<path fill-rule="evenodd" clip-rule="evenodd" d="M49 58C49 55.7909 50.7909 54 53 54H129.999C132.208 54 133.999 55.7909 133.999 58V176.999C133.999 179.208 132.208 180.999 129.999 180.999H53C50.7909 180.999 49 179.208 49 176.999V58Z" fill="white"/>
<path d="M116 63L125 72" stroke="#FFACA0" stroke-width="3" stroke-linecap="round" stroke-linejoin="round"/>
<path d="M125 63L116 72" stroke="#FFACA0" stroke-width="3" stroke-linecap="round" stroke-linejoin="round"/>
<g filter="url(#filter0_i_2403_13380)">
<circle cx="91" cy="96" r="23" fill="url(#paint2_linear_2403_13380)"/>
</g>
<mask id="mask0_2403_13380" style="mask-type:alpha" maskUnits="userSpaceOnUse" x="68" y="73" width="46" height="46">
<circle cx="91" cy="96" r="23" fill="white"/>
</mask>
<g mask="url(#mask0_2403_13380)">
<path fill-rule="evenodd" clip-rule="evenodd" d="M108.277 110.168C107.739 108.195 106.113 106.708 104.094 106.321C100.922 105.712 97.9988 105.851 97.9988 105.851H86.0012C86.0012 105.851 83.0784 105.712 79.9064 106.321C77.8866 106.708 76.2613 108.195 75.7228 110.168C74.701 113.914 72.2518 120.571 72.2518 125.903L73.3345 125.939C76.1641 125.966 78.7996 127.373 80.3837 129.704L80.2287 132.104L91.8254 132.677L91.8513 132.693L91.9998 132.686L92.1488 132.693L92.1454 132.679L103.771 132.104L103.616 129.704C105.2 127.373 107.836 125.966 110.666 125.939L111.748 125.903C111.748 120.571 109.299 113.914 108.277 110.168Z" fill="white"/>
<path fill-rule="evenodd" clip-rule="evenodd" d="M84.0485 93.8987C83.4654 91.6489 81.584 82.1438 92.0005 82.2378C102.417 82.1438 100.536 91.6489 99.9529 93.8987C99.8676 94.2286 99.7945 94.5606 99.7261 94.8955C99.4133 96.4308 98.2748 100.928 95.4392 103.083C95.6162 104.029 96.2157 105.217 97.9999 105.851C97.9999 105.851 97.7717 109.906 92.0005 109.906C86.2297 109.906 86.0012 105.851 86.0012 105.851C87.7855 105.217 88.3851 104.03 88.5622 103.083C85.7267 100.928 84.5881 96.4308 84.2753 94.8955C84.2069 94.5606 84.1338 94.2286 84.0485 93.8987Z" fill="#F7D3CE"/>
<path fill-rule="evenodd" clip-rule="evenodd" d="M99.9529 93.8987C99.9529 93.8987 96.1976 87.5001 92.9315 87.9391C90.2884 88.2944 85.1228 90.2583 84.2863 92.7907C84.1948 93.0677 84.0884 93.3273 83.9648 93.56C83.9648 93.56 80.8587 87.248 83.2259 83.4167C85.1984 80.2249 92.0002 78.3547 98.2582 81.9876C98.2582 81.9876 104.309 81.511 99.9529 93.8987Z" fill="#2A211F"/>
<path fill-rule="evenodd" clip-rule="evenodd" d="M82.7762 90.3411C84.176 89.946 84.2093 91.5028 84.2093 91.5028L84.5514 94.55C82.5303 95.2203 81.3763 90.7366 82.7762 90.3411ZM101.392 90.3411C99.9921 89.946 99.9587 91.5028 99.9587 91.5028L99.6167 94.55C101.637 95.2203 102.792 90.7366 101.392 90.3411Z" fill="#F7D3CE"/>
<path fill-rule="evenodd" clip-rule="evenodd" d="M79.7231 128.132C79.7231 128.132 80.908 116.053 81.7883 112.5C81.7883 112.5 79.3541 120.687 78.8883 127.174L79.7231 128.132Z" fill="#F3F1F1"/>
<path fill-rule="evenodd" clip-rule="evenodd" d="M104.417 128.287C104.417 128.287 102.888 116.104 102.008 112.551C102.008 112.551 104.541 120.717 105.007 127.204L104.417 128.287Z" fill="#F3F1F1"/>
<path fill-rule="evenodd" clip-rule="evenodd" d="M86.0012 105.837L84.0961 105.859C84.0961 105.859 84.585 111.733 91.7771 111.56C98.9688 111.387 99.91 105.859 99.91 105.859H97.9998C97.9994 105.858 97.535 109.834 92.0005 109.905C86.4663 109.976 86.0012 105.851 86.0012 105.851V105.837Z" fill="#FFACA0"/>
</g>
<path fill-rule="evenodd" clip-rule="evenodd" d="M138 132.008C137.326 132.003 136.642 132.002 136 131.992C136.642 132.002 137.325 132.003 138 132.008L138 132.008Z" fill="#0D8B84"/>
<path d="M64 127.007L66.5356 125.528C67.9795 124.686 69.8332 125.179 70.6668 126.628L70.9749 127.164C71.7536 128.517 73.5692 128.833 74.7596 127.822V127.822C75.679 127.042 77.025 127.029 77.9591 127.792L79.0243 128.662L80.5628 130.08C81.4969 130.941 83.0124 130.482 83.3111 129.247V129.247C83.6108 128.008 85.135 127.551 86.067 128.421L86.9777 129.271C87.7065 129.951 88.8326 129.968 89.5809 129.309L91.5368 127.587C92.028 127.154 92.7997 127.503 92.7997 128.157V128.157C92.7997 128.685 93.3236 129.052 93.8194 128.872L96.3722 127.946C97.012 127.714 97.5577 127.259 97.9075 126.675V126.675C98.6791 125.387 100.353 124.93 101.657 125.675L104.806 127.476C104.927 127.546 105.076 127.551 105.203 127.492L107.68 126.326C109.231 125.596 111.027 125.604 112.572 126.346L113.674 126.876C114.644 127.341 115.72 127.538 116.792 127.445L121.839 127.007" stroke="#DED9C4" stroke-width="3" stroke-linecap="round"/>
<path d="M64 141.007L66.5417 139.527C67.9875 138.685 69.8424 139.179 70.6778 140.629L70.9854 141.162C71.7663 142.517 73.5843 142.834 74.7772 141.822V141.822C75.6985 141.041 77.0459 141.028 77.9818 141.792L79.0489 142.662L80.5915 144.082C81.527 144.943 83.0432 144.483 83.3426 143.247V143.247C83.6431 142.007 85.1679 141.55 86.1014 142.42L86.8178 143.087C87.6602 143.872 88.9605 143.891 89.8253 143.131L91.3897 141.755C92.3204 140.937 93.545 140.535 94.7797 140.641L98 140.92" stroke="#DED9C4" stroke-width="3" stroke-linecap="round"/>
<path d="M153.68 157.497C154.971 158.695 157.07 157.779 157.07 156.018C157.07 154.903 156.167 154 155.053 154C153.219 154 152.336 156.249 153.68 157.497ZM153.07 156.018C153.07 154.833 154.036 154.038 155.053 154.032C155.521 154.028 156.001 154.193 156.401 154.565C156.847 154.978 157.043 155.503 157.039 156.018C157.031 157.029 156.247 158 155.053 158C154.532 158 154.058 157.799 153.704 157.471C153.314 157.109 153.07 156.592 153.07 156.018ZM155.041 156.031C155.044 156.034 155.049 156.035 155.053 156.035C155.062 156.035 155.07 156.028 155.07 156.018C155.07 156.013 155.068 156.008 155.065 156.005C155.062 156.002 155.057 156 155.053 156C155.042 156 155.035 156.009 155.035 156.018C155.035 156.022 155.037 156.027 155.041 156.031Z" fill="black" stroke="white" stroke-width="4"/>
<path d="M108.95 157.471L108.974 157.497C110.318 156.25 109.436 154 107.601 154C106.487 154 105.584 154.904 105.584 156.018C105.584 157.78 107.683 158.695 108.974 157.497L108.95 157.471ZM108.95 157.471C109.34 157.109 109.584 156.592 109.584 156.018C109.584 154.834 108.618 154.039 107.601 154.032C107.133 154.029 106.653 154.194 106.253 154.565L107.589 156.005M108.95 157.471C108.596 157.8 108.122 158 107.601 158C106.407 158 105.623 157.03 105.615 156.018C105.611 155.504 105.808 154.978 106.253 154.565L107.589 156.005M107.589 156.005C107.586 156.008 107.584 156.013 107.584 156.018C107.584 156.029 107.592 156.036 107.601 156.036C107.606 156.036 107.61 156.034 107.613 156.031C107.617 156.027 107.619 156.023 107.619 156.018C107.619 156.009 107.612 156 107.601 156C107.597 156 107.593 156.002 107.589 156.005Z" fill="black" stroke="white" stroke-width="4"/>
<path d="M128.755 178.982L128.754 178.98L111.985 160.962L111.984 160.96C109.699 158.51 105.583 160.116 105.583 163.478V186.524C105.583 189.503 107.997 191.916 110.975 191.916H151.676C154.654 191.916 157.067 189.503 157.067 186.524V163.478C157.067 160.116 152.952 158.51 150.667 160.96L150.665 160.962L133.899 178.98C133.898 178.98 133.898 178.98 133.898 178.98C133.898 178.98 133.898 178.98 133.898 178.98C133.235 179.691 132.293 180.102 131.326 180.102C130.354 180.102 129.415 179.693 128.755 178.982Z" fill="#DED9C4" stroke="white" stroke-width="4" stroke-linecap="round" stroke-linejoin="round"/>
<path d="M128.927 178.819L128.927 178.819L128.934 178.826C129.776 179.723 130.795 179.864 131.324 179.864H131.326C131.829 179.864 132.874 179.739 133.726 178.815C133.728 178.813 133.73 178.811 133.732 178.809L150.964 160.289C153.19 157.898 151.493 154.005 148.228 154.005H114.421C111.158 154.005 109.46 157.898 111.685 160.288C111.686 160.289 111.686 160.289 111.686 160.289L128.927 178.819Z" fill="#C3C3A5" stroke="white" stroke-width="4" stroke-linecap="round" stroke-linejoin="round"/>
<defs>
<filter id="filter0_i_2403_13380" x="68" y="73" width="46" height="46" filterUnits="userSpaceOnUse" color-interpolation-filters="sRGB">
<feFlood flood-opacity="0" result="BackgroundImageFix"/>
<feBlend mode="normal" in="SourceGraphic" in2="BackgroundImageFix" result="shape"/>
<feColorMatrix in="SourceAlpha" type="matrix" values="0 0 0 0 0 0 0 0 0 0 0 0 0 0 0 0 0 0 127 0" result="hardAlpha"/>
<feOffset dx="-2" dy="-3"/>
<feComposite in2="hardAlpha" operator="arithmetic" k2="-1" k3="1"/>
<feColorMatrix type="matrix" values="0 0 0 0 0.866667 0 0 0 0 0.901961 0 0 0 0 0.878431 0 0 0 1 0"/>
<feBlend mode="normal" in2="shape" result="effect1_innerShadow_2403_13380"/>
</filter>
<linearGradient id="paint0_linear_2403_13380" x1="42.2764" y1="0.231362" x2="-9.76864" y2="145.724" gradientUnits="userSpaceOnUse">
<stop stop-color="#EEF3F0" stop-opacity="0.0789496"/>
<stop offset="1" stop-color="#D9E4DD"/>
</linearGradient>
<linearGradient id="paint1_linear_2403_13380" x1="46.7502" y1="52.3526" x2="20.947" y2="146.01" gradientUnits="userSpaceOnUse">
<stop stop-color="#EEF3F0" stop-opacity="0.0789496"/>
<stop offset="1" stop-color="#D9E4DD"/>
</linearGradient>
<linearGradient id="paint2_linear_2403_13380" x1="111.442" y1="112.737" x2="113.286" y2="73.9218" gradientUnits="userSpaceOnUse">
<stop stop-color="#E9F4EA"/>
<stop offset="1" stop-color="#CEE5D0" stop-opacity="0.01"/>
</linearGradient>
</defs>
</svg>
