<svg width="34" height="34" viewBox="0 0 34 34" fill="none" xmlns="http://www.w3.org/2000/svg">
<g id="Group 3">
<g id="filter">
<rect id="Rectangle" x="1" y="1" width="32" height="32" rx="9" stroke="#CBE5E3"/>
</g>
<g id="eos-icons:content-new">
<g id="Shape">
<path fill-rule="evenodd" clip-rule="evenodd" d="M23.6667 13.6667V12.3334H21.6667V10.3334H20.3333V12.3334H18.3333V13.6667H20.3333V15.6667H21.6667V13.6667H23.6667ZM12.3333 21.6667H21.6667V17.6667H23V21.6667C22.9978 22.4022 22.4021 22.9978 21.6667 23H12.3333C11.5979 22.9978 11.0022 22.4022 11 21.6667V12.3334C11.0022 11.5979 11.5979 11.0022 12.3333 11H16.3333V12.3334H12.3333V21.6667Z" fill="#333333"/>
<path d="M23.6667 12.3334H23.9667C23.9667 12.1677 23.8324 12.0334 23.6667 12.0334V12.3334ZM23.6667 13.6667V13.9667C23.8324 13.9667 23.9667 13.8324 23.9667 13.6667H23.6667ZM21.6667 12.3334H21.3667C21.3667 12.4991 21.501 12.6334 21.6667 12.6334V12.3334ZM21.6667 10.3334H21.9667C21.9667 10.1677 21.8324 10.0334 21.6667 10.0334V10.3334ZM20.3333 10.3334V10.0334C20.1676 10.0334 20.0333 10.1677 20.0333 10.3334H20.3333ZM20.3333 12.3334V12.6334C20.499 12.6334 20.6333 12.4991 20.6333 12.3334H20.3333ZM18.3333 12.3334V12.0334C18.1676 12.0334 18.0333 12.1677 18.0333 12.3334H18.3333ZM18.3333 13.6667H18.0333C18.0333 13.8324 18.1676 13.9667 18.3333 13.9667V13.6667ZM20.3333 13.6667H20.6333C20.6333 13.501 20.499 13.3667 20.3333 13.3667V13.6667ZM20.3333 15.6667H20.0333C20.0333 15.8324 20.1676 15.9667 20.3333 15.9667V15.6667ZM21.6667 15.6667V15.9667C21.8324 15.9667 21.9667 15.8324 21.9667 15.6667H21.6667ZM21.6667 13.6667V13.3667C21.501 13.3667 21.3667 13.501 21.3667 13.6667H21.6667ZM21.6667 21.6667V21.9667C21.8324 21.9667 21.9667 21.8324 21.9667 21.6667H21.6667ZM12.3333 21.6667H12.0333C12.0333 21.8324 12.1676 21.9667 12.3333 21.9667V21.6667ZM21.6667 17.6667V17.3667C21.501 17.3667 21.3667 17.501 21.3667 17.6667H21.6667ZM23 17.6667H23.3C23.3 17.501 23.1657 17.3667 23 17.3667V17.6667ZM23 21.6667L23.3 21.6676V21.6667H23ZM21.6667 23V23.3L21.6676 23.3L21.6667 23ZM12.3333 23L12.3324 23.3H12.3333V23ZM11 21.6667H10.7L10.7 21.6676L11 21.6667ZM11 12.3334L10.7 12.3325V12.3334H11ZM12.3333 11V10.7L12.3324 10.7L12.3333 11ZM16.3333 11H16.6333C16.6333 10.8344 16.499 10.7 16.3333 10.7V11ZM16.3333 12.3334V12.6334C16.499 12.6334 16.6333 12.4991 16.6333 12.3334H16.3333ZM12.3333 12.3334V12.0334C12.1676 12.0334 12.0333 12.1677 12.0333 12.3334H12.3333ZM23.3667 12.3334V13.6667H23.9667V12.3334H23.3667ZM21.6667 12.6334H23.6667V12.0334H21.6667V12.6334ZM21.3667 10.3334V12.3334H21.9667V10.3334H21.3667ZM20.3333 10.6334H21.6667V10.0334H20.3333V10.6334ZM20.6333 12.3334V10.3334H20.0333V12.3334H20.6333ZM18.3333 12.6334H20.3333V12.0334H18.3333V12.6334ZM18.6333 13.6667V12.3334H18.0333V13.6667H18.6333ZM20.3333 13.3667H18.3333V13.9667H20.3333V13.3667ZM20.6333 15.6667V13.6667H20.0333V15.6667H20.6333ZM21.6667 15.3667H20.3333V15.9667H21.6667V15.3667ZM21.3667 13.6667V15.6667H21.9667V13.6667H21.3667ZM23.6667 13.3667H21.6667V13.9667H23.6667V13.3667ZM21.6667 21.3667H12.3333V21.9667H21.6667V21.3667ZM21.3667 17.6667V21.6667H21.9667V17.6667H21.3667ZM23 17.3667H21.6667V17.9667H23V17.3667ZM23.3 21.6667V17.6667H22.7V21.6667H23.3ZM21.6676 23.3C22.568 23.2973 23.2973 22.5681 23.3 21.6676L22.7 21.6658C22.6983 22.2363 22.2363 22.6983 21.6658 22.7L21.6676 23.3ZM12.3333 23.3H21.6667V22.7H12.3333V23.3ZM10.7 21.6676C10.7027 22.5681 11.432 23.2973 12.3324 23.3L12.3342 22.7C11.7637 22.6983 11.3017 22.2363 11.3 21.6658L10.7 21.6676ZM10.7 12.3334V21.6667H11.3V12.3334H10.7ZM12.3324 10.7C11.432 10.7027 10.7027 11.432 10.7 12.3325L11.3 12.3343C11.3017 11.7638 11.7637 11.3017 12.3342 11.3L12.3324 10.7ZM16.3333 10.7H12.3333V11.3H16.3333V10.7ZM16.6333 12.3334V11H16.0333V12.3334H16.6333ZM12.3333 12.6334H16.3333V12.0334H12.3333V12.6334ZM12.6333 21.6667V12.3334H12.0333V21.6667H12.6333Z" fill="#333333"/>
</g>
</g>
</g>
</svg>
