<svg width="50" height="50" viewBox="0 0 50 50" fill="none" xmlns="http://www.w3.org/2000/svg">
<path d="M10.75 8H22.75C32.6911 8 40.75 16.0589 40.75 26V43H10.75V8Z" fill="white"/>
<path fill-rule="evenodd" clip-rule="evenodd" d="M30.0938 5H13.2188C10.8888 5 9 6.84683 9 9.125V42.125C9 44.4032 10.8888 46.25 13.2188 46.25H38.5312C40.8612 46.25 42.75 44.4032 42.75 42.125V17.375L30.0938 5ZM30.0938 19.4375H27.9844V9.125L38.5312 19.4375H30.0938ZM18.4934 31H15.3134V38H18.4934C19.2534 38 19.9234 37.8567 20.5034 37.57C21.0901 37.2767 21.5434 36.8667 21.8634 36.34C22.1901 35.8133 22.3534 35.2 22.3534 34.5C22.3534 33.8 22.1901 33.1867 21.8634 32.66C21.5434 32.1333 21.0901 31.7267 20.5034 31.44C19.9234 31.1467 19.2534 31 18.4934 31ZM20.0834 36.09C19.6701 36.4767 19.1134 36.67 18.4134 36.67H16.9334V32.33H18.4134C19.1134 32.33 19.6701 32.5267 20.0834 32.92C20.5034 33.3067 20.7134 33.8333 20.7134 34.5C20.7134 35.1667 20.5034 35.6967 20.0834 36.09ZM24.9951 37.65C25.5818 37.9633 26.2385 38.12 26.9651 38.12C27.6918 38.12 28.3451 37.9633 28.9251 37.65C29.5051 37.3367 29.9618 36.9067 30.2951 36.36C30.6285 35.8067 30.7951 35.1867 30.7951 34.5C30.7951 33.8133 30.6285 33.1967 30.2951 32.65C29.9618 32.0967 29.5051 31.6633 28.9251 31.35C28.3451 31.0367 27.6918 30.88 26.9651 30.88C26.2385 30.88 25.5818 31.0367 24.9951 31.35C24.4151 31.6633 23.9585 32.0967 23.6251 32.65C23.2985 33.1967 23.1351 33.8133 23.1351 34.5C23.1351 35.1867 23.2985 35.8067 23.6251 36.36C23.9585 36.9067 24.4151 37.3367 24.9951 37.65ZM28.0851 36.46C27.7518 36.6467 27.3785 36.74 26.9651 36.74C26.5518 36.74 26.1785 36.6467 25.8451 36.46C25.5118 36.2667 25.2485 36 25.0551 35.66C24.8685 35.32 24.7751 34.9333 24.7751 34.5C24.7751 34.0667 24.8685 33.68 25.0551 33.34C25.2485 33 25.5118 32.7367 25.8451 32.55C26.1785 32.3567 26.5518 32.26 26.9651 32.26C27.3785 32.26 27.7518 32.3567 28.0851 32.55C28.4185 32.7367 28.6785 33 28.8651 33.34C29.0585 33.68 29.1551 34.0667 29.1551 34.5C29.1551 34.9333 29.0585 35.32 28.8651 35.66C28.6785 36 28.4185 36.2667 28.0851 36.46ZM33.4226 37.66C34.0026 37.9667 34.6493 38.12 35.3626 38.12C35.9693 38.12 36.5193 38.0133 37.0126 37.8C37.506 37.5867 37.9193 37.2767 38.2526 36.87L37.2126 35.91C36.7393 36.4633 36.1526 36.74 35.4526 36.74C35.0193 36.74 34.6326 36.6467 34.2926 36.46C33.9526 36.2667 33.686 36 33.4926 35.66C33.306 35.32 33.2126 34.9333 33.2126 34.5C33.2126 34.0667 33.306 33.68 33.4926 33.34C33.686 33 33.9526 32.7367 34.2926 32.55C34.6326 32.3567 35.0193 32.26 35.4526 32.26C36.1526 32.26 36.7393 32.5333 37.2126 33.08L38.2526 32.12C37.9193 31.72 37.506 31.4133 37.0126 31.2C36.526 30.9867 35.9793 30.88 35.3726 30.88C34.6526 30.88 34.0026 31.0367 33.4226 31.35C32.8493 31.6567 32.396 32.0867 32.0626 32.64C31.736 33.1867 31.5726 33.8067 31.5726 34.5C31.5726 35.1933 31.736 35.8167 32.0626 36.37C32.396 36.9167 32.8493 37.3467 33.4226 37.66Z" fill="#1A6BB6"/>
</svg>
