<svg width="220" height="215" viewBox="0 0 220 215" fill="none" xmlns="http://www.w3.org/2000/svg">
<g id="Group 9">
<path id="Combined Shape" d="M215 107.5C215 166.871 166.871 215 107.5 215C48.1294 215 0 166.871 0 107.5C0 48.1294 48.1294 0 107.5 0C166.871 0 215 48.1294 215 107.5Z" fill="url(#paint0_linear_2131_13361)" fill-opacity="0.7"/>
<g id="Group">
<g id="Vector" filter="url(#filter0_d_2131_13361)">
<path d="M166.642 38.8934C169.9 38.8845 173.11 38.0928 176.007 36.5824C174.636 42.2637 171.277 47.2475 166.553 50.6099C161.83 53.9719 156.064 55.4835 150.324 54.8641C144.584 54.2448 139.261 51.5365 135.343 47.2422C131.424 42.9476 129.176 37.358 129.017 31.5116C128.856 25.6651 130.795 19.9586 134.473 15.4509C138.151 10.9433 143.318 7.94039 149.015 7C146.42 11.2486 145.414 16.299 146.178 21.2351C146.943 26.1711 149.427 30.6663 153.182 33.9057C156.936 37.1451 161.712 38.9151 166.642 38.8934ZM158.148 30.3088C158.854 30.3118 159.531 30.0303 160.032 29.5261C160.532 29.0223 160.813 28.3371 160.814 27.6221C160.815 26.9075 160.535 26.2216 160.037 25.7163C159.538 25.211 158.861 24.9273 158.155 24.9284C157.45 24.9291 156.774 25.2147 156.276 25.7215C155.779 26.2284 155.501 26.915 155.504 27.6296C155.507 28.3394 155.786 29.0192 156.281 29.5209C156.777 30.0229 157.448 30.3058 158.148 30.3088ZM159.338 15.5842L161.861 14.2558L164.439 15.5842L163.954 12.7264L165.992 10.7058L163.172 10.2928L161.861 7.70296L160.594 10.2928L157.829 10.7058L159.812 12.7264L159.338 15.5842Z" fill="white"/>
</g>
</g>
<path id="Combined-Shape" opacity="0.5" fill-rule="evenodd" clip-rule="evenodd" d="M207.684 104.458C214.336 99.8164 215.966 90.6619 211.324 84.0102C206.683 77.3586 197.529 75.7288 190.877 80.3699C184.225 85.011 182.596 94.1656 187.237 100.817C191.878 107.469 201.032 109.099 207.684 104.458ZM175.864 79.3846C178.258 77.7138 178.845 74.4181 177.174 72.0236C175.504 69.629 172.208 69.0422 169.813 70.713C167.419 72.3838 166.832 75.6795 168.503 78.0741C170.174 80.4686 173.469 81.0554 175.864 79.3846Z" fill="#E9ECEF"/>
<path id="Combined-Shape_2" opacity="0.5" fill-rule="evenodd" clip-rule="evenodd" d="M32.3089 98.7154C35.2287 98.7154 37.5957 96.3484 37.5957 93.4285C37.5957 90.5086 35.2287 88.1416 32.3089 88.1416C29.389 88.1416 27.022 90.5086 27.022 93.4285C27.022 96.3484 29.389 98.7154 32.3089 98.7154Z" fill="#DED9C4"/>
<path id="Combined-Shape_3" fill-rule="evenodd" clip-rule="evenodd" d="M198.786 69.1212C203.842 65.5939 205.08 58.6364 201.553 53.5812C198.026 48.526 191.068 47.2873 186.013 50.8145C180.958 54.3418 179.719 61.2993 183.247 66.3545C186.774 71.4097 193.731 72.6484 198.786 69.1212Z" fill="#FFEDEB"/>
<path id="Combined Shape_2" d="M184.038 155.534C172.228 187.983 125.453 200.748 79.5646 184.045C33.6757 167.343 6.04953 127.499 17.8598 95.0504C29.67 62.6021 76.4443 49.8373 122.333 66.5395C168.222 83.2417 195.848 123.086 184.038 155.534Z" fill="url(#paint1_linear_2131_13361)" fill-opacity="0.9"/>
<g id="Group_2">
<g id="Vector_2" filter="url(#filter1_i_2131_13361)">
<path d="M98.101 182.581C97.6811 183.841 97.4009 185.38 97.4009 186.781C97.4009 194.479 103.7 200.778 111.398 200.778C119.097 200.778 125.396 194.479 125.396 186.781C125.396 185.38 125.116 183.841 124.696 182.581H98.101Z" fill="#C3C3A5"/>
</g>
<path id="Vector_3" d="M163.789 160.184C163.789 154.301 159.479 149.509 153.991 148.558V136.108V133.843L151.744 134.123C150.622 134.263 149.474 134.388 148.492 134.388C134.479 134.388 123.197 123.105 123.197 109.093C123.197 101.188 126.82 94.186 132.541 89.5051L134.792 87.6632L132.267 86.2206C129.619 84.7079 126.79 83.6359 123.896 82.8177C123.897 82.7393 123.897 82.6626 123.897 82.588C123.897 82.5577 123.897 82.5277 123.897 82.4981C123.897 75.6543 118.242 70 111.398 70C104.555 70 98.9003 75.6543 98.9003 82.4981C98.9003 82.6034 98.9036 82.7101 98.909 82.8152C91.7806 84.8563 85.1895 88.6738 79.9827 94.2902C72.7711 101.945 68.8053 112.095 68.8053 122.671V148.558C63.3161 149.509 59.0073 154.301 59.0073 160.184C59.0073 166.608 64.3826 171.982 70.8053 171.982H151.991C158.415 171.982 163.789 166.607 163.789 160.184Z" fill="#8BB8B1" stroke="white" stroke-width="4"/>
<path id="Vector 142" d="M91.0072 100.5C86.9691 101.5 79.0075 115 86.9691 135.404" stroke="#6F938E" stroke-opacity="0.5" stroke-width="4" stroke-linecap="round"/>
<path id="Vector_4" d="M170 109.501C170 121.927 160.15 132 148 132C135.85 132 126 121.927 126 109.501C126 97.0733 135.85 87 148 87C160.15 87 170 97.073 170 109.501Z" fill="#FFACA0"/>
<path id="Path" d="M142 103L155 116" stroke="white" stroke-width="3" stroke-linecap="round" stroke-linejoin="round"/>
<path id="Path_2" d="M155 103L142 116" stroke="white" stroke-width="3" stroke-linecap="round" stroke-linejoin="round"/>
</g>
<g id="Group 968">
<path id="Vector 137" d="M20.8776 35.4257C20.0607 35.6636 19.4838 36.3923 19.4395 37.2419C19.3952 38.0916 19.8933 38.8762 20.6811 39.1977L28.1674 42.253L30.5869 57.3282C30.7046 58.0616 31.2191 58.6693 31.923 58.9065C32.6269 59.1437 33.4042 58.9713 33.9418 58.4587L41.3697 51.3762L49.0903 59.0399C49.549 59.4951 50.1993 59.7007 50.8363 59.5918C51.4733 59.4829 52.0185 59.0729 52.2998 58.4911L68.4743 25.0436C68.8184 24.3323 68.7113 23.485 68.2011 22.8816C67.6909 22.2782 66.8733 22.0318 66.1147 22.2527L20.8776 35.4257Z" fill="#969678" stroke="white" stroke-width="4" stroke-linecap="round" stroke-linejoin="round"/>
<path id="Vector 138" d="M29.9639 40.8261L21.4368 37.346L66.6738 24.1729L29.9639 40.8261Z" fill="#DED9C4"/>
<path id="Vector 139" d="M50.4994 57.6203L38.7047 46.0823L66.6739 24.1728L50.4994 57.6203Z" fill="#DED9C4"/>
<path id="Vector 140" d="M32.5617 57.0115L29.964 40.8263L66.6739 24.1732L38.7047 46.0827L32.5617 57.0115Z" fill="#C3C3A5"/>
</g>
<path id="Vector 141" d="M28.0073 65.5C3.55003 109.5 15.3854 125.966 30.4117 125.966C42.0073 125.966 41.0074 101.5 63.0074 115.972" stroke="#C3C3A5" stroke-width="2" stroke-linecap="round" stroke-dasharray="5 5"/>
</g>
<defs>
<filter id="filter0_d_2131_13361" x="118.007" y="0" width="69" height="70" filterUnits="userSpaceOnUse" color-interpolation-filters="sRGB">
<feFlood flood-opacity="0" result="BackgroundImageFix"/>
<feColorMatrix in="SourceAlpha" type="matrix" values="0 0 0 0 0 0 0 0 0 0 0 0 0 0 0 0 0 0 127 0" result="hardAlpha"/>
<feOffset dy="4"/>
<feGaussianBlur stdDeviation="5.5"/>
<feComposite in2="hardAlpha" operator="out"/>
<feColorMatrix type="matrix" values="0 0 0 0 0.831373 0 0 0 0 0.85098 0 0 0 0 0.862745 0 0 0 0.45 0"/>
<feBlend mode="normal" in2="BackgroundImageFix" result="effect1_dropShadow_2131_13361"/>
<feBlend mode="normal" in="SourceGraphic" in2="effect1_dropShadow_2131_13361" result="shape"/>
</filter>
<filter id="filter1_i_2131_13361" x="97.4009" y="182.581" width="27.995" height="18.1968" filterUnits="userSpaceOnUse" color-interpolation-filters="sRGB">
<feFlood flood-opacity="0" result="BackgroundImageFix"/>
<feBlend mode="normal" in="SourceGraphic" in2="BackgroundImageFix" result="shape"/>
<feColorMatrix in="SourceAlpha" type="matrix" values="0 0 0 0 0 0 0 0 0 0 0 0 0 0 0 0 0 0 127 0" result="hardAlpha"/>
<feOffset dx="2" dy="2"/>
<feComposite in2="hardAlpha" operator="arithmetic" k2="-1" k3="1"/>
<feColorMatrix type="matrix" values="0 0 0 0 0.870588 0 0 0 0 0.85098 0 0 0 0 0.768627 0 0 0 0.566073 0"/>
<feBlend mode="normal" in2="shape" result="effect1_innerShadow_2131_13361"/>
</filter>
<linearGradient id="paint0_linear_2131_13361" x1="49.669" y1="0.271818" x2="-11.4768" y2="171.205" gradientUnits="userSpaceOnUse">
<stop stop-color="#EEF3F0" stop-opacity="0.0789496"/>
<stop offset="1" stop-color="#D9E4DD"/>
</linearGradient>
<linearGradient id="paint1_linear_2131_13361" x1="54.9251" y1="61.5071" x2="24.6098" y2="171.542" gradientUnits="userSpaceOnUse">
<stop stop-color="#EEF3F0" stop-opacity="0.0789496"/>
<stop offset="1" stop-color="#D9E4DD"/>
</linearGradient>
</defs>
</svg>
