<svg width="101" height="104" viewBox="0 0 101 104" fill="none" xmlns="http://www.w3.org/2000/svg">
<path fill-rule="evenodd" clip-rule="evenodd" d="M83.3396 87.6983C93.7231 78.5127 100.27 65.0883 100.27 50.1349C100.27 22.4461 77.8236 0 50.1349 0C22.4461 0 0 22.4461 0 50.1349C0 77.8236 22.4461 100.27 50.1349 100.27C53.1941 100.27 56.1893 99.9957 59.0973 99.4709C57.8923 97.4486 57.2001 95.0851 57.2001 92.56C57.2001 85.0934 63.2531 79.0401 70.72 79.0401C76.473 79.0401 81.387 82.6336 83.3396 87.6983Z" fill="url(#paint0_linear_2132_13667)" fill-opacity="0.7"/>
<path opacity="0.5" fill-rule="evenodd" clip-rule="evenodd" d="M89.0372 48.0774C92.8198 48.0774 95.8862 45.0109 95.8862 41.2283C95.8862 37.4457 92.8198 34.3793 89.0372 34.3793C85.2545 34.3793 82.1881 37.4457 82.1881 41.2283C82.1881 45.0109 85.2545 48.0774 89.0372 48.0774ZM83.5579 29.9959C84.9197 29.9959 86.0236 28.892 86.0236 27.5303C86.0236 26.1685 84.9197 25.0646 83.5579 25.0646C82.1962 25.0646 81.0923 26.1685 81.0923 27.5303C81.0923 28.892 82.1962 29.9959 83.5579 29.9959Z" fill="#E9ECEF"/>
<path opacity="0.5" fill-rule="evenodd" clip-rule="evenodd" d="M15.0677 39.3108C16.4294 39.3108 17.5333 38.2068 17.5333 36.8451C17.5333 35.4834 16.4294 34.3795 15.0677 34.3795C13.706 34.3795 12.6021 35.4834 12.6021 36.8451C12.6021 38.2068 13.706 39.3108 15.0677 39.3108Z" fill="#DED9C4"/>
<path fill-rule="evenodd" clip-rule="evenodd" d="M95.0644 32.1876C97.9392 32.1876 100.27 29.8571 100.27 26.9823C100.27 24.1075 97.9392 21.7771 95.0644 21.7771C92.1896 21.7771 89.8591 24.1075 89.8591 26.9823C89.8591 29.8571 92.1896 32.1876 95.0644 32.1876Z" fill="#FFEDEB"/>
<path fill-rule="evenodd" clip-rule="evenodd" d="M79.0889 81.9409C82.1513 79.4021 84.4805 76.2448 85.8303 72.5362C91.3382 57.4032 78.4542 38.821 57.0529 31.0316C35.6517 23.2422 13.8375 29.1953 8.32958 44.3282C2.82163 59.4612 15.7057 78.0434 37.1069 85.8329C44.0924 88.3754 51.122 89.4538 57.6141 89.2266C59.0987 83.3719 64.4035 79.0401 70.72 79.0401C73.88 79.0401 76.7869 80.1242 79.0889 81.9409Z" fill="url(#paint1_linear_2132_13667)" fill-opacity="0.9"/>
<path fill-rule="evenodd" clip-rule="evenodd" d="M80.2443 83.1833C77.9081 80.9394 74.7352 79.5601 71.2401 79.5601C64.0604 79.5601 58.2401 85.3804 58.2401 92.5601C58.2401 94.2787 58.5736 95.9195 59.1794 97.4211L30.5675 91.6855C28.8631 91.3439 27.7609 89.6727 28.1056 87.9532L40.9919 23.6699C41.3366 21.9504 42.9978 20.8331 44.7022 21.1748L87.7352 29.8013C89.4396 30.1429 90.5419 31.8141 90.1972 33.5337L80.2443 83.1833Z" fill="#DED9C4"/>
<mask id="mask0_2132_13667" style="mask-type:alpha" maskUnits="userSpaceOnUse" x="28" y="21" width="63" height="77">
<path fill-rule="evenodd" clip-rule="evenodd" d="M80.2443 83.1833C77.9081 80.9394 74.7352 79.5601 71.2401 79.5601C64.0604 79.5601 58.2401 85.3804 58.2401 92.5601C58.2401 94.2787 58.5736 95.9195 59.1794 97.4211L30.5675 91.6855C28.8631 91.3439 27.7609 89.6727 28.1056 87.9532L40.9919 23.6699C41.3366 21.9504 42.9978 20.8331 44.7022 21.1748L87.7352 29.8013C89.4396 30.1429 90.5419 31.8141 90.1972 33.5337L80.2443 83.1833Z" fill="#DED9C4"/>
</mask>
<g mask="url(#mask0_2132_13667)">
<g filter="url(#filter0_f_2132_13667)">
<path d="M76.96 25.4801L81.12 27.5601L79.56 83.7202L72.54 81.6402L76.96 25.4801Z" fill="#9D977D" fill-opacity="0.7"/>
</g>
</g>
<g filter="url(#filter1_d_2132_13667)">
<path fill-rule="evenodd" clip-rule="evenodd" d="M76.5481 80.3573C74.7834 79.5129 72.807 79.0401 70.7201 79.0401C63.2533 79.0401 57.2002 85.0934 57.2002 92.56C57.2002 95.4817 58.1269 98.1869 59.7024 100.398H26.7336C24.8926 100.398 23.4001 98.8918 23.4001 97.0345V27.6003C23.4001 25.743 24.8926 24.237 26.7336 24.237H73.2147C75.0557 24.237 76.5481 25.743 76.5481 27.6003V80.3573Z" fill="#8BB8B1"/>
</g>
<g filter="url(#filter2_d_2132_13667)">
<path fill-rule="evenodd" clip-rule="evenodd" d="M78.6281 83.6583L75.6503 82.2336C74.1599 81.5204 72.4896 81.1201 70.72 81.1201C64.402 81.1201 59.2801 86.2421 59.2801 92.56C59.2801 95.0349 60.0636 97.3205 61.3962 99.1906L63.7387 102.478H26.7335C23.7263 102.478 21.3201 100.023 21.3201 97.0345V27.6003C21.3201 24.6117 23.7263 22.157 26.7335 22.157H73.2146C76.2219 22.157 78.6281 24.6118 78.6281 27.6003V83.6583ZM76.5481 80.3573V27.6003C76.5481 25.743 75.0556 24.237 73.2146 24.237H26.7335C24.8925 24.237 23.4001 25.743 23.4001 27.6003V97.0345C23.4001 98.8918 24.8925 100.398 26.7335 100.398H59.7023C59.2372 99.745 58.8287 99.0493 58.4838 98.3177C57.6604 96.5708 57.2001 94.6192 57.2001 92.56C57.2001 85.0934 63.2532 79.0401 70.72 79.0401C72.0204 79.0401 73.2779 79.2237 74.4681 79.5664C75.1879 79.7736 75.883 80.0391 76.5481 80.3573Z" fill="white"/>
</g>
<g filter="url(#filter3_f_2132_13667)">
<path d="M35.4541 22.5927H65.0419V29.1678H35.4541V22.5927Z" fill="#527A74" fill-opacity="0.45"/>
</g>
<path fill-rule="evenodd" clip-rule="evenodd" d="M28.767 27.5246C27.6183 27.5246 26.687 28.4559 26.687 29.6046V95.03C26.687 96.1788 27.6183 97.11 28.767 97.11H57.9847C57.4767 95.6882 57.2 94.1564 57.2 92.56C57.2 85.0934 63.2531 79.0401 70.7199 79.0401C71.5881 79.0401 72.4371 79.1219 73.2598 79.2783V29.6046C73.2598 28.4559 72.3286 27.5246 71.1798 27.5246H28.767Z" fill="white"/>
<path fill-rule="evenodd" clip-rule="evenodd" d="M82.1601 92.8202C82.1601 98.9948 77.1545 104 70.98 104C64.8055 104 59.8 98.9948 59.8 92.8202C59.8 86.6458 64.8055 81.6402 70.98 81.6402C77.1545 81.6402 82.1601 86.6458 82.1601 92.8202Z" fill="#8BB8B1"/>
<g filter="url(#filter4_f_2132_13667)">
<path fill-rule="evenodd" clip-rule="evenodd" d="M76.1439 93.383C76.879 93.383 77.4696 93.9737 77.4696 94.7087C77.4696 95.0049 77.3707 95.2812 77.2073 95.5293C77.11 95.2081 76.9895 94.9609 76.8526 95.0489C76.9576 95.2457 77.0233 95.4689 77.0233 95.7052C77.0233 96.1646 76.7739 96.5847 76.4063 96.8209C76.5113 97.0047 76.577 97.241 76.577 97.4772C76.577 98.2123 75.9863 98.8029 75.2513 98.8029H72.2061C71.0313 98.8029 69.9459 98.6465 68.7849 98.3335V93.4665C68.8459 93.4239 68.9058 93.379 68.964 93.3306C69.8171 92.648 70.4472 91.6373 70.7491 90.4822L70.9198 89.839C71.0117 89.4846 71.2479 89.1958 71.5761 89.0384C71.9042 88.8809 72.2848 88.8809 72.613 89.0384C73.4793 89.4453 73.9518 90.1409 73.9518 91.0204C73.9518 91.9523 73.65 92.8187 73.3875 93.383H76.1439ZM68.4333 93.6363V98.3227C68.2903 98.4794 68.0909 98.5798 67.8614 98.5798H65.7744C65.3413 98.5798 65 98.2254 65 97.8054V94.1705C65 93.7374 65.3543 93.3961 65.7744 93.3961H67.8745C68.0939 93.3961 68.2907 93.4867 68.4333 93.6363ZM77.3013 95.8852C77.2525 95.7969 77.1943 95.7149 77.1283 95.6406C77.156 95.6042 77.1824 95.567 77.2073 95.5293C77.2416 95.6425 77.2731 95.765 77.3013 95.8852ZM77.3013 95.8852C77.4078 96.0775 77.4695 96.2992 77.4695 96.5331C77.4695 96.6813 77.4436 96.5549 77.3961 96.3236C77.3705 96.199 77.3387 96.0441 77.3013 95.8852ZM66.2601 96.9391C66.2601 97.2541 66.5094 97.5035 66.8245 97.5035C67.1395 97.5035 67.3889 97.241 67.3888 96.9391C67.3888 96.6242 67.1395 96.3747 66.8245 96.3747C66.5095 96.3747 66.2601 96.6241 66.2601 96.9391Z" fill="#527A74" fill-opacity="0.45"/>
</g>
<path fill-rule="evenodd" clip-rule="evenodd" d="M76.1439 90.783C76.879 90.783 77.4696 91.3737 77.4696 92.1087L77.4696 92.1087C77.4696 92.45 77.3383 92.765 77.1283 93.0406C77.3382 93.2768 77.4695 93.5919 77.4695 93.9331C77.4695 94.3926 77.2201 94.8127 76.8526 95.0489C76.9576 95.2457 77.0233 95.469 77.0233 95.7052C77.0233 96.1646 76.7739 96.5847 76.4063 96.8209C76.5113 97.0047 76.577 97.241 76.577 97.4772C76.577 98.2123 75.9863 98.8029 75.2513 98.8029H72.2061C71.0313 98.8029 69.9459 98.6465 68.7849 98.3336V90.8665C68.8459 90.8239 68.9058 90.779 68.964 90.7306C69.8171 90.048 70.4472 89.0373 70.7491 87.8822L70.9198 87.239C71.0117 86.8846 71.2479 86.5958 71.5761 86.4384C71.9042 86.2809 72.2848 86.2809 72.613 86.4384C73.4793 86.8453 73.9518 87.5409 73.9518 88.4204C73.9518 89.3523 73.65 90.2187 73.3875 90.783H76.1439ZM68.4333 91.0363V98.3227C68.2903 98.4794 68.0909 98.5798 67.8614 98.5798H65.7744C65.3413 98.5798 65 98.2254 65 97.8054V91.5705C65 91.1374 65.3543 90.7961 65.7744 90.7961H67.8745C68.0939 90.7961 68.2907 90.8867 68.4333 91.0363ZM66.2601 96.9391C66.2601 97.2541 66.5094 97.5035 66.8245 97.5035C67.1395 97.5035 67.3889 97.241 67.3888 96.9391C67.3888 96.6242 67.1395 96.3748 66.8245 96.3748C66.5095 96.3748 66.2601 96.6241 66.2601 96.9391Z" fill="white"/>
<path fill-rule="evenodd" clip-rule="evenodd" d="M47.5503 41.6895C47.4683 41.4933 47.2211 41.4304 47.0553 41.5636L46.2485 42.2118C45.9127 42.4816 45.4218 42.4281 45.152 42.0922C44.8821 41.7564 44.9357 41.2655 45.2715 40.9956L46.0782 40.3475C47.0534 39.564 48.5075 39.9339 48.9897 41.0882L49.1698 41.5193C49.1724 41.5255 49.1746 41.5284 49.1754 41.5295C49.1764 41.5308 49.1773 41.5316 49.1784 41.5325C49.1809 41.5344 49.1863 41.5373 49.1945 41.5386C49.2027 41.5399 49.2087 41.5387 49.2117 41.5377C49.213 41.5373 49.2141 41.5367 49.2154 41.5358C49.2166 41.535 49.2195 41.5329 49.2239 41.5278C49.8514 40.7938 50.9825 40.7829 51.624 41.5047L52.0316 41.9633L52.354 42.3726C52.7287 41.3624 54.1162 41.0988 54.8201 42.0037L54.9392 42.1568L55.4539 41.5326C55.9571 40.9225 56.8316 41.0481 57.2197 41.6015L57.6646 41.3793C57.7231 41.35 57.7695 41.3012 57.7956 41.2412L57.8169 41.1922C58.3045 40.0711 59.7207 39.7145 60.6811 40.4708L61.2859 40.9471L61.8291 40.5951C62.6518 40.062 63.7121 40.0671 64.5296 40.6081L64.8254 40.8038C65.1112 40.9929 65.4548 41.0744 65.7951 41.0337L67.5075 40.8292C67.9353 40.7781 68.3234 41.0835 68.3745 41.5112C68.4256 41.9389 68.1203 42.3271 67.6925 42.3782L65.9801 42.5827C65.2728 42.6672 64.5585 42.4978 63.9645 42.1047L63.6688 41.909C63.3687 41.7105 62.9794 41.7086 62.6775 41.9043L61.7473 42.5069C61.4186 42.72 60.9907 42.7002 60.6829 42.4579L59.716 41.6964C59.5589 41.5727 59.3272 41.631 59.2474 41.8144L59.2261 41.8635C59.0539 42.2593 58.7479 42.5819 58.3618 42.7748L57.4565 43.2271C57.0203 43.445 56.5386 43.3457 56.2185 43.0575L56.0537 43.2574C55.4639 43.9726 54.3631 43.957 53.7939 43.2252L53.7489 43.1673C53.3745 44.1727 51.9953 44.4382 51.2889 43.5414L50.8348 42.965L50.458 42.5411C50.4533 42.5358 50.4499 42.5339 50.4474 42.5328C50.4441 42.5314 50.4394 42.5302 50.4337 42.5303C50.428 42.5303 50.4233 42.5316 50.4201 42.5331C50.4176 42.5342 50.4142 42.5362 50.4096 42.5415C49.6387 43.4432 48.1877 43.2153 47.7304 42.1206L47.5503 41.6895Z" fill="#DED9C4"/>
<path fill-rule="evenodd" clip-rule="evenodd" d="M47.3894 54.8475C47.2157 54.638 46.9059 54.6067 46.6937 54.7772L45.7285 55.5526C45.3927 55.8225 44.9017 55.7689 44.6319 55.4331C44.3621 55.0973 44.4156 54.6063 44.7514 54.3365L45.7167 53.561C46.5932 52.8568 47.8726 52.9863 48.5903 53.8518L48.8283 54.1388C48.9013 54.2269 49.036 54.2279 49.1104 54.1409C49.7979 53.3368 51.0372 53.3249 51.7401 54.1157L52.0316 54.4437L52.138 54.5788C52.4263 54.9447 52.99 54.915 53.2381 54.5208C53.85 53.5486 55.0995 53.1989 56.1271 53.7122L56.864 54.0802H57.8167C57.8692 54.0802 57.9194 54.0583 57.9551 54.0197C58.6223 53.2989 59.7522 53.2688 60.4568 53.9532L60.751 54.2389C60.9305 54.4133 61.2006 54.4551 61.4245 54.3433L62.1071 54.0023C62.1804 53.9657 62.2505 53.9227 62.3163 53.874C63.1099 53.2866 64.157 53.169 65.0611 53.5655L65.8244 53.9003C66.2189 54.0734 66.3984 54.5335 66.2254 54.928C66.0523 55.3225 65.5923 55.502 65.1978 55.3289L64.4345 54.9941C64.0425 54.8222 63.5885 54.8732 63.2444 55.1279C63.1058 55.2304 62.9585 55.3208 62.8043 55.3979L62.1217 55.7388C61.3047 56.1469 60.3191 55.9942 59.664 55.3579L59.3699 55.0722C59.2939 54.9984 59.172 55.0016 59.1 55.0794C58.7691 55.437 58.3039 55.6402 57.8167 55.6402H56.4961L55.4301 55.1078C55.12 54.9529 54.743 55.0585 54.5583 55.3518C53.736 56.6583 51.8679 56.7569 50.9126 55.5442L50.8348 55.4454L50.574 55.152C50.4997 55.0684 50.3688 55.0697 50.2961 55.1547C49.5929 55.9772 48.3182 55.9676 47.6274 55.1346L47.3894 54.8475Z" fill="#DED9C4"/>
<path fill-rule="evenodd" clip-rule="evenodd" d="M47.3894 68.5468C47.2157 68.3373 46.9059 68.3059 46.6937 68.4764L45.7285 69.2519C45.3927 69.5217 44.9017 69.4682 44.6319 69.1324C44.3621 68.7966 44.4156 68.3056 44.7514 68.0358L45.7167 67.2603C46.5932 66.5561 47.8726 66.6855 48.5903 67.5511L48.8283 67.8381C48.9013 67.9261 49.036 67.9271 49.1104 67.8402C49.7979 67.036 51.0372 67.0241 51.7401 67.8149L52.0316 68.143L52.138 68.2781C52.4263 68.644 52.99 68.6143 53.2381 68.22C53.85 67.2479 55.0995 66.8982 56.1271 67.4115L56.864 67.7795H57.8167C57.8692 67.7795 57.9194 67.7576 57.9551 67.719C58.6223 66.9981 59.7522 66.9681 60.4568 67.6524L60.751 67.9382C60.9305 68.1125 61.2006 68.1544 61.4245 68.0426L62.1071 67.7016C62.1804 67.6649 62.2505 67.622 62.3163 67.5732C63.1099 66.9859 64.157 66.8682 65.0611 67.2648L65.8244 67.5996C66.2189 67.7726 66.3984 68.2327 66.2254 68.6272C66.0523 69.0217 65.5923 69.2013 65.1978 69.0282L64.4345 68.6934C64.0425 68.5215 63.5885 68.5725 63.2444 68.8271C63.1058 68.9297 62.9585 69.0201 62.8043 69.0971L62.1217 69.4381C61.3047 69.8462 60.3191 69.6934 59.664 69.0572L59.3699 68.7715C59.2939 68.6976 59.172 68.7009 59.1 68.7786C58.7691 69.1362 58.3039 69.3395 57.8167 69.3395H56.4961L55.4301 68.8071C55.12 68.6522 54.743 68.7577 54.5583 69.0511C53.736 70.3576 51.8679 70.4561 50.9126 69.2434L50.8348 69.1447L50.574 68.8513C50.4997 68.7677 50.3688 68.7689 50.2961 68.8539C49.5929 69.6765 48.3182 69.6668 47.6274 68.8338L47.3894 68.5468Z" fill="#DED9C4"/>
<path fill-rule="evenodd" clip-rule="evenodd" d="M46.1037 81.6739L45.8865 81.9956C45.6454 82.3526 45.1605 82.4465 44.8035 82.2055C44.4465 81.9644 44.3525 81.4795 44.5936 81.1225L45.0334 80.4713C45.5723 79.6732 46.7246 79.7044 47.2402 80.4576C47.8056 80.0807 48.6462 80.2376 48.982 80.934L49.0417 81.0578C49.4692 80.2136 50.6146 79.9637 51.3491 80.6399L51.4137 80.6993H51.4499C51.9555 80.0207 53.0273 80.0514 53.4752 80.8175L53.5678 80.7322C53.5733 80.7272 53.5783 80.7216 53.5827 80.7157C54.1177 79.9858 55.1541 79.8512 55.8578 80.4201L56.1304 80.6405C56.4654 80.9113 56.5175 81.4024 56.2466 81.7374C55.9758 82.0724 55.4847 82.1244 55.1497 81.8536L54.8771 81.6332C54.873 81.6299 54.8703 81.6289 54.8683 81.6284C54.8658 81.6277 54.8622 81.6273 54.8579 81.6278C54.8537 81.6284 54.8503 81.6297 54.848 81.631C54.8463 81.632 54.8439 81.6337 54.8408 81.6379C54.7767 81.7254 54.7043 81.8064 54.6245 81.8799L54.3343 82.147C53.7531 82.6822 52.8568 82.5973 52.3781 82.0096C52.1694 82.1686 51.911 82.2593 51.6388 82.2593H50.8049L50.3894 81.8768C49.9267 82.9336 48.4429 83.0639 47.8226 82.0974C47.2701 82.4683 46.4532 82.3257 46.1037 81.6739ZM48.4175 81.559L49.1347 81.2525C49.1319 81.246 49.1248 81.2349 49.1131 81.2236L48.4175 81.559Z" fill="#DED9C4"/>
<rect x="32.76" y="38.4802" width="7.80001" height="7.80001" rx="3.9" fill="#E4EBE7"/>
<path d="M36.533 44.3191C37.123 44.9318 38.1039 44.9318 38.6939 44.3191L41.9982 40.888C42.4538 40.415 42.4538 39.6663 41.9982 39.1933C41.5176 38.6942 40.7185 38.6944 40.238 39.1937L37.8795 41.6452C37.7345 41.7959 37.4932 41.7958 37.3483 41.6449L37.2422 41.5345C36.7621 41.0346 35.9626 41.034 35.4818 41.5333C35.0263 42.0062 35.0263 42.7546 35.4818 43.2276L36.533 44.3191Z" fill="#8BB8B1" stroke="white"/>
<rect x="32.76" y="51.4802" width="7.80001" height="7.80001" rx="3.9" fill="#E4EBE7"/>
<path d="M36.533 57.3191C37.123 57.9318 38.1039 57.9318 38.6939 57.3191L41.9982 53.888C42.4538 53.415 42.4538 52.6664 41.9982 52.1933C41.5176 51.6942 40.7185 51.6944 40.238 52.1937L37.8795 54.6452C37.7345 54.796 37.4932 54.7958 37.3483 54.645L37.2422 54.5345C36.7621 54.0346 35.9626 54.034 35.4818 54.5333C35.0263 55.0062 35.0263 55.7546 35.4818 56.2276L36.533 57.3191Z" fill="#8BB8B1" stroke="white"/>
<rect x="32.76" y="64.4802" width="7.80001" height="7.80001" rx="3.9" fill="#E4EBE7"/>
<path d="M36.533 70.3191C37.123 70.9318 38.1039 70.9318 38.6939 70.3191L41.9982 66.8881C42.4538 66.415 42.4538 65.6664 41.9982 65.1933C41.5176 64.6942 40.7185 64.6944 40.238 65.1938L37.8795 67.6452C37.7345 67.796 37.4932 67.7959 37.3483 67.645L37.2422 67.5346C36.7621 67.0346 35.9626 67.034 35.4818 67.5333C35.0263 68.0062 35.0263 68.7547 35.4818 69.2276L36.533 70.3191Z" fill="#8BB8B1" stroke="white"/>
<rect x="32.76" y="77.4802" width="7.80001" height="7.80001" rx="3.9" fill="#E4EBE7"/>
<path d="M36.533 83.3192C37.123 83.9318 38.1039 83.9318 38.6939 83.3192L41.9982 79.8881C42.4538 79.415 42.4538 78.6664 41.9982 78.1933C41.5176 77.6942 40.7185 77.6944 40.238 78.1938L37.8795 80.6452C37.7345 80.796 37.4932 80.7959 37.3483 80.645L37.2422 80.5346C36.7621 80.0346 35.9626 80.0341 35.4818 80.5333C35.0263 81.0063 35.0263 81.7547 35.4818 82.2276L36.533 83.3192Z" fill="#8BB8B1" stroke="white"/>
<path fill-rule="evenodd" clip-rule="evenodd" d="M50.0266 21.4976C49.3945 21.4976 48.8818 20.9823 48.8818 20.3468C48.8818 19.7115 49.3945 19.1963 50.0266 19.1963C50.6587 19.1963 51.1714 19.7115 51.1714 20.3468C51.1714 20.9823 50.6587 21.4976 50.0266 21.4976ZM52.8633 20.5903C52.8633 18.9733 51.5699 17.6624 49.9741 17.6624C48.3786 17.6624 47.085 18.9733 47.085 20.5903H40.63C39.8898 20.5903 39.2898 21.1984 39.2898 21.9487V27.8103C39.2898 28.5604 39.8898 29.1687 40.63 29.1687H59.3183C60.0584 29.1687 60.6588 28.5604 60.6588 27.8103V21.9487C60.6588 21.1984 60.0584 20.5903 59.3183 20.5903H52.8633Z" fill="#DED9C4"/>
<path fill-rule="evenodd" clip-rule="evenodd" d="M75.4525 70.2671C75.083 70.2644 74.7083 70.2642 74.3567 70.2586C74.7083 70.2642 75.0829 70.2644 75.4524 70.2671L75.4525 70.2671Z" fill="#0D8B84"/>
<defs>
<filter id="filter0_f_2132_13667" x="63.54" y="16.4801" width="26.5801" height="76.2401" filterUnits="userSpaceOnUse" color-interpolation-filters="sRGB">
<feFlood flood-opacity="0" result="BackgroundImageFix"/>
<feBlend mode="normal" in="SourceGraphic" in2="BackgroundImageFix" result="shape"/>
<feGaussianBlur stdDeviation="4.5" result="effect1_foregroundBlur_2132_13667"/>
</filter>
<filter id="filter1_d_2132_13667" x="23.4001" y="16.237" width="61.1479" height="84.1606" filterUnits="userSpaceOnUse" color-interpolation-filters="sRGB">
<feFlood flood-opacity="0" result="BackgroundImageFix"/>
<feColorMatrix in="SourceAlpha" type="matrix" values="0 0 0 0 0 0 0 0 0 0 0 0 0 0 0 0 0 0 127 0" result="hardAlpha"/>
<feOffset dx="4" dy="-4"/>
<feGaussianBlur stdDeviation="2"/>
<feComposite in2="hardAlpha" operator="out"/>
<feColorMatrix type="matrix" values="0 0 0 0 0.831373 0 0 0 0 0.85098 0 0 0 0 0.862745 0 0 0 0.25 0"/>
<feBlend mode="normal" in2="BackgroundImageFix" result="effect1_dropShadow_2132_13667"/>
<feBlend mode="normal" in="SourceGraphic" in2="effect1_dropShadow_2132_13667" result="shape"/>
</filter>
<filter id="filter2_d_2132_13667" x="21.3201" y="14.157" width="65.3081" height="88.3206" filterUnits="userSpaceOnUse" color-interpolation-filters="sRGB">
<feFlood flood-opacity="0" result="BackgroundImageFix"/>
<feColorMatrix in="SourceAlpha" type="matrix" values="0 0 0 0 0 0 0 0 0 0 0 0 0 0 0 0 0 0 127 0" result="hardAlpha"/>
<feOffset dx="4" dy="-4"/>
<feGaussianBlur stdDeviation="2"/>
<feComposite in2="hardAlpha" operator="out"/>
<feColorMatrix type="matrix" values="0 0 0 0 0.831373 0 0 0 0 0.85098 0 0 0 0 0.862745 0 0 0 0.25 0"/>
<feBlend mode="normal" in2="BackgroundImageFix" result="effect1_dropShadow_2132_13667"/>
<feBlend mode="normal" in="SourceGraphic" in2="effect1_dropShadow_2132_13667" result="shape"/>
</filter>
<filter id="filter3_f_2132_13667" x="27.2993" y="14.4379" width="45.8976" height="22.8847" filterUnits="userSpaceOnUse" color-interpolation-filters="sRGB">
<feFlood flood-opacity="0" result="BackgroundImageFix"/>
<feBlend mode="normal" in="SourceGraphic" in2="BackgroundImageFix" result="shape"/>
<feGaussianBlur stdDeviation="4.07742" result="effect1_foregroundBlur_2132_13667"/>
</filter>
<filter id="filter4_f_2132_13667" x="59.85" y="83.7702" width="22.7697" height="20.1827" filterUnits="userSpaceOnUse" color-interpolation-filters="sRGB">
<feFlood flood-opacity="0" result="BackgroundImageFix"/>
<feBlend mode="normal" in="SourceGraphic" in2="BackgroundImageFix" result="shape"/>
<feGaussianBlur stdDeviation="2.575" result="effect1_foregroundBlur_2132_13667"/>
</filter>
<linearGradient id="paint0_linear_2132_13667" x1="22.2482" y1="-6.21456" x2="-8.81456" y2="80.6216" gradientUnits="userSpaceOnUse">
<stop stop-color="#EEF3F0" stop-opacity="0.0789496"/>
<stop offset="1" stop-color="#D9E4DD"/>
</linearGradient>
<linearGradient id="paint1_linear_2132_13667" x1="37.2519" y1="20.969" x2="6.21302" y2="66.6501" gradientUnits="userSpaceOnUse">
<stop stop-color="#EEF3F0" stop-opacity="0.0789496"/>
<stop offset="1" stop-color="#D9E4DD"/>
</linearGradient>
</defs>
</svg>
