<svg width="107" height="107" viewBox="0 0 107 107" fill="none" xmlns="http://www.w3.org/2000/svg">
<g id="Group 9">
<path id="Combined Shape" d="M104 52C104 80.7188 80.7188 104 52 104C23.2812 104 0 80.7188 0 52C0 23.2812 23.2812 0 52 0C80.7188 0 104 23.2812 104 52Z" fill="url(#paint0_linear_2138_13488)" fill-opacity="0.7"/>
<path id="Combined-Shape" opacity="0.5" fill-rule="evenodd" clip-rule="evenodd" d="M100.461 50.5285C103.679 48.2835 104.467 43.8552 102.222 40.6377C99.977 37.4201 95.5488 36.6317 92.3312 38.8768C89.1137 41.1218 88.3253 45.55 90.5703 48.7675C92.8153 51.9851 97.2436 52.7735 100.461 50.5285ZM85.069 38.4002C86.2273 37.592 86.5111 35.9978 85.7029 34.8395C84.8947 33.6812 83.3005 33.3973 82.1422 34.2055C80.9839 35.0137 80.7001 36.6079 81.5083 37.7662C82.3165 38.9245 83.9107 39.2084 85.069 38.4002Z" fill="#E9ECEF"/>
<path id="Combined-Shape_2" opacity="0.5" fill-rule="evenodd" clip-rule="evenodd" d="M8.37256 51.6207C9.78496 51.6207 10.9299 50.4757 10.9299 49.0633C10.9299 47.6509 9.78496 46.506 8.37256 46.506C6.96016 46.506 5.81519 47.6509 5.81519 49.0633C5.81519 50.4757 6.96016 51.6207 8.37256 51.6207Z" fill="#DED9C4"/>
<path id="Combined-Shape_3" fill-rule="evenodd" clip-rule="evenodd" d="M96.1574 33.4353C98.6027 31.7291 99.2019 28.3636 97.4957 25.9183C95.7895 23.473 92.424 22.8738 89.9787 24.58C87.5334 26.2862 86.9342 29.6517 88.6404 32.097C90.3466 34.5423 93.7121 35.1415 96.1574 33.4353Z" fill="#FFEDEB"/>
<path id="Combined Shape_2" d="M89.023 75.2351C83.3102 90.931 60.6845 97.1056 38.487 89.0264C16.2896 80.9472 2.92627 61.6736 8.63912 45.9777C14.352 30.2818 36.9777 24.1072 59.1751 32.1864C81.3725 40.2656 94.7359 59.5391 89.023 75.2351Z" fill="url(#paint1_linear_2138_13488)" fill-opacity="0.9"/>
<g id="Group 974">
<g id="Vector" filter="url(#filter0_d_2138_13488)">
<path d="M78.7013 58.9387C76.9308 57.3461 74.7451 56.2874 72.3975 55.8855C72.3975 56.0576 72.3531 56.1594 72.3402 56.255C72.1276 59.3313 71.2584 62.3267 69.7908 65.0389C65.8515 72.1777 59.8793 76.0787 51.5997 76.1806H48.9799C48.2659 76.1806 47.9475 76.7288 48.3108 77.3215C50.3249 80.6104 53.1424 82.8605 56.9986 83.5297C58.6668 83.7342 60.3471 83.8173 62.0273 83.7782C62.419 83.7542 62.8001 83.912 63.0602 84.2055C64.1819 85.4037 65.3295 86.5766 66.4637 87.762C67.3369 88.6735 68.2039 89.6041 69.1025 90.5026C69.4827 90.9388 70.0202 91.2069 70.5974 91.2474C71.1745 91.2878 71.744 91.0984 72.1815 90.7196C72.716 90.2336 72.9961 89.528 72.9401 88.8077V84.2695C72.9401 83.7275 73.0868 83.5363 73.6221 83.3327C74.9435 82.9112 76.2102 82.3327 77.3951 81.6111C84.9039 76.4483 85.5605 65.0317 78.7018 58.9388L78.7013 58.9387Z" fill="white"/>
</g>
<g id="Subtract">
<mask id="path-7-outside-1_2138_13488" maskUnits="userSpaceOnUse" x="15.3525" y="31.2836" width="58" height="56" fill="black">
<rect fill="white" x="15.3525" y="31.2836" width="58" height="56"/>
<path fill-rule="evenodd" clip-rule="evenodd" d="M58.644 36.8582C56.3891 35.8058 53.8357 35.2705 50.9746 35.2842H36.5624C34.7337 35.2678 32.9169 35.5852 31.2021 36.221C25.2357 38.4964 21.6534 42.8755 19.9901 48.9179C19.6887 49.9951 19.4753 51.0952 19.3525 52.2072V55.7001C19.5442 56.9682 19.8016 58.2252 20.1239 59.467C22.1377 66.0384 26.2812 70.4686 33.0758 72.2151C33.5409 72.304 33.6685 72.4828 33.6685 72.9416V80.1635C33.6511 80.8331 33.9046 81.4809 34.3714 81.9607C34.8378 82.4404 35.4785 82.7121 36.1476 82.7134C36.9493 82.7054 37.7074 82.3497 38.2258 81.7384C39.6941 80.1881 41.1752 78.6398 42.6582 77.0894L42.659 77.0886L42.6605 77.087C43.9453 75.7439 45.2315 74.3993 46.5122 73.0505C46.7847 72.742 47.1849 72.5775 47.5957 72.6041H51.2735C55.7148 72.6917 60.004 70.9866 63.1737 67.8747L63.1743 67.8749C66.2839 64.7728 68.2651 60.7197 68.8022 56.3606C68.8664 55.8398 68.9096 55.3183 68.932 54.7971H63.644C60.8826 54.7971 58.644 52.5585 58.644 49.7971V36.8582ZM43.9786 49.4152C45.3633 49.4152 46.4858 48.2927 46.4858 46.908C46.4858 45.5233 45.3633 44.4008 43.9786 44.4008C42.5939 44.4008 41.4714 45.5233 41.4714 46.908C41.4714 48.2927 42.5939 49.4152 43.9786 49.4152ZM43.9786 50.7825C42.8969 50.7825 41.9976 51.6156 41.9151 52.6942L41.2415 61.5037C41.1196 63.0976 42.38 64.4581 43.9786 64.4581C45.5771 64.4581 46.8376 63.0976 46.7157 61.5037L46.042 52.6942C45.9596 51.6156 45.0603 50.7825 43.9786 50.7825Z"/>
</mask>
<path fill-rule="evenodd" clip-rule="evenodd" d="M58.644 36.8582C56.3891 35.8058 53.8357 35.2705 50.9746 35.2842H36.5624C34.7337 35.2678 32.9169 35.5852 31.2021 36.221C25.2357 38.4964 21.6534 42.8755 19.9901 48.9179C19.6887 49.9951 19.4753 51.0952 19.3525 52.2072V55.7001C19.5442 56.9682 19.8016 58.2252 20.1239 59.467C22.1377 66.0384 26.2812 70.4686 33.0758 72.2151C33.5409 72.304 33.6685 72.4828 33.6685 72.9416V80.1635C33.6511 80.8331 33.9046 81.4809 34.3714 81.9607C34.8378 82.4404 35.4785 82.7121 36.1476 82.7134C36.9493 82.7054 37.7074 82.3497 38.2258 81.7384C39.6941 80.1881 41.1752 78.6398 42.6582 77.0894L42.659 77.0886L42.6605 77.087C43.9453 75.7439 45.2315 74.3993 46.5122 73.0505C46.7847 72.742 47.1849 72.5775 47.5957 72.6041H51.2735C55.7148 72.6917 60.004 70.9866 63.1737 67.8747L63.1743 67.8749C66.2839 64.7728 68.2651 60.7197 68.8022 56.3606C68.8664 55.8398 68.9096 55.3183 68.932 54.7971H63.644C60.8826 54.7971 58.644 52.5585 58.644 49.7971V36.8582ZM43.9786 49.4152C45.3633 49.4152 46.4858 48.2927 46.4858 46.908C46.4858 45.5233 45.3633 44.4008 43.9786 44.4008C42.5939 44.4008 41.4714 45.5233 41.4714 46.908C41.4714 48.2927 42.5939 49.4152 43.9786 49.4152ZM43.9786 50.7825C42.8969 50.7825 41.9976 51.6156 41.9151 52.6942L41.2415 61.5037C41.1196 63.0976 42.38 64.4581 43.9786 64.4581C45.5771 64.4581 46.8376 63.0976 46.7157 61.5037L46.042 52.6942C45.9596 51.6156 45.0603 50.7825 43.9786 50.7825Z" fill="#8BB8B1"/>
<path d="M58.644 36.8582H62.644V34.3109L60.3358 33.2336L58.644 36.8582ZM50.9746 35.2842V39.2842H50.9842L50.9937 39.2842L50.9746 35.2842ZM36.5624 35.2842L36.5265 39.284L36.5445 39.2842H36.5624V35.2842ZM31.2021 36.221L29.8115 32.4705L29.7941 32.477L29.7767 32.4836L31.2021 36.221ZM19.9901 48.9179L23.8421 49.9959L23.8444 49.9877L23.8467 49.9795L19.9901 48.9179ZM19.3525 52.2072L15.3767 51.7684L15.3525 51.9871V52.2072H19.3525ZM19.3525 55.7001H15.3525V56.0007L15.3974 56.2978L19.3525 55.7001ZM20.1239 59.467L16.2523 60.472L16.2741 60.556L16.2995 60.639L20.1239 59.467ZM33.0758 72.2151L32.08 76.0892L32.2015 76.1204L32.3246 76.1439L33.0758 72.2151ZM33.6685 80.1635L37.6671 80.2671L37.6685 80.2153V80.1635H33.6685ZM34.3714 81.9607L37.2397 79.1726L37.2381 79.171L34.3714 81.9607ZM36.1476 82.7134L36.1396 86.7134L36.1636 86.7135L36.1875 86.7132L36.1476 82.7134ZM38.2258 81.7384L35.3217 78.9877L35.2461 79.0675L35.175 79.1513L38.2258 81.7384ZM42.6582 77.0894L45.5488 79.8544L45.5562 79.8465L42.6582 77.0894ZM42.659 77.0886L39.7622 74.3302L39.761 74.3315L42.659 77.0886ZM42.6605 77.087L39.77 74.322L39.7637 74.3287L42.6605 77.087ZM46.5122 73.0505L49.4129 75.8048L49.4625 75.7525L49.5102 75.6985L46.5122 73.0505ZM47.5957 72.6041L47.3365 76.5957L47.466 76.6041H47.5957V72.6041ZM51.2735 72.6041L51.3524 68.6049L51.313 68.6041H51.2735V72.6041ZM63.1737 67.8747L64.377 64.06L62.0858 63.3373L60.3714 65.0204L63.1737 67.8747ZM63.1743 67.8749L61.971 71.6896L64.283 72.4189L65.9993 70.7067L63.1743 67.8749ZM68.8022 56.3606L64.8323 55.8709L64.8322 55.8714L68.8022 56.3606ZM68.932 54.7971L72.9283 54.9685L73.1072 50.7971H68.932V54.7971ZM41.9151 52.6942L45.9035 52.9992V52.9992L41.9151 52.6942ZM41.2415 61.5037L45.2298 61.8087L41.2415 61.5037ZM46.7157 61.5037L42.7273 61.8087L46.7157 61.5037ZM46.042 52.6942L42.0537 52.9992V52.9992L46.042 52.6942ZM60.3358 33.2336C57.4852 31.9031 54.3374 31.2681 50.9556 31.2843L50.9937 39.2842C53.3339 39.273 55.293 39.7084 56.9523 40.4829L60.3358 33.2336ZM50.9746 31.2842H36.5624V39.2842H50.9746V31.2842ZM36.5984 31.2844C34.283 31.2635 31.9828 31.6655 29.8115 32.4705L32.5926 39.9715C33.851 39.505 35.1843 39.272 36.5265 39.284L36.5984 31.2844ZM29.7767 32.4836C22.4914 35.2621 18.0966 40.725 16.1336 47.8563L23.8467 49.9795C25.2102 45.0261 27.9801 41.7308 32.6275 39.9584L29.7767 32.4836ZM16.1381 47.8399C15.7782 49.1259 15.5233 50.4397 15.3767 51.7684L23.3284 52.6459C23.4272 51.7506 23.5991 50.8644 23.8421 49.9959L16.1381 47.8399ZM15.3525 52.2072V55.7001H23.3525V52.2072H15.3525ZM15.3974 56.2978C15.6098 57.7032 15.8951 59.0961 16.2523 60.472L23.9956 58.462C23.7081 57.3543 23.4785 56.2333 23.3076 55.1025L15.3974 56.2978ZM16.2995 60.639C18.675 68.3909 23.7899 73.9583 32.08 76.0892L34.0716 68.341C28.7724 66.9789 25.6004 63.6859 23.9484 58.295L16.2995 60.639ZM32.3246 76.1439C32.277 76.1348 31.2372 75.9616 30.4165 74.9301C30.0151 74.4257 29.8296 73.9158 29.7453 73.5533C29.6686 73.2235 29.6685 72.985 29.6685 72.9416H37.6685C37.6685 72.5071 37.6492 71.1715 36.6766 69.9492C35.6758 68.6913 34.3397 68.3843 33.827 68.2863L32.3246 76.1439ZM29.6685 72.9416V80.1635H37.6685V72.9416H29.6685ZM29.6698 80.06C29.6246 81.8066 30.2858 83.4978 31.5048 84.7503L37.2381 79.171C37.5233 79.4641 37.6777 79.8596 37.6671 80.2671L29.6698 80.06ZM31.5032 84.7487C32.7203 86.0008 34.3921 86.7099 36.1396 86.7134L36.1556 78.7134C36.5648 78.7142 36.9552 78.88 37.2397 79.1726L31.5032 84.7487ZM36.1875 86.7132C38.1501 86.6936 40.007 85.8225 41.2766 84.3254L35.175 79.1513C35.4077 78.877 35.7484 78.7172 36.1077 78.7136L36.1875 86.7132ZM41.1299 84.489C42.5903 82.9471 44.0645 81.406 45.5487 79.8544L39.7677 74.3244C38.2859 75.8736 36.7979 77.4291 35.3217 78.9877L41.1299 84.489ZM45.5562 79.8465L45.557 79.8457L39.761 74.3315L39.7603 74.3323L45.5562 79.8465ZM45.5558 79.8469L45.5573 79.8454L39.7637 74.3287L39.7622 74.3302L45.5558 79.8469ZM45.551 79.852C46.8349 78.5098 48.1263 77.1598 49.4129 75.8048L43.6115 70.2963C42.3368 71.6388 41.0556 72.9781 39.77 74.3221L45.551 79.852ZM49.5102 75.6985C48.9609 76.3205 48.157 76.649 47.3365 76.5957L47.8549 68.6125C46.2127 68.5059 44.6086 69.1634 43.5142 70.4025L49.5102 75.6985ZM47.5957 76.6041H51.2735V68.6041H47.5957V76.6041ZM51.1947 76.6034C56.7116 76.7121 62.0391 74.5941 65.976 70.729L60.3714 65.0204C57.9688 67.3791 54.718 68.6712 51.3524 68.6049L51.1947 76.6034ZM61.9704 71.6894L61.971 71.6896L64.3776 64.0602L64.377 64.06L61.9704 71.6894ZM65.9993 70.7067C69.7414 66.9737 72.1258 62.0959 72.7722 56.8498L64.8322 55.8714C64.4044 59.3434 62.8264 62.5719 60.3492 65.043L65.9993 70.7067ZM72.7721 56.8503C72.8494 56.2236 72.9014 55.5958 72.9283 54.9685L64.9356 54.6257C64.9178 55.0407 64.8835 55.4561 64.8323 55.8709L72.7721 56.8503ZM68.932 50.7971H63.644V58.7971H68.932V50.7971ZM63.644 50.7971C63.0918 50.7971 62.644 50.3494 62.644 49.7971H54.644C54.644 54.7677 58.6735 58.7971 63.644 58.7971V50.7971ZM62.644 49.7971V36.8582H54.644V49.7971H62.644ZM42.4858 46.908C42.4858 46.0835 43.1541 45.4152 43.9786 45.4152V53.4152C47.5724 53.4152 50.4858 50.5018 50.4858 46.908H42.4858ZM43.9786 48.4008C43.1541 48.4008 42.4858 47.7324 42.4858 46.908H50.4858C50.4858 43.3142 47.5724 40.4008 43.9786 40.4008V48.4008ZM45.4714 46.908C45.4714 47.7324 44.803 48.4008 43.9786 48.4008V40.4008C40.3848 40.4008 37.4714 43.3142 37.4714 46.908H45.4714ZM43.9786 45.4152C44.803 45.4152 45.4714 46.0835 45.4714 46.908H37.4714C37.4714 50.5018 40.3848 53.4152 43.9786 53.4152V45.4152ZM45.9035 52.9992C45.8266 54.0054 44.9877 54.7825 43.9786 54.7825V46.7825C40.806 46.7825 38.1687 49.2259 37.9268 52.3892L45.9035 52.9992ZM45.2298 61.8087L45.9035 52.9992L37.9268 52.3892L37.2531 61.1987L45.2298 61.8087ZM43.9786 60.4581C44.7093 60.4581 45.2855 61.08 45.2298 61.8087L37.2531 61.1987C36.9536 65.1151 40.0507 68.4581 43.9786 68.4581V60.4581ZM42.7273 61.8087C42.6716 61.08 43.2478 60.4581 43.9786 60.4581V68.4581C47.9065 68.4581 51.0035 65.1151 50.7041 61.1987L42.7273 61.8087ZM42.0537 52.9992L42.7273 61.8087L50.7041 61.1987L50.0304 52.3892L42.0537 52.9992ZM43.9786 54.7825C42.9695 54.7825 42.1306 54.0054 42.0537 52.9992L50.0304 52.3892C49.7885 49.2259 47.1512 46.7825 43.9786 46.7825V54.7825Z" fill="white" mask="url(#path-7-outside-1_2138_13488)"/>
</g>
<g id="Group">
<path id="Vector_2" d="M85.1727 34.8561V34.828H85.1423L85.1727 34.8561Z" fill="black"/>
<path id="Vector_3" d="M62.233 34.8284H62.2026V34.8566L62.233 34.8284Z" fill="black"/>
<path id="Vector_4" d="M75.6392 46.6032C75.1368 47.1424 74.4252 47.4541 73.6869 47.4541C72.9485 47.4541 72.2369 47.1445 71.7345 46.6032L63.6233 37.8873C63.1147 37.3418 62.2021 37.7007 62.2021 38.4451V49.5932C62.2021 50.4996 62.9364 51.2339 63.8428 51.2339H83.5305C84.4369 51.2339 85.1711 50.4996 85.1711 49.5932V38.4451C85.1711 37.7007 84.2586 37.3418 83.75 37.8873L75.6392 46.6032Z" fill="#DED9C4"/>
<path id="Vector_5" d="M73.6868 45.4039C73.7872 45.4039 73.98 45.3792 74.1379 45.2071L82.4782 36.2433C82.9786 35.7059 82.5972 34.8304 81.863 34.8304H65.5099C64.7756 34.8304 64.3943 35.7061 64.8946 36.2433L73.235 45.2071C73.3949 45.3774 73.5856 45.4039 73.6861 45.4039H73.6868Z" fill="#C3C3A5"/>
</g>
</g>
</g>
<defs>
<filter id="filter0_d_2138_13488" x="37.1597" y="48.8855" width="57.3018" height="57.3672" filterUnits="userSpaceOnUse" color-interpolation-filters="sRGB">
<feFlood flood-opacity="0" result="BackgroundImageFix"/>
<feColorMatrix in="SourceAlpha" type="matrix" values="0 0 0 0 0 0 0 0 0 0 0 0 0 0 0 0 0 0 127 0" result="hardAlpha"/>
<feOffset dy="4"/>
<feGaussianBlur stdDeviation="5.5"/>
<feComposite in2="hardAlpha" operator="out"/>
<feColorMatrix type="matrix" values="0 0 0 0 0.831373 0 0 0 0 0.85098 0 0 0 0 0.862745 0 0 0 0.45 0"/>
<feBlend mode="normal" in2="BackgroundImageFix" result="effect1_dropShadow_2138_13488"/>
<feBlend mode="normal" in="SourceGraphic" in2="effect1_dropShadow_2138_13488" result="shape"/>
</filter>
<linearGradient id="paint0_linear_2138_13488" x1="24.0259" y1="0.131484" x2="-5.55158" y2="82.8156" gradientUnits="userSpaceOnUse">
<stop stop-color="#EEF3F0" stop-opacity="0.0789496"/>
<stop offset="1" stop-color="#D9E4DD"/>
</linearGradient>
<linearGradient id="paint1_linear_2138_13488" x1="26.5684" y1="29.7521" x2="11.9043" y2="82.9781" gradientUnits="userSpaceOnUse">
<stop stop-color="#EEF3F0" stop-opacity="0.0789496"/>
<stop offset="1" stop-color="#D9E4DD"/>
</linearGradient>
</defs>
</svg>
