<?xml version="1.0" encoding="UTF-8"?>
<svg width="21px" height="21px" viewBox="0 0 21 21" version="1.1" xmlns="http://www.w3.org/2000/svg" xmlns:xlink="http://www.w3.org/1999/xlink">
    <title>2C7A42CF-AD4F-4AC7-8D66-2455ED3D2246</title>
    <g id="Page-1" stroke="none" stroke-width="1" fill="none" fill-rule="evenodd">
        <g id="3-Episode-filtered" transform="translate(-182.000000, -761.000000)">
            <g id="Group-682" transform="translate(22.000000, 743.000000)">
                <g id="Group-681" transform="translate(51.000000, 17.000000)">
                    <g id="Group-14" transform="translate(109.496667, 1.500000)">
                        <circle id="Oval" fill="#1AA99C" cx="10" cy="10" r="10"></circle>
                        <path d="M13.0310848,4.63043478 C13.469432,4.63043478 13.8247826,4.98578539 13.8247826,5.42413259 C13.8247826,5.82876077 13.5219987,6.16266996 13.1306446,6.21164636 L13.0310848,6.21783039 L8.86417133,6.21783039 L8.86334783,9.09443478 L12.8326604,9.09498493 C13.2710075,9.09498493 13.6263582,9.45033554 13.6263582,9.88868274 C13.6263582,10.2933109 13.3235742,10.6272201 12.9322201,10.6761965 L12.8326604,10.6823805 L8.86334783,10.6814348 L8.86417133,13.5595351 L13.0310848,13.5595351 C13.435713,13.5595351 13.7696222,13.862319 13.8185986,14.2536731 L13.8247826,14.3532329 C13.8247826,14.7578611 13.5219987,15.0917703 13.1306446,15.1407467 L13.0310848,15.1469307 L8.07047353,15.1469307 C7.66584535,15.1469307 7.33193615,14.8441467 7.28295975,14.4527927 L7.27677572,14.3532329 L7.27634783,10.6814348 L4.59804563,10.6823805 C4.15969844,10.6823805 3.80434783,10.3270299 3.80434783,9.88868274 C3.80434783,9.48405456 4.10713178,9.15014536 4.49848586,9.10116897 L4.59804563,9.09498493 L7.27634783,9.09443478 L7.27677572,5.42413259 C7.27677572,5.01950441 7.57955967,4.68559521 7.97091376,4.63661882 L8.07047353,4.63043478 L13.0310848,4.63043478 Z" id="Combined-Shape" fill="#FFFFFF" fill-rule="nonzero"></path>
                        <path d="M10,0 C4.4771525,0 0,4.4771525 0,10 C0,15.5228475 4.4771525,20 10,20 C15.5228475,20 20,15.5228475 20,10 C20,4.4771525 15.5228475,0 10,0 Z M10,1 C14.9705627,1 19,5.02943725 19,10 C19,14.9705627 14.9705627,19 10,19 C5.02943725,19 1,14.9705627 1,10 C1,5.02943725 5.02943725,1 10,1 Z" id="Oval" fill="#1AA99C" fill-rule="nonzero"></path>
                    </g>
                </g>
            </g>
        </g>
    </g>
</svg>