<svg width="21" height="21" viewBox="0 0 21 21" fill="none" xmlns="http://www.w3.org/2000/svg">
<g id="Group 14">
<path id="Combined Shape" fill-rule="evenodd" clip-rule="evenodd" d="M14.3215 5.92413C14.3215 5.48578 13.9661 5.13043 13.5278 5.13043H8.56715L8.46759 5.13662C8.07624 5.18559 7.77345 5.5195 7.77345 5.92413V9.59498H5.09472L4.99516 9.60117C4.60381 9.65014 4.30103 9.98405 4.30103 10.3887C4.30103 10.827 4.65638 11.1824 5.09472 11.1824H7.77345V14.8532L7.77964 14.9528C7.82861 15.3441 8.16252 15.6469 8.56715 15.6469H13.5278L13.6273 15.6407C14.0187 15.5918 14.3215 15.2579 14.3215 14.8532L14.3153 14.7537C14.2663 14.3623 13.9324 14.0595 13.5278 14.0595H9.36085V11.1824H13.3293L13.4289 11.1762C13.8203 11.1272 14.123 10.7933 14.123 10.3887C14.123 9.95033 13.7677 9.59498 13.3293 9.59498H9.36085V6.71783H13.5278L13.6273 6.71164C14.0187 6.66267 14.3215 6.32876 14.3215 5.92413Z" fill="#BEC3C2"/>
<g id="Oval">
<mask id="path-2-outside-1_0_56" maskUnits="userSpaceOnUse" x="-0.503326" y="-0.5" width="22" height="22" fill="black">
<rect fill="white" x="-0.503326" y="-0.5" width="22" height="22"/>
<path fill-rule="evenodd" clip-rule="evenodd" d="M0.496674 10.5C0.496674 4.97715 4.97383 0.5 10.4967 0.5C16.0195 0.5 20.4967 4.97715 20.4967 10.5C20.4967 16.0228 16.0195 20.5 10.4967 20.5C4.97383 20.5 0.496674 16.0228 0.496674 10.5ZM19.4967 10.5C19.4967 5.52944 15.4672 1.5 10.4967 1.5C5.52611 1.5 1.49667 5.52944 1.49667 10.5C1.49667 15.4706 5.52611 19.5 10.4967 19.5C15.4672 19.5 19.4967 15.4706 19.4967 10.5Z"/>
</mask>
<path fill-rule="evenodd" clip-rule="evenodd" d="M0.496674 10.5C0.496674 4.97715 4.97383 0.5 10.4967 0.5C16.0195 0.5 20.4967 4.97715 20.4967 10.5C20.4967 16.0228 16.0195 20.5 10.4967 20.5C4.97383 20.5 0.496674 16.0228 0.496674 10.5ZM19.4967 10.5C19.4967 5.52944 15.4672 1.5 10.4967 1.5C5.52611 1.5 1.49667 5.52944 1.49667 10.5C1.49667 15.4706 5.52611 19.5 10.4967 19.5C15.4672 19.5 19.4967 15.4706 19.4967 10.5Z" fill="#BEC3C2"/>
<path d="M10.4967 0.1C4.75291 0.1 0.0966736 4.75624 0.0966736 10.5H0.896674C0.896674 5.19807 5.19474 0.9 10.4967 0.9V0.1ZM20.8967 10.5C20.8967 4.75624 16.2404 0.1 10.4967 0.1V0.9C15.7986 0.9 20.0967 5.19807 20.0967 10.5H20.8967ZM10.4967 20.9C16.2404 20.9 20.8967 16.2438 20.8967 10.5H20.0967C20.0967 15.8019 15.7986 20.1 10.4967 20.1V20.9ZM0.0966736 10.5C0.0966736 16.2438 4.75291 20.9 10.4967 20.9V20.1C5.19474 20.1 0.896674 15.8019 0.896674 10.5H0.0966736ZM10.4967 1.9C15.2463 1.9 19.0967 5.75035 19.0967 10.5H19.8967C19.8967 5.30852 15.6882 1.1 10.4967 1.1V1.9ZM1.89667 10.5C1.89667 5.75035 5.74702 1.9 10.4967 1.9V1.1C5.3052 1.1 1.09667 5.30852 1.09667 10.5H1.89667ZM10.4967 19.1C5.74702 19.1 1.89667 15.2496 1.89667 10.5H1.09667C1.09667 15.6915 5.3052 19.9 10.4967 19.9V19.1ZM19.0967 10.5C19.0967 15.2496 15.2463 19.1 10.4967 19.1V19.9C15.6882 19.9 19.8967 15.6915 19.8967 10.5H19.0967Z" fill="#BEC3C2" mask="url(#path-2-outside-1_0_56)"/>
</g>
</g>
</svg>
