<svg width="16" height="16" viewBox="0 0 16 16" fill="none" xmlns="http://www.w3.org/2000/svg">
<path d="M8 0.5C8.98491 0.5 9.96018 0.693993 10.8701 1.0709C11.7801 1.44781 12.6069 2.00026 13.3033 2.6967C13.9997 3.39314 14.5522 4.21993 14.9291 5.12987C15.306 6.03982 15.5 7.01509 15.5 8C15.5 8.98491 15.306 9.96018 14.9291 10.8701C14.5522 11.7801 13.9997 12.6069 13.3033 13.3033C12.6069 13.9997 11.7801 14.5522 10.8701 14.9291C9.96018 15.306 8.98491 15.5 8 15.5C6.01088 15.5 4.10322 14.7098 2.6967 13.3033C1.29018 11.8968 0.5 9.98912 0.5 8C0.5 6.01088 1.29018 4.10322 2.6967 2.6967C4.10322 1.29018 6.01088 0.5 8 0.5ZM8 1.75C6.3424 1.75 4.75269 2.40848 3.58058 3.58058C2.40848 4.75269 1.75 6.3424 1.75 8C1.75 9.6576 2.40848 11.2473 3.58058 12.4194C4.75269 13.5915 6.3424 14.25 8 14.25C9.6576 14.25 11.2473 13.5915 12.4194 12.4194C13.5915 11.2473 14.25 9.6576 14.25 8C14.25 6.3424 13.5915 4.75269 12.4194 3.58058C11.2473 2.40848 9.6576 1.75 8 1.75ZM8 10.5C8.24864 10.5 8.4871 10.5988 8.66291 10.7746C8.83873 10.9504 8.9375 11.1889 8.9375 11.4375C8.9375 11.6861 8.83873 11.9246 8.66291 12.1004C8.4871 12.2762 8.24864 12.375 8 12.375C7.75136 12.375 7.5129 12.2762 7.33709 12.1004C7.16127 11.9246 7.0625 11.6861 7.0625 11.4375C7.0625 11.1889 7.16127 10.9504 7.33709 10.7746C7.5129 10.5988 7.75136 10.5 8 10.5ZM8 3.625C8.14628 3.62495 8.28795 3.67621 8.40032 3.76986C8.5127 3.86351 8.58867 3.99361 8.615 4.1375L8.625 4.25V8.625C8.62529 8.78118 8.56709 8.93181 8.46186 9.04723C8.35664 9.16264 8.21202 9.23448 8.05647 9.24859C7.90093 9.26271 7.74574 9.21807 7.62146 9.12348C7.49718 9.02888 7.41283 8.89118 7.385 8.7375L7.375 8.625V4.25C7.375 4.08424 7.44085 3.92527 7.55806 3.80806C7.67527 3.69085 7.83424 3.625 8 3.625Z" fill="#FF5757"/>
</svg>
