<svg width="122" height="68" viewBox="0 0 122 68" fill="none" xmlns="http://www.w3.org/2000/svg">
<g opacity="0.6">
<line x1="62" y1="4.37114e-08" x2="62" y2="67.1" stroke="#636D70" stroke-width="2"/>
<path d="M74.6184 27.3119C75.1393 27.5157 75.8413 27.2892 76.0904 26.5872C79.6684 16.2608 88.4323 11.2561 97.2868 11.2561C101.544 11.2561 104.782 12.2072 107.319 13.7697C107.93 14.1547 108.655 14.0868 108.904 13.4753C109.198 12.8186 108.859 12.411 108.36 12.094C105.281 10.1238 101.793 9.15002 97.2868 9.15002C87.3906 9.15002 78.0832 14.5171 74.0749 25.5681C73.7579 26.4513 74.0749 27.0854 74.6184 27.3119ZM121.019 35.1699C121.608 35.1699 122.061 34.6717 121.993 34.015C121.087 25.2964 117.917 19.2274 112.844 14.902C112.323 14.4491 111.667 14.5171 111.327 14.902C110.942 15.287 110.919 15.9437 111.463 16.4193C116.06 20.6087 119.23 26.0663 119.978 34.0603C120.023 34.6717 120.408 35.1699 121.019 35.1699ZM78.3097 47.1042C78.6494 47.6024 79.374 47.7156 79.8949 47.2627C81.4801 45.9493 82.2727 43.7526 82.25 41.6239C82.2274 38.4535 80.8913 36.9589 80.8913 32.928C80.8913 24.2094 88.2738 16.8269 97.015 16.8269C107.93 16.8269 114.724 25.5908 114.769 38.3403C114.792 43.0733 114.045 46.7192 113.093 49.1423C112.844 49.7537 113.093 50.3652 113.592 50.5916C114.09 50.8181 114.792 50.6369 115.018 50.0028C115.992 47.2853 116.853 43.3224 116.853 38.3177C116.853 24.3906 109.198 14.7662 97.015 14.7662C87.1188 14.7662 78.8079 23.0771 78.8079 32.928C78.8079 36.6872 80.2119 39.2235 80.2346 41.6239C80.2346 43.1412 79.6231 44.6585 78.5361 45.6096C78.0832 45.9945 78.0153 46.6513 78.3097 47.1042ZM88.0247 39.4273C87.3906 37.7742 86.5074 35.6681 86.5074 33.2224C86.5074 26.9948 91.0818 22.4204 97.2868 22.4204C99.5287 22.4204 100.706 22.8054 102.563 23.8244C103.152 24.1188 103.695 23.9377 103.922 23.53C104.194 23.0545 104.126 22.3977 103.401 21.9675C101.793 20.9711 99.5513 20.337 97.2868 20.337C89.9269 20.337 84.424 25.8399 84.424 33.2224C84.424 35.6908 85.1034 38.0006 86.0092 40.2199C86.281 40.854 86.8471 41.1257 87.4812 40.8766C88.0247 40.6502 88.2511 40.0387 88.0247 39.4273ZM105.96 26.7684C108.134 29.9388 109.198 34.4905 109.198 39.6538C109.198 45.1567 107.704 50.4557 105.19 53.7394C104.85 54.1923 104.782 54.849 105.19 55.2566C105.62 55.6869 106.413 55.6869 106.798 55.1887C109.583 51.4069 111.259 45.5869 111.259 39.5858C111.259 33.3583 109.9 28.9876 107.817 25.6814C107.409 25.0246 106.753 24.8888 106.254 25.1605C105.711 25.4549 105.552 26.1343 105.96 26.7684ZM87.9794 54.147C91.58 51.2483 93.5729 46.6286 93.5502 41.4654C93.5049 37.593 92.1235 35.1699 92.1235 32.9506C92.1235 30.0067 94.2069 28.0365 97.1735 28.0365C101.612 28.0365 103.356 32.7695 103.446 39.3594C103.582 46.4701 101.023 52.29 97.6717 55.3019C97.2415 55.6869 97.1509 56.253 97.4679 56.706C97.8076 57.1815 98.5323 57.2947 99.0305 56.8418C102.608 53.5808 105.439 46.7192 105.417 39.2235C105.394 31.4107 103.061 25.9758 97.1735 25.9758C93.1426 25.9758 90.0854 28.6932 90.0854 32.7921C90.0854 35.2378 91.4215 38.3177 91.4668 41.4654C91.4895 45.9945 89.7684 49.9802 86.6886 52.4939C86.1451 52.9241 86.0998 53.5356 86.4168 53.9885C86.7792 54.5093 87.4585 54.5999 87.9794 54.147ZM75.4563 40.5596C75.9998 40.3784 76.2942 39.8349 76.113 39.1556C75.5243 36.9589 75.2525 34.1961 75.3205 31.1616C75.3205 30.5049 74.9581 30.1199 74.392 30.0973C73.6673 30.052 73.2823 30.5049 73.237 31.071C73.1012 33.6753 73.3276 36.9136 74.0976 39.7443C74.3014 40.4237 74.8902 40.7181 75.4563 40.5596ZM99.3022 43.7979C99.9589 40.8993 99.6646 36.823 98.5096 33.63C98.2379 32.8827 97.6944 32.6562 97.1056 32.8374C96.5621 33.0186 96.2451 33.5621 96.4489 34.1961C97.5812 37.2986 97.8303 40.8087 97.2415 43.5262C97.1282 44.0923 97.3547 44.6132 97.9888 44.7264C98.6002 44.8396 99.1437 44.4773 99.3022 43.7979ZM83.2917 51.203C84.9449 50.3425 87.2321 47.4439 87.8209 45.0661C87.9794 44.4999 87.685 43.9111 87.1188 43.73C86.598 43.5715 86.0545 43.8659 85.8507 44.4773C85.2393 46.6513 83.9711 48.2138 82.3406 49.3235C81.6612 49.799 81.5933 50.4104 81.8198 50.8407C82.0462 51.2936 82.635 51.5427 83.2917 51.203ZM93.12 55.9586C94.909 54.6452 96.9697 51.9957 98.0341 48.78C98.1699 48.2818 98.0567 47.625 97.4679 47.4439C96.8791 47.2401 96.313 47.5118 96.1318 48.0327C94.909 51.2483 93.4143 53.1053 91.8518 54.2829C91.3762 54.6452 91.2404 55.2793 91.5574 55.7548C91.8744 56.2983 92.5765 56.3663 93.12 55.9586Z" fill="#636D70"/>
<path d="M0.973369 23.6194C1.60474 23.6194 1.94674 23.2511 1.94674 22.6197V15.543C1.94674 12.1231 3.73563 10.3342 7.15558 10.3342H14.2585C14.8899 10.3342 15.2582 9.9922 15.2582 9.36082C15.2582 8.72945 14.8899 8.38745 14.2585 8.38745H7.10296C2.44658 8.38745 0 10.8077 0 15.4378V22.6197C0 23.2511 0.341995 23.6194 0.973369 23.6194ZM47.8266 23.6194C48.458 23.6194 48.8 23.2511 48.8 22.6197V15.4378C48.8 10.8603 46.3797 8.38745 41.7233 8.38745H34.5415C33.9101 8.38745 33.5418 8.72945 33.5418 9.36082C33.5418 9.9922 33.9101 10.3342 34.5415 10.3342H41.6444C44.9591 10.3342 46.8533 12.1231 46.8533 15.543V22.6197C46.8533 23.2511 47.1953 23.6194 47.8266 23.6194ZM22.256 36.3258H22.4927C24.6236 36.3258 25.7022 35.2735 25.7022 33.1163V25.04C25.7022 24.4349 25.4128 24.1455 24.8078 24.1455C24.229 24.1455 23.9133 24.4349 23.9133 25.04V33.3531C23.9133 34.0634 23.3346 34.5106 22.7558 34.5106H21.8613C21.3615 34.5106 20.9932 34.8789 20.9932 35.3787C20.9932 36.0101 21.3878 36.3258 22.256 36.3258ZM14.9425 30.2751C15.7318 30.2751 16.2316 29.7753 16.2316 28.986V25.4872C16.2316 24.6717 15.7318 24.1718 14.9425 24.1718C14.1796 24.1718 13.6798 24.698 13.6798 25.4872V28.986C13.6798 29.7753 14.1796 30.2751 14.9425 30.2751ZM33.6207 30.2751C34.3836 30.2751 34.8834 29.7753 34.8834 28.986V25.4872C34.8834 24.698 34.3836 24.1718 33.6207 24.1718C32.8315 24.1718 32.3053 24.6717 32.3053 25.4872V28.986C32.3053 29.7753 32.8315 30.2751 33.6207 30.2751ZM24.1764 44.3758C27.0702 44.3758 29.964 43.1657 32.0949 41.0348C32.2527 40.9032 32.4106 40.6665 32.4106 40.3245C32.4106 39.7983 32.016 39.4563 31.5424 39.4563C31.253 39.4563 31.0163 39.5353 30.6743 39.9036C29.0958 41.482 26.6493 42.6132 24.1764 42.6132C21.7035 42.6132 19.2832 41.482 17.6785 39.9036C17.3628 39.5616 17.126 39.4563 16.8103 39.4563C16.3368 39.4563 15.9422 39.7983 15.9422 40.3245C15.9422 40.6402 16.1001 40.8769 16.2579 41.0348C18.3362 43.192 21.2826 44.3758 24.1764 44.3758ZM7.10296 57.1875H14.2585C14.8899 57.1875 15.2582 56.8455 15.2582 56.2141C15.2582 55.5827 14.8899 55.2407 14.2585 55.2407H7.15558C3.73563 55.2407 1.94674 53.4518 1.94674 50.0056V42.9552C1.94674 42.3238 1.60474 41.9292 0.973369 41.9292C0.341995 41.9292 0 42.3238 0 42.9552V50.1108C0 54.7672 2.44658 57.1875 7.10296 57.1875ZM34.5415 57.1875H41.7233C46.3797 57.1875 48.8 54.6883 48.8 50.1108V42.9552C48.8 42.3238 48.458 41.9292 47.8266 41.9292C47.1953 41.9292 46.8533 42.3238 46.8533 42.9552V50.0056C46.8533 53.4518 44.9591 55.2407 41.6444 55.2407H34.5415C33.9101 55.2407 33.5418 55.5827 33.5418 56.2141C33.5418 56.8455 33.9101 57.1875 34.5415 57.1875Z" fill="#636D70"/>
</g>
</svg>
