<svg width="45" height="45" viewBox="0 0 45 45" fill="none" xmlns="http://www.w3.org/2000/svg">
<circle cx="22.5" cy="22.5" r="22.5" fill="#1C1C1C"/>
<path fill-rule="evenodd" clip-rule="evenodd" d="M11 10.6757L33 34.6757L33.7372 34L11.7372 10L11 10.6757ZM16.2583 23.0672L18.6066 20.1576L25.0067 27.1395L20.5669 32.6346C19.9026 33.4464 18.86 32.9113 19.2383 31.9057L22.0522 24.3496H16.7012C16.2952 24.3496 16 24.0636 16 23.6854C16 23.464 16.0923 23.2702 16.2583 23.0672ZM29.1839 21.9693L26.659 25.0943L20.2581 18.1115L24.8662 12.402C25.5304 11.5809 26.573 12.116 26.1947 13.1216L23.3808 20.6869H28.7318C29.1378 20.6869 29.433 20.9637 29.433 21.3512C29.433 21.5634 29.35 21.7571 29.1839 21.9693Z" fill="white"/>
</svg>
