<svg width="16" height="14" viewBox="0 0 16 14" fill="none" xmlns="http://www.w3.org/2000/svg">
<path fill-rule="evenodd" clip-rule="evenodd" d="M0 11.8519V1.48144C0 0.525793 0.516485 0 1.45448 0H14.5455C15.4838 0 16 0.526059 16 1.48144V11.8519C16 12.8075 15.4835 13.3333 14.5455 13.3333H1.45448C0.516224 13.3333 0 12.8073 0 11.8519ZM2.66667 9.77778H13.3333L10.7273 6.79648L8.99998 8.55634L6.12134 5.33333L2.66667 9.77778ZM11.5556 4.01783C11.5556 4.7378 10.9333 5.33333 10.2044 5.33333C9.48442 5.33333 8.88889 4.73777 8.88889 4.01783C8.88889 3.28899 9.48446 2.66667 10.2044 2.66667C10.9332 2.66667 11.5556 3.28896 11.5556 4.01783Z" fill="white"/>
</svg>
