<svg width="18" height="17" viewBox="0 0 18 17" fill="none" xmlns="http://www.w3.org/2000/svg">
<path d="M14.0056 4.01453C14.0056 4.28007 13.9001 4.53472 13.7123 4.72248C13.5246 4.91024 13.2699 5.01573 13.0044 5.01573C12.7389 5.01573 12.4842 4.91024 12.2964 4.72248C12.1087 4.53472 12.0032 4.28007 12.0032 4.01453C12.0032 3.749 12.1087 3.49434 12.2964 3.30658C12.4842 3.11882 12.7389 3.01334 13.0044 3.01334C13.2699 3.01334 13.5246 3.11882 13.7123 3.30658C13.9001 3.49434 14.0056 3.749 14.0056 4.01453ZM11.803 0.0498047C10.4118 0.0506535 9.07792 0.603655 8.09424 1.58733C7.11056 2.57101 6.55755 3.90493 6.55671 5.29606C6.55671 5.60603 6.59675 5.90479 6.64481 6.18032C6.65185 6.215 6.65044 6.25087 6.64068 6.28489C6.63092 6.31891 6.6131 6.35007 6.58874 6.37575L1.59479 11.3705C1.18166 11.7834 0.94945 12.3435 0.949219 12.9276V14.6672C0.949219 15.441 1.57717 16.0689 2.35089 16.0689H4.35328C4.72502 16.0689 5.08155 15.9212 5.34441 15.6584C5.60727 15.3955 5.75495 15.039 5.75495 14.6672V13.666H7.15742C7.71008 13.666 8.15862 13.2175 8.15862 12.6648V11.2632H9.56029C9.81956 11.2634 10.0688 11.1629 10.2555 10.9831C10.4423 10.8032 10.5519 10.5579 10.5615 10.2988C10.9588 10.4013 11.3785 10.4622 11.803 10.4622C13.1941 10.4614 14.528 9.90837 15.5117 8.92469C16.4954 7.94101 17.0484 6.6071 17.0492 5.21597C17.0492 2.3077 14.684 0.0498047 11.803 0.0498047ZM7.75814 5.29606C7.75899 4.22357 8.18541 3.19524 8.94378 2.43688C9.70214 1.67851 10.7305 1.25209 11.803 1.25124C14.0472 1.25124 15.8478 2.99812 15.8478 5.21597C15.8469 6.28846 15.4205 7.31678 14.6621 8.07515C13.9038 8.83352 12.8755 9.25994 11.803 9.26079C11.2583 9.26079 10.6976 9.12383 10.197 8.90837C10.1056 8.86909 10.0059 8.85315 9.90674 8.86197C9.80762 8.87078 9.71225 8.90408 9.62918 8.95888C9.54612 9.01367 9.47797 9.08824 9.43085 9.17589C9.38374 9.26354 9.35913 9.36152 9.35925 9.46103V10.0617H7.95838C7.40572 10.0617 6.95718 10.5103 6.95718 11.0629V12.4646H5.55551C5.00285 12.4646 4.55432 12.9131 4.55432 13.4658V14.6672C4.55432 14.7203 4.53322 14.7713 4.49567 14.8088C4.45812 14.8464 4.40719 14.8675 4.35408 14.8675H2.35169C2.29858 14.8675 2.24765 14.8464 2.2101 14.8088C2.17255 14.7713 2.15145 14.7203 2.15145 14.6672V12.9276C2.15145 12.6624 2.25718 12.4069 2.4446 12.2195L7.43936 7.22556C7.60013 7.0634 7.71944 6.86488 7.7872 6.64682C7.85496 6.42876 7.86917 6.19758 7.82862 5.97287C7.78565 5.74972 7.76206 5.52327 7.75814 5.29606Z" fill="black"/>
</svg>
