<?xml version="1.0" encoding="UTF-8"?>
<svg width="20px" height="25px" viewBox="0 0 20 25" version="1.1" xmlns="http://www.w3.org/2000/svg" xmlns:xlink="http://www.w3.org/1999/xlink">
    <title>3FCE68D1-A969-4D67-B7B1-AD566EABB79F</title>
    <g id="Page-1" stroke="none" stroke-width="1" fill="none" fill-rule="evenodd">
        <g id="1-Episode" transform="translate(-15.000000, -446.000000)">
            <g id="Group-12" transform="translate(15.800000, 446.000000)">
                <ellipse id="Oval" fill="#FB8461" cx="9.6" cy="21.9" rx="9.6" ry="3"></ellipse>
                <path d="M5.21958929,17.2210218 L8.442875,22.2785521 C8.6084,22.538394 8.89383929,22.6956522 9.2,22.6956522 C9.50636429,22.6956522 9.79158929,22.5386101 9.957125,22.2785521 L13.1804107,17.2210218 C16.1531964,15.7392218 18.2,12.6477163 18.2,9.07820035 C18.2,4.06795238 14.1670893,0 9.2,0 C4.23291071,0 0.2,4.06795238 0.2,9.07820035 C0.2,12.6478244 2.24658929,15.7387895 5.21958929,17.2210218 Z" id="Path" fill="#000000"></path>
                <path d="M6.30069682,15.6290804 C3.87074922,14.501476 2.18,12.0123666 2.18,9.12622677 C2.18,5.18219019 5.33609666,1.98 9.22347826,1.98 C13.1108599,1.98 16.2669565,5.18213701 16.2669565,9.12622677 C16.2669565,12.0126324 14.5762073,14.5018482 12.1462597,15.6290804 C11.9927234,15.7003194 11.8627283,15.814558 11.7718391,15.9584928 L9.22355687,19.98 L6.67527465,15.9584928 C6.58422302,15.8147654 6.45402349,15.7003194 6.30069682,15.6290804 Z" id="Path" fill="#FFFFFF"></path>
                <text id="o" font-family="Montserrat-Bold, Montserrat" font-size="12" font-weight="bold" fill="#000000">
                    <tspan x="5.6" y="12.9">o</tspan>
                </text>
            </g>
        </g>
    </g>
</svg>