<?xml version="1.0" encoding="UTF-8"?>
<svg width="24px" height="24px" viewBox="0 0 24 24" version="1.1" xmlns="http://www.w3.org/2000/svg" xmlns:xlink="http://www.w3.org/1999/xlink">
    <title>420F6BA0-9947-453F-BECD-56C914861DE7</title>
    <g id="Page-1" stroke="none" stroke-width="1" fill="none" fill-rule="evenodd">
        <g id="1-Episode-Home" transform="translate(-12.000000, -58.000000)" fill="#000000">
            <g id="Icons/Menu" transform="translate(12.000000, 58.000000)">
                <rect id="Rectangle" fill-opacity="0" x="0" y="0" width="24" height="24"></rect>
                <path d="M20.8888888,19.5555555 L3.11111111,19.5555555 C2.49746141,19.5555555 2.00000005,19.0580941 2.00000005,18.4444444 C2.00000005,17.8307947 2.49746141,17.3333333 3.11111111,17.3333333 L20.8888888,17.3333333 C21.5025386,17.3333333 22,17.8307947 22,18.4444444 C22,19.0580941 21.5025386,19.5555555 20.8888888,19.5555555 L20.8888888,19.5555555 Z M17.5555555,11.7777778 C17.5555555,11.164128 17.0580941,10.6666667 16.4444444,10.6666667 L3.11111111,10.6666667 C2.49746139,10.6666667 2,11.164128 2,11.7777778 C2,12.3914275 2.49746139,12.8888889 3.11111111,12.8888889 L16.4444444,12.8888889 C17.0580941,12.8888889 17.5555555,12.3914275 17.5555555,11.7777778 Z M13.1111111,5.11111111 C13.1111111,4.49746139 12.6136497,4 12,4 L3.11111111,4 C2.49746139,4 2,4.49746139 2,5.11111111 C2,5.72476083 2.49746139,6.22222222 3.11111111,6.22222222 L12,6.22222222 C12.6136497,6.22222222 13.1111111,5.72476083 13.1111111,5.11111111 L13.1111111,5.11111111 Z" id="Color"></path>
            </g>
        </g>
    </g>
</svg>