<svg width="33" height="33" viewBox="0 0 33 33" fill="none" xmlns="http://www.w3.org/2000/svg">
<g id="Group 30">
<path id="Rectangle" fill-rule="evenodd" clip-rule="evenodd" d="M9.5 0H23.5C28.7467 0 33 4.25329 33 9.5V23.5C33 28.7467 28.7467 33 23.5 33H9.5C4.25329 33 0 28.7467 0 23.5V9.5C0 4.25329 4.25329 0 9.5 0ZM23.5 1H9.5C4.80558 1 1 4.80558 1 9.5V23.5C1 28.1944 4.80558 32 9.5 32H23.5C28.1944 32 32 28.1944 32 23.5V9.5C32 4.80558 28.1944 1 23.5 1Z" fill="#CBE5E3"/>
<path id="Union" fill-rule="evenodd" clip-rule="evenodd" d="M10 16.5821C10 13.195 13.045 10 17.0551 10C21.0652 10 24.1102 13.195 24.1102 16.5821C24.1102 19.969 21.0655 23.1638 17.0557 23.1641C15.9876 23.167 14.9329 22.9339 13.9666 22.4822L11.8328 23.1937L11.5377 23.2931C11.3739 23.348 11.1977 23.3549 11.03 23.3129C10.8623 23.2709 10.7102 23.1817 10.5916 23.056C10.4729 22.9304 10.3927 22.7733 10.3604 22.6035C10.3282 22.4338 10.3452 22.2584 10.4094 22.098L11.183 20.164C10.4344 19.1066 10 17.8598 10 16.5821ZM17.0551 11.8111C14.1336 11.8111 11.8111 14.1108 11.8111 16.5821C11.8111 17.4997 12.143 18.4456 12.7691 19.2641L13.2453 19.8852L12.816 20.9576L14.1024 20.5286L14.6124 20.7836C15.3562 21.1546 16.1841 21.353 17.0551 21.353C19.9766 21.353 22.2991 19.0533 22.2991 16.5821C22.2991 14.1108 19.9766 11.8111 17.0551 11.8111ZM14.5186 15.4832C14.6629 15.4235 14.8175 15.3927 14.9737 15.3927C15.2892 15.3927 15.5917 15.518 15.8147 15.7411C16.0378 15.9641 16.1631 16.2666 16.1631 16.5821C16.1631 16.8975 16.0378 17.2 15.8147 17.4231C15.5917 17.6461 15.2892 17.7714 14.9737 17.7714C14.8175 17.7714 14.6629 17.7407 14.5186 17.6809C14.3743 17.6211 14.2431 17.5335 14.1327 17.4231C14.0223 17.3126 13.9347 17.1815 13.8749 17.0372C13.8151 16.8929 13.7843 16.7383 13.7843 16.5821C13.7843 16.4259 13.8151 16.2712 13.8749 16.1269C13.9347 15.9826 14.0223 15.8515 14.1327 15.7411C14.2431 15.6306 14.3743 15.543 14.5186 15.4832ZM18.4381 15.4832C18.5824 15.4235 18.737 15.3927 18.8932 15.3927C19.2087 15.3927 19.5112 15.518 19.7342 15.7411C19.9573 15.9641 20.0826 16.2666 20.0826 16.5821C20.0826 16.8975 19.9573 17.2 19.7342 17.4231C19.5112 17.6461 19.2087 17.7714 18.8932 17.7714C18.737 17.7714 18.5824 17.7407 18.4381 17.6809C18.2938 17.6211 18.1626 17.5335 18.0522 17.4231C17.9418 17.3126 17.8542 17.1815 17.7944 17.0372C17.7346 16.8929 17.7038 16.7383 17.7038 16.5821C17.7038 16.4259 17.7346 16.2712 17.7944 16.1269C17.8542 15.9826 17.9418 15.8515 18.0522 15.7411C18.1626 15.6306 18.2938 15.543 18.4381 15.4832Z" fill="black"/>
</g>
</svg>
