<?xml version="1.0" encoding="UTF-8"?>
<svg width="18px" height="15px" viewBox="0 0 18 15" version="1.1" xmlns="http://www.w3.org/2000/svg" xmlns:xlink="http://www.w3.org/1999/xlink">
    <title>2D5979B9-A816-4A58-9BDE-7766F0A32144</title>
    <g id="Page-1" stroke="none" stroke-width="1" fill="none" fill-rule="evenodd">
        <g id="6-ToC-Form-Detail" transform="translate(-239.000000, -399.000000)" fill="#FFFFFF" fill-rule="nonzero">
            <g id="Group-5" transform="translate(16.000000, 351.000000)">
                <g id="Group-4-Copy" transform="translate(0.000000, 0.000000)">
                    <g id="Group-13" transform="translate(179.000000, 55.000000) scale(-1, 1) translate(-179.000000, -55.000000) translate(0.000000, 30.000000)">
                        <g id="Group" transform="translate(39.000000, 16.000000)">
                            <g id="mail" transform="translate(77.999939, 2.000000)">
                                <path d="M15.1713875,0 C16.730035,0 17.9999512,1.26991617 17.9999512,2.82856376 L17.9999512,2.82856376 L17.9999512,12.0856815 C17.9999512,13.6443291 16.730035,14.9142453 15.1713875,14.9142453 L15.1713875,14.9142453 L2.82856376,14.9142453 C1.26991617,14.9142453 0,13.6443291 0,12.0856815 L0,12.0856815 L0,2.82856376 C0,1.26991617 1.26991617,0 2.82856376,0 L2.82856376,0 Z M15.428,7.612 L9.73728234,11.5961239 C9.34377466,11.8715793 8.8344941,11.9021854 8.41525912,11.6879424 L8.26266888,11.5961239 L2.571,7.612 L2.5714216,12.0856815 C2.5714216,12.2043878 2.65859413,12.3085184 2.77071335,12.3358474 L2.82856376,12.3428237 L15.1713875,12.3428237 C15.3098781,12.3428237 15.4285296,12.2241722 15.4285296,12.0856815 L15.4285296,12.0856815 L15.428,7.612 Z M15.1713875,2.5714216 L2.82856376,2.5714216 C2.6900731,2.5714216 2.5714216,2.6900731 2.5714216,2.82856376 L2.5714216,2.82856376 L2.571,4.473 L8.99997561,8.97297568 L15.428,4.473 L15.4285296,2.82856376 C15.4285296,2.70985748 15.3413571,2.60572691 15.2292379,2.5783979 L15.1713875,2.5714216 Z" id="Combined-Shape"></path>
                            </g>
                        </g>
                    </g>
                </g>
            </g>
        </g>
    </g>
</svg>