<svg width="48" height="48" viewBox="0 0 48 48" fill="none" xmlns="http://www.w3.org/2000/svg">
<circle opacity="0.2" cx="24" cy="24" r="24" fill="#006E8C"/>
<mask id="mask0_0_5413" style="mask-type:alpha" maskUnits="userSpaceOnUse" x="0" y="0" width="48" height="48">
<circle cx="24" cy="24" r="24" fill="white"/>
</mask>
<g mask="url(#mask0_0_5413)">
<path fill-rule="evenodd" clip-rule="evenodd" d="M33 29.25V25.5C33 24.6716 32.3284 24 31.5 24H26.4281L27.9 17.1281C28.0897 16.2422 27.8688 15.3179 27.2991 14.6134C26.7293 13.909 25.8717 13.4997 24.9656 13.5H23.0344C22.1283 13.4997 21.2707 13.909 20.7009 14.6134C20.1312 15.3179 19.9103 16.2422 20.1 17.1281L21.5719 24H16.5C15.6716 24 15 24.6716 15 25.5V29.25C15 30.0784 15.6716 30.75 16.5 30.75H31.5C32.3284 30.75 33 30.0784 33 29.25ZM32.25 34.75C32.6642 34.75 33 34.4142 33 34C33 33.5858 32.6642 33.25 32.25 33.25H15.75C15.3358 33.25 15 33.5858 15 34C15 34.4142 15.3358 34.75 15.75 34.75H32.25ZM23.1094 24H24.8906L26.4375 16.8188C26.5342 16.3743 26.4239 15.9099 26.1378 15.5564C25.8516 15.2028 25.4205 14.9981 24.9656 15H23.0344C22.5795 14.9981 22.1484 15.2028 21.8622 15.5564C21.5761 15.9099 21.4658 16.3743 21.5625 16.8188L23.1094 24ZM31.5 25.5V29.25H16.5V25.5H31.5Z" fill="#006E8C"/>
<path d="M26.4281 24L26.2326 23.9581L26.1808 24.2H26.4281V24ZM27.9 17.1281L28.0956 17.17L28.0956 17.17L27.9 17.1281ZM24.9656 13.5V13.7L24.9657 13.7L24.9656 13.5ZM23.0344 13.5L23.0343 13.7H23.0344V13.5ZM20.1 17.1281L19.9044 17.17L19.9044 17.17L20.1 17.1281ZM21.5719 24V24.2H21.8192L21.7674 23.9581L21.5719 24ZM24.8906 24V24.2H25.0521L25.0861 24.0421L24.8906 24ZM23.1094 24L22.9139 24.0421L22.9479 24.2H23.1094V24ZM26.4375 16.8188L26.2421 16.7762L26.242 16.7766L26.4375 16.8188ZM26.1378 15.5564L25.9823 15.6822V15.6822L26.1378 15.5564ZM24.9656 15V15.2L24.9664 15.2L24.9656 15ZM23.0344 15L23.0336 15.2H23.0344V15ZM21.8622 15.5564L21.7068 15.4305V15.4305L21.8622 15.5564ZM21.5625 16.8188L21.758 16.7766L21.7579 16.7762L21.5625 16.8188ZM31.5 29.25V29.45H31.7V29.25H31.5ZM31.5 25.5H31.7V25.3H31.5V25.5ZM16.5 29.25H16.3V29.45H16.5V29.25ZM16.5 25.5V25.3H16.3V25.5H16.5ZM32.8 25.5V29.25H33.2V25.5H32.8ZM31.5 24.2C32.218 24.2 32.8 24.782 32.8 25.5H33.2C33.2 24.5611 32.4389 23.8 31.5 23.8V24.2ZM26.4281 24.2H31.5V23.8H26.4281V24.2ZM27.7044 17.0862L26.2326 23.9581L26.6237 24.0419L28.0956 17.17L27.7044 17.0862ZM27.1436 14.7392C27.6753 15.3967 27.8815 16.2594 27.7044 17.0863L28.0956 17.17C28.2979 16.225 28.0623 15.2391 27.4546 14.4877L27.1436 14.7392ZM24.9657 13.7C25.8113 13.6998 26.6118 14.0817 27.1436 14.7392L27.4546 14.4877C26.8468 13.7362 25.932 13.2997 24.9656 13.3L24.9657 13.7ZM23.0344 13.7H24.9656V13.3H23.0344V13.7ZM20.8564 14.7392C21.3882 14.0817 22.1887 13.6998 23.0343 13.7L23.0344 13.3C22.068 13.2997 21.1532 13.7362 20.5454 14.4877L20.8564 14.7392ZM20.2956 17.0863C20.1185 16.2594 20.3247 15.3967 20.8564 14.7392L20.5454 14.4877C19.9377 15.2391 19.7021 16.225 19.9044 17.17L20.2956 17.0863ZM21.7674 23.9581L20.2956 17.0862L19.9044 17.17L21.3763 24.0419L21.7674 23.9581ZM16.5 24.2H21.5719V23.8H16.5V24.2ZM15.2 25.5C15.2 24.782 15.782 24.2 16.5 24.2V23.8C15.5611 23.8 14.8 24.5611 14.8 25.5H15.2ZM15.2 29.25V25.5H14.8V29.25H15.2ZM16.5 30.55C15.782 30.55 15.2 29.968 15.2 29.25H14.8C14.8 30.1889 15.5611 30.95 16.5 30.95V30.55ZM31.5 30.55H16.5V30.95H31.5V30.55ZM32.8 29.25C32.8 29.968 32.218 30.55 31.5 30.55V30.95C32.4389 30.95 33.2 30.1889 33.2 29.25H32.8ZM32.8 34C32.8 34.3038 32.5538 34.55 32.25 34.55V34.95C32.7747 34.95 33.2 34.5247 33.2 34H32.8ZM32.25 33.45C32.5538 33.45 32.8 33.6962 32.8 34H33.2C33.2 33.4753 32.7747 33.05 32.25 33.05V33.45ZM15.75 33.45H32.25V33.05H15.75V33.45ZM15.2 34C15.2 33.6962 15.4462 33.45 15.75 33.45V33.05C15.2253 33.05 14.8 33.4753 14.8 34H15.2ZM15.75 34.55C15.4462 34.55 15.2 34.3038 15.2 34H14.8C14.8 34.5247 15.2253 34.95 15.75 34.95V34.55ZM32.25 34.55H15.75V34.95H32.25V34.55ZM24.8906 23.8H23.1094V24.2H24.8906V23.8ZM26.242 16.7766L24.6951 23.9579L25.0861 24.0421L26.633 16.8609L26.242 16.7766ZM25.9823 15.6822C26.2303 15.9886 26.3258 16.391 26.2421 16.7762L26.6329 16.8613C26.7425 16.3575 26.6175 15.8313 26.2932 15.4305L25.9823 15.6822ZM24.9664 15.2C25.3607 15.1984 25.7343 15.3757 25.9823 15.6822L26.2932 15.4305C25.9689 15.0298 25.4803 14.7979 24.9648 14.8L24.9664 15.2ZM23.0344 15.2H24.9656V14.8H23.0344V15.2ZM22.0177 15.6822C22.2657 15.3757 22.6393 15.1984 23.0336 15.2L23.0352 14.8C22.5197 14.7979 22.0311 15.0298 21.7068 15.4305L22.0177 15.6822ZM21.7579 16.7762C21.6742 16.391 21.7697 15.9886 22.0177 15.6822L21.7068 15.4305C21.3825 15.8313 21.2575 16.3575 21.3671 16.8613L21.7579 16.7762ZM23.3049 23.9579L21.758 16.7766L21.367 16.8609L22.9139 24.0421L23.3049 23.9579ZM31.7 29.25V25.5H31.3V29.25H31.7ZM16.5 29.45H31.5V29.05H16.5V29.45ZM16.3 25.5V29.25H16.7V25.5H16.3ZM31.5 25.3H16.5V25.7H31.5V25.3Z" fill="#89979A"/>
</g>
</svg>
