<svg width="99" height="104" viewBox="0 0 99 104" fill="none" xmlns="http://www.w3.org/2000/svg">
<path fill-rule="evenodd" clip-rule="evenodd" d="M58.2731 97.7981C58.262 97.8001 58.2508 97.8022 58.2397 97.8042C58.2482 97.7937 58.2567 97.7832 58.2652 97.7727C58.2678 97.7812 58.2705 97.7896 58.2731 97.7981ZM82.1794 86.0539C92.2647 77.0258 98.6115 63.907 98.6115 49.3058C98.6115 22.0749 76.5366 0 49.3058 0C22.0749 0 0 22.0749 0 49.3058C0 63.591 6.0751 76.4574 15.7827 85.4621C15.6798 84.5612 15.6269 83.6452 15.6269 82.717C15.6269 69.483 26.3722 58.736 39.6071 58.736C52.802 58.736 63.5219 69.4182 63.5853 82.5996C65.7377 81.1419 68.3343 80.2905 71.1296 80.2905C75.7031 80.2905 79.7443 82.5696 82.1794 86.0539Z" fill="url(#paint0_linear_2112_14778)" fill-opacity="0.7"/>
<path fill-rule="evenodd" clip-rule="evenodd" d="M63.584 82.9749C64.6648 81.9855 66.197 81.368 67.8962 81.368C70.0178 81.368 71.879 82.3306 72.9263 83.7777C78.3484 80.9691 82.4402 76.7503 84.4104 71.3372C89.8273 56.4545 77.1563 38.1795 56.109 30.5189C35.0617 22.8583 13.6082 28.713 8.19135 43.5957C4.69203 53.21 8.74118 64.24 17.7207 72.9095C21.4724 64.5584 29.8653 58.7359 39.6069 58.7359C52.841 58.7359 63.5854 69.4816 63.5854 82.7168C63.5854 82.803 63.5849 82.889 63.584 82.9749Z" fill="url(#paint1_linear_2112_14778)" fill-opacity="0.9"/>
<path opacity="0.5" fill-rule="evenodd" clip-rule="evenodd" d="M71.3992 39.3368C75.1192 39.3368 78.1349 36.3211 78.1349 32.6011C78.1349 28.881 75.1192 25.8653 71.3992 25.8653C67.6791 25.8653 64.6634 28.881 64.6634 32.6011C64.6634 36.3211 67.6791 39.3368 71.3992 39.3368ZM66.0106 21.5544C67.3498 21.5544 68.4354 20.4688 68.4354 19.1296C68.4354 17.7903 67.3498 16.7047 66.0106 16.7047C64.6713 16.7047 63.5857 17.7903 63.5857 19.1296C63.5857 20.4688 64.6713 21.5544 66.0106 21.5544Z" fill="#E9ECEF"/>
<path opacity="0.5" fill-rule="evenodd" clip-rule="evenodd" d="M9.43 44.7253C10.7692 44.7253 11.8549 43.6397 11.8549 42.3005C11.8549 40.9612 10.7692 39.8756 9.43 39.8756C8.09078 39.8756 7.00513 40.9612 7.00513 42.3005C7.00513 43.6397 8.09078 44.7253 9.43 44.7253Z" fill="#DED9C4"/>
<path fill-rule="evenodd" clip-rule="evenodd" d="M77.3265 23.7096C80.1537 23.7096 82.4456 21.4177 82.4456 18.5905C82.4456 15.7632 80.1537 13.4713 77.3265 13.4713C74.4992 13.4713 72.2073 15.7632 72.2073 18.5905C72.2073 21.4177 74.4992 23.7096 77.3265 23.7096Z" fill="#FFEDEB"/>
<g filter="url(#filter0_f_2112_14778)">
<path d="M26.4043 24.7879H28.0209V31.7013H26.4043V24.7879Z" fill="#527A74" fill-opacity="0.45"/>
</g>
<mask id="path-7-outside-1_2112_14778" maskUnits="userSpaceOnUse" x="19.6235" y="20.7874" width="76" height="74" fill="black">
<rect fill="white" x="19.6235" y="20.7874" width="76" height="74"/>
<path d="M35.5183 58.7109C36.6484 58.5502 37.8026 58.4668 38.9773 58.4668C52.4146 58.4668 63.3236 69.3745 63.3236 82.811C63.3236 83.3591 63.3049 83.9031 63.2694 84.4416H79.5243V88.3308C80.7142 87.8178 82.0258 87.533 83.4028 87.533C84.7804 87.533 86.0915 87.8178 87.2813 88.3308V84.4416H88.2456C89.9869 84.4416 91.3984 83.0304 91.3984 81.2892V66.9557C91.3984 63.1623 89.8906 59.5234 87.2087 56.8407C84.5256 54.1586 80.8867 52.6515 77.0928 52.6515H42.435V49.4991H77.0928C77.3392 49.4991 77.5851 49.5042 77.8298 49.5144V45.1966C77.8298 43.4465 76.4111 42.0279 74.6607 42.0279H42.4353V35.0467C42.4353 32.3262 41.3543 29.7174 39.4303 27.7919H39.4298C37.5052 25.8682 34.896 24.7874 32.1751 24.7874H27.082C25.1725 24.7874 23.6235 26.3378 23.6235 28.2453C23.6235 30.1545 25.1725 31.7038 27.082 31.7038H32.1751C33.061 31.7038 33.9113 32.0556 34.5378 32.682C34.5384 32.6826 34.5384 32.6826 34.5384 32.6837C35.1655 33.3101 35.5173 34.1603 35.5173 35.0461V58.7119L35.5183 58.7109Z"/>
</mask>
<path d="M35.5183 58.7109C36.6484 58.5502 37.8026 58.4668 38.9773 58.4668C52.4146 58.4668 63.3236 69.3745 63.3236 82.811C63.3236 83.3591 63.3049 83.9031 63.2694 84.4416H79.5243V88.3308C80.7142 87.8178 82.0258 87.533 83.4028 87.533C84.7804 87.533 86.0915 87.8178 87.2813 88.3308V84.4416H88.2456C89.9869 84.4416 91.3984 83.0304 91.3984 81.2892V66.9557C91.3984 63.1623 89.8906 59.5234 87.2087 56.8407C84.5256 54.1586 80.8867 52.6515 77.0928 52.6515H42.435V49.4991H77.0928C77.3392 49.4991 77.5851 49.5042 77.8298 49.5144V45.1966C77.8298 43.4465 76.4111 42.0279 74.6607 42.0279H42.4353V35.0467C42.4353 32.3262 41.3543 29.7174 39.4303 27.7919H39.4298C37.5052 25.8682 34.896 24.7874 32.1751 24.7874H27.082C25.1725 24.7874 23.6235 26.3378 23.6235 28.2453C23.6235 30.1545 25.1725 31.7038 27.082 31.7038H32.1751C33.061 31.7038 33.9113 32.0556 34.5378 32.682C34.5384 32.6826 34.5384 32.6826 34.5384 32.6837C35.1655 33.3101 35.5173 34.1603 35.5173 35.0461V58.7119L35.5183 58.7109Z" fill="#8BB8B1"/>
<path d="M35.5183 58.7109L34.9552 54.7508L33.5528 54.9502L32.5885 55.9877L35.5183 58.7109ZM63.2694 84.4416L59.2781 84.1783L58.9968 88.4416H63.2694V84.4416ZM79.5243 84.4416H83.5243V80.4416H79.5243V84.4416ZM79.5243 88.3308H75.5243V94.4118L81.1082 92.0039L79.5243 88.3308ZM87.2813 88.3308L85.6975 92.0039L91.2813 94.4118V88.3308H87.2813ZM87.2813 84.4416V80.4416H83.2813V84.4416H87.2813ZM87.2087 56.8407L90.0375 54.0126L90.0366 54.0117L87.2087 56.8407ZM42.435 52.6515H38.435V56.6515H42.435V52.6515ZM42.435 49.4991V45.4991H38.435V49.4991H42.435ZM77.8298 49.5144L77.6641 53.5109L81.8298 53.6837V49.5144H77.8298ZM42.4353 42.0279H38.4353V46.0279H42.4353V42.0279ZM39.4303 27.7919L42.2599 24.9646L41.0881 23.7919H39.4303V27.7919ZM39.4298 27.7919L36.602 30.621L37.7734 31.7919H39.4298V27.7919ZM34.5378 32.682L31.7097 35.5107L31.71 35.511L34.5378 32.682ZM34.5384 32.6837H30.5384V34.3418L31.7115 35.5136L34.5384 32.6837ZM35.5173 58.7119H31.5173V68.8907L38.4472 61.4352L35.5173 58.7119ZM36.0814 62.6711C37.0263 62.5367 37.9925 62.4668 38.9773 62.4668V54.4668C37.6128 54.4668 36.2704 54.5637 34.9552 54.7508L36.0814 62.6711ZM38.9773 62.4668C50.2058 62.4668 59.3236 71.584 59.3236 82.811H67.3236C67.3236 67.165 54.6234 54.4668 38.9773 54.4668V62.4668ZM59.3236 82.811C59.3236 83.2686 59.308 83.7248 59.2781 84.1783L67.2607 84.7049C67.3019 84.0815 67.3236 83.4495 67.3236 82.811H59.3236ZM63.2694 88.4416H79.5243V80.4416H63.2694V88.4416ZM75.5243 84.4416V88.3308H83.5243V84.4416H75.5243ZM81.1082 92.0039C81.8082 91.702 82.5817 91.533 83.4028 91.533V83.533C81.4699 83.533 79.6201 83.9335 77.9404 84.6578L81.1082 92.0039ZM83.4028 91.533C84.2244 91.533 84.9973 91.702 85.6975 92.0039L88.8652 84.6578C87.1857 83.9335 85.3365 83.533 83.4028 83.533V91.533ZM91.2813 88.3308V84.4416H83.2813V88.3308H91.2813ZM87.2813 88.4416H88.2456V80.4416H87.2813V88.4416ZM88.2456 88.4416C92.1954 88.4416 95.3984 85.2401 95.3984 81.2892H87.3984C87.3984 80.8206 87.7784 80.4416 88.2456 80.4416V88.4416ZM95.3984 81.2892V66.9557H87.3984V81.2892H95.3984ZM95.3984 66.9557C95.3984 62.101 93.4689 57.445 90.0375 54.0126L84.3798 59.6687C86.3123 61.6017 87.3984 64.2236 87.3984 66.9557H95.3984ZM90.0366 54.0117C86.6035 50.5798 81.9474 48.6515 77.0928 48.6515V56.6515C79.826 56.6515 82.4477 57.7373 84.3808 59.6696L90.0366 54.0117ZM77.0928 48.6515H42.435V56.6515H77.0928V48.6515ZM46.435 52.6515V49.4991H38.435V52.6515H46.435ZM42.435 53.4991H77.0928V45.4991H42.435V53.4991ZM77.0928 53.4991C77.2844 53.4991 77.475 53.5031 77.6641 53.5109L77.9956 45.5178C77.6952 45.5054 77.3941 45.4991 77.0928 45.4991V53.4991ZM81.8298 49.5144V45.1966H73.8298V49.5144H81.8298ZM81.8298 45.1966C81.8298 41.2368 78.6197 38.0279 74.6607 38.0279V46.0279C74.2025 46.0279 73.8298 45.6562 73.8298 45.1966H81.8298ZM74.6607 38.0279H42.4353V46.0279H74.6607V38.0279ZM46.4353 42.0279V35.0467H38.4353V42.0279H46.4353ZM46.4353 35.0467C46.4353 31.2645 44.9324 27.6392 42.2599 24.9646L36.6008 30.6192C37.7762 31.7956 38.4353 33.3878 38.4353 35.0467H46.4353ZM39.4303 23.7919H39.4298V31.7919H39.4303V23.7919ZM42.2576 24.9629C39.5832 22.2897 35.957 20.7874 32.1751 20.7874V28.7874C33.835 28.7874 35.4271 29.4467 36.602 30.621L42.2576 24.9629ZM32.1751 20.7874H27.082V28.7874H32.1751V20.7874ZM27.082 20.7874C22.9626 20.7874 19.6235 24.1295 19.6235 28.2453H27.6235C27.6235 28.5462 27.3824 28.7874 27.082 28.7874V20.7874ZM19.6235 28.2453C19.6235 32.3633 22.963 35.7038 27.082 35.7038V27.7038C27.382 27.7038 27.6235 27.9457 27.6235 28.2453H19.6235ZM27.082 35.7038H32.1751V27.7038H27.082V35.7038ZM32.1751 35.7038C32.0013 35.7038 31.834 35.635 31.7097 35.5107L37.366 29.8533C35.9886 28.4762 34.1207 27.7038 32.1751 27.7038V35.7038ZM31.71 35.511C31.71 35.511 31.71 35.511 31.71 35.511C31.71 35.511 31.7099 35.511 31.7099 35.511C31.7099 35.5109 31.7099 35.5109 31.7098 35.5108C31.7097 35.5107 31.7095 35.5105 31.7092 35.5103C31.7088 35.5098 31.708 35.509 31.707 35.508C31.7051 35.5061 31.7016 35.5027 31.6974 35.4983C31.6894 35.4903 31.6735 35.4742 31.6537 35.4536C31.6184 35.4168 31.537 35.3311 31.4417 35.2146C31.2166 34.9393 30.9331 34.5174 30.7428 33.945C30.5767 33.4456 30.5512 33.0319 30.5438 32.8917C30.5371 32.7629 30.5384 32.64 30.5384 32.6837H38.5384C38.5384 32.7269 38.5397 32.6035 38.533 32.4744C38.5256 32.3338 38.5001 31.9199 38.3339 31.4203C38.1435 30.8477 37.8599 30.4257 37.6346 30.1501C37.5393 30.0336 37.4578 29.9477 37.4224 29.9109C37.4025 29.8902 37.3865 29.874 37.3785 29.8659C37.3742 29.8616 37.3707 29.8581 37.3688 29.8561C37.3678 29.8551 37.367 29.8543 37.3665 29.8538C37.3663 29.8536 37.3661 29.8534 37.3659 29.8532C37.3658 29.8531 37.3657 29.853 37.3657 29.853L31.71 35.511ZM31.7115 35.5136C31.5865 35.3888 31.5173 35.2205 31.5173 35.0461H39.5173C39.5173 33.1001 38.7444 31.2314 37.3653 29.8538L31.7115 35.5136ZM31.5173 35.0461V58.7119H39.5173V35.0461H31.5173ZM38.4472 61.4352L38.4481 61.4342L32.5885 55.9877L32.5875 55.9887L38.4472 61.4352Z" fill="white" mask="url(#path-7-outside-1_2112_14778)"/>
<path d="M39.5162 61.4301C51.2132 61.4301 60.7096 70.926 60.7096 82.6219C60.7096 94.3179 51.2135 103.811 39.5162 103.811C27.8189 103.811 18.3213 94.3167 18.3213 82.6219C18.3213 70.9272 27.8186 61.4301 39.5162 61.4301Z" fill="#DED9C4"/>
<path fill-rule="evenodd" clip-rule="evenodd" d="M25.0789 82.6204C25.0789 74.6546 31.5483 68.1865 39.5163 68.1865C47.4832 68.1865 53.9522 74.6536 53.9522 82.6204C53.9522 90.5862 47.4841 97.0543 39.5163 97.0543C31.5485 97.0543 25.0789 90.5872 25.0789 82.6204ZM50.7998 82.6209C50.7998 76.3945 45.7433 71.3387 39.516 71.3387C33.2876 71.3387 28.2312 76.3945 28.2312 82.6209C28.2312 88.8478 33.2882 93.903 39.516 93.903C45.7433 93.903 50.7998 88.8478 50.7998 82.6209Z" fill="white"/>
<path d="M39.6067 73.8238C44.5134 73.8238 48.4975 77.8081 48.4975 82.715C48.4975 87.6223 44.5134 91.6062 39.6067 91.6062C34.6997 91.6062 30.7151 87.6223 30.7151 82.715C30.7151 77.8081 34.6992 73.8238 39.6067 73.8238Z" fill="white"/>
<path fill-rule="evenodd" clip-rule="evenodd" d="M37.4337 78.4216C36.8479 77.8358 35.8982 77.8358 35.3124 78.4216C34.7266 79.0074 34.7266 79.9571 35.3124 80.5429L37.4849 82.7154L35.3124 84.8879C34.7266 85.4737 34.7266 86.4234 35.3124 87.0092C35.8982 87.595 36.8479 87.595 37.4337 87.0092L39.6062 84.8367L41.7787 87.0092C42.3645 87.595 43.3143 87.595 43.9 87.0092C44.4858 86.4234 44.4858 85.4737 43.9 84.8879L41.7275 82.7154L43.9 80.5429C44.4858 79.9571 44.4858 79.0074 43.9 78.4216C43.3143 77.8358 42.3645 77.8358 41.7787 78.4216L39.6062 80.5941L37.4337 78.4216Z" fill="#FFACA0"/>
<path d="M15.627 28.2903C15.627 25.9095 17.557 23.9794 19.9378 23.9794H26.7634C26.8626 23.9794 26.943 24.0598 26.943 24.159V32.4216C26.943 32.5208 26.8626 32.6012 26.7634 32.6012H19.9378C17.557 32.6012 15.627 30.6711 15.627 28.2903Z" fill="white"/>
<g filter="url(#filter1_i_2112_14778)">
<path d="M83.4026 90.6849C79.7277 90.6849 76.7446 93.6692 76.7446 97.3431C76.7446 101.018 79.7277 104 83.4026 104C87.077 104 90.0607 101.018 90.0607 97.3431C90.0607 93.6692 87.077 90.6849 83.4026 90.6849Z" fill="#C3C3A5"/>
</g>
<defs>
<filter id="filter0_f_2112_14778" x="24.2543" y="22.6379" width="5.9167" height="11.2134" filterUnits="userSpaceOnUse" color-interpolation-filters="sRGB">
<feFlood flood-opacity="0" result="BackgroundImageFix"/>
<feBlend mode="normal" in="SourceGraphic" in2="BackgroundImageFix" result="shape"/>
<feGaussianBlur stdDeviation="1.075" result="effect1_foregroundBlur_2112_14778"/>
</filter>
<filter id="filter1_i_2112_14778" x="76.7446" y="90.6849" width="13.3159" height="13.3153" filterUnits="userSpaceOnUse" color-interpolation-filters="sRGB">
<feFlood flood-opacity="0" result="BackgroundImageFix"/>
<feBlend mode="normal" in="SourceGraphic" in2="BackgroundImageFix" result="shape"/>
<feColorMatrix in="SourceAlpha" type="matrix" values="0 0 0 0 0 0 0 0 0 0 0 0 0 0 0 0 0 0 127 0" result="hardAlpha"/>
<feOffset dy="2"/>
<feComposite in2="hardAlpha" operator="arithmetic" k2="-1" k3="1"/>
<feColorMatrix type="matrix" values="0 0 0 0 0.870588 0 0 0 0 0.85098 0 0 0 0 0.768627 0 0 0 0.566073 0"/>
<feBlend mode="normal" in2="shape" result="effect1_innerShadow_2112_14778"/>
</filter>
<linearGradient id="paint0_linear_2112_14778" x1="21.8802" y1="-8.6688" x2="-8.6688" y2="76.7313" gradientUnits="userSpaceOnUse">
<stop stop-color="#EEF3F0" stop-opacity="0.0789496"/>
<stop offset="1" stop-color="#D9E4DD"/>
</linearGradient>
<linearGradient id="paint1_linear_2112_14778" x1="36.6356" y1="18.0657" x2="6.10987" y2="62.9914" gradientUnits="userSpaceOnUse">
<stop stop-color="#EEF3F0" stop-opacity="0.0789496"/>
<stop offset="1" stop-color="#D9E4DD"/>
</linearGradient>
</defs>
</svg>
