<?xml version="1.0" encoding="UTF-8"?>
<svg width="18px" height="26px" viewBox="0 0 18 26" version="1.1" xmlns="http://www.w3.org/2000/svg" xmlns:xlink="http://www.w3.org/1999/xlink">
    <title>99B9DB37-AEC1-4F72-8562-4B6AB2146EF1</title>
    <g id="Page-1" stroke="none" stroke-width="1" fill="none" fill-rule="evenodd">
        <g id="1-Episode-Home" transform="translate(-18.000000, -292.000000)">
            <g id="Group-12" transform="translate(18.000000, 292.000000)">
                <path d="M13.3043352,19.8571413 C14.2749177,20.0835383 15.0833346,20.3794225 15.6456371,20.737801 C15.8199583,20.8490331 15.9666573,20.9631015 16.0767338,21.0859195 C16.1378392,21.1538794 16.2006214,21.20895 16.2006214,21.2841266 C16.2006214,21.3706653 16.1252871,21.4327233 16.050992,21.5105236 C15.8457002,21.7248984 15.5405857,21.9145854 15.1645192,22.0931173 C13.7745671,22.7528568 11.5291074,23.1637045 9.00040715,23.1637045 C6.47202833,23.1637045 4.22614006,22.7530918 2.83629513,22.0931173 C2.46003036,21.9145798 2.15489985,21.7246802 1.94982232,21.5105236 C1.87532367,21.4325107 1.80019286,21.3704472 1.80019286,21.2841266 C1.80019286,21.20895 1.86297509,21.153885 1.92408048,21.0859195 C2.03415697,20.9631071 2.18085598,20.8490331 2.35517724,20.737801 C2.91747969,20.3794169 3.7258966,20.0837677 4.69647906,19.8571413 C5.18135778,19.7439456 5.48710974,19.2415411 5.37867794,18.7351981 C5.27027828,18.2288664 4.7889461,17.9095867 4.30405667,18.022816 C2.8400131,18.3639415 1.68444299,18.8720355 0.987136522,19.4430489 C0.310562814,19.9970164 0,20.6447113 0,21.2841434 C0,22.0118541 0.417076699,22.7653546 1.31816423,23.3699899 C2.75959999,24.3376415 5.65548975,25.0434783 9,25.0434783 C12.3445103,25.0434783 15.2401857,24.3376415 16.6818358,23.3699899 C17.5831483,22.7652986 18,22.0118541 18,21.2841434 C18,20.6447113 17.6894425,19.9967758 17.0128635,19.4430489 C16.315557,18.8722593 15.1599869,18.3641821 13.6959433,18.022816 C13.2110646,17.9096202 12.7295396,18.2288887 12.6213221,18.7351981 C12.5129224,19.2415299 12.8186637,19.743912 13.3035209,19.8571413 L13.3043352,19.8571413 Z" id="Shape" fill="#000000" fill-rule="nonzero"></path>
                <ellipse id="Oval" fill="#FB8461" cx="9" cy="21.15" rx="7.2" ry="2.25"></ellipse>
                <path d="M5.01958929,17.2210218 L8.242875,22.2785521 C8.4084,22.538394 8.69383929,22.6956522 9,22.6956522 C9.30636429,22.6956522 9.59158929,22.5386101 9.757125,22.2785521 L12.9804107,17.2210218 C15.9531964,15.7392218 18,12.6477163 18,9.07820035 C18,4.06795238 13.9670893,0 9,0 C4.03291071,0 0,4.06795238 0,9.07820035 C0,12.6478244 2.04658929,15.7387895 5.01958929,17.2210218 Z" id="Path" fill="#000000"></path>
                <path d="M6.10069682,15.6290804 C3.67074922,14.501476 1.98,12.0123666 1.98,9.12622677 C1.98,5.18219019 5.13609666,1.98 9.02347826,1.98 C12.9108599,1.98 16.0669565,5.18213701 16.0669565,9.12622677 C16.0669565,12.0126324 14.3762073,14.5018482 11.9462597,15.6290804 C11.7927234,15.7003194 11.6627283,15.814558 11.5718391,15.9584928 L9.02355687,19.98 L6.47527465,15.9584928 C6.38422302,15.8147654 6.25402349,15.7003194 6.10069682,15.6290804 Z" id="Path" fill="#FFFFFF"></path>
                <text id="x" font-family="Montserrat-Bold, Montserrat" font-size="12" font-weight="bold" fill="#000000">
                    <tspan x="5.4" y="12.9">x</tspan>
                </text>
            </g>
        </g>
    </g>
</svg>