<svg width="99" height="108" viewBox="0 0 99 108" fill="none" xmlns="http://www.w3.org/2000/svg">
<g id="Group 9">
<path id="Subtract" fill-rule="evenodd" clip-rule="evenodd" d="M49.8883 96.6091C76.5662 96.6091 98.1929 74.9824 98.1929 48.3046C98.1929 21.6267 76.5662 0 49.8883 0C23.2104 0 1.58374 21.6267 1.58374 48.3046C1.58374 74.9824 23.2104 96.6091 49.8883 96.6091ZM26.3959 82.3553C28.4369 82.3553 30.0914 80.5826 30.0914 78.3959C30.0914 76.2092 28.4369 74.4365 26.3959 74.4365C24.355 74.4365 22.7005 76.2092 22.7005 78.3959C22.7005 80.5826 24.355 82.3553 26.3959 82.3553Z" fill="url(#paint0_linear_2142_13748)" fill-opacity="0.7"/>
<ellipse id="Oval" cx="46.9445" cy="56.2997" rx="39.7318" ry="28.0946" transform="rotate(20 46.9445 56.2997)" fill="url(#paint1_linear_2142_13748)" fill-opacity="0.9"/>
<g id="01.-Dashboard-Right-Slidebar-updated">
<g id="03-Created-Dashboard-&#38;-add-Widget-Option">
<g id="Illustration">
<path id="Vector" d="M25.6723 99.257C25.7292 99.2584 25.7863 99.2592 25.8435 99.2593L25.856 99.2595L25.9101 99.2603L26.1178 99.2631L26.88 99.2735C27.5227 99.2823 28.4082 99.2945 29.3797 99.3081C30.5583 99.3245 31.8626 99.343 33.0129 99.3598V99.5727C33.0129 103.119 35.892 106.001 39.4353 106.001C42.9825 106.001 45.8733 103.122 45.8733 99.5727V99.4267H70.0959V99.5727C70.0959 103.121 72.9799 106.001 76.5215 106.001C80.0657 106.001 82.9439 103.115 82.9439 99.5727V99.4267H88.3702C90.7048 99.4267 92.6759 98.315 94.0058 96.5415C95.3089 94.8036 95.9697 92.4864 95.9697 89.9565V89.9535C95.9659 87.5188 95.2167 85.2381 93.9178 83.5224C92.6188 81.8067 90.6769 80.5612 88.3702 80.5612H42.7089C40.6833 80.5612 38.7712 79.7709 37.3122 78.3209C37.3113 78.32 37.3104 78.3191 37.3095 78.3181L31.1267 72.1242L31.1263 72.1238C30.1702 71.1665 28.9687 70.4771 27.6734 70.1409C26.6509 69.8622 25.568 69.8086 24.5419 69.9723V40.5125C24.5419 39.0645 25.0968 38.341 25.6765 37.9165C26.3538 37.4206 27.2324 37.2283 27.8162 37.2283H30.782C29.6636 38.2339 28.9593 39.6916 28.9591 41.3119C28.9591 41.312 28.9591 41.3122 28.9591 41.3123L28.956 54.5121L28.956 54.5223C28.9705 57.499 31.3594 59.9303 34.3249 59.9966C34.4213 60.3779 34.5894 60.748 34.8324 61.0872C35.4648 61.9717 36.4632 62.4421 37.4658 62.4421C38.1168 62.4421 38.7795 62.2471 39.3539 61.8342C40.0562 61.3299 40.6373 60.7093 41.0712 59.9986H41.7331C44.7627 59.9986 47.2197 57.5349 47.2201 54.5077C47.2201 54.5075 47.2201 54.5072 47.2201 54.507L47.2206 53.0803C47.2209 53.0743 47.2212 53.0678 47.2215 53.0611C47.2225 53.0366 47.2238 53.0001 47.2238 52.9564V41.3125C47.2238 38.544 45.1691 36.2468 42.5007 35.8739C42.3204 35.2964 41.9862 34.8093 41.5966 34.4469C41.0404 33.9297 40.2323 33.5388 39.312 33.5737C39.1 33.58 38.8932 33.6066 38.6933 33.6516C37.6491 31.9135 35.7465 30.7481 33.5733 30.7481C33.5732 30.7481 33.5731 30.7481 33.5731 30.7481L27.8158 30.7476H27.8156C25.8706 30.7476 23.477 31.3799 21.5272 32.9263C19.5054 34.5298 18.061 37.0445 18.061 40.5089V91.4291C18.061 95.1729 20.6969 98.3161 24.2068 99.0814L24.24 99.2376L25.6723 99.257ZM35.4361 51.4166H40.7424V52.845C40.7421 52.8519 40.7417 52.8596 40.7414 52.8675C40.7405 52.8904 40.7393 52.9264 40.7393 52.9694V53.5184L38.7166 53.5188H38.7162H35.4361V51.4166ZM40.1969 42.3023C40.2529 42.3023 40.3067 42.3 40.3576 42.2963C40.4083 42.3 40.4623 42.3023 40.5193 42.3023H40.7424V44.9386L35.4392 44.9383V42.3023H40.1969ZM39.3918 99.5743C39.3918 99.5739 39.3918 99.5736 39.3918 99.5733L39.3918 99.5743ZM42.6427 36.7391L42.6427 36.7372L41.7367 36.759L40.6681 36.7847L42.6427 36.7391ZM24.8631 76.7242L24.8843 76.7029C25.021 76.5661 25.1969 76.4606 25.4262 76.4016L25.4459 76.3965L25.4655 76.391C25.6166 76.3488 25.773 76.3389 26.0054 76.4007L26.0151 76.4033L26.0249 76.4058C26.216 76.4545 26.3946 76.5558 26.5403 76.7019L26.5409 76.7025L32.7318 82.9045L32.737 82.9096C35.4102 85.5682 38.9605 87.0387 42.7102 87.0387H88.3465C88.3773 87.0478 88.5846 87.119 88.8707 87.5701C89.2141 88.1116 89.486 88.961 89.486 89.9569C89.486 91.2006 89.2206 92.0455 88.9312 92.5084C88.6716 92.9236 88.475 92.9431 88.3675 92.9431H85.2868C85.2685 92.9423 85.2524 92.9418 85.2406 92.9415C85.2244 92.941 85.2069 92.9406 85.1883 92.9402C85.1582 92.9395 85.1254 92.9389 85.0912 92.9384C84.9779 92.9367 84.8172 92.935 84.6155 92.9334C84.2106 92.9302 83.6234 92.9271 82.882 92.924C81.3983 92.918 79.2876 92.9122 76.7603 92.9067C71.7052 92.8958 64.9788 92.8862 58.2574 92.8783C51.5359 92.8704 44.8187 92.8642 39.782 92.8599C37.2636 92.8577 35.1654 92.8561 33.6967 92.855L31.992 92.8537L31.5429 92.8534L31.4278 92.8533L31.4018 92.8533C28.7211 92.8162 25.9056 92.779 25.8778 92.779C25.1446 92.779 24.5395 92.1786 24.5395 91.4333V77.5417C24.5395 77.2257 24.6536 76.9436 24.8631 76.7242Z" fill="#8BB8B1" stroke="white" stroke-width="4"/>
<path id="Vector_2" d="M25.4966 79.378C25.7884 79.0725 26.1527 78.8556 26.5697 78.7434C26.9458 78.6335 27.3284 78.6311 27.7408 78.7458C28.1421 78.8528 28.5068 79.0725 28.7982 79.378L34.4093 84.1493C36.1023 85.9098 38.3423 86.8782 40.7098 86.8782H83.7884C85.0301 86.8782 86.579 86.5792 88.1498 87.767C90.0287 91.9903 86.5176 92.9142 85.1435 92.9142H81.4778C81.3752 92.8735 32.3786 92.8451 32.3786 92.8451C29.3356 92.8164 27.2757 92.788 27.2688 92.788C25.913 92.788 24.8125 91.6334 24.8125 90.214V81.1106C24.8125 80.456 25.0545 79.8404 25.4966 79.378Z" fill="#DED9C4"/>
<g id="Vector_3" filter="url(#filter0_i_2142_13748)">
<path d="M41.5233 41.9485V43.1537C41.5233 43.1752 41.5256 43.1996 41.5256 43.2212V45.9374H34.4446V41.9481C34.4446 41.5133 34.7909 41.1562 35.215 41.1562H38.4624L40.7576 41.1566C41.1793 41.1566 41.5233 41.5113 41.5233 41.9485Z" fill="#C3C3A5"/>
<path d="M41.5256 50.177V54.0565C41.5256 54.4938 41.184 54.8489 40.758 54.8489H39.8341C39.7915 54.8489 39.754 54.8709 39.7114 54.8757C39.6688 54.8684 39.6313 54.8489 39.5887 54.8489H35.215C34.7909 54.8489 34.4469 54.4942 34.4469 54.057V50.1774L41.5256 50.177Z" fill="#C3C3A5"/>
</g>
<path id="Vector_4" d="M54.1387 63.7271C49.4946 63.7271 45.73 67.3926 45.73 71.9145C45.73 76.4364 49.4946 80.102 54.1387 80.102C58.7829 80.102 62.5475 76.4364 62.5475 71.9145C62.5475 67.3926 58.7829 63.7271 54.1387 63.7271Z" fill="white"/>
<path id="Vector_5" d="M60.6301 68.0788C57.6919 65.1406 52.9983 65.0705 50.1465 67.9223C47.2947 70.7741 47.3648 75.4677 50.303 78.4059C53.2412 81.3441 57.9347 81.4141 60.7865 78.5624C63.6383 75.7106 63.5683 71.017 60.6301 68.0788ZM58.5065 76.2823C58.0991 76.6897 57.4386 76.6897 57.0312 76.2823L55.4889 74.74L54.0359 76.1929C53.6162 76.6127 52.9357 76.6127 52.5159 76.1929V76.1929C52.0962 75.7732 52.0962 75.0927 52.5159 74.6729L53.9689 73.22L52.4265 71.6776C52.0191 71.2702 52.0191 70.6097 52.4265 70.2023V70.2023C52.8339 69.7949 53.4944 69.7949 53.9018 70.2023L55.4442 71.7447L56.8971 70.2917C57.3169 69.872 57.9974 69.872 58.4171 70.2917V70.2917C58.8369 70.7115 58.8369 71.392 58.4171 71.8117L56.9642 73.2647L58.5065 74.807C58.9139 75.2144 58.9139 75.875 58.5065 76.2823V76.2823Z" fill="#FFACA0"/>
</g>
<path id="Combined-Shape" opacity="0.5" fill-rule="evenodd" clip-rule="evenodd" d="M65.7261 39.0666C69.3706 39.0666 72.3251 36.1122 72.3251 32.4676C72.3251 28.8231 69.3706 25.8687 65.7261 25.8687C62.0816 25.8687 59.1271 28.8231 59.1271 32.4676C59.1271 36.1122 62.0816 39.0666 65.7261 39.0666ZM60.4469 21.6453C61.7589 21.6453 62.8226 20.5817 62.8226 19.2697C62.8226 17.9577 61.7589 16.894 60.4469 16.894C59.1349 16.894 58.0713 17.9577 58.0713 19.2697C58.0713 20.5817 59.1349 21.6453 60.4469 21.6453Z" fill="#E9ECEF"/>
<path id="Combined-Shape_2" opacity="0.5" fill-rule="evenodd" clip-rule="evenodd" d="M60.4469 21.6453C61.7589 21.6453 62.8226 20.5817 62.8226 19.2697C62.8226 17.9577 61.7589 16.894 60.4469 16.894C59.1349 16.894 58.0713 17.9577 58.0713 19.2697C58.0713 20.5817 59.1349 21.6453 60.4469 21.6453Z" fill="#DED9C4"/>
<path id="Combined-Shape_3" fill-rule="evenodd" clip-rule="evenodd" d="M71.533 23.757C74.3029 23.757 76.5483 21.5116 76.5483 18.7418C76.5483 15.972 74.3029 13.7266 71.533 13.7266C68.7632 13.7266 66.5178 15.972 66.5178 18.7418C66.5178 21.5116 68.7632 23.757 71.533 23.757Z" fill="#FFEDEB"/>
</g>
<g id="Group 814">
<path id="Vector 1" d="M86.819 46.7432L74.3657 41.2699C74.295 41.2388 74.2241 41.3133 74.2586 41.3824C75.2771 43.42 75.5147 45.7599 74.9266 47.9607L74.791 48.4685L72.2254 55.0354C71.4437 56.7328 70.3104 61.0347 73.2737 62.3816C76.6377 63.9105 78.0095 61.185 78.6808 59.4598L86.4604 60.7676C86.3868 59.8216 86.6866 56.9833 88.4743 53.1989C90.2619 49.4145 88.1157 47.3183 86.819 46.7432Z" fill="white"/>
<path id="Vector 3" d="M84.2432 48.6242L72.9495 43.7041C72.8862 43.6765 72.8231 43.7433 72.8542 43.8049C73.7775 45.636 73.9929 47.7434 73.4592 49.7235L73.3376 50.1747L71.0114 56.0767C70.3027 57.6022 69.2751 61.4685 71.9619 62.6789C75.0119 64.053 76.2557 61.6035 76.8644 60.053L83.918 61.2284C83.8513 60.3781 84.1231 57.8273 85.744 54.4262C87.3648 51.025 85.4188 49.1411 84.2432 48.6242Z" stroke="#DED9C4"/>
<path id="Rectangle 2" opacity="0.6" d="M82.2306 55.883C82.2306 56.0878 82.0372 56.2375 81.8389 56.1863L75.123 54.4507C74.8702 54.3854 74.7474 54.0987 74.8746 53.8707V53.8707C74.9647 53.7091 75.154 53.6308 75.3319 53.6815L82.0031 55.5816C82.1377 55.62 82.2306 55.743 82.2306 55.883V55.883Z" fill="#DED9C4"/>
<path id="Rectangle 3" opacity="0.6" d="M73.9745 56.1594C74.0477 55.9776 74.244 55.8778 74.434 55.9257L81.2691 57.6502C81.4534 57.6967 81.5652 57.8838 81.5187 58.0681V58.0681C81.4726 58.2507 81.2884 58.3624 81.1052 58.3188L74.2474 56.6871C74.0142 56.6317 73.885 56.3818 73.9745 56.1594V56.1594Z" fill="#DED9C4"/>
<path id="Vector 2" d="M89.8545 62.273L76.9313 60.0366L76.5301 60.9159C76.2716 61.4824 75.8917 61.9851 75.4174 62.3886C75.0244 62.7229 74.5684 62.9684 74.0605 63.0598C73.5057 63.1596 73.5159 63.2217 76.9313 63.6397C83.1328 64.3985 88.1099 63.1841 89.8545 62.273Z" fill="#C3C3A5"/>
</g>
</g>
<path id="Fill 69" fill-rule="evenodd" clip-rule="evenodd" d="M74.4365 69.6894C74.0804 69.6868 73.7194 69.6866 73.3806 69.6812C73.7194 69.6866 74.0803 69.6868 74.4363 69.6894L74.4365 69.6894" fill="#0D8B84"/>
</g>
<defs>
<filter id="filter0_i_2142_13748" x="34.4446" y="41.1562" width="7.08105" height="13.7195" filterUnits="userSpaceOnUse" color-interpolation-filters="sRGB">
<feFlood flood-opacity="0" result="BackgroundImageFix"/>
<feBlend mode="normal" in="SourceGraphic" in2="BackgroundImageFix" result="shape"/>
<feColorMatrix in="SourceAlpha" type="matrix" values="0 0 0 0 0 0 0 0 0 0 0 0 0 0 0 0 0 0 127 0" result="hardAlpha"/>
<feOffset dy="2"/>
<feComposite in2="hardAlpha" operator="arithmetic" k2="-1" k3="1"/>
<feColorMatrix type="matrix" values="0 0 0 0 0.870588 0 0 0 0 0.85098 0 0 0 0 0.768627 0 0 0 0.566073 0"/>
<feBlend mode="normal" in2="shape" result="effect1_innerShadow_2142_13748"/>
</filter>
<linearGradient id="paint0_linear_2142_13748" x1="23.0197" y1="-8.49277" x2="-6.90903" y2="75.1732" gradientUnits="userSpaceOnUse">
<stop stop-color="#EEF3F0" stop-opacity="0.0789496"/>
<stop offset="1" stop-color="#D9E4DD"/>
</linearGradient>
<linearGradient id="paint1_linear_2142_13748" x1="24.8444" y1="23.2656" x2="11.7956" y2="74.853" gradientUnits="userSpaceOnUse">
<stop stop-color="#EEF3F0" stop-opacity="0.0789496"/>
<stop offset="1" stop-color="#D9E4DD"/>
</linearGradient>
</defs>
</svg>
