<svg width="20" height="20" viewBox="0 0 20 20" fill="none" xmlns="http://www.w3.org/2000/svg">
<g id="Group 9">
<path id="Shape" fill-rule="evenodd" clip-rule="evenodd" d="M1.03707 10.0064C1.992 6.4135 6.39293 4 9.90447 4C13.4342 4 18.0221 6.46662 18.9629 10.0064L19 10.1463L18.9629 10.2861C18.0221 13.826 13.4342 16.2926 9.90447 16.2926C6.39293 16.2926 1.992 13.8791 1.03707 10.2861L1 10.1463L1.03707 10.0064ZM9.90447 15.2026C12.9896 15.2026 16.9717 13.1334 17.8699 10.1463C16.9717 7.15922 12.9896 5.09001 9.90447 5.09001C6.90823 5.09001 3.02526 7.15922 2.13013 10.1463C3.02526 13.1334 6.90823 15.2026 9.90447 15.2026ZM13.1904 10.2418C13.1904 8.40074 11.698 6.90816 9.8567 6.90816C8.01543 6.90816 6.52304 8.40055 6.52304 10.2418C6.52304 12.0831 8.01562 13.5755 9.8567 13.5755C11.6978 13.5755 13.1904 12.0829 13.1904 10.2418Z" fill="black"/>
<path id="Line 3" d="M1.5 1.5L18.5 18.5" stroke="black" stroke-linecap="square"/>
</g>
</svg>
