<svg width="18" height="13" viewBox="0 0 18 13" fill="none" xmlns="http://www.w3.org/2000/svg">
<path id="Shape" fill-rule="evenodd" clip-rule="evenodd" d="M0.0370655 6.00643C0.991997 2.4135 5.39293 0 8.90447 0C12.4342 0 17.0221 2.46662 17.9629 6.00643L18 6.14629L17.9629 6.28615C17.0221 9.82596 12.4342 12.2926 8.90447 12.2926C5.39293 12.2926 0.991997 9.87908 0.0370655 6.28615L0 6.14629L0.0370655 6.00643ZM8.90447 11.2026C11.9896 11.2026 15.9717 9.13336 16.8699 6.14629C15.9717 3.15922 11.9896 1.09001 8.90447 1.09001C5.90823 1.09001 2.02526 3.15922 1.13013 6.14629C2.02526 9.13336 5.90823 11.2026 8.90447 11.2026ZM12.1904 6.24182C12.1904 4.40074 10.698 2.90816 8.8567 2.90816C7.01543 2.90816 5.52304 4.40055 5.52304 6.24182C5.52304 8.08309 7.01562 9.57548 8.8567 9.57548C10.6978 9.57548 12.1904 8.0829 12.1904 6.24182Z" fill="black"/>
</svg>
