<?xml version="1.0" encoding="UTF-8"?>
<svg width="11px" height="9px" viewBox="0 0 11 9" version="1.1" xmlns="http://www.w3.org/2000/svg" xmlns:xlink="http://www.w3.org/1999/xlink">
    <title>4030DD84-D5DB-4F60-ADC1-D04BC1A5D17C</title>
    <g id="Page-1" stroke="none" stroke-width="1" fill="none" fill-rule="evenodd">
        <g id="2-Episode-Home-Menu" transform="translate(-269.000000, -247.000000)" fill="#1AA99C" fill-rule="nonzero">
            <g id="Group-16" transform="translate(17.000000, 244.000000)">
                <g id="Group-4" transform="translate(25.000000, 1.000000)">
                    <path d="M227.159212,6.86542046 L230.543638,10.6731542 C230.761581,10.9330056 231.192312,10.9561731 231.444915,10.7299642 C231.697517,10.5037554 231.723064,10.0722991 231.488889,9.82706291 L229.0431,7.07699522 L237.36534,7.07699522 C237.715791,7.07699522 238,6.79279776 238,6.44233516 C238,6.09187256 237.71595,5.8076751 237.36534,5.8076751 L229.0431,5.8076751 L231.488889,3.05760741 C231.723064,2.81236367 231.691488,2.38162135 231.438719,2.15542383 C231.186098,1.92921498 230.761562,1.95164586 230.543638,2.21149724 L227.159212,6.01923097 C226.938167,6.32703789 226.955876,6.60342345 227.159212,6.86531847 L227.159212,6.86542046 Z" id="Path" transform="translate(232.500000, 6.442532) scale(-1, 1) translate(-232.500000, -6.442532) "></path>
                </g>
            </g>
        </g>
    </g>
</svg>