<svg width="50" height="50" viewBox="0 0 50 50" fill="none" xmlns="http://www.w3.org/2000/svg">
<path d="M10.75 8H22.75C32.6911 8 40.75 16.0589 40.75 26V43H10.75V8Z" fill="white"/>
<path fill-rule="evenodd" clip-rule="evenodd" d="M30.0938 5H13.2188C10.8888 5 9 6.84683 9 9.125V42.125C9 44.4032 10.8888 46.25 13.2188 46.25H38.5312C40.8612 46.25 42.75 44.4032 42.75 42.125V17.375L30.0938 5ZM30.0938 19.4375H27.9844V9.125L38.5312 19.4375H30.0938ZM20.5325 31.31C20.0792 31.1033 19.5425 31 18.9225 31H15.8925V38H17.5125V36.07H18.9225C19.5425 36.07 20.0792 35.97 20.5325 35.77C20.9925 35.5633 21.3458 35.27 21.5925 34.89C21.8392 34.5033 21.9625 34.0533 21.9625 33.54C21.9625 33.02 21.8392 32.57 21.5925 32.19C21.3458 31.81 20.9925 31.5167 20.5325 31.31ZM19.9425 34.44C19.6892 34.6467 19.3192 34.75 18.8325 34.75H17.5125V32.32H18.8325C19.3192 32.32 19.6892 32.4267 19.9425 32.64C20.1958 32.8467 20.3225 33.1467 20.3225 33.54C20.3225 33.9267 20.1958 34.2267 19.9425 34.44ZM26.2991 31H23.1191V38H26.2991C27.0591 38 27.7291 37.8567 28.3091 37.57C28.8957 37.2767 29.3491 36.8667 29.6691 36.34C29.9957 35.8133 30.1591 35.2 30.1591 34.5C30.1591 33.8 29.9957 33.1867 29.6691 32.66C29.3491 32.1333 28.8957 31.7267 28.3091 31.44C27.7291 31.1467 27.0591 31 26.2991 31ZM27.8891 36.09C27.4757 36.4767 26.9191 36.67 26.2191 36.67H24.7391V32.33H26.2191C26.9191 32.33 27.4757 32.5267 27.8891 32.92C28.3091 33.3067 28.5191 33.8333 28.5191 34.5C28.5191 35.1667 28.3091 35.6967 27.8891 36.09ZM33.0008 34.15V32.3H36.6708V31H31.3808V38H33.0008V35.45H36.2408V34.15H33.0008Z" fill="#B61A1A"/>
</svg>
