<svg width="28" height="28" viewBox="0 0 28 28" fill="none" xmlns="http://www.w3.org/2000/svg">
<path d="M14 0.875C17.481 0.875 20.8194 2.25781 23.2808 4.71922C25.7422 7.18064 27.125 10.519 27.125 14C27.125 17.481 25.7422 20.8194 23.2808 23.2808C20.8194 25.7422 17.481 27.125 14 27.125C10.519 27.125 7.18064 25.7422 4.71922 23.2808C2.25781 20.8194 0.875 17.481 0.875 14C0.875 10.519 2.25781 7.18064 4.71922 4.71922C7.18064 2.25781 10.519 0.875 14 0.875ZM12.365 16.5894L9.44938 13.6719C9.34485 13.5674 9.22076 13.4844 9.0842 13.4279C8.94763 13.3713 8.80126 13.3422 8.65344 13.3422C8.50562 13.3422 8.35925 13.3713 8.22268 13.4279C8.08611 13.4844 7.96202 13.5674 7.8575 13.6719C7.6464 13.883 7.52781 14.1693 7.52781 14.4678C7.52781 14.7663 7.6464 15.0527 7.8575 15.2638L11.57 18.9762C11.6742 19.0813 11.7982 19.1647 11.9348 19.2216C12.0714 19.2785 12.218 19.3078 12.3659 19.3078C12.5139 19.3078 12.6604 19.2785 12.797 19.2216C12.9337 19.1647 13.0576 19.0813 13.1619 18.9762L20.8494 11.2869C20.9553 11.1828 21.0396 11.0588 21.0973 10.9219C21.1551 10.7851 21.1851 10.6382 21.1858 10.4897C21.1865 10.3412 21.1578 10.194 21.1013 10.0567C21.0449 9.91934 20.9618 9.79453 20.8568 9.68945C20.7519 9.58438 20.6271 9.50113 20.4899 9.4445C20.3526 9.38786 20.2054 9.35897 20.0569 9.35949C19.9084 9.36 19.7615 9.38992 19.6246 9.4475C19.4877 9.50508 19.3636 9.5892 19.2594 9.695L12.365 16.5894Z" fill="#4CBF07"/>
</svg>
