<svg width="13" height="13" viewBox="0 0 13 13" fill="none" xmlns="http://www.w3.org/2000/svg">
<path opacity="0.6" fill-rule="evenodd" clip-rule="evenodd" d="M12.8 6.4C12.8 2.86544 9.93462 0 6.4 0C2.86538 0 0 2.86538 0 6.4C0 9.93462 2.86538 12.8 6.4 12.8C9.93462 12.8 12.8 9.93462 12.8 6.4ZM1.34737 6.4C1.34737 3.60956 3.60956 1.34737 6.4 1.34737C9.19044 1.34737 11.4526 3.60956 11.4526 6.4C11.4526 9.19044 9.19044 11.4526 6.4 11.4526C3.60956 11.4526 1.34737 9.19044 1.34737 6.4ZM8.89744 7.94466L7.35278 6.4L8.89744 4.85534C9.1606 4.59218 9.1606 4.16571 8.89744 3.90256C8.63429 3.6394 8.20782 3.6394 7.94466 3.90256L6.4 5.44722L4.85534 3.90256C4.59218 3.6394 4.16571 3.6394 3.90256 3.90256C3.6394 4.16571 3.6394 4.59218 3.90256 4.85534L5.44722 6.4L3.90256 7.94466C3.6394 8.20782 3.6394 8.63429 3.90256 8.89744C4.16571 9.1606 4.59218 9.1606 4.85534 8.89744L6.4 7.35278L7.94466 8.89744C8.20782 9.1606 8.63429 9.1606 8.89744 8.89744C9.1606 8.63429 9.1606 8.20782 8.89744 7.94466Z" fill="black"/>
</svg>
