<svg width="96" height="40" viewBox="0 0 96 40" fill="none" xmlns="http://www.w3.org/2000/svg">
<rect width="96" height="40" rx="8" fill="black" fill-opacity="0.6"/>
<path d="M49.728 25L47.726 22.13C47.642 22.1393 47.516 22.144 47.348 22.144H45.136V25H43.316V15.2H47.348C48.1973 15.2 48.9347 15.34 49.56 15.62C50.1947 15.9 50.68 16.3013 51.016 16.824C51.352 17.3467 51.52 17.9673 51.52 18.686C51.52 19.4233 51.338 20.058 50.974 20.59C50.6193 21.122 50.106 21.5187 49.434 21.78L51.688 25H49.728ZM49.686 18.686C49.686 18.0607 49.4807 17.58 49.07 17.244C48.6593 16.908 48.0573 16.74 47.264 16.74H45.136V20.646H47.264C48.0573 20.646 48.6593 20.478 49.07 20.142C49.4807 19.7967 49.686 19.3113 49.686 18.686ZM60.4162 21.304C60.4162 21.4253 60.4069 21.598 60.3882 21.822H54.5222C54.6249 22.3727 54.8909 22.8113 55.3202 23.138C55.7589 23.4553 56.3002 23.614 56.9442 23.614C57.7656 23.614 58.4422 23.3433 58.9742 22.802L59.9122 23.88C59.5762 24.2813 59.1516 24.5847 58.6382 24.79C58.1249 24.9953 57.5462 25.098 56.9022 25.098C56.0809 25.098 55.3576 24.9347 54.7322 24.608C54.1069 24.2813 53.6216 23.8287 53.2762 23.25C52.9402 22.662 52.7722 21.9993 52.7722 21.262C52.7722 20.534 52.9356 19.8807 53.2622 19.302C53.5982 18.714 54.0602 18.2567 54.6482 17.93C55.2362 17.6033 55.8989 17.44 56.6362 17.44C57.3642 17.44 58.0129 17.6033 58.5822 17.93C59.1609 18.2473 59.6089 18.7 59.9262 19.288C60.2529 19.8667 60.4162 20.5387 60.4162 21.304ZM56.6362 18.84C56.0762 18.84 55.6002 19.008 55.2082 19.344C54.8256 19.6707 54.5922 20.1093 54.5082 20.66H58.7502C58.6756 20.1187 58.4469 19.68 58.0642 19.344C57.6816 19.008 57.2056 18.84 56.6362 18.84ZM66.5912 24.594C66.3859 24.762 66.1339 24.888 65.8352 24.972C65.5459 25.056 65.2379 25.098 64.9112 25.098C64.0899 25.098 63.4552 24.8833 63.0072 24.454C62.5592 24.0247 62.3352 23.3993 62.3352 22.578V18.98H61.1032V17.58H62.3352V15.872H64.0852V17.58H66.0872V18.98H64.0852V22.536C64.0852 22.9 64.1739 23.18 64.3512 23.376C64.5286 23.5627 64.7852 23.656 65.1212 23.656C65.5132 23.656 65.8399 23.5533 66.1012 23.348L66.5912 24.594ZM69.6968 18.616C70.2008 17.832 71.0875 17.44 72.3568 17.44V19.106C72.2075 19.078 72.0721 19.064 71.9508 19.064C71.2695 19.064 70.7375 19.2647 70.3548 19.666C69.9721 20.058 69.7808 20.6273 69.7808 21.374V25H68.0308V17.524H69.6968V18.616ZM81.1148 17.524L77.6148 25.602C77.2881 26.414 76.8915 26.9833 76.4248 27.31C75.9581 27.646 75.3935 27.814 74.7308 27.814C74.3575 27.814 73.9888 27.7533 73.6248 27.632C73.2608 27.5107 72.9621 27.3427 72.7288 27.128L73.4288 25.84C73.5968 25.9987 73.7928 26.1247 74.0168 26.218C74.2501 26.3113 74.4835 26.358 74.7168 26.358C75.0248 26.358 75.2768 26.2787 75.4728 26.12C75.6781 25.9613 75.8648 25.6953 76.0328 25.322L76.1588 25.028L72.8968 17.524H74.7168L77.0688 23.054L79.4348 17.524H81.1148Z" fill="white"/>
<path d="M20 27.7764C20.5801 27.7764 20.9756 27.3809 20.9756 26.7832V18.6709L20.8877 16.8252L23.1992 19.3564L25.001 21.1318C25.1768 21.3076 25.4229 21.4219 25.7041 21.4219C26.2402 21.4219 26.6445 21.0176 26.6445 20.4639C26.6445 20.209 26.5391 19.9629 26.3281 19.752L20.7295 14.2148C20.5801 14.0654 20.4043 13.96 20.2021 13.916H25.7832C26.3369 13.916 26.7412 13.5117 26.7412 12.958C26.7412 12.4043 26.3369 12 25.7832 12H14.1992C13.6543 12 13.2588 12.4043 13.2588 12.958C13.2588 13.5117 13.6543 13.916 14.1992 13.916H19.7979C19.5957 13.96 19.4199 14.0654 19.2705 14.2148L13.6807 19.752C13.4697 19.9629 13.3643 20.209 13.3643 20.4639C13.3643 21.0176 13.7598 21.4219 14.3047 21.4219C14.5771 21.4219 14.8232 21.3076 15.0078 21.1318L16.8008 19.3564L19.1123 16.8164L19.0156 18.6709V26.7832C19.0156 27.3809 19.4199 27.7764 20 27.7764Z" fill="white"/>
</svg>
