<svg width="13" height="15" viewBox="0 0 13 15" fill="none" xmlns="http://www.w3.org/2000/svg">
<path d="M6.31546 14.78C6.85891 14.78 7.22944 14.4095 7.22944 13.8496V6.24959L7.1471 4.52046L9.31263 6.89184L11.0006 8.55511C11.1653 8.71979 11.3958 8.82683 11.6593 8.82683C12.1616 8.82683 12.5404 8.44807 12.5404 7.92933C12.5404 7.69054 12.4415 7.45999 12.2439 7.26237L6.99889 2.07496C6.85891 1.93499 6.69423 1.83618 6.50485 1.79501H11.7334C12.2522 1.79501 12.6309 1.41625 12.6309 0.897504C12.6309 0.378763 12.2522 0 11.7334 0H0.881036C0.370529 0 0 0.378763 0 0.897504C0 1.41625 0.370529 1.79501 0.881036 1.79501H6.12608C5.9367 1.83618 5.77202 1.93499 5.63204 2.07496L0.395231 7.26237C0.197616 7.45999 0.0988078 7.69054 0.0988078 7.92933C0.0988078 8.44807 0.469337 8.82683 0.979844 8.82683C1.2351 8.82683 1.46565 8.71979 1.63856 8.55511L3.3183 6.89184L5.48383 4.51222L5.39326 6.24959V13.8496C5.39326 14.4095 5.77202 14.78 6.31546 14.78Z" fill="#333333"/>
</svg>
