<svg width="21" height="21" viewBox="0 0 21 21" fill="none" xmlns="http://www.w3.org/2000/svg">
<path fill-rule="evenodd" clip-rule="evenodd" d="M0 10.5C0 4.71067 4.71092 0 10.5 0C16.2891 0 21 4.71092 21 10.5C21 16.2893 16.2891 21 10.5 21C4.71067 21 0 16.2891 0 10.5ZM9.66178 14.094L15.6524 8.43285C15.9898 8.09665 15.9898 7.56422 15.6805 7.25578C15.3711 6.91955 14.8366 6.91955 14.4992 7.22781L9.09921 12.3284L6.53974 9.69401C6.23039 9.35779 5.69589 9.32982 5.35845 9.66604C5.02102 9.97429 4.99295 10.5069 5.33038 10.8431L8.48049 14.0659C8.62104 14.2341 8.84618 14.3182 9.07113 14.3182C9.29609 14.3182 9.49297 14.2341 9.66178 14.094Z" fill="white"/>
</svg>
