<svg width="15" height="14" viewBox="0 0 15 14" fill="none" xmlns="http://www.w3.org/2000/svg">
<path fill-rule="evenodd" clip-rule="evenodd" d="M3.83009 0C3.02646 0 2.25575 0.319241 1.68749 0.887494C1.11924 1.45575 0.799999 2.22646 0.799999 3.03009V4.16435C0.799999 4.36633 0.880236 4.56004 1.02306 4.70287C1.16588 4.84569 1.35959 4.92593 1.56157 4.92593C1.76356 4.92593 1.95726 4.84569 2.10009 4.70287C2.24291 4.56004 2.32315 4.36633 2.32315 4.16435V3.03009C2.32315 2.63043 2.48191 2.24713 2.76452 1.96452C3.04713 1.68192 3.43043 1.52315 3.83009 1.52315H4.96435C5.16633 1.52315 5.36004 1.44291 5.50286 1.30009C5.64569 1.15727 5.72592 0.963556 5.72592 0.761574C5.72592 0.559592 5.64569 0.365883 5.50286 0.22306C5.36004 0.0802372 5.16633 0 4.96435 0H3.83009ZM10.6356 0C10.4337 0 10.24 0.0802371 10.0971 0.22306C9.95431 0.365883 9.87407 0.559592 9.87407 0.761574C9.87407 0.963556 9.95431 1.15727 10.0971 1.30009C10.24 1.44291 10.4337 1.52315 10.6356 1.52315H11.7699C12.1696 1.52315 12.5529 1.68192 12.8355 1.96452C13.1181 2.24713 13.2769 2.63043 13.2769 3.03009V4.16435C13.2769 4.36633 13.3571 4.56004 13.4999 4.70287C13.6427 4.84569 13.8364 4.92593 14.0384 4.92593C14.2404 4.92593 14.4341 4.84569 14.5769 4.70287C14.7198 4.56004 14.8 4.36633 14.8 4.16435V3.03009C14.8 2.22646 14.4808 1.45575 13.9125 0.887494C13.3443 0.319241 12.5735 0 11.7699 0H10.6356ZM4.39722 6.23843C4.19524 6.23843 4.00153 6.31866 3.85871 6.46149C3.71588 6.60431 3.63565 6.79802 3.63565 7C3.63565 7.20198 3.71588 7.39569 3.85871 7.53851C4.00153 7.68134 4.19524 7.76157 4.39722 7.76157H11.2028C11.4048 7.76157 11.5985 7.68134 11.7413 7.53851C11.8841 7.39569 11.9644 7.20198 11.9644 7C11.9644 6.79802 11.8841 6.60431 11.7413 6.46149C11.5985 6.31866 11.4048 6.23843 11.2028 6.23843H4.39722ZM1.56157 9.07407C1.35959 9.07407 1.16588 9.15431 1.02306 9.29713C0.880236 9.43996 0.799999 9.63367 0.799999 9.83565V10.9699C0.799999 11.7735 1.11924 12.5443 1.68749 13.1125C2.25575 13.6808 3.02646 14 3.83009 14H4.96435C5.16633 14 5.36004 13.9198 5.50286 13.7769C5.64569 13.6341 5.72592 13.4404 5.72592 13.2384C5.72592 13.0364 5.64569 12.8427 5.50286 12.6999C5.36004 12.5571 5.16633 12.4769 4.96435 12.4769H3.83009C3.43043 12.4769 3.04713 12.3181 2.76452 12.0355C2.48191 11.7529 2.32315 11.3696 2.32315 10.9699V9.83565C2.32315 9.63367 2.24291 9.43996 2.10009 9.29713C1.95726 9.15431 1.76355 9.07407 1.56157 9.07407ZM14.0384 9.07407C13.8364 9.07407 13.6427 9.15431 13.4999 9.29713C13.3571 9.43996 13.2769 9.63367 13.2769 9.83565V10.9699C13.2769 11.3696 13.1181 11.7529 12.8355 12.0355C12.5529 12.3181 12.1696 12.4769 11.7699 12.4769H10.6356C10.4337 12.4769 10.24 12.5571 10.0971 12.6999C9.95431 12.8427 9.87407 13.0364 9.87407 13.2384C9.87407 13.4404 9.95431 13.6341 10.0971 13.7769C10.24 13.9198 10.4337 14 10.6356 14H11.7699C12.5735 14 13.3443 13.6808 13.9125 13.1125C14.4808 12.5443 14.8 11.7735 14.8 10.9699V9.83565C14.8 9.63367 14.7198 9.43996 14.5769 9.29713C14.4341 9.15431 14.2404 9.07407 14.0384 9.07407Z" fill="black"/>
</svg>
