<?xml version="1.0" encoding="UTF-8"?>
<svg width="18px" height="18px" viewBox="0 0 18 18" version="1.1" xmlns="http://www.w3.org/2000/svg" xmlns:xlink="http://www.w3.org/1999/xlink">
    <title>B9B25776-783A-436B-8777-F704253B2EA9</title>
    <g id="Page-1" stroke="none" stroke-width="1" fill="none" fill-rule="evenodd">
        <g id="3-Episode-Physician-Contacts" transform="translate(-33.000000, -121.000000)" fill="#B8E1D8" fill-rule="nonzero">
            <g id="Group-72" transform="translate(18.000000, 106.000000)">
                <path d="M22.588275,15.5555556 C26.4630148,15.5555556 29.6209945,18.5962985 29.6209945,22.3436922 C29.6209945,23.8615841 29.0993025,25.3020083 28.1672266,26.4721368 L27.9753726,26.7025015 L27.873,26.814 L32.2273388,31.1748113 C32.4709448,31.4191982 32.5086956,31.785951 32.3445522,32.0685872 L32.2823656,32.1594006 L32.2052564,32.2422837 C32.062657,32.3739272 31.8772043,32.4444444 31.6863692,32.4444444 C31.5251717,32.4444444 31.3679172,32.3943601 31.2378097,32.3001492 L31.1456816,32.2213104 L26.745,27.814 L26.5804123,27.9290617 C25.5912231,28.5900176 24.4422687,28.9972099 23.2296117,29.1037617 L22.8973798,29.1253321 L22.588275,29.1318288 C18.7135353,29.1318288 15.5555556,26.0910858 15.5555556,22.3436922 C15.5555556,18.5962985 18.7135353,15.5555556 22.588275,15.5555556 Z M22.588275,17.0486056 C19.54313,17.0486056 17.0718992,19.4280945 17.0718992,22.3436922 C17.0718992,25.2592899 19.54313,27.6387788 22.588275,27.6387788 C25.6332182,27.6387788 28.1046509,25.2591819 28.1046509,22.3436922 C28.1046509,19.4280945 25.6334201,17.0486056 22.588275,17.0486056 Z" id="Shape"></path>
            </g>
        </g>
    </g>
</svg>