<svg width="30" height="30" viewBox="0 0 30 30" fill="none" xmlns="http://www.w3.org/2000/svg">
<path id="Shape" fill-rule="evenodd" clip-rule="evenodd" d="M15 0C23.2843 0 30 6.71573 30 15C30 23.2843 23.2843 30 15 30C6.71573 30 0 23.2843 0 15C0 6.71573 6.71573 0 15 0ZM15 22.5C15.5178 22.5 15.9375 22.0803 15.9375 21.5625V10.7006L19.9613 14.7262C20.3278 15.0928 20.9222 15.0928 21.2887 14.7262C21.6553 14.3597 21.6553 13.7653 21.2887 13.3988L15.6637 7.77375C15.4879 7.59742 15.2491 7.49833 15 7.49833C14.7509 7.49833 14.5121 7.59742 14.3363 7.77375L8.71125 13.3988C8.34467 13.7653 8.34467 14.3597 8.71125 14.7262C9.07783 15.0928 9.67217 15.0928 10.0387 14.7262L14.0625 10.7006V21.5625C14.0625 22.0803 14.4822 22.5 15 22.5Z" fill="#1AA99C"/>
</svg>
