<svg width="279" height="38" viewBox="0 0 279 38" fill="none" xmlns="http://www.w3.org/2000/svg">
<path d="M66.2761 11.2239C67.6874 11.0011 69.1152 10.8971 70.5442 10.913C72.5788 10.913 74.0644 11.337 75.0372 12.1487C75.5216 12.5607 75.9069 13.0744 76.1651 13.6524C76.4234 14.2304 76.548 14.8581 76.5299 15.4897C76.5603 16.1171 76.4608 16.7441 76.2374 17.332C76.014 17.92 75.6715 18.4566 75.2309 18.9089C74.1097 20.0077 72.3839 20.5335 70.4061 20.5335C69.9488 20.5434 69.4916 20.5079 69.0415 20.4274V26.1239H66.2761V11.2239ZM69.0422 18.2601C69.4904 18.3582 69.9492 18.4004 70.408 18.3857C72.4904 18.3857 73.7616 17.3577 73.7616 15.5907C73.7616 13.9264 72.5854 13.0321 70.6563 13.0321C70.1152 13.0224 69.5746 13.0667 69.0426 13.1643L69.0422 18.2601Z" fill="white"/>
<path d="M83.2077 11.0308H80.4189V26.1239H83.2077V11.0308Z" fill="white"/>
<path d="M87.8346 23.1167C88.9635 23.7372 90.2316 24.068 91.523 24.0789C93.3004 24.0789 94.2957 23.2525 94.2957 22.0178C94.2957 20.8797 93.523 20.2064 91.5928 19.5136C89.0724 18.6295 87.462 17.292 87.462 15.1288C87.462 12.6561 89.5515 10.7966 92.8613 10.7966C94.1226 10.7604 95.375 11.016 96.5189 11.543L95.8508 13.7671C94.9074 13.2902 93.8621 13.0445 92.8027 13.0505C91.0335 13.0505 90.2823 13.9823 90.2823 14.8696C90.2823 16.0276 91.166 16.5713 93.2013 17.3401C95.8519 18.342 97.126 19.6568 97.126 21.8265C97.126 24.2541 95.2778 26.3603 91.3404 26.3603C89.7252 26.3603 88.0499 25.9058 87.2156 25.4014L87.8346 23.1167Z" fill="white"/>
<path d="M114.672 18.4253C114.672 23.4794 111.574 26.3695 107.37 26.3695C103.061 26.3695 100.332 23.1133 100.332 18.6933C100.332 14.06 103.292 10.7844 107.596 10.7844C112.046 10.7844 114.672 14.1107 114.672 18.4253ZM103.275 18.6368C103.275 21.7167 104.848 24.1633 107.513 24.1633C110.204 24.1633 111.729 21.6848 111.729 18.5281C111.729 15.6788 110.3 12.9891 107.519 12.9891C104.76 12.9891 103.275 15.5363 103.275 18.6368Z" fill="white"/>
<path d="M118.548 11.2367C120.02 11.0145 121.506 10.906 122.995 10.9121C125.858 10.9121 127.809 11.4995 129.212 12.6568C130.697 13.8496 131.603 15.6486 131.603 18.2105C131.603 20.9148 130.67 22.915 129.228 24.2154C127.697 25.5738 125.283 26.2714 122.318 26.2714C121.058 26.2832 119.799 26.2167 118.548 26.0724V11.2367ZM121.335 24.0197C121.85 24.0819 122.369 24.1065 122.888 24.0931C126.507 24.1133 128.661 22.1256 128.661 18.3052C128.675 14.9752 126.737 13.0551 123.235 13.0551C122.598 13.0452 121.961 13.099 121.335 13.2155V24.0197Z" fill="white"/>
<path d="M144.037 19.4275H138.287V23.8552H144.716V26.1234H135.499V11.0303H144.381V13.2985H138.287V17.1777H144.037V19.4275Z" fill="white"/>
<path d="M155.915 23.1166C157.044 23.7373 158.311 24.0681 159.603 24.0789C161.381 24.0789 162.375 23.2525 162.375 22.0178C162.375 20.8797 161.604 20.2063 159.672 19.5135C157.152 18.6295 155.543 17.292 155.543 15.1288C155.543 12.6561 157.632 10.7966 160.941 10.7966C162.203 10.7605 163.455 11.0161 164.6 11.543L163.931 13.7671C162.988 13.2902 161.943 13.0444 160.883 13.0504C159.114 13.0504 158.363 13.9822 158.363 14.8696C158.363 16.0276 159.245 16.5713 161.281 17.3401C163.933 18.342 165.207 19.6567 165.207 21.8265C165.207 24.254 163.358 26.3603 159.42 26.3603C157.805 26.3603 156.13 25.9058 155.297 25.4014L155.915 23.1166Z" fill="white"/>
<path d="M182.752 18.4253C182.752 23.4794 179.655 26.3695 175.451 26.3695C171.142 26.3695 168.413 23.1133 168.413 18.6933C168.413 14.06 171.373 10.7844 175.676 10.7844C180.13 10.7844 182.752 14.1107 182.752 18.4253ZM171.356 18.6368C171.356 21.7167 172.929 24.1633 175.593 24.1633C178.284 24.1633 179.809 21.6848 179.809 18.5281C179.809 15.6788 178.38 12.9891 175.6 12.9891C172.842 12.9891 171.356 15.5363 171.356 18.6368Z" fill="white"/>
<path d="M186.631 11.03H189.42V23.8101H195.692V26.1231H186.631V11.03Z" fill="white"/>
<path d="M200.91 11.0295V19.8295C200.91 22.7784 202.147 24.1533 204.036 24.1533C206.043 24.1533 207.25 22.7919 207.25 19.8295V11.0295H210.038V19.6507C210.038 24.2998 207.621 26.3693 203.935 26.3693C200.416 26.3693 198.122 24.4154 198.122 19.6669V11.0295H200.91Z" fill="white"/>
<path d="M217.631 13.3467H213.275V11.03H224.818V13.3467H220.42V26.1231H217.631L217.631 13.3467Z" fill="white"/>
<path d="M230.864 11.0308H228.076V26.1239H230.864V11.0308Z" fill="white"/>
<path d="M249.089 18.4253C249.089 23.4794 245.991 26.3695 241.787 26.3695C237.478 26.3695 234.749 23.1133 234.749 18.6933C234.749 14.06 237.709 10.7844 242.013 10.7844C246.466 10.7844 249.089 14.1107 249.089 18.4253ZM237.692 18.6368C237.692 21.7167 239.265 24.1633 241.929 24.1633C244.621 24.1633 246.146 21.6848 246.146 18.5281C246.146 15.6788 244.717 12.9891 241.936 12.9891C239.178 12.9891 237.692 15.5363 237.692 18.6368Z" fill="white"/>
<path d="M252.968 26.1239V11.0308H256.153L260.094 17.5086C261.074 19.1354 261.941 20.8253 262.692 22.567L262.747 22.5534C262.55 20.5488 262.498 18.6041 262.498 16.2974V11.0308H265.074V26.1239H262.185L258.204 19.4834C257.193 17.8006 256.28 16.0622 255.468 14.2766L255.396 14.2913C255.508 16.2529 255.545 18.245 255.545 20.7236V26.1239H252.968Z" fill="white"/>
<path d="M269.707 23.1166C270.835 23.7373 272.103 24.0681 273.394 24.0789C275.173 24.0789 276.167 23.2525 276.167 22.0178C276.167 20.8797 275.395 20.2063 273.464 19.5135C270.943 18.6295 269.334 17.292 269.334 15.1288C269.334 12.6561 271.424 10.7966 274.732 10.7966C275.994 10.7605 277.247 11.0161 278.391 11.5429L277.723 13.7671C276.78 13.2902 275.734 13.0444 274.675 13.0504C272.906 13.0504 272.154 13.9822 272.154 14.8696C272.154 16.0276 273.037 16.5713 275.072 17.3401C277.724 18.342 278.999 19.6567 278.999 21.8265C278.999 24.254 277.149 26.3603 273.212 26.3603C271.597 26.3603 269.921 25.9058 269.088 25.4013L269.707 23.1166Z" fill="white"/>
<path d="M19.2063 37.9989C15.4075 37.9991 11.6939 36.8848 8.53519 34.7971C5.3765 32.7094 2.91456 29.742 1.46074 26.2701C0.00690733 22.7983 -0.373519 18.9779 0.367566 15.2922C1.10865 11.6064 2.93796 8.22084 5.62416 5.56357C8.31036 2.9063 11.7328 1.09669 15.4587 0.363591C19.1845 -0.369512 23.0465 0.00681716 26.5562 1.44499C30.0658 2.88316 33.0655 5.31857 35.176 8.44325C37.2864 11.5679 38.4128 15.2415 38.4127 18.9995C38.407 24.0367 36.3816 28.866 32.781 32.4279C29.1803 35.9897 24.2984 37.9933 19.2063 37.9989ZM19.2063 2.82698C15.9726 2.82677 12.8115 3.77514 10.1226 5.55219C7.43381 7.32923 5.33806 9.85512 4.10042 12.8104C2.86278 15.7658 2.53884 19.0178 3.16957 22.1552C3.8003 25.2926 5.35737 28.1746 7.64387 30.4366C9.93037 32.6986 12.8436 34.2391 16.0152 34.8633C19.1867 35.4874 22.4741 35.1672 25.4617 33.9431C28.4493 32.719 31.0028 30.646 32.7994 27.9862C34.596 25.3265 35.5549 22.1994 35.5549 19.0006C35.5503 14.7127 33.8264 10.6017 30.7615 7.56955C27.6966 4.53743 23.5409 2.83184 19.2063 2.82698Z" fill="white"/>
<path d="M17.4829 26.0347V20.3918H24.3489V17.4022H17.4829V11.9153H26.0279V8.88159H14.0358V17.4022H7.20239V20.3918H14.035V29.0684H26.0279V26.0347H17.4829Z" fill="white"/>
</svg>
