<svg width="45" height="45" viewBox="0 0 45 45" fill="none" xmlns="http://www.w3.org/2000/svg">
<circle cx="22.5" cy="22.5" r="22.5" fill="#1C1C1C"/>
<path d="M34.723 21.3565H33.2899C32.6859 16.1664 28.1817 12 22.7562 12C19.7568 12 17.0338 13.3103 15.1502 15.3577C14.6486 15.849 14.6691 16.5042 15.0786 16.883C15.4983 17.272 16.1023 17.272 16.6141 16.8011C18.1394 15.1529 20.3301 14.119 22.7562 14.119C27.0761 14.119 30.5669 17.2822 31.1504 21.3565H29.5842C28.7959 21.3565 28.5809 21.94 29.0416 22.5746L31.4882 26.0347C31.867 26.5465 32.4402 26.5568 32.8088 26.0347L35.2656 22.5849C35.7263 21.94 35.5215 21.3565 34.723 21.3565ZM10.7893 23.8235H12.2327C12.8367 29.0136 17.3409 33.18 22.7562 33.18C25.7761 33.18 28.499 31.8594 30.3826 29.8121C30.874 29.3207 30.8535 28.6656 30.444 28.2868C30.0243 27.8978 29.4306 27.8978 28.9085 28.3789C27.4037 30.0271 25.213 31.061 22.7562 31.061C18.4465 31.061 14.9557 27.8978 14.3722 23.8235H15.9282C16.7062 23.8235 16.9314 23.24 16.4708 22.6054L14.0139 19.1453C13.6454 18.6335 13.0721 18.6232 12.7036 19.1453L10.2468 22.5951C9.77589 23.24 9.99086 23.8235 10.7893 23.8235Z" fill="white"/>
</svg>
