<svg width="14" height="14" viewBox="0 0 14 14" fill="none" xmlns="http://www.w3.org/2000/svg">
<path d="M1 4V13H10V4H1ZM0.5 3H10.5C10.6326 3 10.7598 3.05268 10.8536 3.14645C10.9473 3.24021 11 3.36739 11 3.5V13.5C11 13.6326 10.9473 13.7598 10.8536 13.8536C10.7598 13.9473 10.6326 14 10.5 14H0.5C0.367392 14 0.240215 13.9473 0.146447 13.8536C0.0526784 13.7598 0 13.6326 0 13.5V3.5C0 3.36739 0.0526784 3.24021 0.146447 3.14645C0.240215 3.05268 0.367392 3 0.5 3ZM14 0.5V11.5C14 11.6326 13.9473 11.7598 13.8536 11.8536C13.7598 11.9473 13.6326 12 13.5 12H12V11H13V1H5V2H4V0.5C4 0.367392 4.05268 0.240215 4.14645 0.146447C4.24021 0.0526784 4.36739 0 4.5 0H13.5C13.6326 0 13.7598 0.0526784 13.8536 0.146447C13.9473 0.240215 14 0.367392 14 0.5ZM3 9.5H8V10.5H3V9.5ZM3 6.5H8V7.5H3V6.5Z" fill="black"/>
</svg>
