<?xml version="1.0" encoding="UTF-8"?>
<svg width="21px" height="20px" viewBox="0 0 21 20" version="1.1" xmlns="http://www.w3.org/2000/svg" xmlns:xlink="http://www.w3.org/1999/xlink">
    <title>85743FCF-99A2-4568-A04A-A0B59EC91EA2</title>
    <g id="Page-1" stroke="none" stroke-width="1" fill="none" fill-rule="evenodd">
        <g id="1-Episode-Home" transform="translate(-17.000000, -119.000000)">
            <g id="Group-19" transform="translate(16.000000, 116.000000)">
                <g id="Group-3" transform="translate(1.000000, 0.000000)">
                    <g id="Group-11" transform="translate(0.000000, 3.000000)">
                        <path d="M1.89106888,12.0173085 C3.4840966,11.6205608 4.78007717,11.6205608 5.7790106,12.0173085 C6.77794402,12.4140561 8.28088548,13.5257075 10.287835,15.3522627 C12.031943,13.3255081 13.4736613,12.1068045 14.6129897,11.696152 C15.7523181,11.2854996 17.3948039,11.3925517 19.540447,12.0173085 L19.540447,18.6872169 L1.03522296,18.6872169 L1.89106888,12.0173085 Z" id="Rectangle" fill="#FB8461"></path>
                        <g id="noun-inbox-empty-2956093" fill="#000000" fill-rule="nonzero">
                            <path d="M19.6432515,19.5559352 L0.956869929,19.5559352 C0.708948824,19.5559352 0.471350757,19.4573938 0.296163427,19.2822065 C0.120976097,19.1070192 0.0224347253,18.8694051 0.0224347253,18.6215 L0.0224347253,11.1471075 C0.0224347253,10.8991864 0.120976097,10.6615883 0.296163427,10.486401 C0.471350757,10.3112137 0.708964841,10.2126723 0.956869929,10.2126723 L6.56286449,10.2126723 C6.81062943,10.2126723 7.04822349,10.3112137 7.22341082,10.486401 C7.39875432,10.6615883 7.49713953,10.8992024 7.49713953,11.1471075 C7.49713953,12.1484983 8.03147089,13.0738478 8.89863817,13.5745432 C9.76580544,14.0752386 10.8344682,14.0752386 11.7016354,13.5745432 C12.5688027,13.0738478 13.1031341,12.1484983 13.1031341,11.1471075 C13.1031341,10.8991864 13.2015193,10.6615883 13.3768628,10.486401 C13.5520501,10.3112137 13.7896642,10.2126723 14.0374091,10.2126723 L19.6434037,10.2126723 C19.8913248,10.2126723 20.1289229,10.3112137 20.3041102,10.486401 C20.4792975,10.6615883 20.5778389,10.8992024 20.5778389,11.1471075 L20.5778389,18.6219004 L20.5778389,18.621744 C20.5778389,18.8696651 20.4792975,19.1072631 20.3041102,19.2824505 C20.1289229,19.4576378 19.8913088,19.5561792 19.6434037,19.5561792 L19.6432515,19.5559352 Z M1.89106888,17.6872169 L18.7090526,17.6872169 L18.7090526,12.0812224 L14.8782362,12.0812224 C14.5901161,13.5002598 13.6602138,14.7054285 12.3607042,15.3442316 C11.0611946,15.9828745 9.53892684,15.9828745 8.23949734,15.3442316 C6.93998776,14.7054285 6.01007339,13.5002197 5.72196531,12.0812224 L1.89106888,12.0812224 L1.89106888,17.6872169 Z" id="Shape"></path>
                            <path d="M7.34486069,14.7656529 C6.51052853,14.0846046 5.93727554,13.1362706 5.72188522,12.0810622 L0.956789844,12.0810622 C0.669138254,12.0826264 0.396991244,11.9517039 0.218640531,11.7259945 C0.0317206549,11.5032563 -0.0408569533,11.2062387 0.0223386225,10.9224953 L2.8253359,0.710506206 C2.8764826,0.503252587 2.99723972,0.319620227 3.16710937,0.190430082 C3.33713518,0.0612279243 3.54626681,-0.00571565936 3.75978312,0.00038286187 L16.8401702,0.00038286187 C17.0536785,-0.00571726107 17.2628221,0.0612279243 17.4328439,0.190430082 C17.6027135,0.319632239 17.7234667,0.5032646 17.7746174,0.710506206 L20.5776147,10.9224953 C20.6484704,11.2020142 20.586374,11.4984312 20.4093107,11.7259945 C20.2250496,11.9595242 19.9405294,12.0913852 19.6431714,12.0810622 L14.8780761,12.0810622 C14.6626897,13.1362706 14.0894328,14.0846046 13.2551006,14.7656529 C12.4207684,15.4467011 11.3768522,15.8186589 10.2999006,15.8183391 C9.22310913,15.8186514 8.17919285,15.4466931 7.34486069,14.7656529 Z M2.15294891,10.212344 L6.56286449,10.212344 C6.81062943,10.212344 7.04822349,10.3108853 7.22341082,10.4860727 C7.39875432,10.66126 7.49713953,10.8988741 7.49713953,11.1467792 C7.49713953,12.14817 8.03147089,13.0735195 8.89863817,13.5742149 C9.76580544,14.0749103 10.8344682,14.0749103 11.7016354,13.5742149 C12.5688027,13.0735195 13.1031341,12.14817 13.1031341,11.1467792 C13.1031341,10.8988581 13.2015193,10.66126 13.3768628,10.4860727 C13.5520501,10.3108853 13.7896642,10.212344 14.0374091,10.212344 L18.4473247,10.212344 L16.111547,1.86915316 L4.48831815,1.86915316 L2.15294891,10.212344 Z" id="Shape"></path>
                        </g>
                    </g>
                </g>
            </g>
        </g>
    </g>
</svg>