<svg width="20" height="22" viewBox="0 0 20 22" fill="none" xmlns="http://www.w3.org/2000/svg">
<g id="Document">
<g id="Stroke 4">
<path fill-rule="evenodd" clip-rule="evenodd" d="M1.10986 11C1.10986 3.79705 3.42034 1.25 10.0009 1.25C16.582 1.25 18.8919 3.79662 18.8919 11L18.8902 11.3343C18.8186 18.2823 16.4792 20.75 10.0009 20.75C3.42034 20.75 1.10986 18.2029 1.10986 11ZM17.7354 8.1197C17.1766 3.71196 15.0381 2.25 10.0009 2.25L9.71349 2.25163C4.88247 2.30733 2.81457 3.79704 2.2664 8.11985L2.20885 8.64157C2.2004 8.73073 2.19252 8.821 2.18519 8.91239L2.14783 9.47428L2.12336 10.0636C2.11428 10.3651 2.10986 10.6772 2.10986 11L2.11134 11.3192C2.11333 11.5297 2.11731 11.7354 2.12336 11.9364L2.14783 12.5257L2.18519 13.0876C2.19252 13.179 2.2004 13.2693 2.20885 13.3584L2.2664 13.8801C2.82532 18.2877 4.96415 19.75 10.0009 19.75C15.0381 19.75 17.1766 18.288 17.7354 13.8803L17.7929 13.3586L17.8369 12.8102C17.8431 12.7165 17.8488 12.6217 17.8539 12.5258L17.8784 11.9365C17.8874 11.6349 17.8919 11.3228 17.8919 11L17.8904 10.6808C17.8884 10.4703 17.8844 10.2646 17.8784 10.0635L17.8539 9.47418C17.8488 9.37826 17.8431 9.28348 17.8369 9.18983L17.7929 8.64144L17.7354 8.1197Z" fill="#BEC3C2"/>
<path d="M18.8919 11L19.1919 11.0015V11H18.8919ZM18.8902 11.3343L19.1902 11.3373L19.1902 11.3358L18.8902 11.3343ZM10.0009 2.25V1.95L9.99916 1.95L10.0009 2.25ZM17.7354 8.1197L18.0336 8.08681L18.033 8.08197L17.7354 8.1197ZM9.71349 2.25163L9.71179 1.95163L9.71003 1.95165L9.71349 2.25163ZM2.2664 8.11985L1.96875 8.0821L1.96821 8.08695L2.2664 8.11985ZM2.20885 8.64157L1.91062 8.60867L1.91019 8.61327L2.20885 8.64157ZM2.18519 8.91239L1.88612 8.88842L1.88585 8.89249L2.18519 8.91239ZM2.14783 9.47428L1.84839 9.45437L1.84808 9.46183L2.14783 9.47428ZM2.12336 10.0636L1.8236 10.0511L1.8235 10.0545L2.12336 10.0636ZM2.10986 11H1.80986L1.80987 11.0014L2.10986 11ZM2.11134 11.3192L1.81134 11.3206L1.81136 11.3221L2.11134 11.3192ZM2.12336 11.9364L1.82348 11.9455L1.82362 11.9489L2.12336 11.9364ZM2.14783 12.5257L1.84799 12.5382L1.84849 12.5456L2.14783 12.5257ZM2.18519 13.0876L1.88582 13.1075L1.88615 13.1116L2.18519 13.0876ZM2.20885 13.3584L1.91015 13.3867L1.91066 13.3913L2.20885 13.3584ZM2.2664 13.8801L1.96817 13.913L1.96879 13.9179L2.2664 13.8801ZM17.7354 13.8803L18.033 13.918L18.0336 13.9132L17.7354 13.8803ZM17.7929 13.3586L18.0912 13.3915L18.0919 13.3825L17.7929 13.3586ZM17.8369 12.8102L18.1359 12.8341L18.1362 12.8301L17.8369 12.8102ZM17.8539 12.5258L18.1535 12.5419L18.1537 12.5383L17.8539 12.5258ZM17.8784 11.9365L18.1781 11.9489L18.1782 11.9455L17.8784 11.9365ZM17.8919 11H18.1919L18.1919 10.9986L17.8919 11ZM17.8904 10.6808L18.1904 10.6794L18.1904 10.6779L17.8904 10.6808ZM17.8784 10.0635L18.1783 10.0545L18.1781 10.0511L17.8784 10.0635ZM17.8539 9.47418L18.1537 9.46174L18.1535 9.45814L17.8539 9.47418ZM17.8369 9.18983L18.1362 9.16994L18.1359 9.16586L17.8369 9.18983ZM17.7929 8.64144L18.0921 8.61745L18.0911 8.60855L17.7929 8.64144ZM10.0009 0.95C6.68429 0.95 4.35285 1.58947 2.86589 3.22187C1.38625 4.84622 0.809863 7.38285 0.809863 11H1.40986C1.40986 7.4142 1.98871 5.07583 3.30945 3.62592C4.62285 2.18406 6.73691 1.55 10.0009 1.55V0.95ZM19.1919 11C19.1919 7.38266 18.6156 4.84602 17.1361 3.22171C15.6492 1.58935 13.3177 0.95 10.0009 0.95V1.55C13.2651 1.55 15.3792 2.18396 16.6925 3.62575C18.0132 5.0756 18.5919 7.41396 18.5919 11H19.1919ZM19.1902 11.3358L19.1919 11.0015L18.5919 10.9985L18.5902 11.3327L19.1902 11.3358ZM10.0009 21.05C13.2659 21.05 15.5761 20.4306 17.0661 18.8537C18.5508 17.2824 19.1542 14.8295 19.1901 11.3373L18.5902 11.3312C18.5546 14.7871 17.9525 17.042 16.63 18.4416C15.3128 19.8356 13.2142 20.45 10.0009 20.45V21.05ZM0.809863 11C0.809863 14.6171 1.38625 17.1538 2.86589 18.7781C4.35285 20.4105 6.68429 21.05 10.0009 21.05V20.45C6.73691 20.45 4.62285 19.8159 3.30945 18.3741C1.98871 16.9242 1.40986 14.5858 1.40986 11H0.809863ZM10.0009 2.55C12.5027 2.55 14.2146 2.91579 15.3687 3.7728C16.5098 4.62021 17.1634 5.99303 17.4377 8.15743L18.033 8.08197C17.7486 5.83862 17.0535 4.27659 15.7264 3.29109C14.4122 2.31519 12.5362 1.95 10.0009 1.95V2.55ZM9.71519 2.55163L10.0026 2.55L9.99916 1.95L9.71179 1.95164L9.71519 2.55163ZM2.56402 8.15759C2.83323 6.03458 3.46737 4.67354 4.5674 3.82289C5.67783 2.9642 7.32061 2.57924 9.71695 2.55161L9.71003 1.95165C7.27535 1.97972 5.46867 2.36747 4.20036 3.34825C2.92163 4.33709 2.24774 5.8823 1.96879 8.08211L2.56402 8.15759ZM2.50704 8.67447L2.56459 8.15274L1.96821 8.08695L1.91066 8.60868L2.50704 8.67447ZM2.48423 8.93637C2.49144 8.84638 2.4992 8.75755 2.50751 8.66987L1.91019 8.61327C1.9016 8.70391 1.89359 8.79563 1.88615 8.88842L2.48423 8.93637ZM2.44717 9.49418L2.48453 8.9323L1.88585 8.89249L1.84849 9.45437L2.44717 9.49418ZM2.4231 10.076L2.44757 9.48672L1.84808 9.46183L1.82362 10.0511L2.4231 10.076ZM2.40986 11C2.40986 10.6799 2.41424 10.3709 2.42323 10.0726L1.8235 10.0545C1.81432 10.3594 1.80986 10.6745 1.80986 11H2.40986ZM2.41134 11.3178L2.40986 10.9986L1.80987 11.0014L1.81135 11.3206L2.41134 11.3178ZM2.42323 11.9274C2.41724 11.7285 2.41329 11.5249 2.41133 11.3164L1.81136 11.3221C1.81336 11.5344 1.81738 11.7422 1.8235 11.9455L2.42323 11.9274ZM2.44757 12.5133L2.4231 11.924L1.82362 11.9489L1.84808 12.5382L2.44757 12.5133ZM2.48453 13.0677L2.44717 12.5058L1.84849 12.5456L1.88585 13.1075L2.48453 13.0677ZM2.50751 13.3301C2.4992 13.2425 2.49144 13.1536 2.48423 13.0636L1.88615 13.1116C1.89359 13.2044 1.9016 13.2961 1.91019 13.3867L2.50751 13.3301ZM2.56459 13.8473L2.50704 13.3255L1.91066 13.3913L1.96821 13.913L2.56459 13.8473ZM10.0009 19.45C7.49928 19.45 5.78744 19.0841 4.63332 18.2271C3.49212 17.3796 2.83847 16.0067 2.56402 13.8424L1.96879 13.9179C2.25325 16.1612 2.94848 17.7232 4.2756 18.7088C5.5898 19.6847 7.46573 20.05 10.0009 20.05V19.45ZM17.4377 13.8426C17.1634 16.007 16.5098 17.3798 15.3687 18.2272C14.2146 19.0842 12.5027 19.45 10.0009 19.45V20.05C12.5362 20.05 14.4122 19.6848 15.7264 18.7089C17.0535 17.7234 17.7486 16.1614 18.033 13.918L17.4377 13.8426ZM17.4947 13.3257L17.4372 13.8474L18.0336 13.9132L18.0911 13.3914L17.4947 13.3257ZM17.5378 12.7862L17.4939 13.3346L18.0919 13.3825L18.1359 12.8341L17.5378 12.7862ZM17.5543 12.5098C17.5493 12.6044 17.5437 12.6979 17.5375 12.7903L18.1362 12.8301C18.1425 12.7351 18.1483 12.639 18.1535 12.5419L17.5543 12.5098ZM17.5786 11.9241L17.5542 12.5134L18.1537 12.5383L18.1781 11.9489L17.5786 11.9241ZM17.5919 11C17.5919 11.3201 17.5875 11.6291 17.5785 11.9275L18.1782 11.9455C18.1874 11.6406 18.1919 11.3255 18.1919 11H17.5919ZM17.5904 10.6821L17.5919 11.0014L18.1919 10.9986L18.1904 10.6794L17.5904 10.6821ZM17.5785 10.0725C17.5845 10.2714 17.5884 10.4751 17.5904 10.6836L18.1904 10.6779C18.1884 10.4655 18.1844 10.2577 18.1782 10.0545L17.5785 10.0725ZM17.5542 9.48662L17.5786 10.0759L18.1781 10.0511L18.1537 9.46174L17.5542 9.48662ZM17.5375 9.20973C17.5437 9.30206 17.5493 9.39555 17.5543 9.49023L18.1535 9.45814C18.1483 9.36097 18.1425 9.26491 18.1362 9.16994L17.5375 9.20973ZM17.4939 8.66541L17.5378 9.21381L18.1359 9.16586L18.0919 8.61746L17.4939 8.66541ZM17.4372 8.15258L17.4947 8.67433L18.0911 8.60855L18.0336 8.08681L17.4372 8.15258Z" fill="#BEC3C2"/>
</g>
<path id="Stroke 1" d="M13.5955 13.9473C14.0097 13.9473 14.3455 14.2831 14.3455 14.6973C14.3455 15.077 14.0633 15.3908 13.6973 15.4404L13.5955 15.4473H6.37549C5.96127 15.4473 5.62549 15.1115 5.62549 14.6973C5.62549 14.3176 5.90764 14.0038 6.27372 13.9541L6.37549 13.9473H13.5955Z" fill="#BEC3C2"/>
<path id="Stroke 2" d="M13.5955 10.1855C14.0097 10.1855 14.3455 10.5213 14.3455 10.9355C14.3455 11.3152 14.0633 11.629 13.6973 11.6787L13.5955 11.6855H6.37549C5.96127 11.6855 5.62549 11.3498 5.62549 10.9355C5.62549 10.5559 5.90764 10.2421 6.27372 10.1924L6.37549 10.1855H13.5955Z" fill="#BEC3C2"/>
<path id="Stroke 3" d="M9.13098 6.42773C9.54519 6.42773 9.88098 6.76352 9.88098 7.17773C9.88098 7.55743 9.59882 7.87123 9.23275 7.92089L9.13098 7.92773H6.37598C5.96176 7.92773 5.62598 7.59195 5.62598 7.17773C5.62598 6.79804 5.90813 6.48424 6.27421 6.43458L6.37598 6.42773H9.13098Z" fill="#BEC3C2"/>
</g>
</svg>
