<svg width="20" height="22" viewBox="0 0 20 22" fill="none" xmlns="http://www.w3.org/2000/svg">
<g id="Document">
<g id="Group 16">
<path id="Path 8" fill-rule="evenodd" clip-rule="evenodd" d="M3 5.5C3 3.84315 4.34315 2.5 6 2.5H14.5C16.1569 2.5 17.5 3.84315 17.5 5.5V16C17.5 17.6569 16.1569 19 14.5 19H6C4.34315 19 3 17.6569 3 16V5.5Z" fill="#1AA99C" stroke="#1AA99C"/>
<g id="Stroke 4">
<mask id="path-2-outside-1_17_2802" maskUnits="userSpaceOnUse" x="0.109863" y="0.25" width="20" height="21" fill="black">
<rect fill="white" x="0.109863" y="0.25" width="20" height="21"/>
<path fill-rule="evenodd" clip-rule="evenodd" d="M1.10986 11C1.10986 3.79705 3.42034 1.25 10.0009 1.25C16.582 1.25 18.8919 3.79662 18.8919 11L18.8902 11.3343C18.8186 18.2823 16.4792 20.75 10.0009 20.75C3.42034 20.75 1.10986 18.2029 1.10986 11ZM17.7354 8.1197C17.1766 3.71196 15.0381 2.25 10.0009 2.25L9.71349 2.25163C4.88247 2.30733 2.81457 3.79704 2.2664 8.11985L2.20885 8.64157C2.2004 8.73073 2.19252 8.821 2.18519 8.91239L2.14783 9.47428L2.12336 10.0636C2.11428 10.3651 2.10986 10.6772 2.10986 11L2.11134 11.3192C2.11333 11.5297 2.11731 11.7354 2.12336 11.9364L2.14783 12.5257L2.18519 13.0876C2.19252 13.179 2.2004 13.2693 2.20885 13.3584L2.2664 13.8801C2.82532 18.2877 4.96415 19.75 10.0009 19.75C15.0381 19.75 17.1766 18.288 17.7354 13.8803L17.7929 13.3586L17.8369 12.8102C17.8431 12.7165 17.8488 12.6217 17.8539 12.5258L17.8784 11.9365C17.8874 11.6349 17.8919 11.3228 17.8919 11L17.8904 10.6808C17.8884 10.4703 17.8844 10.2646 17.8784 10.0635L17.8539 9.47418C17.8488 9.37826 17.8431 9.28348 17.8369 9.18983L17.7929 8.64144L17.7354 8.1197Z"/>
</mask>
<path fill-rule="evenodd" clip-rule="evenodd" d="M1.10986 11C1.10986 3.79705 3.42034 1.25 10.0009 1.25C16.582 1.25 18.8919 3.79662 18.8919 11L18.8902 11.3343C18.8186 18.2823 16.4792 20.75 10.0009 20.75C3.42034 20.75 1.10986 18.2029 1.10986 11ZM17.7354 8.1197C17.1766 3.71196 15.0381 2.25 10.0009 2.25L9.71349 2.25163C4.88247 2.30733 2.81457 3.79704 2.2664 8.11985L2.20885 8.64157C2.2004 8.73073 2.19252 8.821 2.18519 8.91239L2.14783 9.47428L2.12336 10.0636C2.11428 10.3651 2.10986 10.6772 2.10986 11L2.11134 11.3192C2.11333 11.5297 2.11731 11.7354 2.12336 11.9364L2.14783 12.5257L2.18519 13.0876C2.19252 13.179 2.2004 13.2693 2.20885 13.3584L2.2664 13.8801C2.82532 18.2877 4.96415 19.75 10.0009 19.75C15.0381 19.75 17.1766 18.288 17.7354 13.8803L17.7929 13.3586L17.8369 12.8102C17.8431 12.7165 17.8488 12.6217 17.8539 12.5258L17.8784 11.9365C17.8874 11.6349 17.8919 11.3228 17.8919 11L17.8904 10.6808C17.8884 10.4703 17.8844 10.2646 17.8784 10.0635L17.8539 9.47418C17.8488 9.37826 17.8431 9.28348 17.8369 9.18983L17.7929 8.64144L17.7354 8.1197Z" fill="#1AA99C"/>
<path d="M18.8919 11L19.2919 11.002V11H18.8919ZM18.8902 11.3343L19.2901 11.3384L19.2902 11.3363L18.8902 11.3343ZM10.0009 2.25V1.84999L9.99859 1.85001L10.0009 2.25ZM17.7354 8.1197L18.133 8.07584L18.1322 8.06939L17.7354 8.1197ZM9.71349 2.25163L9.71122 1.85163L9.70888 1.85166L9.71349 2.25163ZM2.2664 8.11985L1.86953 8.06952L1.86881 8.07599L2.2664 8.11985ZM2.20885 8.64157L1.81121 8.59771L1.81063 8.60384L2.20885 8.64157ZM2.18519 8.91239L1.78643 8.88042L1.78607 8.88585L2.18519 8.91239ZM2.14783 9.47428L1.74858 9.44773L1.74817 9.45769L2.14783 9.47428ZM2.12336 10.0636L1.72368 10.047L1.72354 10.0515L2.12336 10.0636ZM2.10986 11H1.70986L1.70987 11.0019L2.10986 11ZM2.11134 11.3192L1.71134 11.3211L1.71136 11.323L2.11134 11.3192ZM2.12336 11.9364L1.72352 11.9485L1.72371 11.953L2.12336 11.9364ZM2.14783 12.5257L1.74805 12.5423L1.74871 12.5523L2.14783 12.5257ZM2.18519 13.0876L1.78603 13.1141L1.78647 13.1196L2.18519 13.0876ZM2.20885 13.3584L1.81059 13.3962L1.81126 13.4023L2.20885 13.3584ZM2.2664 13.8801L1.86876 13.924L1.86958 13.9305L2.2664 13.8801ZM17.7354 13.8803L18.1322 13.9306L18.133 13.9242L17.7354 13.8803ZM17.7929 13.3586L18.1907 13.4024L18.1916 13.3905L17.7929 13.3586ZM17.8369 12.8102L18.2356 12.8421L18.236 12.8367L17.8369 12.8102ZM17.8539 12.5258L18.2534 12.5472L18.2536 12.5424L17.8539 12.5258ZM17.8784 11.9365L18.278 11.9531L18.2782 11.9485L17.8784 11.9365ZM17.8919 11H18.2919L18.2919 10.9981L17.8919 11ZM17.8904 10.6808L18.2904 10.6789L18.2904 10.677L17.8904 10.6808ZM17.8784 10.0635L18.2782 10.0515L18.278 10.0469L17.8784 10.0635ZM17.8539 9.47418L18.2536 9.4576L18.2533 9.45279L17.8539 9.47418ZM17.8369 9.18983L18.236 9.16331L18.2356 9.15787L17.8369 9.18983ZM17.7929 8.64144L18.1918 8.60946L18.1905 8.59759L17.7929 8.64144ZM10.0009 0.85C6.67552 0.85 4.30785 1.49037 2.79196 3.15453C1.28584 4.80796 0.709863 7.37763 0.709863 11H1.50986C1.50986 7.41942 2.08912 5.1141 3.38338 3.69326C4.66785 2.28315 6.74568 1.65 10.0009 1.65V0.85ZM19.2919 11C19.2919 7.37744 18.716 4.80775 17.21 3.15437C15.6942 1.49025 13.3265 0.85 10.0009 0.85V1.65C13.2564 1.65 15.3342 2.28306 16.6186 3.69309C17.9127 5.11387 18.4919 7.41918 18.4919 11H19.2919ZM19.2902 11.3363L19.2919 11.002L18.4919 10.998L18.4902 11.3322L19.2902 11.3363ZM10.0009 21.15C13.2745 21.15 15.62 20.5297 17.1388 18.9224C18.6505 17.3225 19.2541 14.8366 19.2901 11.3384L18.4902 11.3301C18.4547 14.78 17.8528 17.002 16.5573 18.3729C15.2689 19.7364 13.2056 20.35 10.0009 20.35V21.15ZM0.709863 11C0.709863 14.6224 1.28584 17.192 2.79196 18.8455C4.30785 20.5096 6.67552 21.15 10.0009 21.15V20.35C6.74568 20.35 4.66785 19.7168 3.38338 18.3067C2.08912 16.8859 1.50986 14.5806 1.50986 11H0.709863ZM10.0009 2.65C12.4971 2.65 14.1817 3.01589 15.309 3.85308C16.4192 4.67748 17.0658 6.01877 17.3385 8.17L18.1322 8.06939C17.8461 5.81289 17.1441 4.21932 15.786 3.21081C14.4451 2.21509 12.5418 1.85 10.0009 1.85V2.65ZM9.71576 2.65163L10.0031 2.64999L9.99859 1.85001L9.71122 1.85164L9.71576 2.65163ZM2.66322 8.17017C2.93082 6.05996 3.55833 4.72961 4.62857 3.902C5.71269 3.06365 7.32815 2.67916 9.7181 2.65161L9.70888 1.85166C7.2678 1.8798 5.43381 2.26801 4.13918 3.26915C2.83068 4.28101 2.15016 5.85692 1.86958 8.06953L2.66322 8.17017ZM2.60644 8.68543L2.66399 8.16371L1.86881 8.07599L1.81126 8.59771L2.60644 8.68543ZM2.58391 8.94436C2.59109 8.85483 2.5988 8.76649 2.60706 8.67931L1.81063 8.60384C1.802 8.69497 1.79395 8.78717 1.78647 8.88043L2.58391 8.94436ZM2.54694 9.50082L2.58431 8.93893L1.78607 8.88585L1.74871 9.44774L2.54694 9.50082ZM2.52302 10.0802L2.54748 9.49087L1.74817 9.45769L1.72371 10.047L2.52302 10.0802ZM2.50986 11C2.50986 10.6808 2.51423 10.3728 2.52318 10.0756L1.72354 10.0515C1.71433 10.3575 1.70986 10.6736 1.70986 11H2.50986ZM2.51134 11.3174L2.50986 10.9981L1.70987 11.0019L1.71135 11.3211L2.51134 11.3174ZM2.52318 11.9244C2.51721 11.7263 2.51328 11.5233 2.51133 11.3155L1.71136 11.323C1.71337 11.536 1.7174 11.7445 1.72354 11.9485L2.52318 11.9244ZM2.54748 12.5091L2.52302 11.9198L1.72371 11.953L1.74817 12.5423L2.54748 12.5091ZM2.58431 13.0611L2.54694 12.4992L1.74871 12.5523L1.78607 13.1141L2.58431 13.0611ZM2.60706 13.3207C2.5988 13.2335 2.59109 13.1452 2.58391 13.0556L1.78647 13.1196C1.79395 13.2128 1.802 13.305 1.81063 13.3962L2.60706 13.3207ZM2.66399 13.8363L2.60644 13.3146L1.81126 13.4023L1.86881 13.924L2.66399 13.8363ZM10.0009 19.35C7.50488 19.35 5.82037 18.984 4.69294 18.1468C3.58273 17.3223 2.93601 15.981 2.66322 13.8298L1.86958 13.9305C2.15571 16.1869 2.85787 17.7805 4.21598 18.789C5.55686 19.7848 7.46013 20.15 10.0009 20.15V19.35ZM17.3385 13.83C17.0658 15.9812 16.4192 17.3225 15.309 18.1469C14.1817 18.9841 12.4971 19.35 10.0009 19.35V20.15C12.5418 20.15 14.4451 19.7849 15.786 18.7892C17.1441 17.7807 17.8461 16.1871 18.1322 13.9306L17.3385 13.83ZM17.3953 13.3147L17.3378 13.8365L18.133 13.9242L18.1905 13.4024L17.3953 13.3147ZM17.4382 12.7782L17.3942 13.3266L18.1916 13.3905L18.2356 12.8421L17.4382 12.7782ZM17.4545 12.5044C17.4494 12.5987 17.4439 12.6918 17.4378 12.7836L18.236 12.8367C18.2423 12.7413 18.2481 12.6448 18.2533 12.5472L17.4545 12.5044ZM17.4787 11.9199L17.4543 12.5092L18.2536 12.5424L18.278 11.9531L17.4787 11.9199ZM17.4919 11C17.4919 11.3192 17.4875 11.6272 17.4785 11.9245L18.2782 11.9485C18.2874 11.6426 18.2919 11.3265 18.2919 11H17.4919ZM17.4904 10.6826L17.4919 11.0019L18.2919 10.9981L18.2904 10.6789L17.4904 10.6826ZM17.4785 10.0755C17.4845 10.2737 17.4884 10.4766 17.4904 10.6845L18.2904 10.677C18.2884 10.4639 18.2843 10.2555 18.2782 10.0515L17.4785 10.0755ZM17.4543 9.49077L17.4787 10.0801L18.278 10.0469L18.2536 9.4576L17.4543 9.49077ZM17.4378 9.21636C17.4439 9.30825 17.4494 9.40132 17.4545 9.49558L18.2533 9.45279C18.2481 9.35521 18.2423 9.25872 18.236 9.16331L17.4378 9.21636ZM17.3942 8.67341L17.4382 9.2218L18.2356 9.15787L18.1916 8.60947L17.3942 8.67341ZM17.3378 8.16355L17.3953 8.68529L18.1905 8.59759L18.133 8.07585L17.3378 8.16355Z" fill="#1AA99C" mask="url(#path-2-outside-1_17_2802)"/>
</g>
</g>
<path id="Stroke 1" d="M13.5955 13.9473C14.0097 13.9473 14.3455 14.2831 14.3455 14.6973C14.3455 15.077 14.0633 15.3908 13.6973 15.4404L13.5955 15.4473H6.37549C5.96127 15.4473 5.62549 15.1115 5.62549 14.6973C5.62549 14.3176 5.90764 14.0038 6.27372 13.9541L6.37549 13.9473H13.5955Z" fill="white"/>
<path id="Stroke 2" d="M13.5955 10.1855C14.0097 10.1855 14.3455 10.5213 14.3455 10.9355C14.3455 11.3152 14.0633 11.629 13.6973 11.6787L13.5955 11.6855H6.37549C5.96127 11.6855 5.62549 11.3498 5.62549 10.9355C5.62549 10.5559 5.90764 10.2421 6.27372 10.1924L6.37549 10.1855H13.5955Z" fill="white"/>
<path id="Stroke 3" d="M9.13098 6.42773C9.54519 6.42773 9.88098 6.76352 9.88098 7.17773C9.88098 7.55743 9.59882 7.87123 9.23275 7.92089L9.13098 7.92773H6.37598C5.96176 7.92773 5.62598 7.59195 5.62598 7.17773C5.62598 6.79804 5.90813 6.48424 6.27421 6.43458L6.37598 6.42773H9.13098Z" fill="white"/>
</g>
</svg>
