<svg width="70" height="70" viewBox="0 0 70 70" fill="none" xmlns="http://www.w3.org/2000/svg">
<circle cx="35" cy="35" r="35" fill="white"/>
<path fill-rule="evenodd" clip-rule="evenodd" d="M35 0C15.67 0 0 15.67 0 35C0 54.33 15.67 70 35 70C54.33 70 70 54.33 70 35C70 15.67 54.33 0 35 0ZM34.9995 52.5C33.7914 52.5 32.812 51.5206 32.812 50.3125L32.812 24.9681L23.4233 34.3613C22.5679 35.2166 21.1811 35.2166 20.3258 34.3613C19.4704 33.5059 19.4704 32.1191 20.3258 31.2638L33.4508 18.1388C33.8612 17.7273 34.4184 17.4961 34.9995 17.4961C35.5806 17.4961 36.1379 17.7273 36.5483 18.1388L49.6733 31.2638C50.5286 32.1191 50.5286 33.5059 49.6733 34.3613C48.8179 35.2166 47.4311 35.2166 46.5758 34.3613L37.187 24.9681L37.187 50.3125C37.187 51.5206 36.2076 52.5 34.9995 52.5Z" fill="#1AA99C"/>
</svg>
